<svg xmlns="http://www.w3.org/2000/svg" xmlns:xlink="http://www.w3.org/1999/xlink" width="1920" zoomAndPan="magnify" viewBox="0 0 1440 809.999993" height="1080" preserveAspectRatio="xMidYMid meet" version="1.0"><defs><clipPath id="3ab6f38f2e"><path d="M 591 624 L 887 624 L 887 654.574219 L 591 654.574219 Z M 591 624 " clip-rule="nonzero"/></clipPath><clipPath id="815ff12d00"><path d="M 261.324219 642 L 273 642 L 273 654 L 261.324219 654 Z M 261.324219 642 " clip-rule="nonzero"/></clipPath><clipPath id="65a1f0626b"><path d="M 505 605 L 609 605 L 609 654.574219 L 505 654.574219 Z M 505 605 " clip-rule="nonzero"/></clipPath><clipPath id="fc57a7d6f8"><path d="M 1089 544 L 1170 544 L 1170 654.574219 L 1089 654.574219 Z M 1089 544 " clip-rule="nonzero"/></clipPath><clipPath id="e7f24884d0"><path d="M 1113 583 L 1143 583 L 1143 654.574219 L 1113 654.574219 Z M 1113 583 " clip-rule="nonzero"/></clipPath><clipPath id="3d48d22db3"><path d="M 1067 443 L 1154 443 L 1154 654.574219 L 1067 654.574219 Z M 1067 443 " clip-rule="nonzero"/></clipPath><clipPath id="28295e5336"><path d="M 1029 652 L 1076 652 L 1076 654.574219 L 1029 654.574219 Z M 1029 652 " clip-rule="nonzero"/></clipPath></defs><path fill="#ffffff" d="M 578.511719 69.789062 L 550.574219 303.832031 L 464.261719 293.535156 L 492.195312 59.488281 L 578.511719 69.789062 " fill-opacity="1" fill-rule="nonzero"/><path fill="#000000" d="M 465.070312 292.898438 L 549.9375 303.019531 L 577.699219 70.425781 L 492.835938 60.300781 Z M 550.574219 304.5625 L 550.488281 304.554688 L 464.175781 294.257812 C 463.773438 294.210938 463.488281 293.847656 463.535156 293.449219 L 491.472656 59.40625 C 491.519531 59.003906 491.882812 58.71875 492.28125 58.765625 L 578.597656 69.0625 C 578.789062 69.085938 578.964844 69.183594 579.082031 69.335938 C 579.203125 69.488281 579.253906 69.683594 579.234375 69.875 L 551.296875 303.917969 C 551.277344 304.109375 551.175781 304.285156 551.023438 304.402344 C 550.894531 304.507812 550.734375 304.5625 550.574219 304.5625 " fill-opacity="1" fill-rule="nonzero"/><path fill="#000000" d="M 546.972656 228.472656 L 539.632812 289.929688 L 478.164062 282.597656 L 485.5 221.140625 L 546.972656 228.472656 " fill-opacity="1" fill-rule="nonzero"/><path fill="#000000" d="M 555.789062 154.597656 L 548.453125 216.054688 L 486.980469 208.722656 L 494.316406 147.265625 L 555.789062 154.597656 " fill-opacity="1" fill-rule="nonzero"/><path fill="#000000" d="M 564.605469 80.726562 L 557.269531 142.179688 L 495.796875 134.847656 L 503.136719 73.390625 L 564.605469 80.726562 " fill-opacity="1" fill-rule="nonzero"/><path fill="#ffffff" d="M 464.332031 51.316406 L 543.125 273.46875 L 461.195312 302.515625 L 382.402344 80.363281 L 464.332031 51.316406 " fill-opacity="1" fill-rule="nonzero"/><path fill="#000000" d="M 383.332031 80.804688 L 461.636719 301.585938 L 542.191406 273.027344 L 463.886719 52.25 Z M 461.195312 303.242188 C 461.085938 303.242188 460.980469 303.21875 460.882812 303.171875 C 460.707031 303.089844 460.570312 302.9375 460.507812 302.753906 L 381.714844 80.605469 C 381.578125 80.226562 381.777344 79.808594 382.160156 79.675781 L 464.085938 50.632812 C 464.269531 50.566406 464.46875 50.578125 464.644531 50.664062 C 464.816406 50.746094 464.953125 50.894531 465.015625 51.078125 L 543.808594 273.226562 C 543.945312 273.605469 543.746094 274.023438 543.367188 274.15625 L 461.4375 303.199219 C 461.359375 303.230469 461.277344 303.242188 461.195312 303.242188 " fill-opacity="1" fill-rule="nonzero"/><path fill="#5479f7" d="M 506.460938 207.527344 L 527.152344 265.863281 L 468.804688 286.546875 L 448.113281 228.214844 L 506.460938 207.527344 " fill-opacity="1" fill-rule="nonzero"/><path fill="#5479f7" d="M 481.589844 137.40625 L 502.28125 195.742188 L 443.933594 216.425781 L 423.242188 158.089844 L 481.589844 137.40625 " fill-opacity="1" fill-rule="nonzero"/><path fill="#5479f7" d="M 456.71875 67.285156 L 477.410156 125.621094 L 419.0625 146.304688 L 398.375 87.972656 L 456.71875 67.285156 " fill-opacity="1" fill-rule="nonzero"/><path fill="#ffffff" d="M 359.417969 105.777344 L 535.375 262.65625 L 477.523438 327.519531 L 301.5625 170.644531 L 359.417969 105.777344 " fill-opacity="1" fill-rule="nonzero"/><path fill="#000000" d="M 302.589844 170.582031 L 477.464844 326.488281 L 534.347656 262.714844 L 359.472656 106.808594 Z M 477.523438 328.246094 C 477.34375 328.246094 477.171875 328.179688 477.035156 328.0625 L 301.078125 171.183594 C 300.777344 170.921875 300.75 170.457031 301.015625 170.15625 L 358.871094 105.296875 C 359 105.152344 359.179688 105.066406 359.375 105.054688 C 359.570312 105.046875 359.757812 105.105469 359.902344 105.238281 L 535.863281 262.109375 C 536.160156 262.375 536.1875 262.839844 535.917969 263.140625 L 478.066406 328 C 477.9375 328.148438 477.757812 328.234375 477.5625 328.242188 L 477.523438 328.246094 " fill-opacity="1" fill-rule="nonzero"/><path fill="#e2eaff" d="M 471.511719 222.46875 L 517.714844 263.664062 L 476.511719 309.859375 L 430.308594 268.664062 L 471.511719 222.46875 " fill-opacity="1" fill-rule="nonzero"/><path fill="#e2eaff" d="M 415.96875 172.953125 L 462.171875 214.148438 L 420.96875 260.339844 L 374.765625 219.148438 L 415.96875 172.953125 " fill-opacity="1" fill-rule="nonzero"/><path fill="#e2eaff" d="M 360.425781 123.441406 L 406.632812 164.632812 L 365.429688 210.828125 L 319.222656 169.632812 L 360.425781 123.441406 " fill-opacity="1" fill-rule="nonzero"/><path fill="#ffffff" d="M 1015.332031 568.574219 L 462.839844 568.574219 C 450 568.574219 439.589844 558.164062 439.589844 545.328125 L 439.589844 182.050781 C 439.589844 169.214844 444.90625 158.804688 462.839844 158.804688 L 1015.332031 158.804688 C 1028.171875 158.804688 1038.582031 169.214844 1038.582031 182.050781 L 1038.582031 545.328125 C 1038.582031 558.164062 1028.171875 568.574219 1015.332031 568.574219 " fill-opacity="1" fill-rule="nonzero"/><path fill="#e2eaff" d="M 1038.582031 195.027344 L 1038.582031 178.84375 C 1038.582031 167.777344 1029.601562 158.804688 1018.523438 158.804688 L 459.648438 158.804688 C 448.570312 158.804688 439.589844 167.777344 439.589844 178.84375 L 439.589844 195.027344 L 1038.582031 195.027344 " fill-opacity="1" fill-rule="nonzero"/><path fill="#000000" d="M 465.625 171.53125 C 462.21875 171.53125 459.449219 174.300781 459.449219 177.703125 C 459.449219 181.101562 462.21875 183.871094 465.625 183.871094 C 469.03125 183.871094 471.800781 181.101562 471.800781 177.703125 C 471.800781 174.300781 469.03125 171.53125 465.625 171.53125 Z M 465.625 185.328125 C 461.417969 185.328125 457.992188 181.90625 457.992188 177.703125 C 457.992188 173.496094 461.417969 170.078125 465.625 170.078125 C 469.835938 170.078125 473.261719 173.496094 473.261719 177.703125 C 473.261719 181.90625 469.835938 185.328125 465.625 185.328125 " fill-opacity="1" fill-rule="nonzero"/><path fill="#000000" d="M 485.777344 171.53125 C 482.371094 171.53125 479.601562 174.300781 479.601562 177.703125 C 479.601562 181.101562 482.371094 183.871094 485.777344 183.871094 C 489.179688 183.871094 491.953125 181.101562 491.953125 177.703125 C 491.953125 174.300781 489.179688 171.53125 485.777344 171.53125 Z M 485.777344 185.328125 C 481.566406 185.328125 478.144531 181.90625 478.144531 177.703125 C 478.144531 173.496094 481.566406 170.078125 485.777344 170.078125 C 489.984375 170.078125 493.410156 173.496094 493.410156 177.703125 C 493.410156 181.90625 489.984375 185.328125 485.777344 185.328125 " fill-opacity="1" fill-rule="nonzero"/><path fill="#000000" d="M 505.925781 171.53125 C 502.523438 171.53125 499.753906 174.300781 499.753906 177.703125 C 499.753906 181.101562 502.523438 183.871094 505.925781 183.871094 C 509.335938 183.871094 512.105469 181.101562 512.105469 177.703125 C 512.105469 174.300781 509.335938 171.53125 505.925781 171.53125 Z M 505.925781 185.328125 C 501.71875 185.328125 498.296875 181.90625 498.296875 177.703125 C 498.296875 173.496094 501.71875 170.078125 505.925781 170.078125 C 510.140625 170.078125 513.5625 173.496094 513.5625 177.703125 C 513.5625 181.90625 510.140625 185.328125 505.925781 185.328125 " fill-opacity="1" fill-rule="nonzero"/><path fill="#ffffff" d="M 871.957031 624.867188 L 606.21875 624.867188 C 598.429688 624.867188 592.113281 631.171875 592.113281 638.953125 C 592.113281 646.730469 598.429688 653.039062 606.21875 653.039062 L 871.957031 653.039062 C 879.742188 653.039062 886.058594 646.730469 886.058594 638.953125 C 886.058594 631.171875 879.742188 624.867188 871.957031 624.867188 " fill-opacity="1" fill-rule="nonzero"/><g clip-path="url(#3ab6f38f2e)"><path fill="#000000" d="M 871.960938 654.210938 L 606.21875 654.210938 C 598.039062 654.210938 591.386719 647.566406 591.386719 639.398438 C 591.386719 631.230469 598.039062 624.585938 606.21875 624.585938 L 620.503906 624.585938 C 620.910156 624.585938 621.234375 624.910156 621.234375 625.3125 C 621.234375 625.714844 620.910156 626.042969 620.503906 626.042969 L 606.21875 626.042969 C 598.84375 626.042969 592.84375 632.03125 592.84375 639.398438 C 592.84375 646.761719 598.84375 652.757812 606.21875 652.757812 L 871.960938 652.757812 C 879.328125 652.757812 885.332031 646.761719 885.332031 639.398438 C 885.332031 632.03125 879.328125 626.042969 871.960938 626.042969 L 856.429688 626.042969 C 856.027344 626.042969 855.699219 625.714844 855.699219 625.3125 C 855.699219 624.910156 856.027344 624.585938 856.429688 624.585938 L 871.960938 624.585938 C 880.132812 624.585938 886.785156 631.230469 886.785156 639.398438 C 886.785156 647.566406 880.132812 654.210938 871.960938 654.210938 " fill-opacity="1" fill-rule="nonzero"/></g><path fill="#ffffff" d="M 640.589844 624.910156 L 640.589844 568.574219 L 837.585938 568.574219 L 837.585938 624.910156 L 640.589844 624.910156 " fill-opacity="1" fill-rule="nonzero"/><path fill="#000000" d="M 837.585938 625.640625 C 837.179688 625.640625 836.855469 625.316406 836.855469 624.910156 L 836.855469 569.300781 L 641.316406 569.300781 L 641.316406 624.910156 C 641.316406 625.316406 640.992188 625.640625 640.589844 625.640625 C 640.1875 625.640625 639.859375 625.316406 639.859375 624.910156 L 639.859375 568.574219 C 639.859375 568.167969 640.1875 567.84375 640.589844 567.84375 L 837.585938 567.84375 C 837.988281 567.84375 838.3125 568.167969 838.3125 568.574219 L 838.3125 624.910156 C 838.3125 625.316406 837.988281 625.640625 837.585938 625.640625 " fill-opacity="1" fill-rule="nonzero"/><path fill="#000000" d="M 462.839844 159.535156 C 447.683594 159.535156 440.320312 166.898438 440.320312 182.050781 L 440.320312 545.328125 C 440.320312 557.742188 450.421875 567.84375 462.839844 567.84375 L 1015.332031 567.84375 C 1027.75 567.84375 1037.855469 557.742188 1037.855469 545.328125 L 1037.855469 182.050781 C 1037.855469 169.632812 1027.75 159.535156 1015.332031 159.535156 Z M 1015.332031 569.300781 L 462.839844 569.300781 C 449.617188 569.300781 438.863281 558.546875 438.863281 545.328125 L 438.863281 182.050781 C 438.863281 166.140625 446.929688 158.078125 462.839844 158.078125 L 1015.332031 158.078125 C 1028.558594 158.078125 1039.3125 168.832031 1039.3125 182.050781 L 1039.3125 545.328125 C 1039.3125 558.546875 1028.558594 569.300781 1015.332031 569.300781 " fill-opacity="1" fill-rule="nonzero"/><path fill="#e2eaff" d="M 984.839844 347.347656 L 485.777344 347.347656 L 485.777344 244.117188 L 984.839844 244.117188 L 984.839844 347.347656 " fill-opacity="1" fill-rule="nonzero"/><path fill="#e2eaff" d="M 984.839844 497.328125 L 485.777344 497.328125 L 485.777344 394.097656 L 984.839844 394.097656 L 984.839844 497.328125 " fill-opacity="1" fill-rule="nonzero"/><path fill="#5479f7" d="M 1072.367188 549.082031 C 1072.367188 572.300781 1053.542969 591.117188 1030.320312 591.117188 C 1007.097656 591.117188 988.273438 572.300781 988.273438 549.082031 C 988.273438 525.863281 1007.097656 507.046875 1030.320312 507.046875 C 1053.542969 507.046875 1072.367188 525.863281 1072.367188 549.082031 " fill-opacity="1" fill-rule="nonzero"/><path fill="#ffffff" d="M 1016.769531 564.125 C 1016.570312 564.125 1016.371094 564.046875 1016.230469 563.890625 L 1003.167969 549.574219 C 1002.917969 549.292969 1002.917969 548.871094 1003.167969 548.59375 L 1016.230469 534.277344 C 1016.5 533.976562 1016.960938 533.953125 1017.257812 534.226562 C 1017.558594 534.496094 1017.578125 534.960938 1017.304688 535.257812 L 1004.695312 549.082031 L 1017.304688 562.910156 C 1017.578125 563.207031 1017.558594 563.667969 1017.257812 563.9375 C 1017.121094 564.0625 1016.941406 564.125 1016.769531 564.125 " fill-opacity="1" fill-rule="nonzero"/><path fill="#ffffff" d="M 1043.871094 564.125 C 1043.699219 564.125 1043.523438 564.0625 1043.382812 563.9375 C 1043.085938 563.667969 1043.0625 563.207031 1043.332031 562.910156 L 1055.945312 549.082031 L 1043.332031 535.257812 C 1043.0625 534.960938 1043.085938 534.496094 1043.382812 534.226562 C 1043.679688 533.953125 1044.140625 533.976562 1044.414062 534.277344 L 1057.46875 548.59375 C 1057.722656 548.871094 1057.722656 549.292969 1057.46875 549.574219 L 1044.414062 563.890625 C 1044.269531 564.046875 1044.070312 564.125 1043.871094 564.125 " fill-opacity="1" fill-rule="nonzero"/><path fill="#ffffff" d="M 1022.773438 569.257812 C 1022.683594 569.257812 1022.59375 569.242188 1022.507812 569.207031 C 1022.132812 569.0625 1021.945312 568.640625 1022.089844 568.265625 L 1037.191406 529.375 C 1037.335938 528.996094 1037.757812 528.8125 1038.132812 528.957031 C 1038.507812 529.101562 1038.691406 529.527344 1038.546875 529.898438 L 1023.453125 568.789062 C 1023.339844 569.082031 1023.066406 569.257812 1022.773438 569.257812 " fill-opacity="1" fill-rule="nonzero"/><path fill="#ffffff" d="M 437.074219 488.886719 C 437.074219 530.878906 403.023438 564.917969 361.023438 564.917969 C 319.023438 564.917969 284.972656 530.878906 284.972656 488.886719 C 284.972656 446.894531 319.023438 412.851562 361.023438 412.851562 C 403.023438 412.851562 437.074219 446.894531 437.074219 488.886719 " fill-opacity="1" fill-rule="nonzero"/><path fill="#000000" d="M 361.023438 413.585938 C 319.492188 413.585938 285.703125 447.367188 285.703125 488.886719 C 285.703125 530.410156 319.492188 564.191406 361.023438 564.191406 C 402.554688 564.191406 436.347656 530.410156 436.347656 488.886719 C 436.347656 447.367188 402.554688 413.585938 361.023438 413.585938 Z M 361.023438 565.648438 C 318.6875 565.648438 284.246094 531.210938 284.246094 488.886719 C 284.246094 446.5625 318.6875 412.125 361.023438 412.125 C 403.359375 412.125 437.800781 446.5625 437.800781 488.886719 C 437.800781 531.210938 403.359375 565.648438 361.023438 565.648438 " fill-opacity="1" fill-rule="nonzero"/><path fill="#000000" d="M 364.890625 537.507812 L 364.839844 537.507812 C 329.253906 534.929688 320.867188 517.074219 320.527344 516.3125 C 320.363281 515.949219 320.527344 515.519531 320.894531 515.355469 C 321.261719 515.1875 321.691406 515.351562 321.855469 515.71875 C 321.9375 515.898438 330.304688 533.546875 364.941406 536.054688 C 365.34375 536.085938 365.644531 536.433594 365.617188 536.835938 C 365.589844 537.21875 365.269531 537.507812 364.890625 537.507812 " fill-opacity="1" fill-rule="nonzero"/><path fill="#000000" d="M 269.554688 642.027344 C 269.457031 642.027344 269.355469 642.003906 269.253906 641.960938 C 268.890625 641.796875 268.726562 641.363281 268.894531 640.996094 L 311.632812 546.960938 C 311.796875 546.59375 312.230469 546.433594 312.597656 546.597656 C 312.960938 546.765625 313.125 547.195312 312.957031 547.566406 L 270.21875 641.601562 C 270.097656 641.867188 269.832031 642.027344 269.554688 642.027344 " fill-opacity="1" fill-rule="nonzero"/><g clip-path="url(#815ff12d00)"><path fill="#000000" d="M 272.425781 648.382812 C 272.425781 651.398438 269.976562 653.847656 266.957031 653.847656 C 263.933594 653.847656 261.488281 651.398438 261.488281 648.382812 C 261.488281 645.359375 263.933594 642.910156 266.957031 642.910156 C 269.976562 642.910156 272.425781 645.359375 272.425781 648.382812 " fill-opacity="1" fill-rule="nonzero"/></g><path fill="#000000" d="M 460.316406 648.382812 C 460.316406 651.398438 457.867188 653.847656 454.847656 653.847656 C 451.828125 653.847656 449.378906 651.398438 449.378906 648.382812 C 449.378906 645.359375 451.828125 642.910156 454.847656 642.910156 C 457.867188 642.910156 460.316406 645.359375 460.316406 648.382812 " fill-opacity="1" fill-rule="nonzero"/><path fill="#000000" d="M 452.492188 642.027344 C 452.214844 642.027344 451.949219 641.867188 451.828125 641.601562 L 409.089844 547.566406 C 408.925781 547.195312 409.085938 546.765625 409.453125 546.597656 C 409.816406 546.429688 410.25 546.59375 410.417969 546.960938 L 453.15625 640.996094 C 453.320312 641.363281 453.160156 641.796875 452.792969 641.960938 C 452.695312 642.003906 452.59375 642.027344 452.492188 642.027344 " fill-opacity="1" fill-rule="nonzero"/><path fill="#ffffff" d="M 459.1875 511.679688 C 451.609375 520.761719 444.035156 529.84375 436.457031 538.925781 C 432.253906 544.195312 431.65625 551.496094 434.992188 557.351562 C 444.195312 573.488281 463.695312 599.324219 473.691406 612.269531 C 476.167969 615.476562 481.257812 614.371094 482.179688 610.425781 L 487.4375 588.023438 C 489.949219 583.78125 492.464844 579.539062 494.972656 575.296875 C 483.046875 554.089844 471.117188 532.886719 459.1875 511.679688 " fill-opacity="1" fill-rule="nonzero"/><path fill="#000000" d="M 459.070312 512.960938 L 437.019531 539.390625 C 432.972656 544.460938 432.421875 551.375 435.625 556.992188 C 444.707031 572.917969 463.734375 598.183594 474.269531 611.824219 C 475.253906 613.101562 476.785156 613.65625 478.363281 613.316406 C 479.9375 612.976562 481.101562 611.832031 481.46875 610.261719 L 486.726562 587.855469 C 486.746094 587.785156 486.769531 587.714844 486.808594 587.648438 L 494.132812 575.285156 Z M 477.472656 614.871094 C 475.78125 614.871094 474.183594 614.097656 473.113281 612.714844 C 462.558594 599.042969 443.484375 573.71875 434.359375 557.710938 C 430.863281 551.574219 431.460938 544.023438 435.886719 538.46875 L 458.628906 511.214844 C 458.78125 511.03125 459.015625 510.933594 459.253906 510.957031 C 459.492188 510.976562 459.707031 511.113281 459.824219 511.324219 L 495.609375 574.9375 C 495.738281 575.167969 495.734375 575.445312 495.601562 575.671875 L 488.121094 588.296875 L 482.890625 610.59375 C 482.398438 612.695312 480.78125 614.285156 478.671875 614.742188 C 478.269531 614.828125 477.871094 614.871094 477.472656 614.871094 " fill-opacity="1" fill-rule="nonzero"/><path fill="#000000" d="M 482.648438 587.335938 C 482.445312 587.335938 482.25 587.257812 482.105469 587.097656 C 467.109375 570.335938 455.269531 551.246094 446.917969 530.367188 C 446.769531 529.996094 446.949219 529.570312 447.324219 529.421875 C 447.699219 529.269531 448.121094 529.453125 448.273438 529.832031 C 456.558594 550.546875 468.308594 569.488281 483.191406 586.125 C 483.460938 586.425781 483.433594 586.882812 483.136719 587.152344 C 482.996094 587.277344 482.820312 587.335938 482.648438 587.335938 " fill-opacity="1" fill-rule="nonzero"/><path fill="#ffffff" d="M 577.429688 605.785156 L 505.96875 605.785156 L 515.015625 629.097656 C 520.085938 638.082031 529.09375 644.15625 539.328125 645.5 L 602.699219 653.804688 C 606.84375 654.347656 609.511719 649.558594 606.875 646.320312 C 599.082031 636.753906 586.59375 622.382812 577.429688 605.785156 " fill-opacity="1" fill-rule="nonzero"/><g clip-path="url(#65a1f0626b)"><path fill="#000000" d="M 515.671875 628.785156 C 520.613281 637.5 529.488281 643.476562 539.421875 644.777344 L 602.796875 653.082031 C 604.722656 653.339844 606.074219 652.238281 606.695312 651.125 C 607.316406 650.015625 607.539062 648.292969 606.308594 646.78125 C 605.332031 645.578125 604.28125 644.304688 603.167969 642.957031 C 595.5 633.652344 585.019531 620.933594 577 606.515625 L 507.03125 606.515625 Z M 603.339844 654.574219 C 603.101562 654.574219 602.851562 654.558594 602.605469 654.527344 L 539.234375 646.222656 C 528.824219 644.859375 519.539062 638.59375 514.378906 629.457031 C 514.363281 629.425781 514.347656 629.394531 514.332031 629.359375 L 505.289062 606.050781 C 505.203125 605.828125 505.230469 605.574219 505.367188 605.375 C 505.503906 605.179688 505.730469 605.058594 505.96875 605.058594 L 577.429688 605.058594 C 577.695312 605.058594 577.9375 605.203125 578.066406 605.4375 C 586.046875 619.890625 596.59375 632.683594 604.296875 642.03125 C 605.40625 643.378906 606.460938 644.660156 607.441406 645.859375 C 608.851562 647.597656 609.054688 649.886719 607.964844 651.835938 C 606.996094 653.570312 605.269531 654.574219 603.339844 654.574219 " fill-opacity="1" fill-rule="nonzero"/></g><path fill="#5479f7" d="M 510.910156 427.800781 L 436.375 438.132812 L 381.1875 437.875 C 371.808594 471.316406 480.269531 483.976562 480.269531 483.976562 C 469.523438 496.226562 458.785156 508.480469 448.042969 520.730469 C 455.210938 524.144531 465.65625 530.179688 475.796875 540.492188 C 488.097656 553.003906 494.316406 566.089844 497.390625 574.089844 C 514.503906 544.257812 531.609375 514.429688 548.714844 484.597656 C 564.882812 457.3125 542.335938 423.445312 510.910156 427.800781 " fill-opacity="1" fill-rule="nonzero"/><path fill="#5479f7" d="M 589.039062 614.144531 C 570.417969 581.820312 547.003906 538.535156 532.480469 505.753906 C 520.101562 477.828125 492.117188 460.109375 461.566406 460.878906 L 403.308594 462.34375 L 404.195312 432.269531 L 399.316406 431.378906 L 322.695312 445.480469 C 305.0625 515.605469 364.9375 519.570312 364.9375 519.570312 C 366.628906 519.675781 456.742188 525.902344 456.742188 525.902344 C 472.582031 555.519531 488.429688 585.140625 504.269531 614.761719 C 531.507812 614.710938 561.800781 614.195312 589.039062 614.144531 " fill-opacity="1" fill-rule="nonzero"/><path fill="#000000" d="M 533.972656 509.824219 C 533.695312 509.824219 533.429688 509.667969 533.308594 509.394531 C 532.800781 508.269531 532.300781 507.152344 531.808594 506.050781 C 522.273438 484.527344 502.871094 468.585938 479.914062 463.410156 C 479.519531 463.320312 479.273438 462.929688 479.363281 462.539062 C 479.449219 462.148438 479.839844 461.902344 480.234375 461.988281 C 503.640625 467.265625 523.421875 483.515625 533.144531 505.457031 C 533.632812 506.558594 534.128906 507.671875 534.636719 508.796875 C 534.800781 509.164062 534.636719 509.59375 534.273438 509.757812 C 534.175781 509.804688 534.074219 509.824219 533.972656 509.824219 " fill-opacity="1" fill-rule="nonzero"/><path fill="#000000" d="M 585.605469 632.25 C 574.492188 632.25 548.109375 630.785156 511.132812 619.398438 C 510.75 619.28125 510.535156 618.871094 510.65625 618.484375 C 510.773438 618.101562 511.179688 617.882812 511.5625 618.003906 C 560.765625 633.15625 591.027344 630.652344 591.328125 630.625 C 591.730469 630.59375 592.082031 630.882812 592.117188 631.28125 C 592.152344 631.683594 591.859375 632.039062 591.457031 632.074219 C 591.378906 632.082031 589.367188 632.25 585.605469 632.25 " fill-opacity="1" fill-rule="nonzero"/><path fill="#ffffff" d="M 438.203125 363.21875 L 452.421875 350.03125 L 480.007812 347.726562 C 480.007812 347.726562 496.847656 315.347656 501.226562 306.199219 C 505.601562 297.046875 510.160156 286.402344 518.222656 290.410156 C 518.222656 290.410156 525.875 287.355469 528.566406 294.351562 C 528.566406 294.351562 532.984375 293.496094 537.425781 299.523438 C 541.867188 305.546875 541.300781 309.011719 539.042969 311.199219 C 536.78125 313.390625 530.007812 306.789062 530.007812 306.789062 L 526.5625 310.597656 C 525.691406 311.5625 525.476562 312.964844 526.066406 314.125 C 526.882812 315.730469 528.445312 317.617188 531.207031 317.300781 C 534.929688 316.878906 538.457031 315.59375 540.480469 317.648438 C 541.46875 318.652344 541.289062 320.3125 540.121094 321.09375 C 537.304688 322.972656 531.222656 326.792969 525.285156 328.960938 C 525.285156 328.960938 522.378906 340.675781 518.820312 353.632812 C 513.40625 373.328125 496.75 387.894531 476.507812 390.644531 L 459.496094 392.957031 L 438.203125 363.21875 " fill-opacity="1" fill-rule="nonzero"/><path fill="#000000" d="M 439.167969 363.320312 L 459.832031 392.175781 L 476.40625 389.921875 C 496.398438 387.203125 512.769531 372.886719 518.117188 353.441406 C 521.632812 340.640625 524.546875 328.902344 524.574219 328.789062 C 524.636719 328.550781 524.808594 328.363281 525.03125 328.277344 C 530.816406 326.167969 536.710938 322.492188 539.71875 320.488281 C 540.097656 320.230469 540.34375 319.824219 540.390625 319.367188 C 540.433594 318.917969 540.277344 318.480469 539.964844 318.15625 C 538.660156 316.835938 536.402344 317.214844 533.792969 317.652344 C 532.980469 317.789062 532.140625 317.929688 531.285156 318.027344 C 528.8125 318.3125 526.734375 317.039062 525.414062 314.453125 C 524.699219 313.046875 524.941406 311.300781 526.019531 310.109375 L 529.46875 306.300781 C 529.601562 306.152344 529.789062 306.066406 529.988281 306.058594 C 530.1875 306.042969 530.375 306.128906 530.519531 306.269531 C 533.046875 308.730469 537.34375 311.835938 538.535156 310.679688 C 539.429688 309.808594 542.15625 307.164062 536.839844 299.953125 C 532.757812 294.421875 528.863281 295.039062 528.699219 295.070312 C 528.351562 295.128906 528.011719 294.941406 527.886719 294.613281 C 527.210938 292.855469 526.132812 291.644531 524.6875 291.007812 C 521.878906 289.773438 518.527344 291.070312 518.492188 291.089844 C 518.300781 291.164062 518.082031 291.15625 517.898438 291.0625 C 516.171875 290.203125 514.59375 290.046875 513.066406 290.570312 C 508.757812 292.058594 505.585938 298.726562 502.519531 305.175781 L 501.882812 306.515625 C 497.550781 315.566406 480.820312 347.738281 480.652344 348.0625 C 480.539062 348.285156 480.316406 348.433594 480.066406 348.453125 L 452.734375 350.734375 Z M 459.496094 393.683594 C 459.261719 393.683594 459.042969 393.570312 458.90625 393.378906 L 437.609375 363.644531 C 437.394531 363.347656 437.4375 362.9375 437.707031 362.6875 L 451.925781 349.496094 C 452.046875 349.386719 452.199219 349.316406 452.359375 349.304688 L 479.546875 347.035156 C 481.398438 343.472656 496.492188 314.402344 500.570312 305.882812 L 501.203125 304.550781 C 504.398438 297.828125 507.703125 290.882812 512.589844 289.191406 C 514.390625 288.570312 516.300781 288.714844 518.261719 289.625 C 519.253906 289.289062 522.40625 288.417969 525.261719 289.671875 C 526.9375 290.398438 528.203125 291.714844 529.035156 293.582031 C 530.492188 293.574219 534.269531 294.007812 538.011719 299.089844 C 542.042969 304.554688 542.558594 308.804688 539.546875 311.722656 C 537.195312 314.003906 532 309.636719 530.050781 307.828125 L 527.105469 311.085938 C 526.425781 311.835938 526.269531 312.921875 526.714844 313.796875 C 527.765625 315.855469 529.246094 316.78125 531.121094 316.582031 C 531.9375 316.484375 532.757812 316.347656 533.550781 316.21875 C 536.4375 315.730469 539.164062 315.273438 541 317.136719 C 541.621094 317.765625 541.925781 318.636719 541.835938 319.519531 C 541.75 320.40625 541.269531 321.203125 540.523438 321.699219 C 537.53125 323.699219 531.703125 327.328125 525.898438 329.511719 C 525.375 331.621094 522.691406 342.292969 519.519531 353.824219 C 514.019531 373.832031 497.175781 388.570312 476.605469 391.367188 L 459.59375 393.675781 C 459.5625 393.679688 459.527344 393.683594 459.496094 393.683594 " fill-opacity="1" fill-rule="nonzero"/><path fill="#000000" d="M 514.617188 302.089844 C 514.417969 302.089844 514.214844 302.007812 514.074219 301.847656 C 513.804688 301.546875 513.832031 301.085938 514.132812 300.816406 C 518.066406 297.332031 522.863281 294.890625 527.996094 293.765625 C 528.386719 293.675781 528.777344 293.925781 528.863281 294.320312 C 528.953125 294.710938 528.703125 295.101562 528.308594 295.1875 C 523.417969 296.265625 518.847656 298.589844 515.101562 301.910156 C 514.960938 302.03125 514.789062 302.089844 514.617188 302.089844 " fill-opacity="1" fill-rule="nonzero"/><path fill="#000000" d="M 507.515625 302.304688 C 507.378906 302.304688 507.246094 302.269531 507.121094 302.191406 C 506.785156 301.976562 506.683594 301.523438 506.902344 301.183594 C 509.671875 296.863281 513.175781 293.132812 517.316406 290.097656 C 517.636719 289.855469 518.09375 289.925781 518.332031 290.25 C 518.570312 290.574219 518.5 291.03125 518.175781 291.269531 C 514.179688 294.199219 510.800781 297.800781 508.128906 301.96875 C 507.988281 302.1875 507.753906 302.304688 507.515625 302.304688 " fill-opacity="1" fill-rule="nonzero"/><path fill="#ffffff" d="M 452.421875 350.03125 L 461.085938 395.617188 L 415.125 402.699219 C 415.246094 409.257812 415.695312 416.433594 416.660156 424.105469 C 418.152344 435.957031 420.550781 446.472656 423.171875 455.445312 C 392.363281 454.488281 359.621094 452.972656 328.816406 452.011719 L 335.976562 426.042969 L 289.953125 427.09375 C 289.953125 427.09375 292.902344 411.300781 296.738281 394.738281 C 301.367188 374.761719 318.03125 359.792969 338.402344 357.4375 C 345.570312 356.613281 353.832031 355.945312 363.105469 355.640625 C 399.90625 354.433594 452.421875 350.03125 452.421875 350.03125 " fill-opacity="1" fill-rule="nonzero"/><path fill="#000000" d="M 329.761719 451.3125 C 344.890625 451.789062 360.710938 452.40625 376.019531 453 C 391.304688 453.597656 407.09375 454.210938 422.195312 454.6875 C 419.332031 444.714844 417.230469 434.460938 415.9375 424.199219 C 415.046875 417.101562 414.527344 409.871094 414.398438 402.714844 C 414.390625 402.347656 414.652344 402.035156 415.015625 401.980469 L 460.230469 395.015625 L 451.828125 350.808594 C 445.648438 351.316406 397.316406 355.246094 363.132812 356.367188 C 354.691406 356.644531 346.402344 357.246094 338.488281 358.164062 C 318.5 360.472656 302.007812 375.238281 297.449219 394.902344 C 294.171875 409.050781 291.515625 422.789062 290.835938 426.34375 L 335.960938 425.316406 C 336.203125 425.320312 336.410156 425.414062 336.550781 425.597656 C 336.691406 425.777344 336.738281 426.015625 336.679688 426.238281 Z M 423.171875 456.175781 L 423.148438 456.171875 C 407.742188 455.695312 391.585938 455.066406 375.964844 454.457031 C 360.34375 453.847656 344.195312 453.21875 328.792969 452.738281 C 328.566406 452.734375 328.359375 452.625 328.226562 452.445312 C 328.09375 452.261719 328.050781 452.035156 328.113281 451.816406 L 335.011719 426.792969 L 289.96875 427.824219 C 289.734375 427.824219 289.539062 427.734375 289.398438 427.5625 C 289.253906 427.398438 289.195312 427.175781 289.238281 426.960938 C 289.265625 426.804688 292.234375 410.957031 296.03125 394.570312 C 300.726562 374.308594 317.722656 359.097656 338.320312 356.714844 C 346.273438 355.796875 354.605469 355.191406 363.082031 354.914062 C 399.441406 353.71875 451.835938 349.347656 452.359375 349.304688 C 452.730469 349.261719 453.066406 349.523438 453.136719 349.894531 L 461.804688 395.484375 C 461.839844 395.679688 461.796875 395.878906 461.679688 396.039062 C 461.566406 396.203125 461.394531 396.308594 461.199219 396.339844 L 415.867188 403.320312 C 416.015625 410.222656 416.523438 417.179688 417.382812 424.015625 C 418.707031 434.53125 420.890625 445.039062 423.871094 455.242188 C 423.9375 455.464844 423.890625 455.707031 423.75 455.890625 C 423.609375 456.070312 423.398438 456.175781 423.171875 456.175781 " fill-opacity="1" fill-rule="nonzero"/><path fill="#000000" d="M 336.023438 427 C 335.957031 427 335.886719 426.988281 335.820312 426.96875 C 335.433594 426.855469 335.210938 426.453125 335.324219 426.066406 C 335.886719 424.132812 337.042969 420.1875 338.625 414.875 C 340.332031 409.140625 341.359375 405.675781 344.054688 401.949219 C 344.8125 400.902344 345.648438 399.898438 346.539062 398.96875 C 346.820312 398.679688 347.28125 398.667969 347.570312 398.945312 C 347.863281 399.226562 347.871094 399.6875 347.59375 399.976562 C 346.746094 400.863281 345.953125 401.808594 345.238281 402.800781 C 342.789062 406.1875 341.871094 409.078125 340.019531 415.289062 C 338.4375 420.601562 337.285156 424.546875 336.722656 426.472656 C 336.628906 426.792969 336.339844 427 336.023438 427 " fill-opacity="1" fill-rule="nonzero"/><path fill="#000000" d="M 507.035156 463.171875 L 384.769531 463.171875 L 384.769531 459.492188 C 384.769531 456.253906 387.394531 453.628906 390.632812 453.628906 L 515.632812 453.628906 L 514.628906 457.355469 C 513.703125 460.785156 510.589844 463.171875 507.035156 463.171875 " fill-opacity="1" fill-rule="nonzero"/><path fill="#000000" d="M 510.519531 458.851562 L 436.757812 458.851562 C 433.609375 458.851562 431.292969 455.894531 432.050781 452.839844 L 445.992188 396.636719 C 446.527344 394.472656 448.46875 392.960938 450.699219 392.960938 L 524.464844 392.960938 C 527.613281 392.960938 529.925781 395.914062 529.167969 398.96875 L 515.226562 455.171875 C 514.691406 457.335938 512.75 458.851562 510.519531 458.851562 " fill-opacity="1" fill-rule="nonzero"/><path fill="#ffffff" d="M 289.953125 427.09375 L 287.21875 445.683594 C 285.839844 455.058594 293.214844 463.425781 302.691406 463.234375 C 341.285156 463.222656 379.878906 463.210938 418.46875 463.199219 C 418.308594 459.339844 417.476562 452.996094 413.542969 446.78125 C 407.644531 437.46875 398.757812 432.121094 391.605469 431.757812 C 367.164062 430.511719 334.054688 433.15625 334.054688 433.15625 L 336.023438 426.269531 L 289.953125 427.09375 " fill-opacity="1" fill-rule="nonzero"/><path fill="#000000" d="M 302.367188 463.96875 C 297.765625 463.96875 293.394531 461.996094 290.339844 458.527344 C 287.207031 454.980469 285.808594 450.257812 286.496094 445.578125 L 289.230469 426.988281 C 289.285156 426.636719 289.582031 426.371094 289.941406 426.363281 L 336.011719 425.539062 C 336.257812 425.523438 336.460938 425.644531 336.601562 425.824219 C 336.742188 426.011719 336.789062 426.246094 336.722656 426.46875 L 335.042969 432.351562 C 340.878906 431.917969 369.859375 429.917969 391.640625 431.03125 C 399.671875 431.441406 408.511719 437.46875 414.160156 446.394531 C 417.191406 451.1875 418.882812 456.722656 419.183594 462.851562 C 419.203125 463.253906 418.894531 463.59375 418.492188 463.613281 C 418.085938 463.640625 417.746094 463.324219 417.726562 462.921875 C 417.4375 457.050781 415.824219 451.746094 412.925781 447.171875 C 407.609375 438.765625 399.023438 432.867188 391.566406 432.484375 C 367.453125 431.257812 334.445312 433.855469 334.113281 433.882812 C 333.871094 433.894531 333.640625 433.800781 333.488281 433.617188 C 333.339844 433.433594 333.289062 433.183594 333.355469 432.953125 L 335.050781 427.015625 L 290.582031 427.8125 L 287.9375 445.789062 C 287.3125 450.046875 288.585938 454.335938 291.429688 457.566406 C 294.277344 460.792969 298.378906 462.613281 302.679688 462.507812 L 319.445312 462.5 C 319.847656 462.5 320.171875 462.828125 320.171875 463.230469 C 320.171875 463.632812 319.847656 463.957031 319.445312 463.957031 L 302.691406 463.964844 C 302.582031 463.964844 302.476562 463.96875 302.367188 463.96875 " fill-opacity="1" fill-rule="nonzero"/><path fill="#000000" d="M 319.667969 434.546875 C 319.277344 434.546875 318.957031 434.238281 318.941406 433.847656 C 318.925781 433.445312 319.238281 433.109375 319.640625 433.089844 C 322.316406 432.984375 325 432.875 327.6875 432.761719 C 329.164062 432.699219 330.253906 432.636719 331.367188 432.570312 C 332.359375 432.515625 333.367188 432.457031 334.679688 432.394531 C 335.058594 432.367188 335.421875 432.6875 335.441406 433.089844 C 335.457031 433.492188 335.148438 433.832031 334.746094 433.851562 C 333.441406 433.910156 332.4375 433.96875 331.449219 434.027344 C 330.332031 434.089844 329.234375 434.15625 327.75 434.21875 C 325.058594 434.332031 322.375 434.441406 319.699219 434.546875 L 319.667969 434.546875 " fill-opacity="1" fill-rule="nonzero"/><path fill="#000000" d="M 399.84375 463.660156 L 399.804688 463.660156 C 399.402344 463.636719 399.09375 463.292969 399.117188 462.894531 C 399.308594 459.277344 397.324219 455.652344 394.175781 453.863281 C 391.871094 452.554688 389.140625 452.222656 386.539062 451.988281 C 381.746094 451.5625 376.878906 451.441406 372.082031 451.628906 C 371.679688 451.664062 371.34375 451.332031 371.328125 450.925781 C 371.3125 450.527344 371.625 450.191406 372.027344 450.171875 C 376.886719 449.980469 381.8125 450.105469 386.667969 450.539062 C 389.308594 450.773438 392.335938 451.140625 394.894531 452.597656 C 398.511719 454.648438 400.792969 458.820312 400.570312 462.96875 C 400.550781 463.359375 400.230469 463.660156 399.84375 463.660156 " fill-opacity="1" fill-rule="nonzero"/><path fill="#000000" d="M 407.96875 463.859375 L 407.949219 463.859375 C 407.546875 463.847656 407.230469 463.515625 407.242188 463.113281 C 407.351562 458.601562 405.789062 454.003906 402.945312 450.496094 C 400.101562 446.992188 395.925781 444.511719 391.488281 443.6875 C 391.089844 443.617188 390.828125 443.234375 390.902344 442.839844 C 390.976562 442.445312 391.351562 442.175781 391.75 442.257812 C 396.527344 443.136719 401.019531 445.808594 404.078125 449.578125 C 407.132812 453.351562 408.820312 458.296875 408.695312 463.148438 C 408.6875 463.542969 408.363281 463.859375 407.96875 463.859375 " fill-opacity="1" fill-rule="nonzero"/><path fill="#ffffff" d="M 727.757812 349.527344 L 541.859375 380.25 L 519.773438 246.679688 L 705.675781 215.960938 L 727.757812 349.527344 " fill-opacity="1" fill-rule="nonzero"/><path fill="#000000" d="M 520.613281 247.28125 L 542.460938 379.414062 L 726.921875 348.925781 L 705.074219 216.796875 Z M 541.859375 380.976562 C 541.507812 380.976562 541.199219 380.722656 541.140625 380.371094 L 519.054688 246.800781 C 519.023438 246.609375 519.070312 246.414062 519.183594 246.257812 C 519.296875 246.097656 519.464844 245.992188 519.65625 245.960938 L 705.554688 215.242188 C 705.953125 215.164062 706.328125 215.441406 706.394531 215.839844 L 728.476562 349.410156 C 728.507812 349.601562 728.464844 349.796875 728.351562 349.953125 C 728.242188 350.109375 728.070312 350.214844 727.878906 350.246094 L 541.980469 380.96875 C 541.9375 380.972656 541.898438 380.976562 541.859375 380.976562 " fill-opacity="1" fill-rule="nonzero"/><path fill="#e2eaff" d="M 534.707031 257.375 L 694.976562 230.890625 L 712.828125 338.832031 L 552.554688 365.320312 L 534.707031 257.375 " fill-opacity="1" fill-rule="nonzero"/><path fill="#000000" d="M 576.75 347.121094 C 576.65625 347.121094 576.5625 347.101562 576.472656 347.066406 C 576.101562 346.917969 575.921875 346.492188 576.070312 346.117188 L 603.894531 277.097656 C 603.988281 276.871094 604.191406 276.703125 604.433594 276.65625 C 604.679688 276.609375 604.929688 276.691406 605.097656 276.871094 L 658.046875 332.539062 C 658.324219 332.832031 658.3125 333.292969 658.023438 333.570312 C 657.730469 333.847656 657.269531 333.835938 656.992188 333.542969 L 604.824219 278.695312 L 577.421875 346.664062 C 577.3125 346.949219 577.035156 347.121094 576.75 347.121094 " fill-opacity="1" fill-rule="nonzero"/><path fill="#000000" d="M 678.828125 308.824219 C 678.652344 308.824219 678.472656 308.761719 678.335938 308.628906 L 646.390625 279.011719 L 636.007812 300.273438 C 635.832031 300.636719 635.394531 300.789062 635.035156 300.609375 C 634.671875 300.433594 634.519531 299.996094 634.695312 299.636719 L 645.511719 277.492188 C 645.613281 277.285156 645.804688 277.136719 646.035156 277.09375 C 646.257812 277.054688 646.492188 277.121094 646.664062 277.28125 L 679.324219 307.5625 C 679.617188 307.835938 679.636719 308.300781 679.363281 308.59375 C 679.21875 308.746094 679.027344 308.824219 678.828125 308.824219 " fill-opacity="1" fill-rule="nonzero"/><path fill="#000000" d="M 657.914062 247.578125 C 657.484375 247.578125 657.050781 247.609375 656.613281 247.683594 C 654.519531 248.03125 652.6875 249.171875 651.449219 250.894531 C 650.210938 252.621094 649.722656 254.726562 650.070312 256.816406 C 650.414062 258.910156 651.554688 260.742188 653.28125 261.980469 C 655.003906 263.214844 657.113281 263.707031 659.203125 263.359375 C 661.296875 263.011719 663.132812 261.871094 664.367188 260.148438 C 665.605469 258.421875 666.09375 256.316406 665.746094 254.226562 C 665.105469 250.34375 661.730469 247.578125 657.914062 247.578125 Z M 657.890625 264.925781 C 655.941406 264.925781 654.046875 264.320312 652.429688 263.164062 C 650.390625 261.703125 649.039062 259.535156 648.628906 257.054688 C 648.21875 254.578125 648.800781 252.089844 650.265625 250.046875 C 651.726562 248.003906 653.898438 246.652344 656.375 246.246094 C 658.855469 245.832031 661.34375 246.417969 663.382812 247.878906 C 665.425781 249.339844 666.773438 251.507812 667.1875 253.988281 C 667.597656 256.464844 667.015625 258.953125 665.554688 260.996094 C 664.089844 263.035156 661.917969 264.386719 659.441406 264.796875 C 658.921875 264.878906 658.402344 264.925781 657.890625 264.925781 " fill-opacity="1" fill-rule="nonzero"/><path fill="#000000" d="M 618.441406 327.6875 C 614.449219 327.691406 610.917969 324.796875 608.277344 322.269531 C 607.894531 321.902344 607.511719 321.527344 607.125 321.152344 C 604.777344 318.855469 602.347656 316.484375 599.484375 315.445312 C 597.683594 314.789062 595.558594 314.894531 593.9375 315.722656 C 593.035156 316.183594 591.851562 317.09375 591.367188 318.792969 C 591.253906 319.179688 590.851562 319.40625 590.464844 319.296875 C 590.078125 319.183594 589.855469 318.78125 589.964844 318.394531 C 590.460938 316.652344 591.605469 315.273438 593.273438 314.425781 C 595.269531 313.40625 597.777344 313.273438 599.980469 314.074219 C 603.140625 315.226562 605.683594 317.707031 608.144531 320.109375 C 608.527344 320.480469 608.90625 320.855469 609.289062 321.21875 C 611.742188 323.570312 614.992188 326.285156 618.507812 326.230469 C 621.28125 326.207031 624.152344 324.34375 626.191406 321.25 C 628.105469 318.351562 629.171875 314.816406 630.203125 311.394531 C 630.320312 311.007812 630.726562 310.789062 631.109375 310.910156 C 631.5 311.023438 631.714844 311.429688 631.601562 311.816406 C 630.535156 315.332031 629.4375 318.976562 627.410156 322.050781 C 625.066406 325.601562 621.828125 327.65625 618.519531 327.6875 L 618.441406 327.6875 " fill-opacity="1" fill-rule="nonzero"/><path fill="#ffffff" d="M 525.285156 328.960938 C 531.222656 326.792969 537.304688 322.972656 540.121094 321.09375 C 541.289062 320.3125 541.46875 318.652344 540.480469 317.648438 C 538.457031 315.59375 534.929688 316.878906 531.207031 317.300781 C 528.445312 317.617188 526.882812 315.730469 526.066406 314.125 L 525.285156 328.960938 " fill-opacity="1" fill-rule="nonzero"/><path fill="#000000" d="M 525.285156 329.691406 C 524.984375 329.691406 524.707031 329.507812 524.597656 329.210938 C 524.460938 328.835938 524.65625 328.414062 525.03125 328.277344 C 530.816406 326.167969 536.710938 322.492188 539.71875 320.488281 C 540.097656 320.230469 540.34375 319.824219 540.390625 319.367188 C 540.433594 318.917969 540.277344 318.480469 539.964844 318.15625 C 538.660156 316.839844 536.40625 317.214844 533.792969 317.652344 C 532.980469 317.789062 532.140625 317.929688 531.285156 318.027344 C 528.8125 318.3125 526.734375 317.039062 525.414062 314.453125 C 525.234375 314.097656 525.375 313.65625 525.734375 313.476562 C 526.089844 313.292969 526.53125 313.4375 526.714844 313.792969 C 527.765625 315.855469 529.246094 316.78125 531.121094 316.582031 C 531.9375 316.484375 532.757812 316.347656 533.550781 316.21875 C 536.4375 315.730469 539.164062 315.273438 541 317.136719 C 541.621094 317.765625 541.925781 318.636719 541.835938 319.519531 C 541.75 320.40625 541.269531 321.203125 540.523438 321.699219 C 537.46875 323.742188 531.457031 327.484375 525.53125 329.644531 C 525.453125 329.679688 525.367188 329.691406 525.285156 329.691406 " fill-opacity="1" fill-rule="nonzero"/><path fill="#000000" d="M 373.660156 335.15625 C 369.625 324.726562 366.382812 316.359375 369.851562 310.144531 C 372.550781 305.304688 376.027344 308.183594 387.683594 301.3125 C 397.144531 295.730469 401.484375 289.972656 408.027344 291.292969 C 410.28125 291.746094 411.773438 292.832031 412.167969 293.132812 C 418.8125 298.183594 416.492188 310.425781 416.351562 311.296875 C 415.738281 315.140625 414.300781 318.691406 378.988281 344.660156 C 376.914062 343.5625 375.832031 340.761719 373.660156 335.15625 " fill-opacity="1" fill-rule="nonzero"/><path fill="#ffffff" d="M 381.582031 331.921875 C 376.953125 340.808594 372.320312 349.699219 367.6875 358.582031 C 368.652344 360.671875 371.449219 365.976562 377.410156 368.65625 C 384.683594 371.925781 394.722656 370.425781 396.066406 366.296875 C 396.324219 365.511719 396.796875 362.992188 391.9375 358.265625 L 398.195312 340.375 L 381.582031 331.921875 " fill-opacity="1" fill-rule="nonzero"/><path fill="#000000" d="M 368.5 358.601562 C 369.777344 361.246094 372.570312 365.675781 377.710938 367.992188 C 382.964844 370.355469 389.203125 370.050781 392.652344 368.523438 C 394.121094 367.875 395.0625 367.023438 395.375 366.070312 C 395.632812 365.285156 395.757812 362.996094 391.429688 358.789062 C 391.226562 358.589844 391.160156 358.292969 391.25 358.027344 L 397.296875 340.734375 L 381.894531 332.898438 Z M 386.082031 371.160156 C 383.167969 371.160156 379.996094 370.617188 377.113281 369.320312 C 371.324219 366.714844 368.308594 361.671875 367.027344 358.890625 C 366.933594 358.6875 366.9375 358.449219 367.042969 358.25 L 380.9375 331.582031 C 381.121094 331.226562 381.558594 331.089844 381.914062 331.273438 L 398.527344 339.726562 C 398.851562 339.890625 399.003906 340.273438 398.882812 340.617188 L 392.78125 358.070312 C 396.964844 362.261719 397.265625 364.972656 396.761719 366.519531 C 396.316406 367.878906 395.101562 369.03125 393.242188 369.855469 C 391.410156 370.664062 388.863281 371.160156 386.082031 371.160156 " fill-opacity="1" fill-rule="nonzero"/><path fill="#ffffff" d="M 411.074219 329.816406 C 410.695312 333.78125 409.585938 337.753906 407.285156 341.007812 C 404.984375 344.261719 401.386719 346.722656 397.414062 347.070312 C 393.972656 347.378906 390.5 346.085938 387.796875 343.933594 C 385.09375 341.78125 383.109375 338.828125 381.703125 335.675781 C 378.097656 335.910156 374.492188 333.417969 373.433594 329.964844 C 372.824219 327.972656 373.078125 325.625 374.476562 324.082031 C 375.875 322.539062 378.519531 322.125 380.089844 323.496094 C 380.984375 324.277344 381.4375 325.480469 382.363281 326.226562 C 383.398438 327.054688 384.882812 327.15625 386.140625 326.75 C 387.402344 326.335938 388.464844 325.480469 389.390625 324.53125 C 392.300781 321.546875 394.070312 317.472656 394.273438 313.308594 C 394.253906 313.703125 396.058594 314.820312 396.375 315.035156 C 397.167969 315.582031 398.011719 316.058594 398.890625 316.460938 C 400.621094 317.253906 402.484375 317.765625 404.378906 317.964844 C 405.335938 318.066406 406.304688 318.085938 407.269531 318.023438 C 408.035156 317.976562 409.125 317.574219 409.867188 317.773438 C 411.421875 318.199219 411.082031 321.152344 411.144531 322.347656 C 411.277344 324.835938 411.3125 327.335938 411.074219 329.816406 " fill-opacity="1" fill-rule="nonzero"/><path fill="#000000" d="M 395 313.347656 Z M 395 313.347656 Z M 411.074219 329.816406 L 411.082031 329.816406 Z M 381.703125 334.945312 C 381.988281 334.945312 382.25 335.113281 382.367188 335.375 C 383.886719 338.78125 385.863281 341.464844 388.25 343.363281 C 390.976562 345.53125 394.289062 346.613281 397.351562 346.347656 C 400.867188 346.035156 404.359375 343.882812 406.691406 340.589844 C 408.703125 337.746094 409.933594 334.097656 410.351562 329.746094 C 410.550781 327.636719 410.574219 325.296875 410.417969 322.390625 C 410.40625 322.167969 410.40625 321.894531 410.40625 321.585938 C 410.410156 320.570312 410.421875 318.679688 409.679688 318.480469 C 409.359375 318.394531 408.800781 318.503906 408.304688 318.597656 C 407.972656 318.664062 407.632812 318.730469 407.316406 318.75 C 406.324219 318.816406 405.3125 318.792969 404.300781 318.6875 C 402.316406 318.480469 400.390625 317.953125 398.585938 317.125 C 397.664062 316.699219 396.78125 316.199219 395.960938 315.636719 L 395.765625 315.503906 C 395.414062 315.277344 395.113281 315.074219 394.855469 314.890625 C 394.332031 318.675781 392.578125 322.304688 389.910156 325.042969 C 388.695312 326.289062 387.570312 327.050781 386.367188 327.441406 C 384.765625 327.960938 383.054688 327.714844 381.910156 326.792969 C 381.34375 326.339844 380.957031 325.777344 380.578125 325.234375 C 380.265625 324.785156 379.972656 324.363281 379.609375 324.046875 C 378.40625 322.992188 376.21875 323.246094 375.015625 324.570312 C 373.894531 325.808594 373.546875 327.84375 374.132812 329.753906 C 375.085938 332.878906 378.398438 335.164062 381.65625 334.945312 Z M 396.421875 347.84375 C 393.304688 347.84375 390.046875 346.65625 387.34375 344.503906 C 384.878906 342.542969 382.828125 339.824219 381.242188 336.417969 L 381.21875 336.417969 C 377.4375 336.417969 373.851562 333.816406 372.738281 330.179688 C 371.996094 327.753906 372.453125 325.230469 373.9375 323.59375 C 375.671875 321.675781 378.769531 321.375 380.570312 322.945312 C 381.070312 323.382812 381.429688 323.902344 381.777344 324.40625 C 382.109375 324.886719 382.421875 325.339844 382.820312 325.65625 C 383.589844 326.273438 384.773438 326.425781 385.914062 326.058594 C 386.882812 325.738281 387.824219 325.09375 388.867188 324.023438 C 391.648438 321.171875 393.351562 317.253906 393.542969 313.277344 C 393.566406 312.871094 393.90625 312.5625 394.308594 312.582031 C 394.628906 312.597656 394.890625 312.820312 394.972656 313.113281 C 395.105469 313.265625 395.496094 313.589844 396.5625 314.289062 L 396.785156 314.433594 C 397.539062 314.953125 398.347656 315.414062 399.195312 315.800781 C 400.855469 316.5625 402.625 317.046875 404.453125 317.238281 C 405.382812 317.335938 406.3125 317.355469 407.222656 317.300781 C 407.445312 317.28125 407.726562 317.230469 408.023438 317.167969 C 408.675781 317.039062 409.410156 316.898438 410.058594 317.074219 C 411.882812 317.570312 411.871094 320.085938 411.867188 321.589844 C 411.863281 321.867188 411.863281 322.113281 411.875 322.308594 C 412.035156 325.296875 412.011719 327.703125 411.800781 329.886719 C 411.359375 334.492188 410.042969 338.375 407.882812 341.429688 C 405.304688 345.066406 401.417969 347.449219 397.480469 347.796875 C 397.128906 347.828125 396.777344 347.84375 396.421875 347.84375 " fill-opacity="1" fill-rule="nonzero"/><path fill="#000000" d="M 381.582031 332.648438 C 381.230469 332.648438 380.921875 332.394531 380.863281 332.035156 C 380.605469 330.464844 379.292969 329.066406 377.742188 328.710938 C 377.347656 328.621094 377.105469 328.230469 377.195312 327.835938 C 377.285156 327.441406 377.675781 327.199219 378.066406 327.289062 C 380.207031 327.78125 381.949219 329.636719 382.304688 331.800781 C 382.367188 332.203125 382.097656 332.574219 381.699219 332.636719 C 381.660156 332.644531 381.621094 332.648438 381.582031 332.648438 " fill-opacity="1" fill-rule="nonzero"/><path fill="#000000" d="M 1107.671875 100.542969 C 1101.769531 104.78125 1096.472656 133.277344 1106.191406 155.0625 C 1115.910156 176.839844 1167.535156 152.445312 1150.800781 131.585938 C 1150.800781 131.585938 1160.144531 134.480469 1163.523438 124.28125 C 1170.140625 104.328125 1124.863281 88.214844 1107.671875 100.542969 " fill-opacity="1" fill-rule="nonzero"/><path fill="#000000" d="M 1123.914062 96.425781 C 1117.671875 96.425781 1111.925781 97.722656 1107.777344 100.691406 C 1102.304688 104.621094 1096.335938 132.527344 1106.359375 154.984375 C 1109.386719 161.773438 1116.035156 163.308594 1121.082031 163.402344 C 1133.195312 163.625 1147.855469 155.691406 1152.414062 146.417969 C 1154.910156 141.332031 1154.304688 136.242188 1150.660156 131.699219 L 1150.289062 131.234375 L 1150.855469 131.410156 C 1151.226562 131.527344 1160.066406 134.128906 1163.351562 124.222656 C 1165.402344 118.03125 1162.480469 111.640625 1155.109375 106.222656 C 1147.128906 100.351562 1134.773438 96.425781 1123.914062 96.425781 Z M 1121.585938 163.769531 C 1121.414062 163.769531 1121.246094 163.769531 1121.074219 163.765625 C 1113.792969 163.628906 1108.449219 160.5625 1106.027344 155.132812 C 1100.214844 142.109375 1100.316406 128.289062 1100.890625 121.207031 C 1101.710938 111.1875 1104.457031 102.628906 1107.566406 100.398438 C 1119.039062 92.171875 1142.660156 96.613281 1155.328125 105.925781 C 1162.828125 111.449219 1165.804688 117.988281 1163.699219 124.335938 C 1160.761719 133.195312 1153.304688 132.308594 1151.269531 131.882812 C 1154.71875 136.441406 1155.226562 141.511719 1152.738281 146.578125 C 1148.191406 155.832031 1133.738281 163.769531 1121.585938 163.769531 " fill-opacity="1" fill-rule="nonzero"/><path fill="#000000" d="M 1056.804688 76.703125 C 1056.804688 91.691406 1070.703125 103.839844 1087.859375 103.839844 C 1105.007812 103.839844 1118.910156 91.691406 1118.910156 76.703125 C 1118.910156 61.71875 1104.976562 48.578125 1087.859375 49.566406 C 1070.597656 50.566406 1069.070312 64.792969 1069.070312 64.792969 C 1069.070312 64.792969 1056.804688 66.160156 1056.804688 76.703125 " fill-opacity="1" fill-rule="nonzero"/><path fill="#000000" d="M 1089.628906 49.699219 C 1089.042969 49.699219 1088.453125 49.714844 1087.867188 49.75 C 1070.957031 50.730469 1069.265625 64.667969 1069.25 64.808594 L 1069.238281 64.953125 L 1069.089844 64.96875 C 1068.96875 64.984375 1056.984375 66.449219 1056.984375 76.703125 C 1056.984375 91.566406 1070.832031 103.660156 1087.859375 103.660156 C 1104.878906 103.660156 1118.730469 91.566406 1118.730469 76.703125 C 1118.730469 69.777344 1115.636719 62.882812 1110.242188 57.796875 C 1104.734375 52.601562 1097.300781 49.699219 1089.628906 49.699219 Z M 1087.859375 104.023438 C 1070.632812 104.023438 1056.617188 91.769531 1056.617188 76.703125 C 1056.617188 66.738281 1067.53125 64.828125 1068.910156 64.625 C 1069.136719 63.125 1071.5625 50.328125 1087.84375 49.386719 C 1096.242188 48.90625 1104.492188 51.871094 1110.492188 57.53125 C 1115.957031 62.6875 1119.09375 69.675781 1119.09375 76.703125 C 1119.09375 91.769531 1105.078125 104.023438 1087.859375 104.023438 " fill-opacity="1" fill-rule="nonzero"/><path fill="#ffffff" d="M 941.714844 203.738281 L 1014.046875 203.972656 L 1047.976562 214.605469 C 1062.425781 248 974.90625 257.71875 974.90625 257.71875 L 1028.140625 308.597656 C 1033.242188 313.480469 1034.898438 320.972656 1032.253906 327.519531 C 1024.96875 345.5625 1008.34375 375.109375 999.78125 389.949219 C 997.660156 393.625 992.21875 393.191406 990.703125 389.230469 L 982.09375 366.714844 L 924.703125 259.03125 C 904.074219 232.980469 908.457031 203.628906 941.714844 203.738281 " fill-opacity="1" fill-rule="nonzero"/><path fill="#000000" d="M 995.429688 393.203125 C 995.277344 393.203125 995.117188 393.195312 994.960938 393.179688 C 992.71875 393.003906 990.828125 391.589844 990.023438 389.488281 L 983.507812 372.457031 C 983.367188 372.082031 983.554688 371.660156 983.933594 371.519531 C 984.308594 371.375 984.730469 371.5625 984.871094 371.941406 L 991.386719 388.96875 C 991.996094 390.5625 993.375 391.59375 995.074219 391.730469 C 996.777344 391.859375 998.300781 391.0625 999.152344 389.585938 C 1008.175781 373.945312 1024.382812 345.054688 1031.578125 327.246094 C 1034.117188 320.957031 1032.570312 313.84375 1027.636719 309.125 L 1023.378906 305.058594 C 1023.089844 304.78125 1023.078125 304.316406 1023.355469 304.027344 C 1023.632812 303.734375 1024.097656 303.726562 1024.386719 304.003906 L 1028.640625 308.070312 C 1034.011719 313.203125 1035.695312 320.945312 1032.929688 327.789062 C 1025.703125 345.679688 1009.453125 374.644531 1000.414062 390.316406 C 999.367188 392.125 997.488281 393.199219 995.429688 393.203125 " fill-opacity="1" fill-rule="nonzero"/><path fill="#5479f7" d="M 951.910156 193.679688 L 1030.035156 204.5 L 1077.539062 225.957031 C 1087.367188 260.984375 980.113281 257.121094 980.113281 257.121094 L 1023.917969 302.507812 C 1022.019531 305.394531 984.175781 369.449219 983.144531 370.722656 L 912.28125 253.164062 C 895.335938 224.589844 918.96875 189.121094 951.910156 193.679688 " fill-opacity="1" fill-rule="nonzero"/><path fill="#ffffff" d="M 937.597656 278.160156 C 916.316406 326.140625 882.277344 380.253906 858.777344 409.089844 C 856.011719 412.480469 857.796875 418.242188 862.136719 417.671875 C 862.136719 417.671875 907.550781 418.851562 922.683594 418.433594 C 941.339844 417.917969 944.023438 413.867188 947.609375 404.511719 L 991.957031 296.8125 C 991.957031 296.8125 950.566406 248.914062 937.597656 278.160156 " fill-opacity="1" fill-rule="nonzero"/><path fill="#5479f7" d="M 866.96875 398.402344 C 888.058594 364.0625 912.425781 313.367188 929.300781 275.324219 C 942.273438 246.078125 971.609375 227.519531 1003.632812 228.320312 L 1070.109375 229.996094 C 1070.109375 229.996094 1110.011719 257.269531 1120.835938 281.453125 C 1124.601562 289.855469 1112.199219 294.230469 1094.410156 296.355469 C 1059.382812 296.8125 1008.570312 296.640625 1008.570312 296.640625 L 951.074219 398.378906 C 945.617188 398.433594 869.550781 398.402344 866.96875 398.402344 " fill-opacity="1" fill-rule="nonzero"/><path fill="#000000" d="M 929.300781 276.054688 C 929.203125 276.054688 929.101562 276.035156 929.003906 275.988281 C 928.636719 275.828125 928.472656 275.398438 928.632812 275.027344 C 941.777344 245.398438 971.226562 226.78125 1003.652344 227.59375 L 1061.738281 229.054688 C 1062.144531 229.066406 1062.460938 229.402344 1062.449219 229.804688 C 1062.4375 230.203125 1062.09375 230.515625 1061.703125 230.511719 L 1003.613281 229.050781 C 971.773438 228.25 942.867188 246.527344 929.964844 275.621094 C 929.847656 275.890625 929.582031 276.054688 929.300781 276.054688 " fill-opacity="1" fill-rule="nonzero"/><path fill="#000000" d="M 975.046875 356.683594 C 974.925781 356.683594 974.800781 356.652344 974.691406 356.589844 C 974.339844 356.390625 974.21875 355.949219 974.414062 355.597656 L 1007.933594 296.28125 C 1008.0625 296.050781 1008.308594 295.910156 1008.570312 295.910156 L 1008.574219 295.910156 L 1017.417969 295.933594 C 1017.816406 295.933594 1018.144531 296.261719 1018.144531 296.660156 C 1018.144531 297.066406 1017.816406 297.390625 1017.414062 297.390625 L 1008.992188 297.367188 L 975.683594 356.316406 C 975.550781 356.550781 975.300781 356.683594 975.046875 356.683594 " fill-opacity="1" fill-rule="nonzero"/><path fill="#000000" d="M 984.027344 297.25 C 983.628906 297.25 983.300781 296.925781 983.300781 296.523438 C 983.296875 296.121094 983.625 295.796875 984.023438 295.796875 L 1005.34375 295.710938 L 1005.347656 295.710938 C 1005.746094 295.710938 1006.074219 296.035156 1006.074219 296.4375 C 1006.078125 296.839844 1005.753906 297.167969 1005.347656 297.171875 L 984.03125 297.25 L 984.027344 297.25 " fill-opacity="1" fill-rule="nonzero"/><path fill="#5479f7" d="M 1030.035156 204.5 L 1064.242188 229.421875 C 1064.242188 229.421875 1098.726562 263.011719 1101.296875 295.464844 C 1101.296875 295.464844 1167.679688 285.640625 1149.199219 212.195312 L 1064.828125 209.796875 L 1030.035156 204.5 " fill-opacity="1" fill-rule="nonzero"/><path fill="#000000" d="M 900.550781 418.851562 C 885.878906 418.851562 871.292969 418.632812 862.121094 418.398438 C 859.894531 418.34375 857.960938 417.03125 857.066406 414.972656 C 856.15625 412.875 856.535156 410.515625 858.042969 408.8125 L 865.804688 398.925781 C 866.050781 398.605469 866.507812 398.550781 866.824219 398.796875 C 867.140625 399.046875 867.199219 399.503906 866.949219 399.824219 L 859.164062 409.746094 C 858.003906 411.054688 857.722656 412.820312 858.402344 414.394531 C 859.078125 415.945312 860.480469 416.902344 862.15625 416.945312 C 878.5 417.363281 912.0625 417.722656 932.5625 416.902344 C 941.132812 416.558594 945.394531 408.449219 946.828125 404.976562 C 947.425781 403.527344 949.183594 399.671875 949.261719 399.503906 C 949.425781 399.136719 949.859375 398.980469 950.226562 399.144531 C 950.589844 399.3125 950.753906 399.742188 950.585938 400.109375 C 950.566406 400.148438 948.761719 404.109375 948.175781 405.53125 C 944.964844 413.304688 939.152344 418.097656 932.621094 418.355469 C 923.597656 418.71875 912.050781 418.851562 900.550781 418.851562 " fill-opacity="1" fill-rule="nonzero"/><path fill="#ffffff" d="M 938.878906 98.332031 C 938.03125 97.214844 937.21875 95.828125 937.621094 94.488281 C 938.019531 93.164062 939.527344 92.421875 940.914062 92.464844 C 942.300781 92.507812 943.585938 93.15625 944.804688 93.824219 C 958.386719 101.265625 1023.261719 146.953125 1023.261719 146.953125 C 1023.261719 146.953125 1035.867188 133.277344 1048.121094 126.21875 C 1054.3125 122.644531 1069.34375 122.242188 1082.417969 121.8125 C 1095.207031 121.394531 1106.113281 120.980469 1106.113281 120.980469 C 1106.113281 120.980469 1108.03125 159.597656 1054.605469 179.835938 C 1041.863281 184.664062 1027.328125 184.769531 1016.835938 182.804688 C 1001.621094 179.945312 980.011719 160.046875 975.164062 155.566406 C 971.605469 152.28125 951.324219 131.664062 951.324219 131.664062 C 951.324219 131.664062 949.058594 132.65625 945.433594 130.648438 C 940.394531 127.863281 942.152344 122.304688 942.152344 122.304688 C 940.148438 115.4375 943.726562 114.605469 943.726562 114.605469 C 943.109375 108.867188 949.175781 107.609375 949.175781 107.609375 C 945.351562 105.414062 941.546875 101.84375 938.878906 98.332031 " fill-opacity="1" fill-rule="nonzero"/><path fill="#000000" d="M 1028.539062 151.164062 C 1028.40625 151.164062 1028.265625 151.128906 1028.144531 151.050781 L 1024.03125 148.40625 C 1023.691406 148.1875 1023.59375 147.738281 1023.808594 147.398438 C 1024.027344 147.0625 1024.480469 146.960938 1024.816406 147.179688 L 1028.933594 149.824219 C 1029.269531 150.042969 1029.371094 150.492188 1029.152344 150.832031 C 1029.011719 151.050781 1028.777344 151.164062 1028.539062 151.164062 " fill-opacity="1" fill-rule="nonzero"/><path fill="#000000" d="M 1030.316406 185.136719 C 1024.960938 185.136719 1019.796875 184.433594 1014.859375 183.03125 C 990.847656 176.21875 955.054688 136.910156 951.089844 132.492188 C 950.144531 132.707031 947.992188 132.894531 945.082031 131.285156 C 940.1875 128.582031 941.117188 123.457031 941.398438 122.316406 C 940.574219 119.390625 940.621094 117.117188 941.53125 115.554688 C 941.980469 114.789062 942.542969 114.367188 942.957031 114.136719 C 942.804688 110.433594 945.300781 108.347656 947.457031 107.40625 C 944.183594 105.261719 940.839844 102.125 938.300781 98.773438 C 937.460938 97.664062 936.40625 96 936.925781 94.277344 C 937.449219 92.542969 939.335938 91.710938 940.9375 91.734375 C 942.476562 91.78125 943.863281 92.476562 945.15625 93.183594 C 957.609375 100.007812 1016.972656 141.648438 1023.160156 145.992188 C 1025.503906 143.523438 1036.828125 131.882812 1047.757812 125.582031 C 1049.066406 124.832031 1051.378906 123.945312 1053.949219 123.21875 C 1054.335938 123.109375 1054.738281 123.332031 1054.847656 123.722656 C 1054.957031 124.109375 1054.734375 124.511719 1054.347656 124.621094 C 1051.921875 125.308594 1049.675781 126.160156 1048.484375 126.847656 C 1036.46875 133.773438 1023.921875 147.308594 1023.796875 147.445312 C 1023.546875 147.714844 1023.136719 147.757812 1022.839844 147.546875 C 1022.1875 147.089844 957.460938 101.589844 944.453125 94.460938 C 943.269531 93.8125 942.109375 93.226562 940.890625 93.191406 C 939.878906 93.171875 938.628906 93.675781 938.320312 94.695312 C 938.070312 95.523438 938.433594 96.539062 939.460938 97.890625 C 942.246094 101.558594 946.011719 104.957031 949.542969 106.976562 C 949.800781 107.125 949.945312 107.421875 949.898438 107.722656 C 949.847656 108.023438 949.625 108.257812 949.328125 108.324219 C 949.109375 108.367188 943.910156 109.53125 944.449219 114.527344 C 944.488281 114.894531 944.25 115.230469 943.890625 115.3125 C 943.875 115.320312 943.234375 115.503906 942.761719 116.335938 C 942.285156 117.1875 941.914062 118.882812 942.851562 122.105469 C 942.890625 122.242188 942.890625 122.386719 942.84375 122.527344 C 942.78125 122.730469 941.34375 127.554688 945.785156 130.011719 C 949.003906 131.789062 950.957031 131.023438 951.039062 130.992188 C 951.324219 130.875 951.664062 130.949219 951.867188 131.179688 C 952.253906 131.613281 990.757812 174.679688 1015.253906 181.632812 C 1026.433594 184.800781 1038.804688 184.285156 1052.027344 180.089844 C 1052.410156 179.96875 1052.820312 180.183594 1052.945312 180.566406 C 1053.0625 180.949219 1052.851562 181.359375 1052.46875 181.480469 C 1044.789062 183.914062 1037.382812 185.136719 1030.316406 185.136719 " fill-opacity="1" fill-rule="nonzero"/><path fill="#000000" d="M 953.714844 127.882812 C 952.96875 127.882812 952.195312 127.71875 951.453125 127.386719 C 949.964844 126.71875 948.8125 125.523438 947.789062 124.335938 C 946.496094 122.832031 944.890625 120.789062 943.972656 118.335938 C 943.644531 117.460938 943.425781 116.5625 943.320312 115.667969 C 943.269531 115.269531 943.554688 114.90625 943.953125 114.859375 C 944.351562 114.8125 944.71875 115.09375 944.765625 115.492188 C 944.855469 116.273438 945.050781 117.058594 945.339844 117.828125 C 946.175781 120.0625 947.679688 121.972656 948.898438 123.386719 C 949.949219 124.613281 950.890625 125.535156 952.050781 126.054688 C 953.085938 126.523438 954.566406 126.632812 955.53125 125.828125 C 955.964844 125.46875 956.238281 124.832031 956.222656 124.214844 C 956.21875 123.925781 956.136719 123.402344 955.703125 123.070312 C 955.378906 122.828125 955.3125 122.367188 955.558594 122.046875 C 955.800781 121.726562 956.257812 121.660156 956.578125 121.90625 C 957.257812 122.417969 957.65625 123.246094 957.679688 124.175781 C 957.707031 125.238281 957.238281 126.300781 956.464844 126.945312 C 955.726562 127.566406 954.746094 127.882812 953.714844 127.882812 " fill-opacity="1" fill-rule="nonzero"/><path fill="#000000" d="M 964.328125 124.25 C 963.851562 124.25 963.378906 124.171875 962.953125 124.023438 C 961.699219 123.585938 960.734375 122.71875 959.808594 121.882812 L 959.371094 121.488281 C 958.527344 120.75 957.40625 119.894531 956.214844 119.882812 L 956.195312 119.882812 C 955.527344 119.882812 954.84375 120.140625 954.125 120.414062 C 953.222656 120.75 952.289062 121.101562 951.25 121.015625 C 950.148438 120.925781 949.15625 120.332031 948.453125 119.339844 C 947.617188 118.164062 947.3125 116.589844 947.664062 115.238281 C 948.375 112.492188 950.9375 110.929688 952.40625 110.238281 C 954.941406 109.046875 957.761719 108.578125 960.546875 108.886719 C 960.949219 108.925781 961.238281 109.289062 961.191406 109.6875 C 961.148438 110.089844 960.789062 110.378906 960.386719 110.332031 C 957.867188 110.054688 955.320312 110.480469 953.027344 111.554688 C 951.792969 112.140625 949.632812 113.433594 949.074219 115.601562 C 948.832031 116.535156 949.054688 117.671875 949.640625 118.496094 C 950.089844 119.132812 950.707031 119.511719 951.367188 119.5625 C 952.089844 119.628906 952.828125 119.34375 953.609375 119.046875 C 954.429688 118.742188 955.25 118.445312 956.222656 118.425781 C 957.898438 118.441406 959.300781 119.488281 960.332031 120.398438 L 960.785156 120.800781 C 961.640625 121.574219 962.457031 122.304688 963.433594 122.644531 C 964.410156 122.988281 965.71875 122.765625 966.113281 121.886719 C 966.277344 121.519531 966.707031 121.351562 967.074219 121.519531 C 967.441406 121.679688 967.605469 122.113281 967.441406 122.480469 C 966.898438 123.691406 965.601562 124.25 964.328125 124.25 " fill-opacity="1" fill-rule="nonzero"/><path fill="#000000" d="M 952.011719 130.894531 C 951.554688 130.894531 951.082031 130.832031 950.605469 130.703125 C 949.546875 130.421875 948.609375 129.875 947.832031 129.375 C 945.308594 127.753906 943.539062 126.007812 942.417969 124.027344 C 942.222656 123.679688 942.34375 123.234375 942.695312 123.03125 C 943.042969 122.835938 943.488281 122.960938 943.6875 123.3125 C 944.6875 125.078125 946.300781 126.65625 948.617188 128.144531 C 949.300781 128.585938 950.117188 129.066406 950.984375 129.296875 C 951.832031 129.523438 952.644531 129.476562 953.273438 129.164062 C 953.925781 128.84375 954.371094 128.1875 954.363281 127.566406 C 954.355469 127.164062 954.675781 126.828125 955.078125 126.824219 C 955.492188 126.828125 955.8125 127.140625 955.820312 127.542969 C 955.839844 128.726562 955.078125 129.902344 953.917969 130.472656 C 953.347656 130.753906 952.699219 130.894531 952.011719 130.894531 " fill-opacity="1" fill-rule="nonzero"/><path fill="#000000" d="M 951.457031 132.117188 C 951.285156 132.117188 951.109375 132.054688 950.972656 131.929688 C 950.671875 131.664062 950.644531 131.203125 950.917969 130.902344 C 951.136719 130.660156 951.3125 130.371094 951.425781 130.0625 C 951.570312 129.683594 951.988281 129.492188 952.367188 129.632812 C 952.738281 129.773438 952.933594 130.195312 952.792969 130.570312 C 952.613281 131.054688 952.347656 131.492188 952 131.878906 C 951.855469 132.039062 951.660156 132.117188 951.457031 132.117188 " fill-opacity="1" fill-rule="nonzero"/><path fill="#ffffff" d="M 1141.109375 220.460938 L 1115.910156 120.921875 C 1115.910156 120.921875 1070.289062 120.761719 1054.148438 124.40625 C 1054.148438 124.40625 1052.359375 204.390625 1051.527344 220.460938 L 1141.109375 220.460938 " fill-opacity="1" fill-rule="nonzero"/><path fill="#000000" d="M 1052.292969 219.734375 L 1140.171875 219.734375 L 1115.34375 121.648438 C 1110.09375 121.667969 1070.207031 121.75 1054.863281 124.996094 C 1054.703125 132.128906 1053.089844 203.019531 1052.292969 219.734375 Z M 1141.109375 221.1875 L 1051.527344 221.1875 C 1051.324219 221.1875 1051.136719 221.109375 1051 220.964844 C 1050.859375 220.816406 1050.789062 220.621094 1050.800781 220.425781 C 1051.621094 204.546875 1053.398438 125.191406 1053.417969 124.390625 C 1053.425781 124.054688 1053.660156 123.769531 1053.988281 123.695312 C 1070.023438 120.078125 1115.453125 120.191406 1115.910156 120.191406 C 1116.246094 120.191406 1116.535156 120.417969 1116.613281 120.742188 L 1141.816406 220.28125 C 1141.871094 220.5 1141.824219 220.730469 1141.683594 220.90625 C 1141.546875 221.085938 1141.332031 221.1875 1141.109375 221.1875 " fill-opacity="1" fill-rule="nonzero"/><path fill="#000000" d="M 1051.527344 206.785156 L 1051.503906 206.78125 C 1051.101562 206.769531 1050.789062 206.433594 1050.800781 206.03125 L 1053.417969 123.898438 C 1053.433594 123.492188 1053.769531 123.152344 1054.171875 123.191406 C 1054.574219 123.207031 1054.890625 123.539062 1054.875 123.941406 L 1052.253906 206.078125 C 1052.242188 206.472656 1051.917969 206.785156 1051.527344 206.785156 " fill-opacity="1" fill-rule="nonzero"/><path fill="#000000" d="M 957.921875 227.769531 L 1082.464844 227.769531 L 1082.464844 224.023438 C 1082.464844 220.726562 1079.789062 218.058594 1076.492188 218.058594 L 949.164062 218.058594 L 950.1875 221.847656 C 951.125 225.34375 954.296875 227.769531 957.921875 227.769531 " fill-opacity="1" fill-rule="nonzero"/><path fill="#000000" d="M 954.367188 223.375 L 1029.507812 223.375 C 1032.71875 223.375 1035.074219 220.363281 1034.300781 217.253906 L 1020.101562 160.054688 C 1019.554688 157.851562 1017.578125 156.304688 1015.308594 156.304688 L 940.167969 156.304688 C 936.957031 156.304688 934.601562 159.316406 935.371094 162.421875 L 949.574219 219.628906 C 950.121094 221.828125 952.097656 223.375 954.367188 223.375 " fill-opacity="1" fill-rule="nonzero"/><path fill="#5479f7" d="M 977.394531 178.378906 C 977.394531 179.746094 978.503906 180.855469 979.875 180.855469 C 981.246094 180.855469 982.359375 179.746094 982.359375 178.378906 C 982.359375 177.011719 981.246094 175.902344 979.875 175.902344 C 978.503906 175.902344 977.394531 177.011719 977.394531 178.378906 " fill-opacity="1" fill-rule="nonzero"/><path fill="#ffffff" d="M 1114.261719 120.921875 C 1123.386719 120.855469 1148.523438 130.105469 1163.457031 178.300781 C 1178.390625 226.496094 1156.113281 242.871094 1140.3125 243.15625 L 1139.777344 243.15625 C 1123.976562 243.441406 1085.074219 223.355469 1078.824219 223.375 L 1057.105469 218.34375 C 1057.105469 218.34375 1063.339844 198.539062 1089.546875 201.542969 C 1110.5 203.945312 1135.585938 206.710938 1135.585938 206.710938 C 1135.585938 206.710938 1107.011719 120.964844 1114.261719 120.921875 " fill-opacity="1" fill-rule="nonzero"/><path fill="#000000" d="M 1114.261719 120.921875 L 1114.269531 120.921875 Z M 1078.914062 222.644531 C 1081.515625 222.707031 1088.554688 225.582031 1097.433594 229.21875 C 1111.238281 234.863281 1130.160156 242.632812 1139.765625 242.425781 L 1140.308594 242.425781 C 1148.253906 242.28125 1155.949219 238.132812 1160.875 231.316406 C 1166.703125 223.261719 1171.761719 207.566406 1162.761719 178.515625 C 1148.8125 133.503906 1125.066406 121.648438 1114.367188 121.648438 C 1114.332031 121.648438 1114.300781 121.648438 1114.265625 121.648438 C 1114.246094 121.648438 1114.226562 121.648438 1114.175781 121.71875 C 1111.097656 126.015625 1125.710938 174.765625 1136.277344 206.484375 C 1136.359375 206.71875 1136.3125 206.980469 1136.15625 207.171875 C 1136 207.363281 1135.757812 207.460938 1135.507812 207.4375 C 1135.257812 207.410156 1110.179688 204.644531 1089.460938 202.265625 C 1067.035156 199.695312 1059.542969 214.316406 1058.082031 217.820312 Z M 1139.429688 243.890625 C 1129.445312 243.890625 1111.410156 236.507812 1096.882812 230.566406 C 1088.402344 227.097656 1081.082031 224.101562 1078.832031 224.101562 L 1078.824219 224.101562 C 1078.769531 224.101562 1078.714844 224.09375 1078.660156 224.082031 L 1056.941406 219.050781 C 1056.742188 219.003906 1056.574219 218.878906 1056.46875 218.703125 C 1056.371094 218.523438 1056.347656 218.316406 1056.410156 218.121094 C 1056.472656 217.921875 1063.125 197.777344 1089.628906 200.820312 C 1107.835938 202.910156 1129.410156 205.296875 1134.539062 205.867188 C 1130.5625 193.871094 1108.648438 126.933594 1112.988281 120.875 C 1113.300781 120.4375 1113.75 120.195312 1114.257812 120.1875 C 1114.289062 120.1875 1114.324219 120.1875 1114.355469 120.1875 C 1119.589844 120.1875 1128.296875 123.015625 1137.167969 130.96875 C 1148.550781 141.171875 1157.625 157.023438 1164.152344 178.085938 C 1173.332031 207.707031 1168.078125 223.847656 1162.054688 232.171875 C 1156.863281 239.355469 1148.738281 243.730469 1140.324219 243.882812 L 1139.78125 243.886719 C 1139.667969 243.886719 1139.550781 243.890625 1139.429688 243.890625 " fill-opacity="1" fill-rule="nonzero"/><path fill="#000000" d="M 1073.941406 220.734375 C 1073.863281 220.734375 1073.78125 220.722656 1073.703125 220.691406 C 1073.320312 220.558594 1073.121094 220.144531 1073.253906 219.765625 C 1074.570312 215.984375 1077.550781 212.765625 1081.21875 211.152344 C 1081.589844 210.992188 1082.019531 211.160156 1082.179688 211.527344 C 1082.339844 211.894531 1082.175781 212.324219 1081.804688 212.488281 C 1078.5 213.9375 1075.816406 216.839844 1074.628906 220.246094 C 1074.527344 220.546875 1074.242188 220.734375 1073.941406 220.734375 " fill-opacity="1" fill-rule="nonzero"/><path fill="#000000" d="M 1067.117188 219.367188 C 1067.046875 219.367188 1066.976562 219.355469 1066.902344 219.335938 C 1066.519531 219.21875 1066.300781 218.8125 1066.417969 218.429688 C 1067.785156 213.863281 1071.175781 209.925781 1075.496094 207.894531 C 1075.859375 207.726562 1076.292969 207.882812 1076.464844 208.246094 C 1076.636719 208.609375 1076.480469 209.046875 1076.113281 209.214844 C 1072.164062 211.070312 1069.0625 214.671875 1067.8125 218.847656 C 1067.71875 219.160156 1067.425781 219.367188 1067.117188 219.367188 " fill-opacity="1" fill-rule="nonzero"/><path fill="#000000" d="M 1082.441406 227.769531 L 1082.441406 224.023438 C 1082.441406 220.726562 1079.765625 218.058594 1076.46875 218.058594 L 1051.714844 218.058594 L 1082.441406 227.769531 " fill-opacity="1" fill-rule="nonzero"/><path fill="#5479f7" d="M 930.6875 93.347656 C 930.6875 97.054688 933.695312 100.058594 937.402344 100.058594 C 941.113281 100.058594 944.121094 97.054688 944.121094 93.347656 C 944.121094 89.640625 941.113281 86.632812 937.402344 86.632812 C 933.695312 86.632812 930.6875 89.640625 930.6875 93.347656 " fill-opacity="1" fill-rule="nonzero"/><path fill="#ffffff" d="M 1093.4375 97.707031 L 1096.710938 121.511719 C 1096.710938 121.511719 1091.792969 133.648438 1080.425781 133.648438 C 1075.285156 133.648438 1073.28125 130.6875 1073.171875 127.613281 C 1073.039062 123.921875 1076.339844 121.941406 1076.339844 121.941406 L 1074.417969 102.183594 L 1093.4375 97.707031 " fill-opacity="1" fill-rule="nonzero"/><path fill="#000000" d="M 1075.203125 102.75 L 1077.0625 121.867188 C 1077.09375 122.148438 1076.953125 122.421875 1076.714844 122.566406 C 1076.597656 122.636719 1073.789062 124.386719 1073.898438 127.589844 C 1073.957031 129.191406 1074.707031 132.917969 1080.425781 132.917969 C 1090.457031 132.917969 1095.3125 122.855469 1095.960938 121.410156 L 1092.828125 98.597656 Z M 1080.425781 134.378906 C 1074.71875 134.378906 1072.5625 130.898438 1072.445312 127.640625 C 1072.328125 124.328125 1074.625 122.28125 1075.570312 121.582031 L 1073.691406 102.257812 C 1073.660156 101.894531 1073.898438 101.558594 1074.25 101.476562 L 1093.269531 96.996094 C 1093.472656 96.953125 1093.683594 96.988281 1093.851562 97.105469 C 1094.019531 97.21875 1094.132812 97.40625 1094.160156 97.605469 L 1097.433594 121.414062 C 1097.449219 121.539062 1097.433594 121.664062 1097.386719 121.785156 C 1097.335938 121.910156 1092.152344 134.378906 1080.425781 134.378906 " fill-opacity="1" fill-rule="nonzero"/><path fill="#ffffff" d="M 1063.929688 84.515625 C 1063.328125 88.644531 1063.46875 92.964844 1065.003906 96.84375 C 1066.539062 100.722656 1069.589844 104.117188 1073.546875 105.464844 C 1076.976562 106.628906 1080.835938 106.175781 1084.125 104.65625 C 1087.410156 103.140625 1090.164062 100.625 1092.382812 97.765625 C 1095.996094 98.898438 1100.285156 97.261719 1102.222656 94.007812 C 1103.339844 92.132812 1103.667969 89.683594 1102.625 87.765625 C 1101.582031 85.84375 1098.992188 84.769531 1097.054688 85.777344 C 1095.949219 86.347656 1095.1875 87.460938 1094.058594 87.984375 C 1092.800781 88.574219 1091.265625 88.3125 1090.085938 87.582031 C 1088.902344 86.851562 1088.035156 85.714844 1087.328125 84.519531 C 1085.105469 80.761719 1084.3125 76.179688 1085.144531 71.890625 C 1085.070312 72.296875 1082.953125 72.980469 1082.578125 73.125 C 1081.632812 73.484375 1080.652344 73.761719 1079.660156 73.953125 C 1077.703125 74.328125 1075.675781 74.386719 1073.699219 74.117188 C 1072.695312 73.980469 1071.703125 73.765625 1070.738281 73.460938 C 1069.96875 73.222656 1068.960938 72.539062 1068.15625 72.5625 C 1066.46875 72.605469 1066.082031 75.695312 1065.714844 76.898438 C 1064.960938 79.398438 1064.304688 81.929688 1063.929688 84.515625 " fill-opacity="1" fill-rule="nonzero"/><path fill="#000000" d="M 1063.929688 84.515625 L 1063.9375 84.515625 Z M 1068.195312 73.292969 L 1068.175781 73.292969 C 1067.335938 73.316406 1066.875 75.253906 1066.621094 76.296875 C 1066.546875 76.609375 1066.480469 76.890625 1066.414062 77.109375 C 1065.53125 80.035156 1064.96875 82.421875 1064.652344 84.617188 C 1063.992188 89.152344 1064.339844 93.175781 1065.683594 96.574219 C 1067.238281 100.511719 1070.269531 103.582031 1073.78125 104.773438 C 1076.839844 105.8125 1080.496094 105.527344 1083.816406 103.996094 C 1086.722656 102.652344 1089.414062 100.410156 1091.808594 97.320312 C 1091.992188 97.078125 1092.3125 96.980469 1092.601562 97.070312 C 1095.886719 98.101562 1099.835938 96.589844 1101.597656 93.636719 C 1102.671875 91.828125 1102.824219 89.660156 1101.984375 88.109375 C 1101.082031 86.449219 1098.894531 85.644531 1097.386719 86.421875 C 1096.9375 86.65625 1096.53125 87.015625 1096.101562 87.394531 C 1095.585938 87.855469 1095.050781 88.328125 1094.367188 88.648438 C 1092.984375 89.296875 1091.191406 89.125 1089.699219 88.203125 C 1088.574219 87.507812 1087.621094 86.453125 1086.699219 84.890625 C 1084.660156 81.4375 1083.78125 77.289062 1084.199219 73.300781 C 1083.886719 73.425781 1083.511719 73.566406 1083.074219 73.722656 L 1082.835938 73.804688 C 1081.863281 74.175781 1080.839844 74.464844 1079.800781 74.667969 C 1077.757812 75.0625 1075.675781 75.121094 1073.601562 74.839844 C 1072.554688 74.695312 1071.515625 74.46875 1070.519531 74.152344 C 1070.207031 74.058594 1069.875 73.90625 1069.558594 73.757812 C 1069.085938 73.539062 1068.546875 73.292969 1068.195312 73.292969 Z M 1077.644531 106.84375 C 1076.144531 106.84375 1074.675781 106.617188 1073.3125 106.152344 C 1069.398438 104.824219 1066.039062 101.445312 1064.328125 97.109375 C 1062.886719 93.472656 1062.511719 89.199219 1063.210938 84.410156 C 1063.539062 82.136719 1064.117188 79.683594 1065.019531 76.6875 C 1065.078125 76.488281 1065.136719 76.238281 1065.207031 75.957031 C 1065.59375 74.332031 1066.183594 71.886719 1068.132812 71.835938 C 1068.847656 71.828125 1069.539062 72.144531 1070.167969 72.433594 C 1070.457031 72.570312 1070.730469 72.695312 1070.957031 72.765625 C 1071.871094 73.054688 1072.828125 73.265625 1073.796875 73.394531 C 1075.710938 73.65625 1077.636719 73.597656 1079.519531 73.234375 C 1080.480469 73.050781 1081.421875 72.785156 1082.320312 72.445312 L 1082.589844 72.34375 C 1083.863281 71.894531 1084.339844 71.660156 1084.507812 71.539062 C 1084.65625 71.269531 1084.96875 71.117188 1085.285156 71.175781 C 1085.679688 71.253906 1085.9375 71.636719 1085.863281 72.03125 C 1085.066406 76.132812 1085.832031 80.550781 1087.953125 84.148438 C 1088.753906 85.503906 1089.550781 86.398438 1090.46875 86.964844 C 1091.546875 87.628906 1092.804688 87.765625 1093.753906 87.328125 C 1094.242188 87.097656 1094.675781 86.714844 1095.136719 86.304688 C 1095.613281 85.882812 1096.105469 85.445312 1096.71875 85.128906 C 1098.925781 83.984375 1101.988281 85.054688 1103.269531 87.417969 C 1104.363281 89.4375 1104.203125 92.105469 1102.851562 94.382812 C 1100.8125 97.804688 1096.5 99.5625 1092.65625 98.597656 C 1090.191406 101.675781 1087.425781 103.933594 1084.425781 105.320312 C 1082.234375 106.332031 1079.898438 106.84375 1077.644531 106.84375 " fill-opacity="1" fill-rule="nonzero"/><path fill="#000000" d="M 1093.4375 94.703125 C 1093.34375 94.703125 1093.246094 94.6875 1093.15625 94.648438 C 1092.785156 94.488281 1092.613281 94.0625 1092.765625 93.691406 C 1093.664062 91.585938 1095.875 90.15625 1098.167969 90.171875 C 1098.574219 90.175781 1098.894531 90.507812 1098.886719 90.910156 C 1098.882812 91.304688 1098.558594 91.628906 1098.160156 91.628906 L 1098.101562 91.628906 C 1096.40625 91.628906 1094.769531 92.703125 1094.109375 94.257812 C 1093.992188 94.539062 1093.722656 94.703125 1093.4375 94.703125 " fill-opacity="1" fill-rule="nonzero"/><path fill="#000000" d="M 1168.386719 297.171875 L 1038.582031 297.171875 C 1038.179688 297.171875 1037.855469 296.84375 1037.855469 296.441406 C 1037.855469 296.039062 1038.179688 295.710938 1038.582031 295.710938 L 1167.660156 295.710938 L 1167.660156 242.40625 C 1167.660156 242.007812 1167.988281 241.679688 1168.386719 241.679688 C 1168.789062 241.679688 1169.117188 242.007812 1169.117188 242.40625 L 1169.117188 296.441406 C 1169.117188 296.84375 1168.789062 297.171875 1168.386719 297.171875 " fill-opacity="1" fill-rule="nonzero"/><path fill="#ffffff" d="M 1092.726562 653.484375 L 1132.703125 653.484375 C 1143.003906 646.535156 1152.507812 638.367188 1158.957031 627.84375 C 1163.148438 621 1165.953125 612.582031 1163.425781 604.964844 C 1160.898438 597.351562 1151.261719 591.996094 1144.410156 596.175781 C 1150.414062 591.828125 1156.496094 587.414062 1161.167969 581.667969 C 1165.847656 575.914062 1169.03125 568.574219 1168.273438 561.199219 C 1167.515625 553.828125 1162.078125 546.726562 1154.761719 545.550781 C 1142.800781 543.628906 1132.796875 555.472656 1125.507812 563.210938 C 1115.886719 573.425781 1106.824219 584.335938 1100.144531 596.738281 C 1091.460938 612.855469 1087.039062 631.96875 1091.5625 649.710938 C 1091.882812 650.972656 1092.269531 652.242188 1092.726562 653.484375 " fill-opacity="1" fill-rule="nonzero"/><g clip-path="url(#fc57a7d6f8)"><path fill="#000000" d="M 1093.238281 652.757812 L 1132.476562 652.757812 C 1144.546875 644.59375 1152.765625 636.550781 1158.332031 627.460938 C 1161.191406 622.800781 1165.558594 613.707031 1162.734375 605.195312 C 1161.421875 601.234375 1157.921875 597.703125 1153.820312 596.203125 C 1150.578125 595.015625 1147.367188 595.222656 1144.792969 596.796875 C 1144.457031 597.003906 1144.019531 596.902344 1143.800781 596.578125 C 1143.585938 596.25 1143.664062 595.8125 1143.984375 595.582031 C 1149.871094 591.324219 1155.957031 586.917969 1160.601562 581.207031 C 1165.753906 574.875 1168.222656 567.792969 1167.546875 561.277344 C 1166.777344 553.777344 1161.226562 547.324219 1154.644531 546.269531 C 1143.902344 544.539062 1134.480469 554.65625 1127.597656 562.039062 C 1127.066406 562.613281 1126.546875 563.171875 1126.035156 563.710938 C 1114.28125 576.199219 1106.488281 586.492188 1100.78125 597.082031 C 1091.207031 614.863281 1088.183594 633.488281 1092.269531 649.527344 C 1092.558594 650.671875 1092.882812 651.75 1093.238281 652.757812 Z M 1132.703125 654.210938 L 1092.726562 654.210938 C 1092.421875 654.210938 1092.148438 654.023438 1092.042969 653.734375 C 1091.605469 652.554688 1091.207031 651.261719 1090.855469 649.886719 C 1086.679688 633.496094 1089.75 614.492188 1099.503906 596.390625 C 1105.269531 585.679688 1113.125 575.296875 1124.976562 562.710938 C 1125.480469 562.175781 1126 561.617188 1126.53125 561.046875 C 1133.636719 553.421875 1143.363281 542.976562 1154.875 544.832031 C 1162.089844 545.988281 1168.160156 552.996094 1169 561.128906 C 1169.710938 568.03125 1167.128906 575.488281 1161.734375 582.125 C 1157.964844 586.765625 1153.308594 590.53125 1148.570312 594.039062 C 1150.417969 593.855469 1152.371094 594.117188 1154.324219 594.835938 C 1158.894531 596.507812 1162.644531 600.300781 1164.117188 604.738281 C 1166.347656 611.460938 1164.734375 619.800781 1159.578125 628.222656 C 1153.867188 637.542969 1145.457031 645.761719 1133.109375 654.085938 C 1132.992188 654.167969 1132.847656 654.210938 1132.703125 654.210938 " fill-opacity="1" fill-rule="nonzero"/></g><g clip-path="url(#e7f24884d0)"><path fill="#000000" d="M 1114.652344 654.210938 C 1114.53125 654.210938 1114.410156 654.179688 1114.296875 654.121094 C 1113.945312 653.925781 1113.820312 653.480469 1114.015625 653.128906 C 1116.652344 648.378906 1119.183594 643.488281 1121.546875 638.597656 C 1129.960938 621.183594 1136.636719 602.894531 1141.394531 584.234375 C 1141.492188 583.847656 1141.886719 583.609375 1142.28125 583.710938 C 1142.671875 583.808594 1142.90625 584.207031 1142.804688 584.597656 C 1138.023438 603.347656 1131.316406 621.730469 1122.859375 639.230469 C 1120.484375 644.148438 1117.9375 649.0625 1115.289062 653.839844 C 1115.15625 654.074219 1114.90625 654.210938 1114.652344 654.210938 " fill-opacity="1" fill-rule="nonzero"/></g><path fill="#ffffff" d="M 1076.667969 596.242188 C 1067.132812 611.425781 1065.988281 631.128906 1072.410156 647.710938 C 1073.003906 649.242188 1073.816406 651.3125 1074.824219 653.484375 L 1102.679688 653.484375 C 1105.921875 649.980469 1108.753906 646.335938 1110.671875 643.597656 C 1117.394531 634 1120.679688 621.164062 1116.097656 610.378906 C 1114.652344 606.96875 1112.453125 603.804688 1111.863281 600.148438 C 1110.472656 591.496094 1118.167969 584.382812 1124.867188 578.730469 C 1138 567.648438 1150.859375 553.898438 1152.484375 536.796875 C 1153.839844 522.507812 1146.207031 507.753906 1133.761719 500.601562 C 1139.558594 489.828125 1143.945312 478.300781 1146.765625 466.394531 C 1147.929688 461.476562 1148.765625 456.042969 1146.410156 451.570312 C 1143.367188 445.820312 1136.054688 443.726562 1129.550781 443.941406 C 1112.992188 444.480469 1098.386719 456.296875 1090.34375 470.769531 C 1082.304688 485.25 1068.382812 514.871094 1081.046875 561.894531 C 1082.640625 567.808594 1085.832031 573.558594 1085.09375 579.640625 C 1084.34375 585.863281 1080 590.9375 1076.667969 596.242188 " fill-opacity="1" fill-rule="nonzero"/><g clip-path="url(#3d48d22db3)"><path fill="#000000" d="M 1075.289062 652.757812 L 1102.359375 652.757812 C 1105.078125 649.789062 1107.882812 646.3125 1110.074219 643.183594 C 1115.839844 634.945312 1120.273438 622.082031 1115.425781 610.664062 C 1114.972656 609.601562 1114.433594 608.527344 1113.910156 607.492188 C 1112.753906 605.21875 1111.5625 602.863281 1111.144531 600.261719 C 1109.71875 591.402344 1117.238281 584.214844 1124.398438 578.171875 C 1136.253906 568.171875 1150.078125 554.421875 1151.753906 536.726562 C 1153.078125 522.800781 1145.527344 508.203125 1133.402344 501.230469 C 1133.054688 501.035156 1132.933594 500.601562 1133.121094 500.253906 C 1138.894531 489.53125 1143.25 478.082031 1146.054688 466.226562 C 1147.222656 461.292969 1147.996094 456.144531 1145.761719 451.914062 C 1142.785156 446.277344 1135.449219 444.484375 1129.578125 444.667969 C 1114.5625 445.160156 1099.777344 455.296875 1090.984375 471.125 C 1085.378906 481.207031 1068.335938 511.890625 1081.75 561.703125 C 1082.207031 563.394531 1082.808594 565.117188 1083.394531 566.777344 C 1084.855469 570.941406 1086.363281 575.246094 1085.820312 579.726562 C 1085.203125 584.816406 1082.289062 589.136719 1079.46875 593.316406 C 1078.738281 594.402344 1077.980469 595.523438 1077.285156 596.632812 C 1068.175781 611.132812 1066.570312 630.605469 1073.09375 647.445312 C 1073.566406 648.671875 1074.34375 650.671875 1075.289062 652.757812 Z M 1102.679688 654.210938 L 1074.824219 654.210938 C 1074.542969 654.210938 1074.285156 654.046875 1074.164062 653.792969 C 1073.105469 651.515625 1072.246094 649.296875 1071.734375 647.972656 C 1065.042969 630.710938 1066.703125 610.742188 1076.050781 595.859375 C 1076.757812 594.730469 1077.523438 593.59375 1078.261719 592.5 C 1080.984375 588.464844 1083.796875 584.292969 1084.375 579.550781 C 1084.875 575.40625 1083.488281 571.449219 1082.019531 567.261719 C 1081.425781 565.574219 1080.816406 563.828125 1080.34375 562.082031 C 1066.773438 511.699219 1084.035156 480.628906 1089.707031 470.417969 C 1098.75 454.144531 1114.003906 443.71875 1129.527344 443.210938 C 1135.855469 442.996094 1143.761719 445.003906 1147.054688 451.234375 C 1149.511719 455.886719 1148.707031 461.351562 1147.472656 466.5625 C 1144.691406 478.3125 1140.40625 489.667969 1134.734375 500.324219 C 1146.988281 507.707031 1154.554688 522.625 1153.207031 536.863281 C 1151.476562 555.085938 1137.402344 569.105469 1125.339844 579.289062 C 1118.480469 585.070312 1111.277344 591.921875 1112.585938 600.03125 C 1112.964844 602.410156 1114.054688 604.558594 1115.210938 606.835938 C 1115.742188 607.890625 1116.296875 608.984375 1116.769531 610.097656 C 1121.019531 620.101562 1118.910156 633.101562 1111.269531 644.019531 C 1108.980469 647.285156 1106.046875 650.914062 1103.214844 653.976562 C 1103.078125 654.125 1102.882812 654.210938 1102.679688 654.210938 " fill-opacity="1" fill-rule="nonzero"/></g><path fill="#000000" d="M 1084.933594 649.613281 L 1084.898438 649.613281 C 1084.492188 649.59375 1084.183594 649.253906 1084.203125 648.851562 C 1086.886719 592.8125 1098.734375 535.65625 1119.410156 478.960938 C 1119.546875 478.582031 1119.964844 478.390625 1120.34375 478.527344 C 1120.71875 478.667969 1120.914062 479.082031 1120.78125 479.460938 C 1100.15625 536.015625 1088.335938 593.03125 1085.660156 648.917969 C 1085.640625 649.308594 1085.316406 649.613281 1084.933594 649.613281 " fill-opacity="1" fill-rule="nonzero"/><g clip-path="url(#28295e5336)"><path fill="#000000" d="M 1074.824219 654.210938 L 1030.320312 654.210938 C 1029.917969 654.210938 1029.59375 653.886719 1029.59375 653.484375 C 1029.59375 653.082031 1029.917969 652.757812 1030.320312 652.757812 L 1074.824219 652.757812 C 1075.226562 652.757812 1075.554688 653.082031 1075.554688 653.484375 C 1075.554688 653.886719 1075.226562 654.210938 1074.824219 654.210938 " fill-opacity="1" fill-rule="nonzero"/></g><path fill="#000000" d="M 739.085938 159.535156 C 738.683594 159.535156 738.359375 159.210938 738.359375 158.804688 L 738.359375 93.347656 C 738.359375 92.945312 738.683594 92.617188 739.085938 92.617188 L 937.402344 92.617188 C 937.808594 92.617188 938.132812 92.945312 938.132812 93.347656 C 938.132812 93.746094 937.808594 94.074219 937.402344 94.074219 L 739.816406 94.074219 L 739.816406 158.804688 C 739.816406 159.210938 739.488281 159.535156 739.085938 159.535156 " fill-opacity="1" fill-rule="nonzero"/><path fill="#5479f7" d="M 723.144531 93.347656 C 723.144531 84.542969 730.28125 77.40625 739.085938 77.40625 C 747.890625 77.40625 755.03125 84.542969 755.03125 93.347656 C 755.03125 102.152344 747.890625 109.285156 739.085938 109.285156 C 730.28125 109.285156 723.144531 102.152344 723.144531 93.347656 Z M 695.246094 93.347656 C 695.246094 98.085938 699.089844 101.929688 703.832031 101.929688 C 704.183594 101.929688 704.53125 101.902344 704.871094 101.859375 C 705.726562 105.304688 707.089844 108.550781 708.871094 111.515625 C 708.601562 111.726562 708.335938 111.949219 708.089844 112.199219 C 704.734375 115.550781 704.734375 120.988281 708.089844 124.339844 C 711.4375 127.691406 716.875 127.691406 720.230469 124.339844 C 720.480469 124.089844 720.703125 123.824219 720.917969 123.550781 C 723.878906 125.339844 727.125 126.699219 730.570312 127.550781 C 730.53125 127.890625 730.5 128.238281 730.5 128.59375 C 730.5 133.332031 734.34375 137.175781 739.085938 137.175781 C 743.828125 137.175781 747.671875 133.332031 747.671875 128.59375 C 747.671875 128.238281 747.644531 127.890625 747.601562 127.550781 C 751.050781 126.699219 754.296875 125.339844 757.257812 123.550781 C 757.472656 123.824219 757.695312 124.089844 757.945312 124.339844 C 761.296875 127.691406 766.734375 127.691406 770.085938 124.339844 C 773.4375 120.988281 773.4375 115.550781 770.085938 112.199219 C 769.835938 111.949219 769.574219 111.726562 769.300781 111.515625 C 771.085938 108.550781 772.445312 105.304688 773.300781 101.859375 C 773.640625 101.902344 773.988281 101.929688 774.34375 101.929688 C 779.082031 101.929688 782.929688 98.085938 782.929688 93.347656 C 782.929688 88.605469 779.082031 84.761719 774.34375 84.761719 C 773.988281 84.761719 773.640625 84.789062 773.300781 84.832031 C 772.445312 81.386719 771.085938 78.140625 769.300781 75.179688 C 769.574219 74.96875 769.835938 74.742188 770.085938 74.492188 C 773.4375 71.140625 773.4375 65.703125 770.085938 62.355469 C 766.734375 59 761.296875 59 757.945312 62.355469 C 757.695312 62.601562 757.472656 62.867188 757.257812 63.136719 C 754.296875 61.355469 751.050781 59.996094 747.601562 59.140625 C 747.644531 58.796875 747.671875 58.449219 747.671875 58.101562 C 747.671875 53.359375 743.828125 49.515625 739.085938 49.515625 C 734.34375 49.515625 730.5 53.359375 730.5 58.101562 C 730.5 58.449219 730.53125 58.796875 730.570312 59.140625 C 727.125 59.996094 723.878906 61.355469 720.917969 63.136719 C 720.703125 62.867188 720.480469 62.601562 720.230469 62.355469 C 716.875 59 711.4375 59 708.089844 62.355469 C 704.734375 65.703125 704.734375 71.140625 708.089844 74.492188 C 708.335938 74.742188 708.601562 74.96875 708.871094 75.179688 C 707.089844 78.140625 705.726562 81.386719 704.871094 84.832031 C 704.53125 84.789062 704.183594 84.761719 703.832031 84.761719 C 699.089844 84.761719 695.246094 88.605469 695.246094 93.347656 " fill-opacity="1" fill-rule="nonzero"/><path fill="#ffffff" d="M 755.03125 93.347656 C 755.03125 84.542969 747.890625 77.40625 739.085938 77.40625 C 730.28125 77.40625 723.144531 84.542969 723.144531 93.347656 C 723.144531 102.152344 730.28125 109.285156 739.085938 109.285156 C 747.890625 109.285156 755.03125 102.152344 755.03125 93.347656 " fill-opacity="1" fill-rule="nonzero"/></svg>