<svg xmlns="http://www.w3.org/2000/svg" xmlns:xlink="http://www.w3.org/1999/xlink" width="1920" zoomAndPan="magnify" viewBox="0 0 1440 809.999993" height="1080" preserveAspectRatio="xMidYMid meet" version="1.0"><defs><clipPath id="c560c558d6"><path d="M 673 493 L 1087.625 493 L 1087.625 509 L 673 509 Z M 673 493 " clip-rule="nonzero"/></clipPath><clipPath id="5327519fc2"><path d="M 673 241 L 1087.625 241 L 1087.625 491 L 673 491 Z M 673 241 " clip-rule="nonzero"/></clipPath><clipPath id="9aae36d566"><path d="M 485 590 L 798 590 L 798 609.75 L 485 609.75 Z M 485 590 " clip-rule="nonzero"/></clipPath><clipPath id="2f070ff436"><path d="M 484 589 L 798 589 L 798 609.75 L 484 609.75 Z M 484 589 " clip-rule="nonzero"/></clipPath></defs><path fill="#000000" d="M 474.167969 201.542969 C 471.320312 195.011719 471.394531 187.453125 468.296875 181.03125 C 462.597656 169.207031 447.273438 164.585938 434.449219 167.382812 C 421.628906 170.179688 410.871094 178.695312 401.128906 187.496094 C 376.660156 209.59375 354.945312 235.730469 343.25 266.566406 C 338.207031 279.863281 335.105469 294.609375 339.0625 308.269531 C 343.019531 321.925781 355.761719 333.78125 369.941406 332.796875 C 365.632812 340.929688 367.640625 351.550781 373.667969 358.5 C 379.695312 365.453125 389.101562 368.914062 398.300781 369.003906 C 407.496094 369.09375 416.503906 366.09375 424.660156 361.835938 C 446.355469 350.515625 462.921875 329.773438 469.175781 306.105469 C 471.902344 295.792969 472.722656 285.039062 475.851562 274.828125 C 478.945312 264.710938 485.265625 257.09375 490.6875 248.222656 C 502.882812 228.257812 481.378906 218.0625 474.167969 201.542969 " fill-opacity="1" fill-rule="nonzero"/><path fill="#5479f7" d="M 719.808594 389.996094 C 719.808594 389.996094 565.988281 288.847656 528.109375 289.398438 C 528.109375 289.398438 474.222656 277.136719 385.316406 371.882812 C 296.414062 466.625 302.332031 521.378906 335.105469 552.332031 C 374.835938 589.851562 439.621094 516.460938 439.621094 516.460938 L 492.476562 579.433594 L 642.402344 579.433594 L 719.808594 389.996094 " fill-opacity="1" fill-rule="nonzero"/><path fill="#000000" d="M 656.210938 427.792969 C 656.058594 427.792969 655.910156 427.738281 655.792969 427.625 L 590.398438 367.183594 C 584.445312 361.679688 576.847656 353.351562 579.613281 344.644531 C 579.71875 344.316406 580.074219 344.132812 580.398438 344.238281 C 580.722656 344.339844 580.902344 344.691406 580.800781 345.019531 C 578.246094 353.050781 585.539062 360.996094 591.246094 366.269531 L 656.632812 426.714844 C 656.886719 426.945312 656.902344 427.339844 656.667969 427.589844 C 656.546875 427.722656 656.378906 427.792969 656.210938 427.792969 " fill-opacity="1" fill-rule="nonzero"/><path fill="#000000" d="M 355.765625 475.363281 C 355.625 475.363281 355.488281 475.316406 355.371094 475.222656 C 355.105469 475 355.066406 474.613281 355.285156 474.34375 L 408.191406 410.253906 C 408.410156 409.988281 408.800781 409.953125 409.066406 410.167969 C 409.328125 410.390625 409.367188 410.78125 409.148438 411.046875 L 356.246094 475.136719 C 356.121094 475.289062 355.945312 475.363281 355.765625 475.363281 " fill-opacity="1" fill-rule="nonzero"/><path fill="#000000" d="M 440.882812 514.984375 C 440.773438 514.984375 440.660156 514.957031 440.5625 514.898438 C 440.265625 514.71875 440.171875 514.335938 440.347656 514.042969 L 453.90625 491.449219 C 454.082031 491.152344 454.460938 491.058594 454.757812 491.234375 C 455.050781 491.410156 455.148438 491.792969 454.96875 492.085938 L 441.414062 514.683594 C 441.296875 514.878906 441.09375 514.984375 440.882812 514.984375 " fill-opacity="1" fill-rule="nonzero"/><path fill="#5479f7" d="M 444.257812 302.347656 C 453.390625 301.292969 461.417969 296.046875 469.980469 292.699219 C 478.546875 289.347656 489.316406 288.285156 496.042969 294.558594 C 501.296875 299.460938 502.414062 307.761719 500.003906 314.527344 C 497.59375 321.296875 492.203125 326.648438 486.164062 330.539062 C 480.125 334.429688 473.382812 337.054688 466.832031 340.003906 C 460.582031 342.8125 454.441406 345.941406 447.890625 347.960938 C 441.34375 349.976562 434.242188 350.835938 427.640625 349.007812 C 418.246094 346.40625 410.625 337.925781 409.523438 328.238281 C 408.421875 318.546875 414.234375 308.34375 423.3125 304.792969 C 433.246094 300.910156 445.246094 304.726562 454.636719 299.667969 L 444.257812 302.347656 " fill-opacity="1" fill-rule="nonzero"/><path fill="#5479f7" d="M 444.257812 302.347656 C 453.390625 301.292969 461.417969 296.046875 469.980469 292.699219 C 478.546875 289.347656 489.316406 288.285156 496.042969 294.558594 C 501.296875 299.460938 502.414062 307.761719 500.003906 314.527344 C 497.59375 321.296875 492.203125 326.648438 486.164062 330.539062 C 480.125 334.429688 473.382812 337.054688 466.832031 340.003906 C 460.582031 342.8125 454.441406 345.941406 447.890625 347.960938 C 441.34375 349.976562 434.242188 350.835938 427.640625 349.007812 C 418.246094 346.40625 410.625 337.925781 409.523438 328.238281 C 408.421875 318.546875 414.234375 308.34375 423.3125 304.792969 C 433.246094 300.910156 445.246094 304.726562 454.636719 299.667969 L 444.257812 302.347656 " fill-opacity="1" fill-rule="nonzero"/><path fill="#ffffff" d="M 438.023438 278.949219 L 436.765625 304.589844 C 436.765625 304.589844 460.761719 307.84375 478.402344 301.199219 L 478.804688 267.796875 C 478.804688 267.796875 447.972656 268.035156 438.023438 278.949219 " fill-opacity="1" fill-rule="nonzero"/><path fill="#000000" d="M 451.191406 306.378906 C 442.5 306.378906 436.761719 305.222656 436.636719 305.199219 C 436.339844 305.136719 436.128906 304.863281 436.144531 304.558594 L 437.402344 278.917969 C 437.410156 278.773438 437.46875 278.636719 437.566406 278.527344 C 447.582031 267.542969 477.53125 267.1875 478.800781 267.175781 C 478.984375 267.199219 479.125 267.242188 479.242188 267.355469 C 479.359375 267.472656 479.425781 267.632812 479.425781 267.796875 L 479.425781 290.332031 C 479.425781 290.679688 479.148438 290.957031 478.804688 290.957031 C 478.460938 290.957031 478.183594 290.679688 478.183594 290.332031 L 478.183594 268.433594 C 473.796875 268.542969 447.65625 269.617188 438.632812 279.203125 L 437.414062 304.078125 C 441.167969 304.734375 464.554688 308.21875 487.648438 297.488281 C 487.960938 297.34375 488.328125 297.480469 488.472656 297.789062 C 488.617188 298.101562 488.484375 298.472656 488.171875 298.617188 C 474.652344 304.898438 461.03125 306.378906 451.191406 306.378906 " fill-opacity="1" fill-rule="nonzero"/><path fill="#ffffff" d="M 432.769531 264.878906 C 432.769531 264.878906 442.558594 264.011719 441.175781 258.542969 C 439.792969 253.074219 418.316406 244.023438 429.167969 221.90625 C 440.019531 199.792969 457.605469 193.964844 466.167969 205.324219 C 474.726562 216.679688 502.195312 250.660156 494.140625 264.878906 C 486.085938 279.101562 471.128906 281.804688 449.578125 278.875 C 449.578125 278.875 420.066406 296.671875 415.8125 275.585938 C 411.953125 256.480469 432.769531 264.878906 432.769531 264.878906 " fill-opacity="1" fill-rule="nonzero"/><path fill="#000000" d="M 423.742188 263.664062 C 421.6875 263.664062 419.675781 264.070312 418.222656 265.28125 C 416.03125 267.105469 415.425781 270.53125 416.421875 275.460938 C 417.304688 279.847656 419.398438 282.792969 422.644531 284.222656 C 432.269531 288.460938 449.089844 278.441406 449.257812 278.339844 C 449.378906 278.265625 449.519531 278.238281 449.664062 278.257812 C 473.210938 281.460938 486.351562 277.371094 493.597656 264.574219 C 500.855469 251.753906 477.722656 221.480469 467.84375 208.550781 C 467.03125 207.492188 466.300781 206.53125 465.667969 205.699219 C 462.6875 201.742188 458.582031 199.890625 453.800781 200.347656 C 445.023438 201.183594 436.023438 209.34375 429.722656 222.179688 C 421.925781 238.074219 431.179688 246.976562 437.304688 252.867188 C 439.578125 255.050781 441.371094 256.78125 441.777344 258.390625 C 442.109375 259.699219 441.90625 260.886719 441.171875 261.914062 C 439.046875 264.917969 433.078125 265.476562 432.824219 265.5 C 432.726562 265.507812 432.628906 265.492188 432.535156 265.457031 C 432.46875 265.429688 428.011719 263.664062 423.742188 263.664062 Z M 428.261719 286.523438 C 426.09375 286.523438 424.007812 286.183594 422.144531 285.363281 C 418.507812 283.761719 416.171875 280.515625 415.203125 275.710938 C 414.109375 270.292969 414.855469 266.460938 417.429688 264.324219 C 422.207031 260.351562 431.519531 263.730469 432.855469 264.246094 C 433.738281 264.144531 438.527344 263.503906 440.160156 261.195312 C 440.679688 260.464844 440.8125 259.648438 440.574219 258.695312 C 440.253906 257.429688 438.488281 255.730469 436.441406 253.761719 C 430.445312 247.996094 420.410156 238.34375 428.609375 221.632812 C 435.097656 208.40625 444.472656 199.988281 453.683594 199.109375 C 458.84375 198.625 463.453125 200.695312 466.664062 204.949219 C 467.289062 205.785156 468.019531 206.738281 468.832031 207.796875 C 479.707031 222.03125 502.347656 251.652344 494.679688 265.1875 C 487.164062 278.457031 473.707031 282.746094 449.710938 279.519531 C 448.082031 280.472656 437.433594 286.523438 428.261719 286.523438 " fill-opacity="1" fill-rule="nonzero"/><path fill="#000000" d="M 439.53125 276.195312 C 439.398438 276.195312 439.265625 276.152344 439.152344 276.066406 C 436.417969 273.949219 432.660156 273.234375 429.339844 274.195312 C 429.003906 274.292969 428.664062 274.101562 428.570312 273.773438 C 428.472656 273.445312 428.664062 273.097656 428.992188 273.003906 C 432.6875 271.929688 436.871094 272.722656 439.910156 275.082031 C 440.183594 275.292969 440.234375 275.683594 440.023438 275.957031 C 439.902344 276.113281 439.714844 276.195312 439.53125 276.195312 " fill-opacity="1" fill-rule="nonzero"/><path fill="#000000" d="M 441.320312 349.691406 C 433.65625 349.691406 425.996094 348.390625 418.773438 345.808594 C 418.449219 345.691406 418.28125 345.335938 418.398438 345.011719 C 418.515625 344.6875 418.871094 344.519531 419.191406 344.636719 C 432.175781 349.28125 446.617188 349.691406 459.84375 345.789062 C 473.074219 341.886719 484.980469 333.707031 493.371094 322.753906 C 493.578125 322.480469 493.96875 322.429688 494.242188 322.640625 C 494.515625 322.851562 494.566406 323.238281 494.355469 323.511719 C 485.808594 334.671875 473.675781 343.007812 460.199219 346.984375 C 454.074219 348.789062 447.695312 349.691406 441.320312 349.691406 " fill-opacity="1" fill-rule="nonzero"/><path fill="#ffffff" d="M 674.414062 494.253906 C 674.414062 501.535156 680.289062 507.4375 687.542969 507.4375 L 1073.828125 507.4375 C 1081.082031 507.4375 1086.957031 501.535156 1086.957031 494.253906 L 1086.957031 489.421875 L 1077.234375 484.34375 L 677.597656 484.34375 L 674.414062 489.421875 L 674.414062 494.253906 " fill-opacity="1" fill-rule="nonzero"/><g clip-path="url(#c560c558d6)"><path fill="#000000" d="M 1073.828125 508.058594 L 687.542969 508.058594 C 679.957031 508.058594 673.789062 501.863281 673.789062 494.253906 C 673.789062 493.90625 674.070312 493.632812 674.410156 493.632812 C 674.753906 493.632812 675.03125 493.90625 675.03125 494.253906 C 675.03125 501.179688 680.644531 506.816406 687.542969 506.816406 L 1073.828125 506.816406 C 1080.726562 506.816406 1086.335938 501.179688 1086.335938 494.253906 C 1086.335938 493.90625 1086.613281 493.632812 1086.957031 493.632812 C 1087.300781 493.632812 1087.578125 493.90625 1087.578125 494.253906 C 1087.578125 501.863281 1081.410156 508.058594 1073.828125 508.058594 " fill-opacity="1" fill-rule="nonzero"/></g><path fill="#ffffff" d="M 944.246094 547.46875 L 817.121094 547.46875 C 810.636719 547.46875 805.382812 542.210938 805.382812 535.722656 L 805.382812 507.4375 L 955.988281 507.4375 L 955.988281 535.722656 C 955.988281 542.210938 950.730469 547.46875 944.246094 547.46875 " fill-opacity="1" fill-rule="nonzero"/><path fill="#000000" d="M 806.003906 508.058594 L 806.003906 535.722656 C 806.003906 541.855469 810.992188 546.847656 817.121094 546.847656 L 944.246094 546.847656 C 950.378906 546.847656 955.367188 541.855469 955.367188 535.722656 L 955.367188 508.058594 Z M 944.246094 548.09375 L 817.121094 548.09375 C 810.304688 548.09375 804.757812 542.542969 804.757812 535.722656 L 804.757812 507.4375 C 804.757812 507.09375 805.035156 506.816406 805.382812 506.816406 L 955.988281 506.816406 C 956.332031 506.816406 956.609375 507.09375 956.609375 507.4375 L 956.609375 535.722656 C 956.609375 542.542969 951.066406 548.09375 944.246094 548.09375 " fill-opacity="1" fill-rule="nonzero"/><path fill="#000000" d="M 950.378906 517.460938 L 810.992188 517.460938 C 810.648438 517.460938 810.371094 517.183594 810.371094 516.839844 C 810.371094 516.496094 810.648438 516.21875 810.992188 516.21875 L 950.378906 516.21875 C 950.722656 516.21875 951 516.496094 951 516.839844 C 951 517.183594 950.722656 517.460938 950.378906 517.460938 " fill-opacity="1" fill-rule="nonzero"/><path fill="#ffffff" d="M 1086.957031 489.421875 L 674.414062 489.421875 L 674.414062 256.171875 C 674.414062 248.519531 680.613281 242.316406 688.261719 242.316406 L 1073.105469 242.316406 C 1080.753906 242.316406 1086.957031 248.519531 1086.957031 256.171875 L 1086.957031 489.421875 " fill-opacity="1" fill-rule="nonzero"/><g clip-path="url(#5327519fc2)"><path fill="#000000" d="M 675.03125 488.796875 L 1086.335938 488.796875 L 1086.335938 256.171875 C 1086.335938 248.875 1080.402344 242.9375 1073.105469 242.9375 L 688.265625 242.9375 C 680.96875 242.9375 675.03125 248.875 675.03125 256.171875 Z M 1086.957031 490.042969 L 674.410156 490.042969 C 674.070312 490.042969 673.789062 489.761719 673.789062 489.421875 L 673.789062 256.171875 C 673.789062 248.191406 680.285156 241.695312 688.265625 241.695312 L 1073.105469 241.695312 C 1081.085938 241.695312 1087.578125 248.191406 1087.578125 256.171875 L 1087.578125 489.421875 C 1087.578125 489.761719 1087.300781 490.042969 1086.957031 490.042969 " fill-opacity="1" fill-rule="nonzero"/></g><path fill="#000000" d="M 689.125 474.648438 L 1072.246094 474.648438 L 1072.246094 257.851562 C 1072.246094 257.429688 1071.902344 257.085938 1071.480469 257.085938 L 689.890625 257.085938 C 689.464844 257.085938 689.125 257.429688 689.125 257.851562 Z M 1072.867188 475.894531 L 688.503906 475.894531 C 688.160156 475.894531 687.882812 475.613281 687.882812 475.269531 L 687.882812 257.851562 C 687.882812 256.742188 688.785156 255.84375 689.890625 255.84375 L 1071.480469 255.84375 C 1072.585938 255.84375 1073.488281 256.742188 1073.488281 257.851562 L 1073.488281 475.269531 C 1073.488281 475.613281 1073.210938 475.894531 1072.867188 475.894531 " fill-opacity="1" fill-rule="nonzero"/><path fill="#e2eaff" d="M 976.015625 428.148438 L 785.355469 428.148438 L 785.355469 303.585938 L 976.015625 303.585938 L 976.015625 428.148438 " fill-opacity="1" fill-rule="nonzero"/><path fill="#ffffff" d="M 872.75 394.816406 C 872.648438 394.816406 872.542969 394.816406 872.441406 394.8125 C 869.738281 394.714844 867.242188 393.320312 865.742188 391.066406 L 850.027344 367.484375 C 847.449219 363.613281 848.492188 358.382812 852.367188 355.800781 C 856.230469 353.214844 861.464844 354.261719 864.042969 358.136719 L 873.277344 371.996094 L 899.496094 338.300781 C 902.355469 334.625 907.640625 333.972656 911.3125 336.828125 C 914.984375 339.6875 915.644531 344.980469 912.785156 348.65625 L 879.398438 391.566406 C 877.796875 393.621094 875.339844 394.816406 872.75 394.816406 " fill-opacity="1" fill-rule="nonzero"/><path fill="#ffffff" d="M 750.640625 401.089844 L 531.871094 401.089844 C 523.703125 401.089844 517.085938 407.710938 517.085938 415.878906 L 517.085938 576.011719 C 517.085938 584.179688 523.703125 590.804688 531.871094 590.804688 L 750.640625 590.804688 C 758.808594 590.804688 765.425781 584.179688 765.425781 576.011719 L 765.425781 415.878906 C 765.425781 407.710938 758.808594 401.089844 750.640625 401.089844 " fill-opacity="1" fill-rule="nonzero"/><path fill="#000000" d="M 750.640625 591.425781 L 531.871094 591.425781 C 525.597656 591.425781 520 587.675781 517.617188 581.871094 C 517.488281 581.550781 517.636719 581.191406 517.957031 581.058594 C 518.273438 580.929688 518.636719 581.078125 518.765625 581.398438 C 520.960938 586.734375 526.105469 590.183594 531.871094 590.183594 L 750.640625 590.183594 C 758.453125 590.183594 764.804688 583.824219 764.804688 576.011719 L 764.804688 415.878906 C 764.804688 408.066406 758.453125 401.710938 750.640625 401.710938 L 666.367188 401.710938 C 666.023438 401.710938 665.746094 401.429688 665.746094 401.089844 C 665.746094 400.742188 666.023438 400.464844 666.367188 400.464844 L 750.640625 400.464844 C 759.136719 400.464844 766.046875 407.378906 766.046875 415.878906 L 766.046875 576.011719 C 766.046875 584.507812 759.136719 591.425781 750.640625 591.425781 " fill-opacity="1" fill-rule="nonzero"/><path fill="#ffffff" d="M 531.871094 583.277344 C 527.863281 583.277344 524.609375 580.019531 524.609375 576.011719 L 524.609375 415.878906 C 524.609375 411.875 527.863281 408.613281 531.871094 408.613281 L 750.640625 408.613281 C 754.648438 408.613281 757.90625 411.875 757.90625 415.878906 L 757.90625 576.011719 C 757.90625 580.019531 754.648438 583.277344 750.640625 583.277344 L 531.871094 583.277344 " fill-opacity="1" fill-rule="nonzero"/><path fill="#000000" d="M 531.871094 409.234375 C 528.210938 409.234375 525.230469 412.214844 525.230469 415.878906 L 525.230469 576.011719 C 525.230469 579.675781 528.210938 582.65625 531.871094 582.65625 L 750.640625 582.65625 C 754.304688 582.65625 757.285156 579.675781 757.285156 576.011719 L 757.285156 415.878906 C 757.285156 412.214844 754.304688 409.234375 750.640625 409.234375 Z M 750.640625 583.898438 L 531.871094 583.898438 C 527.523438 583.898438 523.988281 580.363281 523.988281 576.011719 L 523.988281 415.878906 C 523.988281 411.527344 527.523438 407.992188 531.871094 407.992188 L 750.640625 407.992188 C 754.988281 407.992188 758.527344 411.527344 758.527344 415.878906 L 758.527344 576.011719 C 758.527344 580.363281 754.988281 583.898438 750.640625 583.898438 " fill-opacity="1" fill-rule="nonzero"/><g clip-path="url(#9aae36d566)"><path fill="#ffffff" d="M 779.261719 609.128906 L 503.253906 609.128906 C 493.253906 609.128906 485.148438 601.019531 485.148438 591.011719 L 485.148438 590.550781 L 797.367188 590.550781 L 797.367188 591.011719 C 797.367188 601.019531 789.261719 609.128906 779.261719 609.128906 " fill-opacity="1" fill-rule="nonzero"/></g><g clip-path="url(#2f070ff436)"><path fill="#000000" d="M 485.769531 591.175781 C 485.855469 600.746094 493.664062 608.507812 503.253906 608.507812 L 779.261719 608.507812 C 788.847656 608.507812 796.65625 600.746094 796.746094 591.175781 Z M 779.261719 609.75 L 503.253906 609.75 C 492.925781 609.75 484.523438 601.34375 484.523438 591.011719 L 484.523438 590.550781 C 484.523438 590.207031 484.800781 589.929688 485.148438 589.929688 L 797.367188 589.929688 C 797.710938 589.929688 797.988281 590.207031 797.988281 590.550781 L 797.988281 591.011719 C 797.988281 601.34375 789.589844 609.75 779.261719 609.75 " fill-opacity="1" fill-rule="nonzero"/></g><path fill="#e2eaff" d="M 710.882812 546 L 571.632812 546 L 571.632812 440.601562 L 710.882812 440.601562 L 710.882812 546 " fill-opacity="1" fill-rule="nonzero"/><path fill="#ffffff" d="M 636.132812 509.730469 C 636.0625 509.730469 635.992188 509.730469 635.925781 509.726562 C 634.121094 509.660156 632.460938 508.730469 631.460938 507.230469 L 620.992188 491.519531 C 619.273438 488.941406 619.96875 485.453125 622.546875 483.734375 C 625.125 482.007812 628.609375 482.710938 630.328125 485.289062 L 636.484375 494.523438 L 653.953125 472.074219 C 655.855469 469.625 659.382812 469.1875 661.828125 471.089844 C 664.273438 472.996094 664.710938 476.527344 662.808594 478.972656 L 640.5625 507.566406 C 639.496094 508.933594 637.859375 509.730469 636.132812 509.730469 " fill-opacity="1" fill-rule="nonzero"/><path fill="#ffffff" d="M 1003.304688 215.695312 L 562.480469 215.695312 C 550.433594 215.695312 540.582031 205.835938 540.582031 193.785156 L 540.582031 192.675781 C 540.582031 180.625 550.433594 170.765625 562.480469 170.765625 L 1003.304688 170.765625 C 1015.347656 170.765625 1025.203125 180.625 1025.203125 192.675781 L 1025.203125 193.785156 C 1025.203125 205.835938 1015.347656 215.695312 1003.304688 215.695312 " fill-opacity="1" fill-rule="nonzero"/><path fill="#e2eaff" d="M 562.480469 171.390625 C 550.746094 171.390625 541.203125 180.9375 541.203125 192.675781 L 541.203125 193.785156 C 541.203125 205.523438 550.746094 215.070312 562.480469 215.070312 L 1003.304688 215.070312 C 1015.035156 215.070312 1024.578125 205.523438 1024.578125 193.785156 L 1024.578125 192.675781 C 1024.578125 180.9375 1015.035156 171.390625 1003.304688 171.390625 Z M 1003.304688 216.316406 L 562.480469 216.316406 C 550.058594 216.316406 539.960938 206.210938 539.960938 193.785156 L 539.960938 192.675781 C 539.960938 180.253906 550.058594 170.144531 562.480469 170.144531 L 1003.304688 170.144531 C 1015.71875 170.144531 1025.824219 180.253906 1025.824219 192.675781 L 1025.824219 193.785156 C 1025.824219 206.210938 1015.71875 216.316406 1003.304688 216.316406 " fill-opacity="1" fill-rule="nonzero"/><path fill="#e2eaff" d="M 994.339844 199.792969 L 950.695312 199.792969 C 946.902344 199.792969 943.824219 196.71875 943.824219 192.917969 L 943.824219 192.574219 C 943.824219 188.777344 946.902344 185.703125 950.695312 185.703125 L 994.339844 185.703125 C 998.136719 185.703125 1001.210938 188.777344 1001.210938 192.574219 L 1001.210938 192.917969 C 1001.210938 196.71875 998.136719 199.792969 994.339844 199.792969 " fill-opacity="1" fill-rule="nonzero"/><path fill="#e2eaff" d="M 915.328125 199.792969 L 817.546875 199.792969 C 813.757812 199.792969 810.679688 196.71875 810.679688 192.917969 L 810.679688 192.574219 C 810.679688 188.777344 813.757812 185.703125 817.546875 185.703125 L 915.328125 185.703125 C 919.125 185.703125 922.199219 188.777344 922.199219 192.574219 L 922.199219 192.917969 C 922.199219 196.71875 919.125 199.792969 915.328125 199.792969 " fill-opacity="1" fill-rule="nonzero"/><path fill="#000000" d="M 968.601562 156.503906 L 807.332031 156.503906 C 806.984375 156.503906 806.710938 156.226562 806.710938 155.882812 C 806.710938 155.542969 806.984375 155.261719 807.332031 155.261719 L 968.601562 155.261719 C 968.945312 155.261719 969.222656 155.542969 969.222656 155.882812 C 969.222656 156.226562 968.945312 156.503906 968.601562 156.503906 " fill-opacity="1" fill-rule="nonzero"/><path fill="#000000" d="M 835.46875 230.425781 L 807.332031 230.425781 C 806.984375 230.425781 806.710938 230.148438 806.710938 229.800781 C 806.710938 229.457031 806.984375 229.179688 807.332031 229.179688 L 835.46875 229.179688 C 835.8125 229.179688 836.089844 229.457031 836.089844 229.800781 C 836.089844 230.148438 835.8125 230.425781 835.46875 230.425781 " fill-opacity="1" fill-rule="nonzero"/><path fill="#000000" d="M 858.570312 144.058594 L 807.332031 144.058594 C 806.984375 144.058594 806.710938 143.78125 806.710938 143.441406 C 806.710938 143.097656 806.984375 142.820312 807.332031 142.820312 L 858.570312 142.820312 C 858.910156 142.820312 859.191406 143.097656 859.191406 143.441406 C 859.191406 143.78125 858.910156 144.058594 858.570312 144.058594 " fill-opacity="1" fill-rule="nonzero"/><path fill="#000000" d="M 581.234375 156.503906 L 556.511719 156.503906 C 556.167969 156.503906 555.890625 156.226562 555.890625 155.882812 C 555.890625 155.542969 556.167969 155.261719 556.511719 155.261719 L 581.234375 155.261719 C 581.578125 155.261719 581.855469 155.542969 581.855469 155.882812 C 581.855469 156.226562 581.578125 156.503906 581.234375 156.503906 " fill-opacity="1" fill-rule="nonzero"/><path fill="#000000" d="M 581.234375 230.425781 L 567.164062 230.425781 C 566.820312 230.425781 566.542969 230.148438 566.542969 229.800781 C 566.542969 229.457031 566.820312 229.179688 567.164062 229.179688 L 581.234375 229.179688 C 581.578125 229.179688 581.855469 229.457031 581.855469 229.800781 C 581.855469 230.148438 581.578125 230.425781 581.234375 230.425781 " fill-opacity="1" fill-rule="nonzero"/><path fill="#000000" d="M 581.234375 144.058594 L 574.199219 144.058594 C 573.855469 144.058594 573.578125 143.78125 573.578125 143.441406 C 573.578125 143.097656 573.855469 142.820312 574.199219 142.820312 L 581.234375 142.820312 C 581.578125 142.820312 581.855469 143.097656 581.855469 143.441406 C 581.855469 143.78125 581.578125 144.058594 581.234375 144.058594 " fill-opacity="1" fill-rule="nonzero"/><path fill="#5479f7" d="M 717.753906 218.832031 C 706.921875 238.296875 682.367188 245.289062 662.914062 234.449219 C 643.457031 223.613281 636.46875 199.042969 647.300781 179.582031 C 658.132812 160.117188 682.6875 153.125 702.144531 163.960938 C 721.597656 174.800781 728.589844 199.363281 717.753906 218.832031 " fill-opacity="1" fill-rule="nonzero"/><path fill="#ffffff" d="M 667.425781 227.128906 C 667.324219 227.128906 667.21875 227.105469 667.125 227.054688 C 666.824219 226.882812 666.71875 226.507812 666.886719 226.203125 L 669.09375 222.238281 C 673.773438 213.699219 678.46875 205.164062 683.164062 196.628906 C 687.820312 188.152344 692.480469 179.679688 697.128906 171.203125 C 697.292969 170.902344 697.667969 170.792969 697.972656 170.957031 C 698.273438 171.121094 698.382812 171.5 698.21875 171.800781 C 693.566406 180.28125 688.910156 188.753906 684.253906 197.222656 C 679.558594 205.761719 674.867188 214.296875 670.183594 222.839844 L 667.96875 226.8125 C 667.855469 227.015625 667.644531 227.128906 667.425781 227.128906 " fill-opacity="1" fill-rule="nonzero"/><path fill="#000000" d="M 732.539062 167.417969 C 731.28125 167.417969 730.015625 167.210938 728.804688 166.777344 C 726.285156 165.882812 724.511719 164.132812 724.0625 162.097656 C 723.773438 160.800781 724.199219 159.285156 725.144531 158.238281 C 725.933594 157.363281 726.988281 156.933594 728.042969 157.054688 C 728.382812 157.097656 728.625 157.40625 728.585938 157.746094 C 728.546875 158.089844 728.242188 158.332031 727.894531 158.292969 C 727.011719 158.183594 726.371094 158.738281 726.066406 159.074219 C 725.382812 159.828125 725.074219 160.910156 725.277344 161.828125 C 725.632812 163.441406 727.105469 164.851562 729.222656 165.605469 C 733.117188 166.992188 737.832031 165.6875 740.191406 162.566406 C 742.6875 159.277344 742.308594 154.269531 739.378906 151.628906 C 736.765625 149.28125 732.347656 148.800781 727.554688 150.347656 C 720.597656 152.59375 714.566406 157.875 711.425781 164.480469 C 711.28125 164.792969 710.910156 164.925781 710.597656 164.777344 C 710.289062 164.628906 710.15625 164.257812 710.304688 163.949219 C 713.589844 157.039062 719.894531 151.511719 727.175781 149.160156 C 729.679688 148.351562 735.960938 146.886719 740.210938 150.703125 C 743.605469 153.757812 744.050781 159.53125 741.1875 163.316406 C 739.207031 165.933594 735.90625 167.417969 732.539062 167.417969 " fill-opacity="1" fill-rule="nonzero"/><path fill="#ffffff" d="M 705.6875 172.527344 C 702.933594 172.527344 700.179688 171.832031 697.777344 170.496094 C 694.28125 168.546875 691.558594 165.253906 690.296875 161.457031 C 690.191406 161.132812 690.367188 160.777344 690.691406 160.671875 C 691.019531 160.5625 691.367188 160.738281 691.480469 161.066406 C 692.640625 164.570312 695.15625 167.613281 698.382812 169.40625 C 701.609375 171.207031 705.515625 171.742188 709.109375 170.882812 C 709.441406 170.804688 709.78125 171.011719 709.859375 171.34375 C 709.9375 171.679688 709.730469 172.015625 709.398438 172.09375 C 708.183594 172.386719 706.9375 172.527344 705.6875 172.527344 " fill-opacity="1" fill-rule="nonzero"/><path fill="#000000" d="M 697.332031 157.296875 C 697.21875 157.296875 697.101562 157.265625 696.996094 157.199219 C 696.707031 157.015625 696.621094 156.625 696.808594 156.339844 C 700.769531 150.1875 702.085938 142.277344 700.328125 135.175781 C 699.117188 130.289062 696.382812 126.785156 693.011719 125.800781 C 689.226562 124.695312 684.773438 127.011719 683.289062 130.863281 C 681.882812 134.515625 683.253906 139.214844 686.484375 141.796875 C 688.238281 143.199219 690.214844 143.710938 691.769531 143.164062 C 692.65625 142.851562 693.414062 142.019531 693.695312 141.039062 C 693.820312 140.601562 693.949219 139.769531 693.398438 139.070312 C 693.183594 138.804688 693.226562 138.414062 693.496094 138.199219 C 693.765625 137.984375 694.15625 138.027344 694.371094 138.296875 C 695.027344 139.125 695.21875 140.25 694.894531 141.382812 C 694.503906 142.738281 693.4375 143.898438 692.179688 144.335938 C 690.21875 145.027344 687.800781 144.4375 685.707031 142.769531 C 682.011719 139.816406 680.507812 134.621094 682.128906 130.417969 C 683.832031 125.988281 688.976562 123.328125 693.359375 124.601562 C 698.839844 126.203125 700.902344 132.324219 701.535156 134.878906 C 703.371094 142.304688 701.996094 150.582031 697.855469 157.015625 C 697.738281 157.199219 697.535156 157.296875 697.332031 157.296875 " fill-opacity="1" fill-rule="nonzero"/><path fill="#000000" d="M 726.789062 190.78125 C 726.460938 190.78125 726.183594 190.523438 726.167969 190.191406 C 726.148438 189.847656 726.410156 189.558594 726.753906 189.539062 L 736.644531 189.019531 C 736.984375 188.992188 737.28125 189.261719 737.300781 189.605469 C 737.316406 189.949219 737.054688 190.242188 736.707031 190.257812 L 726.824219 190.777344 C 726.808594 190.78125 726.800781 190.78125 726.789062 190.78125 " fill-opacity="1" fill-rule="nonzero"/><path fill="#000000" d="M 728.875 224.320312 C 728.78125 224.320312 728.6875 224.300781 728.601562 224.257812 L 721.316406 220.675781 C 721.007812 220.523438 720.878906 220.152344 721.035156 219.84375 C 721.183594 219.535156 721.554688 219.402344 721.863281 219.558594 L 729.148438 223.140625 C 729.457031 223.292969 729.582031 223.664062 729.429688 223.972656 C 729.324219 224.191406 729.101562 224.320312 728.875 224.320312 " fill-opacity="1" fill-rule="nonzero"/><path fill="#000000" d="M 696.335938 252.601562 C 696.101562 252.601562 695.875 252.464844 695.769531 252.234375 L 692.15625 244.179688 C 692.015625 243.867188 692.15625 243.5 692.46875 243.359375 C 692.78125 243.214844 693.148438 243.355469 693.289062 243.671875 L 696.90625 251.722656 C 697.042969 252.039062 696.90625 252.40625 696.59375 252.546875 C 696.511719 252.582031 696.421875 252.601562 696.335938 252.601562 " fill-opacity="1" fill-rule="nonzero"/><path fill="#000000" d="M 666.90625 157.421875 C 666.683594 157.421875 666.472656 157.304688 666.359375 157.097656 L 661.59375 148.414062 C 661.425781 148.113281 661.539062 147.734375 661.839844 147.570312 C 662.140625 147.40625 662.515625 147.511719 662.683594 147.816406 L 667.449219 156.5 C 667.613281 156.800781 667.503906 157.179688 667.203125 157.34375 C 667.109375 157.394531 667.007812 157.421875 666.90625 157.421875 " fill-opacity="1" fill-rule="nonzero"/><path fill="#000000" d="M 644.1875 177.617188 C 644.074219 177.617188 643.960938 177.589844 643.859375 177.523438 L 636.980469 173.214844 C 636.6875 173.03125 636.601562 172.648438 636.78125 172.359375 C 636.964844 172.066406 637.351562 171.976562 637.636719 172.160156 L 644.519531 176.46875 C 644.808594 176.648438 644.898438 177.035156 644.714844 177.324219 C 644.597656 177.515625 644.394531 177.617188 644.1875 177.617188 " fill-opacity="1" fill-rule="nonzero"/><path fill="#000000" d="M 630.414062 215.878906 C 630.109375 215.878906 629.839844 215.648438 629.796875 215.335938 C 629.753906 214.996094 629.992188 214.683594 630.332031 214.640625 L 639.078125 213.472656 C 639.417969 213.421875 639.734375 213.667969 639.777344 214.003906 C 639.824219 214.347656 639.582031 214.660156 639.242188 214.703125 L 630.496094 215.871094 C 630.472656 215.875 630.441406 215.878906 630.414062 215.878906 " fill-opacity="1" fill-rule="nonzero"/><path fill="#ffffff" d="M 949.929688 332.519531 L 1021.523438 332.519531 C 1032.828125 332.519531 1042.078125 323.265625 1042.078125 311.953125 L 1042.078125 147.648438 C 1042.078125 136.339844 1032.828125 127.082031 1021.523438 127.082031 L 949.929688 127.082031 C 938.625 127.082031 929.375 136.339844 929.375 147.648438 L 929.375 311.953125 C 929.375 323.265625 938.625 332.519531 949.929688 332.519531 " fill-opacity="1" fill-rule="nonzero"/><path fill="#000000" d="M 949.929688 127.703125 C 938.9375 127.703125 930 136.652344 930 147.648438 L 930 311.953125 C 930 322.953125 938.9375 331.898438 949.929688 331.898438 L 1021.523438 331.898438 C 1032.511719 331.898438 1041.457031 322.953125 1041.457031 311.953125 L 1041.457031 147.648438 C 1041.457031 136.652344 1032.511719 127.703125 1021.523438 127.703125 Z M 1021.523438 333.140625 L 949.929688 333.140625 C 938.253906 333.140625 928.753906 323.636719 928.753906 311.953125 L 928.753906 147.648438 C 928.753906 135.964844 938.253906 126.460938 949.929688 126.460938 L 1021.523438 126.460938 C 1033.199219 126.460938 1042.699219 135.964844 1042.699219 147.648438 L 1042.699219 311.953125 C 1042.699219 323.636719 1033.199219 333.140625 1021.523438 333.140625 " fill-opacity="1" fill-rule="nonzero"/><path fill="#ffffff" d="M 950.480469 325.996094 L 1020.972656 325.996094 C 1029.539062 325.996094 1036.550781 318.984375 1036.550781 310.414062 L 1036.550781 148.621094 C 1036.550781 140.050781 1029.539062 133.039062 1020.972656 133.039062 L 950.480469 133.039062 C 941.914062 133.039062 934.90625 140.050781 934.90625 148.621094 L 934.90625 310.414062 C 934.90625 318.984375 941.914062 325.996094 950.480469 325.996094 " fill-opacity="1" fill-rule="nonzero"/><path fill="#000000" d="M 950.480469 133.660156 C 942.234375 133.660156 935.527344 140.375 935.527344 148.621094 L 935.527344 310.414062 C 935.527344 318.664062 942.234375 325.378906 950.480469 325.378906 L 1020.972656 325.378906 C 1029.21875 325.378906 1035.929688 318.664062 1035.929688 310.414062 L 1035.929688 148.621094 C 1035.929688 140.375 1029.21875 133.660156 1020.972656 133.660156 Z M 1020.972656 326.617188 L 950.480469 326.617188 C 941.550781 326.617188 934.28125 319.351562 934.28125 310.414062 L 934.28125 148.621094 C 934.28125 139.6875 941.550781 132.414062 950.480469 132.414062 L 1020.972656 132.414062 C 1029.90625 132.414062 1037.171875 139.6875 1037.171875 148.621094 L 1037.171875 310.414062 C 1037.171875 319.351562 1029.90625 326.617188 1020.972656 326.617188 " fill-opacity="1" fill-rule="nonzero"/><path fill="#000000" d="M 996.289062 139.472656 L 973.890625 139.472656 C 973.546875 139.472656 973.269531 139.195312 973.269531 138.851562 C 973.269531 138.507812 973.546875 138.230469 973.890625 138.230469 L 996.289062 138.230469 C 996.628906 138.230469 996.910156 138.507812 996.910156 138.851562 C 996.910156 139.195312 996.628906 139.472656 996.289062 139.472656 " fill-opacity="1" fill-rule="nonzero"/><path fill="#e2eaff" d="M 1011.652344 297.785156 C 1011.652344 291.925781 1006.90625 287.175781 1001.046875 287.175781 L 970.40625 287.175781 C 964.546875 287.175781 959.800781 291.925781 959.800781 297.785156 C 959.800781 303.648438 964.546875 308.398438 970.40625 308.398438 L 1001.046875 308.398438 C 1006.90625 308.398438 1011.652344 303.648438 1011.652344 297.785156 " fill-opacity="1" fill-rule="nonzero"/><path fill="#000000" d="M 992.148438 156.582031 L 946.496094 156.582031 C 946.15625 156.582031 945.875 156.304688 945.875 155.960938 C 945.875 155.617188 946.15625 155.335938 946.496094 155.335938 L 992.148438 155.335938 C 992.492188 155.335938 992.765625 155.617188 992.765625 155.960938 C 992.765625 156.304688 992.492188 156.582031 992.148438 156.582031 " fill-opacity="1" fill-rule="nonzero"/><path fill="#e2eaff" d="M 1024.957031 270.539062 L 946.496094 270.539062 L 946.496094 174.507812 L 1024.957031 174.507812 L 1024.957031 270.539062 " fill-opacity="1" fill-rule="nonzero"/><path fill="#ffffff" d="M 981.058594 239.179688 C 980.996094 239.179688 980.929688 239.179688 980.867188 239.179688 C 979.226562 239.121094 977.714844 238.269531 976.800781 236.902344 L 967.261719 222.589844 C 965.695312 220.238281 966.332031 217.058594 968.683594 215.492188 C 971.027344 213.925781 974.203125 214.558594 975.773438 216.914062 L 981.378906 225.324219 L 997.296875 204.871094 C 999.03125 202.636719 1002.242188 202.242188 1004.472656 203.976562 C 1006.699219 205.710938 1007.097656 208.929688 1005.363281 211.15625 L 985.089844 237.207031 C 984.121094 238.453125 982.628906 239.179688 981.058594 239.179688 " fill-opacity="1" fill-rule="nonzero"/><path fill="#ffffff" d="M 522.414062 360.929688 C 520.601562 360.929688 518.789062 360.238281 517.40625 358.855469 C 514.640625 356.089844 514.640625 351.605469 517.40625 348.835938 L 610.839844 255.359375 C 613.605469 252.589844 618.085938 252.589844 620.851562 255.359375 C 623.617188 258.125 623.617188 262.609375 620.851562 265.378906 L 527.417969 358.855469 C 526.035156 360.238281 524.226562 360.929688 522.414062 360.929688 " fill-opacity="1" fill-rule="nonzero"/><path fill="#000000" d="M 615.84375 253.90625 C 614.121094 253.90625 612.5 254.578125 611.277344 255.796875 L 517.84375 349.277344 C 516.625 350.5 515.953125 352.117188 515.953125 353.847656 C 515.953125 355.570312 516.625 357.195312 517.84375 358.417969 C 519.066406 359.636719 520.6875 360.308594 522.414062 360.308594 C 524.136719 360.308594 525.757812 359.636719 526.976562 358.417969 L 620.414062 264.933594 C 621.632812 263.714844 622.300781 262.09375 622.300781 260.367188 C 622.300781 258.640625 621.632812 257.019531 620.414062 255.796875 C 619.195312 254.578125 617.570312 253.90625 615.84375 253.90625 Z M 522.414062 361.550781 C 520.355469 361.550781 518.417969 360.75 516.96875 359.296875 C 515.511719 357.839844 514.710938 355.90625 514.710938 353.847656 C 514.710938 351.789062 515.511719 349.851562 516.96875 348.398438 L 610.398438 254.917969 C 611.855469 253.464844 613.789062 252.660156 615.84375 252.660156 C 617.902344 252.660156 619.835938 253.464844 621.292969 254.917969 C 622.746094 256.375 623.546875 258.308594 623.546875 260.367188 C 623.546875 262.425781 622.746094 264.359375 621.292969 265.816406 L 527.859375 359.296875 C 526.402344 360.75 524.472656 361.550781 522.414062 361.550781 " fill-opacity="1" fill-rule="nonzero"/><path fill="#ffffff" d="M 619.714844 136.214844 C 588.128906 173.011719 592.347656 228.652344 629.125 260.253906 C 646.9375 275.5625 669.644531 283.015625 693.058594 281.238281 C 716.472656 279.460938 737.800781 268.664062 753.097656 250.839844 C 768.398438 233.015625 775.847656 210.300781 774.070312 186.871094 C 772.292969 163.445312 761.503906 142.109375 743.691406 126.800781 C 706.914062 95.199219 651.296875 99.425781 619.714844 136.214844 Z M 686.246094 294.195312 C 662.234375 294.195312 639.261719 285.710938 620.851562 269.890625 C 578.765625 233.726562 573.9375 170.046875 610.082031 127.941406 C 646.226562 85.835938 709.875 81 751.960938 117.167969 C 772.347656 134.6875 784.695312 159.097656 786.730469 185.910156 C 788.761719 212.71875 780.242188 238.71875 762.730469 259.117188 C 745.222656 279.511719 720.820312 291.867188 694.019531 293.902344 C 691.421875 294.101562 688.828125 294.195312 686.246094 294.195312 " fill-opacity="1" fill-rule="nonzero"/><path fill="#000000" d="M 619.714844 136.214844 L 619.71875 136.214844 Z M 686.46875 106.230469 C 661.875 106.230469 637.425781 116.539062 620.183594 136.625 C 588.820312 173.15625 593.015625 228.40625 629.527344 259.785156 C 647.21875 274.980469 669.757812 282.378906 693.011719 280.617188 C 716.261719 278.851562 737.433594 268.128906 752.625 250.433594 C 767.820312 232.738281 775.214844 210.179688 773.449219 186.917969 C 771.6875 163.65625 760.972656 142.472656 743.285156 127.273438 C 726.84375 113.144531 706.609375 106.230469 686.46875 106.230469 Z M 686.265625 282.117188 C 665.132812 282.117188 644.917969 274.644531 628.71875 260.726562 C 610.804688 245.335938 599.953125 223.851562 598.164062 200.230469 C 596.371094 176.609375 603.855469 153.730469 619.242188 135.8125 C 651.050781 98.757812 707.058594 94.503906 744.09375 126.332031 C 762.035156 141.746094 772.898438 163.230469 774.691406 186.824219 C 776.480469 210.417969 768.980469 233.296875 753.570312 251.242188 C 738.160156 269.195312 716.691406 280.066406 693.105469 281.855469 C 690.816406 282.03125 688.535156 282.117188 686.265625 282.117188 Z M 686.59375 93.527344 C 684.019531 93.527344 681.433594 93.625 678.839844 93.824219 C 652.179688 95.847656 627.925781 108.109375 610.554688 128.347656 C 574.632812 170.191406 579.429688 233.476562 621.257812 269.417969 C 639.386719 284.996094 662.464844 293.574219 686.246094 293.574219 C 688.800781 293.574219 691.402344 293.476562 693.972656 293.28125 C 720.605469 291.257812 744.855469 278.980469 762.257812 258.710938 C 779.660156 238.441406 788.132812 212.601562 786.109375 185.957031 C 784.085938 159.3125 771.816406 135.046875 751.558594 117.640625 C 733.296875 101.949219 710.476562 93.527344 686.59375 93.527344 Z M 686.246094 294.820312 C 662.167969 294.820312 638.800781 286.136719 620.445312 270.363281 C 578.101562 233.972656 573.242188 169.902344 609.609375 127.535156 C 627.199219 107.046875 651.753906 94.632812 678.746094 92.582031 C 705.75 90.527344 731.886719 99.09375 752.367188 116.695312 C 772.878906 134.324219 785.304688 158.886719 787.351562 185.863281 C 789.394531 212.839844 780.820312 238.996094 763.203125 259.519531 C 745.582031 280.042969 721.03125 292.472656 694.066406 294.523438 C 691.464844 294.71875 688.835938 294.820312 686.246094 294.820312 " fill-opacity="1" fill-rule="nonzero"/><path fill="#ffffff" d="M 414.683594 407.601562 C 414.683594 407.601562 491.59375 329.640625 503.019531 323.351562 C 518.195312 314.992188 541.207031 313.917969 550.691406 335.980469 L 560.742188 325.511719 C 560.742188 325.511719 573.871094 334.628906 553.910156 345.917969 C 554.828125 351.492188 552.761719 355.648438 547.8125 358.4375 C 547.8125 358.4375 547.597656 367.613281 539.164062 365.867188 C 539.164062 365.867188 539.164062 375.730469 533.464844 375.226562 C 533.464844 375.226562 526.75 386 519.617188 376.800781 C 519.617188 376.800781 480.535156 456.558594 459 486.25 C 459 486.25 410.355469 457.480469 414.683594 407.601562 " fill-opacity="1" fill-rule="nonzero"/><path fill="#000000" d="M 553.078125 347.109375 C 552.734375 347.109375 552.457031 346.832031 552.457031 346.488281 C 552.457031 335.914062 547.484375 330.738281 543.851562 326.957031 C 543.023438 326.09375 542.242188 325.277344 541.625 324.503906 C 541.414062 324.234375 541.460938 323.839844 541.726562 323.628906 C 541.996094 323.414062 542.386719 323.460938 542.601562 323.730469 C 543.175781 324.457031 543.90625 325.21875 544.75 326.09375 C 548.3125 329.804688 553.699219 335.414062 553.699219 346.488281 C 553.699219 346.832031 553.421875 347.109375 553.078125 347.109375 " fill-opacity="1" fill-rule="nonzero"/><path fill="#000000" d="M 547.78125 357.757812 C 547.769531 357.757812 547.757812 357.757812 547.75 357.757812 C 547.402344 357.738281 547.140625 357.445312 547.160156 357.105469 C 547.554688 349.886719 545.210938 342.503906 540.722656 336.839844 C 536.238281 331.171875 529.585938 327.203125 522.476562 325.941406 C 522.136719 325.882812 521.914062 325.558594 521.972656 325.222656 C 522.03125 324.882812 522.347656 324.652344 522.695312 324.71875 C 530.097656 326.03125 537.023438 330.167969 541.695312 336.066406 C 546.371094 341.964844 548.8125 349.65625 548.402344 357.171875 C 548.382812 357.503906 548.109375 357.757812 547.78125 357.757812 " fill-opacity="1" fill-rule="nonzero"/><path fill="#000000" d="M 539.164062 363.628906 C 538.851562 363.628906 538.578125 363.390625 538.546875 363.070312 C 537.769531 355.558594 533.6875 348.378906 527.632812 343.867188 C 521.578125 339.359375 513.539062 337.5 506.121094 338.90625 C 505.78125 338.96875 505.457031 338.746094 505.394531 338.410156 C 505.328125 338.074219 505.550781 337.746094 505.886719 337.683594 C 513.640625 336.214844 522.046875 338.15625 528.375 342.871094 C 534.707031 347.585938 538.96875 355.089844 539.785156 362.941406 C 539.816406 363.28125 539.570312 363.589844 539.230469 363.625 C 539.207031 363.628906 539.183594 363.628906 539.164062 363.628906 " fill-opacity="1" fill-rule="nonzero"/><path fill="#000000" d="M 533 373.695312 C 532.664062 373.695312 532.386719 373.425781 532.378906 373.089844 C 532.191406 366.40625 527.804688 359.675781 520.929688 355.527344 C 514.335938 351.546875 506.519531 350.199219 499.75 349.40625 C 499.40625 349.363281 499.164062 349.058594 499.203125 348.714844 C 499.242188 348.375 499.550781 348.132812 499.894531 348.171875 C 506.796875 348.976562 514.773438 350.359375 521.570312 354.460938 C 528.804688 358.828125 533.421875 365.953125 533.621094 373.054688 C 533.632812 373.398438 533.359375 373.683594 533.015625 373.695312 C 533.011719 373.695312 533.007812 373.695312 533 373.695312 " fill-opacity="1" fill-rule="nonzero"/><path fill="#000000" d="M 490.238281 380.546875 C 488.113281 380.546875 486.191406 379.996094 484.65625 378.890625 C 484.378906 378.6875 484.316406 378.300781 484.515625 378.019531 C 484.71875 377.742188 485.105469 377.679688 485.386719 377.878906 C 488.105469 379.839844 492.308594 379.777344 496.636719 377.707031 C 498.175781 376.972656 499.675781 376.058594 501.125 375.175781 C 503.195312 373.917969 505.332031 372.617188 507.667969 371.769531 C 511.703125 370.300781 517.03125 370.449219 519.835938 374.101562 C 520.042969 374.375 519.992188 374.761719 519.722656 374.972656 C 519.449219 375.183594 519.0625 375.132812 518.847656 374.859375 C 516.445312 371.730469 511.585938 371.667969 508.09375 372.9375 C 505.871094 373.746094 503.789062 375.011719 501.773438 376.238281 C 500.296875 377.136719 498.769531 378.070312 497.175781 378.828125 C 494.78125 379.976562 492.402344 380.546875 490.238281 380.546875 " fill-opacity="1" fill-rule="nonzero"/><path fill="#000000" d="M 551.324219 335.957031 C 551.164062 335.957031 551.007812 335.898438 550.890625 335.78125 C 550.640625 335.542969 550.636719 335.148438 550.875 334.902344 L 564.265625 321.109375 C 564.503906 320.863281 564.898438 320.855469 565.144531 321.097656 C 565.390625 321.335938 565.398438 321.730469 565.160156 321.976562 L 551.769531 335.769531 C 551.644531 335.898438 551.484375 335.957031 551.324219 335.957031 " fill-opacity="1" fill-rule="nonzero"/></svg>