<svg xmlns="http://www.w3.org/2000/svg" xmlns:xlink="http://www.w3.org/1999/xlink" width="1920" zoomAndPan="magnify" viewBox="0 0 1440 809.999993" height="1080" preserveAspectRatio="xMidYMid meet" version="1.0"><path fill="#caddff" d="M 798.734375 671.136719 C 834.421875 657.347656 986.699219 598.527344 1024.109375 456.6875 C 1066.773438 294.945312 939.179688 104.523438 762.804688 69.4375 C 579.847656 33.039062 373.183594 118.589844 389.414062 251.144531 C 396.820312 311.621094 479.175781 329.917969 475.367188 401.140625 C 471.648438 470.652344 384.09375 504.722656 393.265625 587.4375 C 393.839844 592.628906 395.691406 608.191406 403.503906 623.757812 C 447.871094 712.128906 648.796875 729.058594 798.734375 671.136719 " fill-opacity="1" fill-rule="nonzero"/><path fill="#99b9ff" d="M 799.421875 414.550781 L 667.15625 415.382812 C 666.304688 415.382812 666.019531 416.175781 666.019531 416.941406 L 666.019531 529.480469 C 666.019531 540.253906 590.875 568.25 590.140625 566.824219 L 590.050781 578.738281 C 590.042969 580.953125 591.992188 582.921875 594.480469 582.921875 L 596.132812 582.921875 C 596.140625 582.921875 596.152344 582.921875 596.164062 582.921875 L 707.058594 582.921875 C 712.203125 582.921875 717.285156 581.769531 721.945312 579.820312 L 782.914062 554.140625 C 793.890625 549.519531 800.816406 539.59375 800.816406 528.765625 L 800.816406 416.113281 C 800.816406 415.347656 800.277344 414.550781 799.421875 414.550781 " fill-opacity="1" fill-rule="nonzero"/><path fill="#ffffff" d="M 652.625 408.824219 L 652.625 521.386719 C 652.625 532.484375 645.488281 542.59375 634.265625 547.382812 L 593.136719 564.941406 C 590.449219 566.089844 591.367188 569.6875 594.34375 569.6875 L 707.351562 569.6875 C 712.433594 569.6875 717.453125 568.6875 722.046875 566.75 L 767.621094 547.5625 C 778.921875 542.800781 786.132812 532.652344 786.132812 521.5 L 786.132812 408.824219 C 786.132812 408.363281 785.714844 407.988281 785.195312 407.988281 L 653.5625 407.988281 C 653.042969 407.988281 652.625 408.363281 652.625 408.824219 " fill-opacity="1" fill-rule="nonzero"/><path fill="#000000" d="M 406.25 472.609375 L 950.085938 473.796875 L 959.53125 473.816406 L 977.089844 473.855469 C 982.074219 473.855469 986.175781 469.957031 986.808594 464.996094 L 1032.277344 109.605469 C 1033.386719 100.960938 1027.085938 92.792969 1018.382812 92.792969 L 454.933594 93.304688 L 406.25 472.609375 " fill-opacity="1" fill-rule="nonzero"/><path fill="#99b9ff" d="M 997.25 92.707031 C 1007.0625 92.707031 1015.035156 102.585938 1013.78125 112.339844 L 967.980469 465.011719 C 967.34375 469.972656 963.132812 473.683594 958.140625 473.683594 L 953.855469 473.847656 L 398.710938 473.683594 C 392.730469 473.683594 388.109375 468.414062 388.875 462.46875 L 435.59375 102.617188 C 436.234375 97.660156 440.046875 92.707031 445.035156 92.707031 L 997.25 92.707031 " fill-opacity="1" fill-rule="nonzero"/><path fill="#000000" d="M 412.460938 281.992188 C 412.410156 281.992188 412.359375 281.988281 412.308594 281.984375 C 411.667969 281.898438 411.21875 281.316406 411.300781 280.675781 L 434.4375 102.464844 C 435.148438 96.945312 439.875 92.777344 445.433594 92.777344 L 813.269531 92.539062 C 813.914062 92.539062 814.4375 93.0625 814.4375 93.703125 C 814.4375 94.347656 813.917969 94.871094 813.269531 94.871094 L 445.433594 95.109375 C 441.046875 95.109375 437.316406 98.402344 436.753906 102.765625 L 413.613281 280.976562 C 413.539062 281.5625 413.035156 281.992188 412.460938 281.992188 " fill-opacity="1" fill-rule="nonzero"/><path fill="#000000" d="M 390.359375 452.21875 C 390.308594 452.21875 390.257812 452.21875 390.207031 452.210938 C 389.566406 452.125 389.117188 451.542969 389.199219 450.902344 L 403.347656 341.917969 C 403.433594 341.277344 404.019531 340.828125 404.65625 340.910156 C 405.296875 340.992188 405.746094 341.578125 405.660156 342.214844 L 391.511719 451.199219 C 391.4375 451.792969 390.933594 452.21875 390.359375 452.21875 " fill-opacity="1" fill-rule="nonzero"/><path fill="#000000" d="M 958.324219 473.839844 L 949.558594 473.839844 C 948.917969 473.839844 948.394531 473.316406 948.394531 472.675781 C 948.394531 472.027344 948.917969 471.507812 949.558594 471.507812 L 958.324219 471.507812 C 962.691406 471.507812 966.863281 467.753906 967.4375 463.316406 L 1012.621094 112.191406 C 1013.175781 107.871094 1011.847656 103.507812 1008.96875 100.242188 C 1006.105469 96.984375 1001.976562 95.113281 997.648438 95.113281 L 934.5 95.113281 C 933.855469 95.113281 933.328125 94.59375 933.328125 93.949219 C 933.328125 93.304688 933.855469 92.785156 934.5 92.785156 L 997.648438 92.785156 C 1002.648438 92.785156 1007.414062 94.941406 1010.722656 98.699219 C 1014.042969 102.472656 1015.574219 107.5 1014.933594 112.488281 L 969.753906 463.613281 C 969.039062 469.15625 963.804688 473.839844 958.324219 473.839844 " fill-opacity="1" fill-rule="nonzero"/><path fill="#ffffff" d="M 465.433594 119.082031 C 465.753906 116.589844 467.871094 114.722656 470.378906 114.722656 L 908.410156 114.722656 C 913.339844 114.722656 917.152344 119.066406 916.515625 123.972656 L 881.773438 384.480469 C 881.449219 386.976562 879.332031 388.84375 876.824219 388.84375 L 434.585938 388.84375 C 431.859375 388.84375 429.757812 386.4375 430.117188 383.734375 L 465.433594 119.082031 " fill-opacity="1" fill-rule="nonzero"/><path fill="#caddff" d="M 843.722656 203.710938 L 518.589844 203.710938 C 513.886719 203.710938 510.253906 199.566406 510.875 194.902344 L 521.136719 115.554688 L 861.96875 115.554688 L 851.4375 196.945312 C 850.921875 200.816406 847.628906 203.710938 843.722656 203.710938 " fill-opacity="1" fill-rule="nonzero"/><path fill="#5479f7" d="M 908.410156 114.722656 C 913.339844 114.722656 917.152344 119.066406 916.515625 123.972656 L 912.757812 145.84375 L 461.207031 145.769531 L 465.433594 119.082031 C 465.753906 116.589844 467.871094 114.722656 470.378906 114.722656 L 908.410156 114.722656 " fill-opacity="1" fill-rule="nonzero"/><path fill="#000000" d="M 443.898438 281.804688 C 443.84375 281.804688 443.792969 281.800781 443.742188 281.796875 C 443.101562 281.710938 442.652344 281.125 442.738281 280.484375 L 464.277344 118.933594 C 464.671875 115.875 467.292969 113.558594 470.378906 113.558594 L 827.480469 113.398438 C 828.125 113.398438 828.652344 113.921875 828.652344 114.566406 C 828.652344 115.214844 828.128906 115.734375 827.480469 115.734375 L 470.382812 115.890625 C 468.464844 115.890625 466.835938 117.328125 466.589844 119.238281 L 445.050781 280.792969 C 444.972656 281.378906 444.472656 281.804688 443.898438 281.804688 " fill-opacity="1" fill-rule="nonzero"/><path fill="#000000" d="M 750.128906 390.007812 L 581.839844 390.007812 C 581.195312 390.007812 580.671875 389.484375 580.671875 388.84375 C 580.671875 388.199219 581.195312 387.675781 581.839844 387.675781 L 750.128906 387.675781 C 750.773438 387.675781 751.296875 388.199219 751.296875 388.84375 C 751.296875 389.484375 750.773438 390.007812 750.128906 390.007812 " fill-opacity="1" fill-rule="nonzero"/><path fill="#000000" d="M 885.417969 357.988281 C 885.367188 357.988281 885.3125 357.984375 885.261719 357.976562 C 884.621094 357.890625 884.171875 357.296875 884.261719 356.664062 L 889.824219 316.257812 C 889.910156 315.617188 890.496094 315.179688 891.136719 315.257812 C 891.777344 315.347656 892.222656 315.933594 892.132812 316.574219 L 886.574219 356.980469 C 886.496094 357.566406 885.996094 357.988281 885.417969 357.988281 " fill-opacity="1" fill-rule="nonzero"/><path fill="#000000" d="M 911.933594 159.214844 C 911.882812 159.214844 911.828125 159.214844 911.773438 159.203125 C 911.132812 159.117188 910.6875 158.53125 910.777344 157.894531 L 915.359375 123.820312 C 915.621094 121.816406 915 119.792969 913.664062 118.273438 C 912.328125 116.757812 910.414062 115.894531 908.402344 115.894531 L 868.53125 115.894531 C 867.890625 115.894531 867.367188 115.371094 867.367188 114.726562 C 867.367188 114.082031 867.890625 113.558594 868.53125 113.558594 L 908.402344 113.558594 C 911.085938 113.558594 913.644531 114.714844 915.414062 116.730469 C 917.191406 118.757812 918.015625 121.453125 917.667969 124.125 L 913.085938 158.207031 C 913.007812 158.792969 912.507812 159.214844 911.933594 159.214844 " fill-opacity="1" fill-rule="nonzero"/><path fill="#caddff" d="M 687.683594 131.671875 C 688.082031 128.558594 685.652344 125.804688 682.511719 125.804688 L 520.59375 125.804688 C 517.972656 125.804688 515.757812 127.75 515.425781 130.351562 C 515.03125 133.464844 517.453125 136.21875 520.59375 136.21875 L 682.511719 136.21875 C 685.136719 136.21875 687.347656 134.273438 687.683594 131.671875 " fill-opacity="1" fill-rule="nonzero"/><path fill="#caddff" d="M 853.121094 131.671875 C 853.519531 128.558594 851.09375 125.804688 847.957031 125.804688 L 833.171875 125.804688 C 830.550781 125.804688 828.335938 127.75 828.007812 130.351562 C 827.605469 133.464844 830.03125 136.21875 833.171875 136.21875 L 847.957031 136.21875 C 850.578125 136.21875 852.789062 134.273438 853.121094 131.671875 " fill-opacity="1" fill-rule="nonzero"/><path fill="#ffffff" d="M 925.535156 619.617188 C 924.574219 627.371094 917.980469 633.191406 910.171875 633.191406 L 745.957031 633.191406 C 736.648438 633.191406 729.445312 625.035156 730.589844 615.796875 L 759.910156 377.125 C 760.875 369.375 767.464844 363.554688 775.277344 363.554688 L 939.484375 363.554688 C 948.796875 363.554688 956.003906 371.707031 954.855469 380.949219 L 925.535156 619.617188 " fill-opacity="1" fill-rule="nonzero"/><path fill="#000000" d="M 925.539062 619.617188 L 925.546875 619.617188 Z M 775.28125 364.710938 C 768.070312 364.710938 761.964844 370.109375 761.070312 377.269531 L 731.757812 615.933594 C 731.246094 620.011719 732.511719 624.109375 735.226562 627.183594 C 737.945312 630.261719 741.859375 632.023438 745.960938 632.023438 L 910.171875 632.023438 C 917.378906 632.023438 923.492188 626.628906 924.382812 619.472656 L 953.703125 380.800781 C 954.207031 376.730469 952.933594 372.628906 950.222656 369.550781 C 947.503906 366.480469 943.59375 364.710938 939.492188 364.710938 Z M 910.171875 634.359375 L 745.960938 634.359375 C 741.191406 634.359375 736.640625 632.308594 733.480469 628.726562 C 730.324219 625.152344 728.847656 620.386719 729.4375 615.648438 L 758.757812 376.984375 C 759.792969 368.65625 766.894531 362.382812 775.28125 362.382812 L 939.492188 362.382812 C 944.261719 362.382812 948.8125 364.429688 951.972656 368.007812 C 955.132812 371.585938 956.605469 376.351562 956.015625 381.089844 L 926.695312 619.757812 L 926.695312 619.761719 C 925.660156 628.082031 918.558594 634.359375 910.171875 634.359375 " fill-opacity="1" fill-rule="nonzero"/><path fill="#caddff" d="M 889.488281 536.835938 C 892.105469 536.835938 894.316406 534.886719 894.648438 532.285156 C 895.046875 529.171875 892.625 526.417969 889.488281 526.417969 L 781.300781 526.417969 C 778.679688 526.417969 776.46875 528.367188 776.136719 530.964844 C 775.742188 534.078125 778.164062 536.835938 781.300781 536.835938 L 889.488281 536.835938 " fill-opacity="1" fill-rule="nonzero"/><path fill="#caddff" d="M 844.589844 558.542969 C 844.988281 555.429688 842.5625 552.671875 839.425781 552.671875 L 777.949219 552.671875 C 775.332031 552.671875 773.117188 554.621094 772.785156 557.222656 C 772.386719 560.335938 774.8125 563.089844 777.949219 563.089844 L 839.425781 563.089844 C 842.046875 563.089844 844.261719 561.140625 844.589844 558.542969 " fill-opacity="1" fill-rule="nonzero"/><path fill="#caddff" d="M 856.734375 584.800781 C 857.128906 581.683594 854.703125 578.929688 851.566406 578.929688 L 774.601562 578.929688 C 771.980469 578.929688 769.769531 580.878906 769.433594 583.480469 C 769.039062 586.59375 771.464844 589.347656 774.601562 589.347656 L 851.566406 589.347656 C 854.1875 589.347656 856.402344 587.398438 856.734375 584.800781 " fill-opacity="1" fill-rule="nonzero"/><path fill="#ffffff" d="M 927.328125 59.375 L 839.808594 59.375 C 835.921875 59.375 832.648438 62.472656 832.179688 66.332031 L 828.265625 98.671875 C 827.707031 103.25 831.28125 107.210938 835.890625 107.210938 L 838.394531 107.210938 C 840.175781 107.210938 841.554688 108.765625 841.347656 110.53125 L 839.261719 128.867188 C 839.167969 129.652344 840.136719 130.101562 840.679688 129.527344 L 859.582031 109.390625 C 860.894531 108 862.710938 107.210938 864.617188 107.210938 L 923.40625 107.210938 C 927.289062 107.210938 930.570312 104.476562 931.03125 100.613281 L 934.953125 68.097656 C 935.503906 63.515625 931.933594 59.375 927.328125 59.375 " fill-opacity="1" fill-rule="nonzero"/><path fill="#000000" d="M 839.808594 60.539062 C 836.582031 60.539062 833.742188 63.144531 833.339844 66.46875 L 829.425781 98.808594 C 829.199219 100.671875 829.753906 102.460938 830.988281 103.851562 C 832.222656 105.246094 834.011719 106.046875 835.894531 106.046875 L 838.394531 106.046875 C 839.578125 106.046875 840.707031 106.550781 841.488281 107.433594 C 842.273438 108.3125 842.644531 109.492188 842.503906 110.664062 L 840.535156 127.96875 L 858.734375 108.589844 C 860.257812 106.972656 862.402344 106.046875 864.617188 106.046875 L 923.40625 106.046875 C 926.765625 106.046875 929.484375 103.703125 929.875 100.472656 L 933.796875 67.953125 C 934.023438 66.070312 933.425781 64.171875 932.160156 62.738281 C 930.921875 61.339844 929.15625 60.539062 927.328125 60.539062 Z M 840.078125 130.949219 C 839.796875 130.949219 839.515625 130.886719 839.246094 130.765625 C 838.464844 130.402344 838.007812 129.589844 838.105469 128.734375 L 840.191406 110.398438 C 840.25 109.875 840.09375 109.371094 839.746094 108.984375 C 839.398438 108.59375 838.921875 108.378906 838.394531 108.378906 L 835.894531 108.378906 C 833.339844 108.378906 830.917969 107.292969 829.242188 105.402344 C 827.582031 103.527344 826.804688 101.027344 827.105469 98.53125 L 831.027344 66.1875 C 831.566406 61.710938 835.429688 58.207031 839.808594 58.207031 L 927.328125 58.207031 C 929.824219 58.207031 932.222656 59.292969 933.90625 61.191406 C 935.613281 63.121094 936.417969 65.6875 936.109375 68.234375 L 932.195312 100.75 C 931.660156 105.171875 927.964844 108.378906 923.40625 108.378906 L 864.617188 108.378906 C 863.039062 108.378906 861.515625 109.039062 860.433594 110.1875 L 841.53125 130.320312 C 841.144531 130.734375 840.617188 130.949219 840.078125 130.949219 " fill-opacity="1" fill-rule="nonzero"/><path fill="#99b9ff" d="M 863.625 83.652344 C 863.625 87.695312 860.34375 90.976562 856.296875 90.976562 C 852.253906 90.976562 848.972656 87.695312 848.972656 83.652344 C 848.972656 79.605469 852.253906 76.324219 856.296875 76.324219 C 860.34375 76.324219 863.625 79.605469 863.625 83.652344 " fill-opacity="1" fill-rule="nonzero"/><path fill="#99b9ff" d="M 888.933594 83.652344 C 888.933594 87.695312 885.652344 90.976562 881.609375 90.976562 C 877.558594 90.976562 874.285156 87.695312 874.285156 83.652344 C 874.285156 79.605469 877.558594 76.324219 881.609375 76.324219 C 885.652344 76.324219 888.933594 79.605469 888.933594 83.652344 " fill-opacity="1" fill-rule="nonzero"/><path fill="#99b9ff" d="M 914.242188 83.652344 C 914.242188 87.695312 910.964844 90.976562 906.917969 90.976562 C 902.871094 90.976562 899.585938 87.695312 899.585938 83.652344 C 899.585938 79.605469 902.871094 76.324219 906.917969 76.324219 C 910.964844 76.324219 914.242188 79.605469 914.242188 83.652344 " fill-opacity="1" fill-rule="nonzero"/><path fill="#ffffff" d="M 1003.441406 168.023438 L 884.230469 168.023438 C 878.9375 168.023438 874.472656 172.238281 873.832031 177.496094 L 864.523438 247.171875 C 863.773438 253.410156 868.636719 258.808594 874.914062 258.808594 L 877.109375 258.808594 C 880.183594 258.808594 882.5625 261.484375 882.207031 264.535156 L 879.996094 283.363281 C 879.875 284.375 881.105469 284.972656 881.828125 284.25 L 905.902344 260.300781 C 906.859375 259.347656 908.160156 258.808594 909.515625 258.808594 L 994.132812 258.808594 C 999.429688 258.808594 1003.886719 255.078125 1004.523438 249.820312 L 1013.832031 179.898438 C 1014.589844 173.664062 1009.726562 168.023438 1003.441406 168.023438 " fill-opacity="1" fill-rule="nonzero"/><path fill="#000000" d="M 884.234375 169.183594 C 879.628906 169.183594 875.570312 172.894531 875 177.632812 L 865.6875 247.328125 C 865.367188 249.960938 866.160156 252.519531 867.925781 254.511719 C 869.683594 256.5 872.238281 257.636719 874.917969 257.636719 L 877.117188 257.636719 C 878.910156 257.636719 880.628906 258.40625 881.820312 259.75 C 883.015625 261.09375 883.582031 262.882812 883.371094 264.664062 L 881.1875 283.246094 L 905.082031 259.472656 C 906.273438 258.292969 907.84375 257.636719 909.519531 257.636719 L 994.136719 257.636719 C 998.929688 257.636719 1002.8125 254.289062 1003.367188 249.679688 L 1012.683594 179.738281 C 1013.003906 177.070312 1012.15625 174.363281 1010.34375 172.324219 C 1008.582031 170.328125 1006.066406 169.183594 1003.449219 169.183594 Z M 881.082031 285.730469 C 880.75 285.730469 880.410156 285.660156 880.089844 285.503906 C 879.21875 285.078125 878.730469 284.183594 878.839844 283.21875 L 881.050781 264.394531 C 881.183594 263.273438 880.832031 262.144531 880.078125 261.304688 C 879.328125 260.457031 878.25 259.972656 877.117188 259.972656 L 874.917969 259.972656 C 871.570312 259.972656 868.382812 258.546875 866.179688 256.058594 C 863.996094 253.601562 862.972656 250.308594 863.367188 247.035156 L 872.683594 177.335938 C 873.398438 171.464844 878.46875 166.851562 884.234375 166.851562 L 1003.449219 166.851562 C 1006.730469 166.851562 1009.882812 168.28125 1012.09375 170.773438 C 1014.34375 173.316406 1015.402344 176.691406 1015 180.035156 L 1005.683594 249.972656 C 1004.980469 255.761719 1000.125 259.972656 994.136719 259.972656 L 909.519531 259.972656 C 908.46875 259.972656 907.476562 260.378906 906.726562 261.125 L 882.652344 285.074219 C 882.222656 285.507812 881.660156 285.730469 881.082031 285.730469 " fill-opacity="1" fill-rule="nonzero"/><path fill="#5479f7" d="M 960.167969 195.730469 C 957.578125 192.929688 954.027344 191.390625 950.167969 191.398438 C 947.289062 191.410156 944.652344 192.328125 942.328125 194.128906 C 941.160156 195.039062 940.097656 196.152344 939.164062 197.449219 C 938.230469 196.15625 937.160156 195.050781 935.988281 194.144531 C 933.660156 192.347656 931.019531 191.441406 928.136719 191.449219 C 924.285156 191.460938 920.738281 193.011719 918.160156 195.824219 C 915.613281 198.601562 914.214844 202.394531 914.222656 206.5 C 914.230469 210.722656 915.808594 214.585938 919.195312 218.660156 C 922.230469 222.304688 926.578125 225.996094 931.617188 230.277344 C 933.335938 231.738281 935.289062 233.394531 937.3125 235.15625 C 937.851562 235.625 938.535156 235.878906 939.246094 235.878906 C 939.957031 235.878906 940.640625 235.621094 941.171875 235.152344 C 943.1875 233.378906 945.132812 231.710938 946.851562 230.242188 C 951.867188 225.941406 956.207031 222.226562 959.21875 218.574219 C 962.585938 214.484375 964.152344 210.613281 964.144531 206.386719 C 964.140625 202.28125 962.722656 198.496094 960.167969 195.730469 " fill-opacity="1" fill-rule="nonzero"/><path fill="#5479f7" d="M 912.316406 550.707031 C 910.363281 548.320312 907.570312 546.90625 904.460938 546.726562 C 902.136719 546.59375 899.960938 547.203125 898 548.546875 C 897.015625 549.226562 896.101562 550.070312 895.285156 551.070312 C 894.589844 549.980469 893.785156 549.035156 892.882812 548.246094 C 891.09375 546.6875 889.003906 545.828125 886.675781 545.695312 C 883.5625 545.511719 880.628906 546.59375 878.410156 548.738281 C 876.21875 550.855469 874.90625 553.847656 874.710938 557.160156 C 874.515625 560.570312 875.601562 563.765625 878.140625 567.21875 C 880.402344 570.308594 883.734375 573.5 887.59375 577.199219 C 888.914062 578.460938 890.410156 579.894531 891.953125 581.417969 C 892.363281 581.820312 892.902344 582.058594 893.476562 582.09375 C 894.050781 582.128906 894.617188 581.953125 895.070312 581.601562 C 896.785156 580.265625 898.433594 579.019531 899.890625 577.914062 C 904.152344 574.6875 907.832031 571.898438 910.441406 569.097656 C 913.359375 565.960938 914.808594 562.914062 915.011719 559.5 C 915.207031 556.1875 914.25 553.066406 912.316406 550.707031 " fill-opacity="1" fill-rule="nonzero"/><path fill="#caddff" d="M 479.769531 264.714844 C 492.640625 241.832031 512.332031 231.820312 518.902344 228.59375 C 564.746094 206.070312 610.355469 230.742188 614.023438 232.804688 C 621.492188 237.007812 640.574219 248.078125 652.554688 271.339844 C 654.347656 274.816406 675.332031 316.976562 654.964844 346.605469 C 637.449219 372.089844 601.035156 371.3125 571.882812 370.6875 C 545.433594 370.125 489.957031 368.941406 472.542969 332.152344 C 458.796875 303.105469 477.105469 269.453125 479.769531 264.714844 " fill-opacity="1" fill-rule="nonzero"/><path fill="#99b9ff" d="M 559.125 249.074219 C 587.5 236.988281 634.382812 251.167969 648.230469 286.402344 C 648.960938 288.269531 660.246094 318.433594 641.605469 342.398438 C 623.480469 365.703125 586.925781 370.460938 571.769531 357.453125 C 557.5625 345.253906 570.660156 324.746094 551.300781 299.046875 C 542.914062 287.917969 535.019531 284.546875 535.042969 275.566406 C 535.078125 263.644531 549.023438 253.378906 559.125 249.074219 " fill-opacity="1" fill-rule="nonzero"/><path fill="#5479f7" d="M 614.3125 285.042969 C 626.316406 282.019531 638.710938 293.921875 641.40625 306.117188 C 643.742188 316.699219 639.382812 330.269531 629.964844 333.816406 C 617.988281 338.328125 600.8125 325.484375 599.261719 310.332031 C 598.230469 300.242188 603.976562 287.644531 614.3125 285.042969 " fill-opacity="1" fill-rule="nonzero"/><path fill="#99b9ff" d="M 520.714844 295.683594 C 537.5625 300.207031 544 333.257812 532.953125 342.492188 C 523.988281 349.980469 500.472656 344.316406 494.074219 328.808594 C 491.296875 322.078125 491.71875 313.421875 496.230469 306.484375 C 501.777344 297.964844 512.542969 293.492188 520.714844 295.683594 " fill-opacity="1" fill-rule="nonzero"/><path fill="#000000" d="M 623.691406 316.558594 C 626.871094 308.132812 619.175781 299.640625 610.480469 301.980469 L 456.855469 343.28125 C 448.902344 345.417969 445.996094 355.191406 451.488281 361.332031 L 467.566406 379.296875 C 471.636719 383.835938 471.253906 390.816406 466.71875 394.890625 L 400.726562 454.171875 C 396.679688 457.8125 396.277344 464.015625 399.820312 468.144531 L 434.5625 508.613281 C 436.316406 510.660156 438.820312 511.910156 441.507812 512.085938 C 444.199219 512.257812 446.84375 511.34375 448.847656 509.542969 L 515.609375 449.566406 C 520.15625 445.484375 527.15625 445.863281 531.230469 450.417969 L 548.574219 469.792969 C 554.109375 475.972656 564.222656 474.082031 567.152344 466.320312 L 623.691406 316.558594 " fill-opacity="1" fill-rule="nonzero"/><path fill="#000000" d="M 613.429688 302.753906 C 612.558594 302.753906 611.667969 302.867188 610.78125 303.109375 L 457.15625 344.40625 C 453.816406 345.308594 451.234375 347.820312 450.246094 351.140625 C 449.261719 354.457031 450.050781 357.972656 452.359375 360.554688 L 468.4375 378.511719 C 472.925781 383.527344 472.503906 391.261719 467.496094 395.757812 L 401.503906 455.042969 C 397.957031 458.230469 397.597656 463.765625 400.703125 467.386719 L 435.445312 507.851562 C 436.988281 509.648438 439.222656 510.765625 441.585938 510.917969 C 443.945312 511.074219 446.308594 510.257812 448.066406 508.671875 L 514.832031 448.699219 C 517.261719 446.515625 520.390625 445.417969 523.660156 445.585938 C 526.921875 445.765625 529.921875 447.203125 532.101562 449.636719 L 549.445312 469.015625 C 551.769531 471.613281 555.203125 472.777344 558.625 472.140625 C 562.050781 471.5 564.828125 469.171875 566.0625 465.910156 L 622.597656 316.148438 C 623.9375 312.605469 623.214844 308.820312 620.675781 306.015625 C 618.75 303.890625 616.160156 302.753906 613.429688 302.753906 Z M 442.144531 513.269531 C 441.90625 513.269531 441.671875 513.261719 441.433594 513.246094 C 438.449219 513.054688 435.621094 511.640625 433.675781 509.371094 L 398.9375 468.902344 C 395.011719 464.332031 395.464844 457.335938 399.945312 453.308594 L 465.941406 394.023438 C 469.988281 390.386719 470.328125 384.125 466.699219 380.070312 L 450.621094 362.109375 C 447.765625 358.921875 446.792969 354.574219 448.011719 350.472656 C 449.230469 346.375 452.421875 343.265625 456.550781 342.15625 L 610.175781 300.855469 C 614.628906 299.65625 619.3125 301.035156 622.402344 304.449219 C 625.496094 307.863281 626.40625 312.664062 624.78125 316.972656 L 568.242188 466.734375 C 566.722656 470.765625 563.285156 473.640625 559.054688 474.433594 C 554.820312 475.222656 550.578125 473.777344 547.707031 470.570312 L 530.363281 451.195312 C 528.597656 449.226562 526.175781 448.0625 523.535156 447.917969 C 520.894531 447.78125 518.355469 448.667969 516.390625 450.433594 L 449.625 510.410156 C 447.578125 512.246094 444.886719 513.269531 442.144531 513.269531 " fill-opacity="1" fill-rule="nonzero"/><path fill="#5479f7" d="M 630.242188 316.558594 C 633.425781 308.132812 625.734375 299.640625 617.035156 301.980469 L 463.410156 343.28125 C 455.457031 345.417969 452.550781 355.191406 458.042969 361.332031 L 474.125 379.296875 C 478.191406 383.835938 477.808594 390.816406 473.273438 394.890625 L 407.28125 454.171875 C 403.234375 457.8125 402.832031 464.015625 406.375 468.144531 L 441.117188 508.613281 C 442.871094 510.660156 445.375 511.910156 448.0625 512.085938 C 450.753906 512.257812 453.398438 511.34375 455.402344 509.542969 L 522.164062 449.566406 C 526.714844 445.484375 533.710938 445.863281 537.789062 450.417969 L 555.128906 469.792969 C 560.664062 475.972656 570.777344 474.082031 573.707031 466.320312 L 630.242188 316.558594 " fill-opacity="1" fill-rule="nonzero"/><path fill="#000000" d="M 619.984375 302.753906 C 619.113281 302.753906 618.222656 302.867188 617.335938 303.109375 L 463.714844 344.40625 C 460.371094 345.308594 457.789062 347.820312 456.804688 351.140625 C 455.816406 354.457031 456.605469 357.972656 458.914062 360.554688 L 474.992188 378.511719 C 479.480469 383.527344 479.058594 391.261719 474.054688 395.757812 L 408.0625 455.042969 C 404.515625 458.230469 404.152344 463.765625 407.261719 467.386719 L 442 507.851562 C 443.542969 509.648438 445.78125 510.765625 448.140625 510.917969 C 450.5 511.074219 452.863281 510.257812 454.621094 508.671875 L 521.386719 448.699219 C 523.816406 446.515625 526.9375 445.417969 530.214844 445.585938 C 533.476562 445.765625 536.476562 447.203125 538.65625 449.636719 L 556 469.015625 C 558.324219 471.613281 561.753906 472.78125 565.179688 472.140625 C 568.605469 471.5 571.382812 469.171875 572.613281 465.910156 L 629.15625 316.148438 C 630.492188 312.605469 629.769531 308.820312 627.230469 306.015625 C 625.304688 303.890625 622.714844 302.753906 619.984375 302.753906 Z M 448.699219 513.269531 C 448.460938 513.269531 448.226562 513.261719 447.988281 513.246094 C 445.007812 513.054688 442.179688 511.640625 440.230469 509.371094 L 405.492188 468.902344 C 401.566406 464.332031 402.019531 457.335938 406.503906 453.308594 L 472.496094 394.023438 C 476.542969 390.386719 476.882812 384.125 473.253906 380.070312 L 457.175781 362.109375 C 454.324219 358.921875 453.347656 354.574219 454.566406 350.472656 C 455.785156 346.375 458.976562 343.265625 463.105469 342.15625 L 616.730469 300.855469 C 621.183594 299.65625 625.867188 301.035156 628.957031 304.449219 C 632.050781 307.863281 632.960938 312.664062 631.335938 316.972656 L 574.796875 466.734375 C 573.277344 470.765625 569.84375 473.640625 565.609375 474.433594 C 561.375 475.222656 557.132812 473.777344 554.261719 470.570312 L 536.917969 451.195312 C 535.15625 449.226562 532.730469 448.0625 530.089844 447.917969 C 527.441406 447.78125 524.910156 448.667969 522.945312 450.433594 L 456.179688 510.410156 C 454.136719 512.246094 451.441406 513.269531 448.699219 513.269531 " fill-opacity="1" fill-rule="nonzero"/><path fill="#99b9ff" d="M 421.472656 460.867188 C 421.15625 460.867188 420.839844 460.738281 420.609375 460.480469 C 420.175781 460.003906 420.214844 459.265625 420.695312 458.835938 L 477.28125 407.855469 C 477.761719 407.421875 478.5 407.460938 478.929688 407.941406 C 479.359375 408.417969 479.320312 409.15625 478.84375 409.589844 L 422.253906 460.566406 C 422.03125 460.769531 421.753906 460.867188 421.472656 460.867188 " fill-opacity="1" fill-rule="nonzero"/><path fill="#99b9ff" d="M 478.0625 357.707031 C 477.546875 357.707031 477.074219 357.363281 476.933594 356.839844 C 476.769531 356.21875 477.140625 355.578125 477.761719 355.414062 L 602.183594 322.097656 C 602.804688 321.933594 603.445312 322.296875 603.613281 322.921875 C 603.777344 323.542969 603.410156 324.183594 602.789062 324.351562 L 478.363281 357.667969 C 478.265625 357.691406 478.160156 357.707031 478.0625 357.707031 " fill-opacity="1" fill-rule="nonzero"/><path fill="#ffffff" d="M 684.308594 629.261719 C 683.503906 635.503906 678.191406 640.179688 671.898438 640.179688 L 446.800781 640.179688 C 439.253906 640.179688 433.421875 633.550781 434.386719 626.066406 L 442.53125 562.8125 C 443.335938 556.570312 448.648438 551.894531 454.941406 551.894531 L 680.039062 551.894531 C 687.585938 551.894531 693.417969 558.523438 692.453125 566.011719 L 684.308594 629.261719 " fill-opacity="1" fill-rule="nonzero"/><path fill="#000000" d="M 498.433594 641.347656 L 459.902344 641.347656 C 459.257812 641.347656 458.734375 640.824219 458.734375 640.179688 C 458.734375 639.535156 459.257812 639.011719 459.902344 639.011719 L 498.433594 639.011719 C 499.078125 639.011719 499.597656 639.535156 499.597656 640.179688 C 499.597656 640.824219 499.078125 641.347656 498.433594 641.347656 " fill-opacity="1" fill-rule="nonzero"/><path fill="#000000" d="M 672.558594 641.347656 L 527.730469 641.347656 C 527.089844 641.347656 526.566406 640.824219 526.566406 640.179688 C 526.566406 639.535156 527.089844 639.011719 527.730469 639.011719 L 672.558594 639.011719 C 677.871094 639.011719 682.390625 635.039062 683.066406 629.765625 L 691.40625 565.015625 C 691.796875 561.992188 690.863281 558.949219 688.851562 556.660156 C 686.839844 554.375 683.941406 553.0625 680.894531 553.0625 L 454.28125 553.0625 C 448.96875 553.0625 444.449219 557.035156 443.773438 562.308594 L 441.84375 577.289062 C 441.761719 577.929688 441.175781 578.382812 440.539062 578.296875 C 439.898438 578.214844 439.445312 577.628906 439.53125 576.988281 L 441.457031 562.007812 C 442.285156 555.578125 447.800781 550.726562 454.28125 550.726562 L 680.894531 550.726562 C 684.613281 550.726562 688.148438 552.332031 690.601562 555.121094 C 693.058594 557.914062 694.195312 561.625 693.71875 565.3125 L 685.382812 630.066406 C 684.554688 636.496094 679.042969 641.347656 672.558594 641.347656 " fill-opacity="1" fill-rule="nonzero"/><path fill="#000000" d="M 493.945312 622.136719 L 493.953125 622.136719 Z M 463.5 566.277344 C 461.941406 566.277344 460.46875 567.597656 460.277344 569.160156 L 453.890625 622.273438 C 453.804688 622.988281 453.996094 623.648438 454.425781 624.136719 C 454.851562 624.613281 455.472656 624.878906 456.171875 624.878906 L 489.566406 624.878906 C 491.125 624.878906 492.597656 623.558594 492.785156 621.996094 L 499.175781 568.878906 C 499.257812 568.167969 499.070312 567.503906 498.636719 567.019531 C 498.214844 566.539062 497.59375 566.277344 496.894531 566.277344 Z M 489.566406 627.210938 L 456.171875 627.210938 C 454.796875 627.210938 453.554688 626.667969 452.683594 625.683594 C 451.800781 624.691406 451.410156 623.378906 451.574219 621.996094 L 457.964844 568.878906 C 458.296875 566.109375 460.726562 563.941406 463.5 563.941406 L 496.894531 563.941406 C 498.269531 563.941406 499.511719 564.484375 500.382812 565.46875 C 501.261719 566.464844 501.65625 567.773438 501.488281 569.160156 L 495.101562 622.273438 C 494.769531 625.042969 492.335938 627.210938 489.566406 627.210938 " fill-opacity="1" fill-rule="nonzero"/><path fill="#000000" d="M 552.152344 622.136719 L 552.160156 622.136719 Z M 521.707031 566.277344 C 520.152344 566.277344 518.675781 567.597656 518.488281 569.160156 L 512.101562 622.273438 C 512.015625 622.988281 512.203125 623.648438 512.636719 624.136719 C 513.058594 624.613281 513.679688 624.878906 514.378906 624.878906 L 547.773438 624.878906 C 549.332031 624.878906 550.808594 623.558594 550.996094 621.996094 L 557.382812 568.878906 C 557.46875 568.167969 557.277344 567.503906 556.847656 567.019531 C 556.421875 566.539062 555.804688 566.277344 555.101562 566.277344 Z M 547.773438 627.210938 L 514.378906 627.210938 C 513.003906 627.210938 511.765625 626.667969 510.890625 625.683594 C 510.011719 624.691406 509.617188 623.378906 509.785156 621.996094 L 516.171875 568.878906 C 516.503906 566.109375 518.9375 563.941406 521.707031 563.941406 L 555.101562 563.941406 C 556.480469 563.941406 557.71875 564.484375 558.59375 565.46875 C 559.472656 566.464844 559.863281 567.773438 559.699219 569.160156 L 553.3125 622.273438 C 552.976562 625.042969 550.546875 627.210938 547.773438 627.210938 " fill-opacity="1" fill-rule="nonzero"/><path fill="#000000" d="M 610.363281 622.136719 L 610.367188 622.136719 Z M 579.917969 566.277344 C 578.359375 566.277344 576.882812 567.597656 576.695312 569.160156 L 570.308594 622.273438 C 570.222656 622.988281 570.414062 623.648438 570.84375 624.136719 C 571.269531 624.613281 571.886719 624.878906 572.589844 624.878906 L 605.984375 624.878906 C 607.539062 624.878906 609.015625 623.558594 609.203125 621.996094 L 615.589844 568.878906 C 615.675781 568.167969 615.488281 567.503906 615.054688 567.019531 C 614.632812 566.539062 614.011719 566.277344 613.3125 566.277344 Z M 605.984375 627.210938 L 572.589844 627.210938 C 571.210938 627.210938 569.972656 626.667969 569.101562 625.683594 C 568.21875 624.691406 567.828125 623.378906 567.992188 621.996094 L 574.378906 568.878906 C 574.714844 566.109375 577.144531 563.941406 579.917969 563.941406 L 613.3125 563.941406 C 614.6875 563.941406 615.925781 564.484375 616.800781 565.46875 C 617.683594 566.464844 618.074219 567.773438 617.90625 569.160156 L 611.519531 622.273438 C 611.1875 625.042969 608.753906 627.210938 605.984375 627.210938 " fill-opacity="1" fill-rule="nonzero"/><path fill="#000000" d="M 668.570312 622.136719 L 668.578125 622.136719 Z M 638.125 566.277344 C 636.566406 566.277344 635.09375 567.597656 634.90625 569.160156 L 628.515625 622.273438 C 628.433594 622.988281 628.625 623.648438 629.054688 624.136719 C 629.476562 624.613281 630.097656 624.878906 630.796875 624.878906 L 664.191406 624.878906 C 665.75 624.878906 667.222656 623.558594 667.410156 621.996094 L 673.800781 568.878906 C 673.886719 568.167969 673.695312 567.503906 673.265625 567.019531 C 672.839844 566.539062 672.222656 566.277344 671.519531 566.277344 Z M 664.191406 627.210938 L 630.796875 627.210938 C 629.421875 627.210938 628.179688 626.667969 627.308594 625.683594 C 626.429688 624.691406 626.035156 623.378906 626.199219 621.996094 L 632.589844 568.878906 C 632.921875 566.109375 635.351562 563.941406 638.125 563.941406 L 671.519531 563.941406 C 672.894531 563.941406 674.136719 564.484375 675.007812 565.46875 C 675.890625 566.464844 676.28125 567.773438 676.117188 569.160156 L 669.730469 622.273438 C 669.394531 625.042969 666.964844 627.210938 664.191406 627.210938 " fill-opacity="1" fill-rule="nonzero"/><path fill="#5479f7" d="M 465.667969 595.089844 L 470.203125 573.859375 L 492.015625 573.859375 L 491.457031 578.859375 L 474.234375 578.859375 L 471.652344 590.46875 C 473.875 589.242188 476.3125 588.625 478.964844 588.625 C 482.839844 588.625 485.78125 589.90625 487.773438 592.46875 C 489.769531 595.03125 490.519531 598.5 490.035156 602.863281 C 489.542969 607.253906 487.972656 610.707031 485.324219 613.230469 C 482.675781 615.753906 479.226562 617.019531 474.976562 617.019531 C 471.214844 617.019531 468.261719 615.972656 466.113281 613.890625 C 463.96875 611.804688 462.9375 608.917969 463.019531 605.234375 L 468.132812 605.234375 C 468.191406 607.671875 468.855469 609.507812 470.121094 610.746094 C 471.386719 611.980469 473.167969 612.601562 475.46875 612.601562 C 477.984375 612.601562 480.050781 611.742188 481.675781 610.027344 C 483.300781 608.316406 484.28125 605.945312 484.617188 602.925781 C 484.9375 600.078125 484.417969 597.792969 483.058594 596.066406 C 481.703125 594.34375 479.738281 593.476562 477.164062 593.476562 C 474.804688 593.476562 472.894531 593.996094 471.4375 595.027344 L 469.871094 596.199219 L 465.667969 595.089844 " fill-opacity="1" fill-rule="nonzero"/><path fill="#5479f7" d="M 548.125 616.433594 L 520.230469 616.433594 L 520.664062 612.546875 L 537.230469 596.167969 C 539.6875 593.695312 541.417969 591.679688 542.421875 590.128906 C 543.421875 588.582031 544.015625 586.980469 544.199219 585.320312 C 544.449219 583.097656 543.980469 581.277344 542.792969 579.851562 C 541.605469 578.429688 539.890625 577.71875 537.652344 577.71875 C 534.960938 577.71875 532.785156 578.484375 531.125 580.011719 C 529.460938 581.542969 528.476562 583.675781 528.171875 586.402344 L 522.765625 586.402344 C 523.203125 582.484375 524.816406 579.316406 527.613281 576.902344 C 530.40625 574.480469 533.917969 573.273438 538.148438 573.273438 C 542.105469 573.273438 545.117188 574.3125 547.1875 576.386719 C 549.253906 578.464844 550.09375 581.226562 549.710938 584.675781 C 549.242188 588.867188 546.015625 593.859375 540.027344 599.648438 L 527.246094 612.019531 L 548.617188 612.019531 L 548.125 616.433594 " fill-opacity="1" fill-rule="nonzero"/><path fill="#5479f7" d="M 596.660156 616.433594 L 591.222656 616.433594 L 595.246094 580.378906 L 583.894531 584.382812 L 584.441406 579.472656 L 600.589844 573.65625 L 601.4375 573.65625 L 596.660156 616.433594 " fill-opacity="1" fill-rule="nonzero"/><path fill="#5479f7" d="M 646.515625 592.515625 L 650.578125 592.515625 C 653.136719 592.476562 655.21875 591.804688 656.828125 590.496094 C 658.433594 589.191406 659.363281 587.425781 659.613281 585.203125 C 660.167969 580.214844 657.957031 577.71875 652.992188 577.71875 C 650.652344 577.71875 648.710938 578.386719 647.167969 579.722656 C 645.625 581.058594 644.730469 582.828125 644.484375 585.027344 L 639.078125 585.027344 C 639.453125 581.65625 640.996094 578.851562 643.710938 576.621094 C 646.425781 574.390625 649.6875 573.273438 653.488281 573.273438 C 657.503906 573.273438 660.53125 574.335938 662.578125 576.460938 C 664.617188 578.585938 665.429688 581.539062 665.007812 585.320312 C 664.800781 587.171875 664 588.964844 662.609375 590.699219 C 661.214844 592.4375 659.4375 593.730469 657.277344 594.589844 C 659.53125 595.332031 661.203125 596.558594 662.289062 598.273438 C 663.375 599.992188 663.777344 602.085938 663.5 604.5625 C 663.074219 608.382812 661.488281 611.414062 658.742188 613.65625 C 655.996094 615.894531 652.628906 617.019531 648.632812 617.019531 C 644.636719 617.019531 641.507812 615.9375 639.242188 613.773438 C 636.980469 611.609375 636.046875 608.753906 636.445312 605.207031 L 641.882812 605.207031 C 641.628906 607.445312 642.160156 609.238281 643.476562 610.585938 C 644.785156 611.929688 646.667969 612.601562 649.128906 612.601562 C 651.734375 612.601562 653.8125 611.917969 655.347656 610.554688 C 656.882812 609.191406 657.792969 607.230469 658.078125 604.679688 C 658.355469 602.203125 657.808594 600.304688 656.4375 598.976562 C 655.0625 597.652344 652.949219 596.972656 650.085938 596.929688 L 646.023438 596.929688 L 646.515625 592.515625 " fill-opacity="1" fill-rule="nonzero"/><path fill="#caddff" d="M 778.984375 241.839844 C 751.585938 253.410156 737.707031 290.332031 750.085938 318.308594 C 764.371094 350.597656 805.226562 351.96875 808.488281 352.023438 C 811.335938 352.074219 852.097656 352.203125 865.074219 323.730469 C 876.863281 297.867188 856.859375 267.90625 838.582031 253.882812 C 832.945312 249.554688 806.136719 230.371094 778.984375 241.839844 " fill-opacity="1" fill-rule="nonzero"/><path fill="#99b9ff" d="M 817.113281 263.3125 C 812.035156 256.570312 801.164062 255.078125 793.433594 256.890625 C 778.238281 260.460938 767.308594 278.671875 768.546875 295.027344 C 770.203125 316.890625 793.296875 331.453125 812.699219 331.953125 C 828.136719 332.355469 845.882812 323.972656 846.414062 315.097656 C 847.027344 304.898438 824.441406 302.082031 819.925781 282.984375 C 817.792969 273.984375 821.523438 269.171875 817.113281 263.3125 " fill-opacity="1" fill-rule="nonzero"/><path fill="#5479f7" d="M 797.851562 269.734375 C 791.980469 269.910156 785.539062 282.925781 787.015625 294.621094 C 787.167969 295.820312 789.285156 310.8125 801.0625 314.691406 C 808.957031 317.292969 819 314.175781 819.925781 309.878906 C 820.972656 305.039062 809.484375 303.253906 806.679688 292.613281 C 804.816406 285.550781 808.488281 281.035156 804.671875 274.953125 C 804.113281 274.0625 801.332031 269.632812 797.851562 269.734375 " fill-opacity="1" fill-rule="nonzero"/><path fill="#caddff" d="M 921.066406 453.179688 C 922.386719 430.046875 900.976562 411.527344 884.339844 403.808594 C 882.011719 402.722656 856.75 391.425781 833.773438 402 C 823.273438 406.832031 825.230469 408.941406 795.242188 429.699219 C 779.792969 440.390625 776.265625 441.664062 772.960938 447.761719 C 766.125 460.40625 768.683594 478.253906 777.179688 489.90625 C 789.882812 507.335938 813.5 507.683594 833.167969 507.96875 C 846.851562 508.171875 879.914062 508.65625 903.605469 485.09375 C 909.617188 479.117188 920.183594 468.601562 921.066406 453.179688 " fill-opacity="1" fill-rule="nonzero"/><path fill="#99b9ff" d="M 853.636719 417.054688 C 841.800781 417.675781 833.96875 422.074219 819.320312 430.300781 C 804.289062 438.742188 796.355469 443.195312 791.625 453.179688 C 790.664062 455.207031 784.027344 469.730469 790.421875 480.875 C 799.578125 496.828125 828.539062 493.847656 843.402344 492.316406 C 863.453125 490.25 886.316406 487.894531 895.179688 470.039062 C 901.414062 457.472656 899.464844 439.765625 889.160156 428.492188 C 877.542969 415.789062 860.289062 416.703125 853.636719 417.054688 " fill-opacity="1" fill-rule="nonzero"/><path fill="#5479f7" d="M 860.863281 435.71875 C 847.488281 430.257812 833.867188 439.84375 827.753906 444.148438 C 823.585938 447.078125 808.734375 457.527344 810.890625 466.425781 C 813.5625 477.421875 841.847656 484.386719 860.863281 474.253906 C 864.136719 472.511719 875.25 466.585938 875.910156 456.191406 C 876.507812 446.851562 868.347656 438.769531 860.863281 435.71875 " fill-opacity="1" fill-rule="nonzero"/><path fill="#5479f7" d="M 822.59375 504.671875 C 822.277344 504.671875 821.957031 504.539062 821.730469 504.289062 C 821.292969 503.8125 821.332031 503.078125 821.804688 502.640625 C 823.316406 501.261719 824.988281 499.921875 826.765625 498.660156 C 827.292969 498.289062 828.019531 498.410156 828.390625 498.9375 C 828.761719 499.464844 828.640625 500.191406 828.117188 500.566406 C 826.414062 501.773438 824.820312 503.050781 823.375 504.363281 C 823.15625 504.570312 822.875 504.671875 822.59375 504.671875 Z M 814.828125 514.324219 C 814.640625 514.324219 814.449219 514.273438 814.269531 514.175781 C 813.703125 513.867188 813.5 513.15625 813.808594 512.59375 C 814.8125 510.773438 816.023438 508.984375 817.410156 507.277344 C 817.8125 506.777344 818.546875 506.699219 819.046875 507.101562 C 819.550781 507.511719 819.625 508.246094 819.21875 508.746094 C 817.917969 510.34375 816.789062 512.015625 815.851562 513.71875 C 815.640625 514.105469 815.246094 514.324219 814.828125 514.324219 Z M 811.285156 526.140625 C 811.261719 526.140625 811.230469 526.140625 811.203125 526.140625 C 810.558594 526.097656 810.074219 525.539062 810.121094 524.898438 C 810.265625 522.757812 810.660156 520.613281 811.289062 518.53125 C 811.480469 517.914062 812.132812 517.566406 812.746094 517.757812 C 813.363281 517.941406 813.714844 518.59375 813.523438 519.207031 C 812.945312 521.125 812.582031 523.089844 812.449219 525.054688 C 812.40625 525.671875 811.890625 526.140625 811.285156 526.140625 Z M 813.195312 538.328125 C 812.730469 538.328125 812.289062 538.046875 812.113281 537.582031 C 811.320312 535.542969 810.75 533.449219 810.417969 531.359375 C 810.316406 530.722656 810.746094 530.125 811.382812 530.023438 C 812.011719 529.917969 812.617188 530.351562 812.71875 530.988281 C 813.027344 532.921875 813.554688 534.851562 814.289062 536.738281 C 814.519531 537.339844 814.21875 538.015625 813.621094 538.246094 C 813.480469 538.304688 813.339844 538.328125 813.195312 538.328125 Z M 819.726562 548.839844 C 819.40625 548.839844 819.089844 548.703125 818.855469 548.445312 C 817.410156 546.816406 816.113281 545.09375 815.003906 543.324219 C 814.664062 542.777344 814.828125 542.058594 815.375 541.71875 C 815.917969 541.375 816.640625 541.542969 816.980469 542.085938 C 818.023438 543.746094 819.238281 545.363281 820.601562 546.898438 C 821.027344 547.378906 820.984375 548.113281 820.5 548.542969 C 820.277344 548.742188 820 548.839844 819.726562 548.839844 Z M 829.214844 556.816406 C 829.003906 556.816406 828.789062 556.757812 828.59375 556.636719 C 826.777344 555.484375 825.046875 554.222656 823.445312 552.886719 C 822.953125 552.476562 822.882812 551.742188 823.300781 551.246094 C 823.710938 550.75 824.445312 550.679688 824.945312 551.097656 C 826.460938 552.371094 828.109375 553.570312 829.839844 554.667969 C 830.386719 555.011719 830.550781 555.730469 830.203125 556.273438 C 829.980469 556.625 829.605469 556.816406 829.214844 556.816406 Z M 840.414062 562.171875 C 840.292969 562.171875 840.160156 562.152344 840.035156 562.109375 C 838.015625 561.40625 836.039062 560.597656 834.164062 559.703125 C 833.582031 559.425781 833.332031 558.730469 833.609375 558.148438 C 833.886719 557.566406 834.582031 557.320312 835.164062 557.597656 C 836.96875 558.453125 838.863281 559.230469 840.796875 559.90625 C 841.40625 560.117188 841.734375 560.78125 841.519531 561.390625 C 841.355469 561.871094 840.902344 562.171875 840.414062 562.171875 Z M 852.5 565.046875 C 852.449219 565.046875 852.394531 565.042969 852.339844 565.035156 C 850.234375 564.746094 848.144531 564.351562 846.121094 563.875 C 845.492188 563.726562 845.105469 563.097656 845.25 562.472656 C 845.402344 561.847656 846.027344 561.457031 846.65625 561.601562 C 848.609375 562.066406 850.625 562.445312 852.660156 562.722656 C 853.296875 562.8125 853.742188 563.398438 853.65625 564.039062 C 853.574219 564.625 853.074219 565.046875 852.5 565.046875 Z M 862.234375 565.707031 C 861.039062 565.707031 859.832031 565.679688 858.632812 565.621094 C 857.992188 565.589844 857.496094 565.042969 857.527344 564.398438 C 857.558594 563.757812 858.09375 563.253906 858.75 563.292969 C 859.90625 563.347656 861.078125 563.375 862.234375 563.375 C 862.25 563.375 862.261719 563.375 862.277344 563.375 C 863.132812 563.375 864 563.359375 864.871094 563.328125 C 865.507812 563.316406 866.054688 563.8125 866.078125 564.457031 C 866.101562 565.097656 865.589844 565.640625 864.949219 565.664062 C 864.054688 565.695312 863.160156 565.707031 862.277344 565.707031 C 862.261719 565.707031 862.25 565.707031 862.234375 565.707031 " fill-opacity="1" fill-rule="nonzero"/><path fill="#5479f7" d="M 685.484375 269.261719 C 684.976562 269.261719 684.515625 268.929688 684.363281 268.421875 C 684.183594 267.800781 684.535156 267.152344 685.160156 266.972656 C 686.703125 266.523438 688.28125 266.289062 689.847656 266.289062 C 689.847656 266.289062 689.847656 266.289062 689.851562 266.289062 C 690.496094 266.289062 691.144531 266.328125 691.777344 266.40625 C 692.417969 266.484375 692.871094 267.066406 692.796875 267.703125 C 692.714844 268.34375 692.132812 268.796875 691.496094 268.722656 C 690.957031 268.65625 690.402344 268.625 689.851562 268.625 C 689.847656 268.625 689.847656 268.625 689.847656 268.625 C 688.503906 268.625 687.148438 268.820312 685.808594 269.210938 C 685.703125 269.246094 685.585938 269.261719 685.484375 269.261719 Z M 702.558594 274.292969 C 702.296875 274.292969 702.03125 274.207031 701.8125 274.023438 C 700.363281 272.820312 698.824219 271.722656 697.234375 270.753906 C 697.128906 270.6875 697.023438 270.621094 696.910156 270.558594 C 696.347656 270.234375 696.160156 269.523438 696.476562 268.96875 C 696.800781 268.40625 697.507812 268.210938 698.070312 268.53125 C 698.199219 268.609375 698.324219 268.683594 698.449219 268.757812 C 700.132812 269.789062 701.769531 270.953125 703.304688 272.230469 C 703.800781 272.644531 703.867188 273.378906 703.457031 273.871094 C 703.222656 274.152344 702.890625 274.292969 702.558594 274.292969 Z M 675.578125 276.421875 C 675.339844 276.421875 675.097656 276.351562 674.894531 276.199219 C 674.371094 275.824219 674.253906 275.09375 674.636719 274.574219 C 675.933594 272.777344 677.492188 271.207031 679.253906 269.917969 C 679.777344 269.535156 680.503906 269.648438 680.886719 270.167969 C 681.265625 270.6875 681.152344 271.417969 680.632812 271.800781 C 679.066406 272.949219 677.683594 274.34375 676.523438 275.941406 C 676.296875 276.257812 675.941406 276.421875 675.578125 276.421875 Z M 710.851562 283.507812 C 710.480469 283.507812 710.113281 283.328125 709.890625 282.996094 C 708.722656 281.292969 707.464844 279.683594 706.15625 278.222656 C 705.722656 277.746094 705.765625 277.007812 706.246094 276.578125 C 706.726562 276.144531 707.464844 276.191406 707.890625 276.667969 C 709.269531 278.203125 710.589844 279.894531 711.8125 281.679688 C 712.179688 282.210938 712.042969 282.9375 711.511719 283.300781 C 711.3125 283.4375 711.082031 283.507812 710.851562 283.507812 Z M 671.910156 288.078125 C 671.285156 288.078125 670.761719 287.578125 670.742188 286.949219 C 670.738281 286.722656 670.730469 286.496094 670.730469 286.273438 C 670.730469 284.308594 671.042969 282.34375 671.65625 280.425781 C 671.855469 279.808594 672.511719 279.472656 673.125 279.667969 C 673.738281 279.867188 674.078125 280.523438 673.878906 281.136719 C 673.339844 282.824219 673.066406 284.554688 673.066406 286.273438 C 673.066406 286.472656 673.070312 286.667969 673.074219 286.867188 C 673.09375 287.511719 672.59375 288.050781 671.949219 288.074219 C 671.933594 288.078125 671.917969 288.078125 671.910156 288.078125 Z M 716.753906 294.4375 C 716.300781 294.4375 715.871094 294.171875 715.683594 293.726562 C 714.855469 291.792969 713.96875 289.933594 713.046875 288.210938 C 712.738281 287.640625 712.953125 286.929688 713.523438 286.625 C 714.085938 286.324219 714.796875 286.535156 715.101562 287.105469 C 716.058594 288.894531 716.976562 290.8125 717.824219 292.8125 C 718.078125 293.410156 717.804688 294.089844 717.210938 294.347656 C 717.0625 294.40625 716.90625 294.4375 716.753906 294.4375 Z M 676.480469 299.382812 C 676.148438 299.382812 675.824219 299.242188 675.589844 298.964844 C 674.125 297.222656 672.96875 295.351562 672.15625 293.394531 C 671.914062 292.796875 672.191406 292.117188 672.789062 291.871094 C 673.386719 291.617188 674.066406 291.902344 674.3125 292.5 C 675.03125 294.238281 676.058594 295.90625 677.375 297.464844 C 677.789062 297.957031 677.726562 298.695312 677.230469 299.109375 C 677.015625 299.292969 676.746094 299.382812 676.480469 299.382812 Z M 720.792969 306.207031 C 720.277344 306.207031 719.8125 305.867188 719.667969 305.351562 C 719.105469 303.308594 718.5 301.328125 717.863281 299.464844 C 717.65625 298.855469 717.984375 298.191406 718.589844 297.984375 C 719.203125 297.773438 719.863281 298.105469 720.070312 298.714844 C 720.722656 300.621094 721.339844 302.644531 721.917969 304.730469 C 722.085938 305.351562 721.722656 305.992188 721.105469 306.164062 C 721.003906 306.191406 720.894531 306.207031 720.792969 306.207031 Z M 686.308594 306.859375 C 686.128906 306.859375 685.949219 306.816406 685.777344 306.730469 C 683.785156 305.710938 681.949219 304.582031 680.324219 303.378906 C 679.808594 302.992188 679.699219 302.261719 680.082031 301.746094 C 680.46875 301.226562 681.203125 301.121094 681.71875 301.503906 C 683.238281 302.636719 684.957031 303.695312 686.839844 304.652344 C 687.414062 304.949219 687.636719 305.652344 687.347656 306.226562 C 687.140625 306.628906 686.734375 306.859375 686.308594 306.859375 Z M 697.941406 311.179688 C 697.84375 311.179688 697.746094 311.167969 697.644531 311.140625 C 695.527344 310.582031 693.492188 309.949219 691.609375 309.257812 C 691.003906 309.035156 690.691406 308.367188 690.910156 307.761719 C 691.132812 307.15625 691.800781 306.84375 692.410156 307.066406 C 694.226562 307.734375 696.1875 308.34375 698.238281 308.886719 C 698.863281 309.050781 699.234375 309.6875 699.070312 310.308594 C 698.929688 310.835938 698.457031 311.179688 697.941406 311.179688 Z M 710.148438 313.511719 C 710.097656 313.511719 710.050781 313.507812 709.996094 313.503906 C 707.847656 313.226562 705.761719 312.894531 703.789062 312.523438 C 703.15625 312.402344 702.742188 311.789062 702.863281 311.160156 C 702.980469 310.527344 703.59375 310.105469 704.222656 310.230469 C 706.148438 310.597656 708.195312 310.921875 710.296875 311.1875 C 710.9375 311.277344 711.386719 311.859375 711.304688 312.496094 C 711.226562 313.082031 710.726562 313.511719 710.148438 313.511719 Z M 730.101562 314.683594 C 729.648438 314.683594 729.191406 314.679688 728.746094 314.679688 C 728.097656 314.675781 727.582031 314.148438 727.585938 313.503906 C 727.589844 312.863281 728.109375 312.34375 728.753906 312.34375 C 728.753906 312.34375 728.757812 312.34375 728.761719 312.34375 C 730.773438 312.363281 732.863281 312.34375 734.945312 312.292969 C 734.957031 312.292969 734.964844 312.292969 734.976562 312.292969 C 735.609375 312.292969 736.125 312.800781 736.136719 313.4375 C 736.152344 314.082031 735.640625 314.613281 734.996094 314.628906 C 733.359375 314.664062 731.710938 314.683594 730.101562 314.683594 Z M 723.542969 318.351562 C 722.996094 318.351562 722.5 317.960938 722.398438 317.402344 C 722.214844 316.398438 722.023438 315.4375 721.835938 314.507812 C 719.925781 314.421875 718.042969 314.300781 716.234375 314.152344 C 715.59375 314.101562 715.113281 313.539062 715.167969 312.894531 C 715.21875 312.253906 715.78125 311.777344 716.429688 311.828125 C 718.011719 311.960938 719.660156 312.066406 721.335938 312.144531 C 721.28125 311.875 721.21875 311.605469 721.160156 311.339844 C 721.015625 310.710938 721.414062 310.085938 722.042969 309.945312 C 722.671875 309.804688 723.292969 310.199219 723.433594 310.828125 C 723.867188 312.765625 724.285156 314.777344 724.695312 316.96875 C 724.8125 317.601562 724.390625 318.210938 723.757812 318.332031 C 723.6875 318.34375 723.617188 318.351562 723.542969 318.351562 Z M 725.566406 330.644531 C 725.003906 330.644531 724.503906 330.230469 724.417969 329.652344 L 724.25 328.558594 C 724 326.957031 723.742188 325.265625 723.453125 323.507812 C 723.351562 322.871094 723.785156 322.269531 724.421875 322.167969 C 725.0625 322.058594 725.660156 322.5 725.761719 323.132812 C 726.042969 324.898438 726.308594 326.59375 726.554688 328.203125 L 726.71875 329.296875 C 726.820312 329.9375 726.386719 330.53125 725.75 330.628906 C 725.6875 330.636719 725.628906 330.644531 725.566406 330.644531 Z M 728.054688 342.84375 C 727.550781 342.84375 727.085938 342.515625 726.9375 342.003906 C 726.554688 340.703125 726.214844 339.429688 725.933594 338.222656 C 725.769531 337.527344 725.613281 336.75 725.441406 335.839844 C 725.324219 335.203125 725.742188 334.59375 726.375 334.476562 C 727.011719 334.355469 727.613281 334.769531 727.734375 335.40625 C 727.890625 336.230469 728.042969 336.996094 728.210938 337.699219 C 728.476562 338.863281 728.800781 340.085938 729.171875 341.347656 C 729.355469 341.964844 729.003906 342.613281 728.386719 342.792969 C 728.277344 342.828125 728.164062 342.84375 728.054688 342.84375 Z M 732.519531 354.460938 C 732.085938 354.460938 731.667969 354.214844 731.464844 353.796875 C 730.566406 351.910156 729.726562 349.960938 728.972656 347.996094 C 728.738281 347.390625 729.042969 346.714844 729.644531 346.484375 C 730.242188 346.257812 730.921875 346.550781 731.152344 347.152344 C 731.886719 349.0625 732.699219 350.960938 733.570312 352.796875 C 733.847656 353.375 733.601562 354.070312 733.019531 354.347656 C 732.855469 354.429688 732.683594 354.460938 732.519531 354.460938 Z M 738.769531 365.214844 C 738.402344 365.214844 738.042969 365.042969 737.816406 364.71875 C 736.625 363.03125 735.476562 361.234375 734.410156 359.390625 C 734.085938 358.832031 734.273438 358.121094 734.832031 357.796875 C 735.386719 357.476562 736.101562 357.660156 736.425781 358.222656 C 737.460938 360.007812 738.570312 361.742188 739.722656 363.375 C 740.09375 363.902344 739.964844 364.628906 739.4375 365 C 739.234375 365.144531 739.003906 365.214844 738.769531 365.214844 Z M 746.914062 374.59375 C 746.628906 374.59375 746.34375 374.492188 746.121094 374.285156 C 744.605469 372.878906 743.121094 371.339844 741.714844 369.71875 C 741.292969 369.226562 741.34375 368.492188 741.835938 368.070312 C 742.320312 367.648438 743.058594 367.703125 743.476562 368.191406 C 744.828125 369.746094 746.25 371.226562 747.703125 372.574219 C 748.179688 373.007812 748.210938 373.746094 747.769531 374.214844 C 747.542969 374.46875 747.226562 374.59375 746.914062 374.59375 Z M 848 374.894531 C 847.390625 374.894531 846.878906 374.421875 846.839844 373.800781 C 846.800781 373.15625 847.289062 372.605469 847.933594 372.566406 C 850.082031 372.429688 852.214844 372.414062 854.277344 372.523438 C 854.921875 372.558594 855.417969 373.105469 855.382812 373.75 C 855.347656 374.390625 854.777344 374.859375 854.160156 374.851562 C 852.179688 374.75 850.136719 374.765625 848.078125 374.894531 C 848.054688 374.894531 848.027344 374.894531 848 374.894531 Z M 835.726562 376.769531 C 835.191406 376.769531 834.710938 376.40625 834.589844 375.859375 C 834.445312 375.234375 834.84375 374.609375 835.46875 374.46875 C 837.707031 373.964844 839.726562 373.574219 841.648438 373.269531 C 842.28125 373.164062 842.882812 373.605469 842.984375 374.242188 C 843.085938 374.878906 842.648438 375.476562 842.011719 375.578125 C 840.144531 375.871094 838.167969 376.253906 835.980469 376.738281 C 835.894531 376.761719 835.8125 376.769531 835.726562 376.769531 Z M 866.457031 376.949219 C 866.351562 376.949219 866.242188 376.933594 866.132812 376.898438 C 864.140625 376.328125 862.144531 375.871094 860.199219 375.53125 C 859.5625 375.421875 859.136719 374.820312 859.246094 374.1875 C 859.355469 373.550781 859.96875 373.128906 860.597656 373.234375 C 862.625 373.582031 864.710938 374.0625 866.777344 374.660156 C 867.398438 374.835938 867.757812 375.480469 867.574219 376.105469 C 867.429688 376.617188 866.960938 376.949219 866.457031 376.949219 Z M 823.683594 379.859375 C 823.167969 379.859375 822.695312 379.523438 822.554688 379 C 822.386719 378.375 822.753906 377.738281 823.378906 377.570312 L 823.863281 377.4375 C 825.75 376.925781 827.59375 376.425781 829.394531 375.957031 C 830.019531 375.789062 830.652344 376.167969 830.816406 376.792969 C 830.980469 377.414062 830.605469 378.050781 829.984375 378.21875 C 828.183594 378.683594 826.355469 379.179688 824.472656 379.691406 L 823.988281 379.820312 C 823.886719 379.847656 823.785156 379.859375 823.683594 379.859375 Z M 756.984375 381.835938 C 756.800781 381.835938 756.609375 381.789062 756.433594 381.695312 C 754.585938 380.699219 752.769531 379.5625 751.039062 378.316406 C 750.515625 377.9375 750.398438 377.207031 750.777344 376.6875 C 751.152344 376.160156 751.882812 376.042969 752.402344 376.425781 C 754.054688 377.609375 755.777344 378.691406 757.539062 379.636719 C 758.105469 379.945312 758.316406 380.65625 758.011719 381.222656 C 757.800781 381.613281 757.402344 381.835938 756.984375 381.835938 Z M 877.453125 382.515625 C 877.183594 382.515625 876.90625 382.421875 876.6875 382.226562 C 875.25 380.96875 873.59375 379.875 871.769531 378.980469 C 871.191406 378.695312 870.949219 378 871.234375 377.421875 C 871.519531 376.84375 872.214844 376.601562 872.792969 376.886719 C 874.800781 377.871094 876.632812 379.078125 878.222656 380.472656 C 878.710938 380.898438 878.757812 381.632812 878.332031 382.117188 C 878.105469 382.378906 877.78125 382.515625 877.453125 382.515625 Z M 811.640625 382.972656 C 811.109375 382.972656 810.632812 382.609375 810.507812 382.070312 C 810.355469 381.445312 810.746094 380.816406 811.371094 380.671875 C 813.21875 380.234375 815.1875 379.742188 817.378906 379.171875 C 818.003906 379.011719 818.640625 379.382812 818.804688 380.007812 C 818.964844 380.628906 818.59375 381.269531 817.96875 381.429688 C 815.757812 382.003906 813.777344 382.496094 811.910156 382.941406 C 811.820312 382.960938 811.730469 382.972656 811.640625 382.972656 Z M 799.453125 385.457031 C 798.898438 385.457031 798.402344 385.058594 798.308594 384.492188 C 798.199219 383.855469 798.628906 383.25 799.261719 383.140625 C 801.246094 382.804688 803.289062 382.425781 805.339844 382.007812 C 805.960938 381.875 806.582031 382.28125 806.710938 382.917969 C 806.839844 383.546875 806.433594 384.167969 805.804688 384.292969 C 803.730469 384.71875 801.664062 385.105469 799.648438 385.445312 C 799.585938 385.457031 799.523438 385.457031 799.453125 385.457031 Z M 768.582031 386.191406 C 768.5 386.191406 768.414062 386.183594 768.324219 386.164062 C 766.253906 385.683594 764.203125 385.070312 762.234375 384.332031 C 761.625 384.105469 761.320312 383.433594 761.550781 382.828125 C 761.777344 382.222656 762.445312 381.917969 763.050781 382.148438 C 764.925781 382.851562 766.878906 383.433594 768.847656 383.890625 C 769.476562 384.03125 769.871094 384.65625 769.726562 385.285156 C 769.597656 385.824219 769.121094 386.191406 768.582031 386.191406 Z M 787.128906 387.074219 C 786.53125 387.074219 786.023438 386.625 785.96875 386.019531 C 785.90625 385.375 786.378906 384.808594 787.019531 384.75 C 789.066406 384.554688 791.136719 384.324219 793.15625 384.0625 C 793.792969 383.976562 794.378906 384.425781 794.464844 385.0625 C 794.542969 385.703125 794.101562 386.289062 793.460938 386.371094 C 791.410156 386.644531 789.3125 386.875 787.234375 387.070312 C 787.199219 387.074219 787.160156 387.074219 787.128906 387.074219 Z M 780.144531 387.464844 C 778.273438 387.464844 776.40625 387.375 774.597656 387.1875 C 773.957031 387.125 773.488281 386.550781 773.554688 385.914062 C 773.617188 385.269531 774.183594 384.796875 774.832031 384.867188 C 776.804688 385.066406 778.839844 385.15625 780.902344 385.125 C 780.910156 385.125 780.914062 385.125 780.921875 385.125 C 781.554688 385.125 782.078125 385.636719 782.085938 386.277344 C 782.09375 386.917969 781.582031 387.449219 780.9375 387.457031 C 780.667969 387.460938 780.40625 387.464844 780.144531 387.464844 Z M 883.507812 390.953125 C 883.0625 390.953125 882.632812 390.691406 882.4375 390.25 C 881.882812 388.972656 881.242188 387.773438 880.53125 386.675781 C 880.179688 386.132812 880.332031 385.414062 880.871094 385.0625 C 881.414062 384.714844 882.136719 384.867188 882.488281 385.40625 C 883.265625 386.609375 883.96875 387.925781 884.578125 389.320312 C 884.835938 389.914062 884.5625 390.601562 883.972656 390.859375 C 883.820312 390.925781 883.664062 390.953125 883.507812 390.953125 " fill-opacity="1" fill-rule="nonzero"/><path fill="#5479f7" d="M 723.824219 165.167969 C 723.222656 165.167969 722.710938 164.699219 722.664062 164.085938 C 722.617188 163.445312 723.09375 162.882812 723.742188 162.835938 C 725.835938 162.679688 727.953125 162.589844 730.035156 162.570312 C 730.035156 162.570312 730.035156 162.570312 730.042969 162.570312 C 730.679688 162.570312 731.203125 163.082031 731.207031 163.726562 C 731.214844 164.371094 730.699219 164.894531 730.054688 164.902344 C 728.023438 164.917969 725.960938 165.007812 723.914062 165.160156 C 723.882812 165.167969 723.855469 165.167969 723.824219 165.167969 Z M 742.453125 165.621094 C 742.402344 165.621094 742.355469 165.621094 742.300781 165.609375 C 740.285156 165.355469 738.226562 165.167969 736.191406 165.046875 C 735.546875 165.011719 735.058594 164.460938 735.09375 163.816406 C 735.132812 163.175781 735.65625 162.675781 736.328125 162.71875 C 738.410156 162.839844 740.523438 163.035156 742.597656 163.296875 C 743.238281 163.378906 743.691406 163.960938 743.609375 164.601562 C 743.53125 165.191406 743.03125 165.621094 742.453125 165.621094 Z M 711.507812 166.882812 C 710.96875 166.882812 710.476562 166.5 710.367188 165.945312 C 710.238281 165.316406 710.648438 164.699219 711.28125 164.570312 C 713.34375 164.15625 715.425781 163.796875 717.480469 163.507812 C 718.117188 163.417969 718.710938 163.863281 718.796875 164.503906 C 718.886719 165.140625 718.441406 165.730469 717.804688 165.820312 C 715.796875 166.101562 713.757812 166.449219 711.746094 166.855469 C 711.664062 166.875 711.585938 166.882812 711.507812 166.882812 Z M 754.648438 168.023438 C 754.546875 168.023438 754.445312 168.003906 754.34375 167.980469 C 752.371094 167.453125 750.355469 166.980469 748.359375 166.589844 C 747.734375 166.464844 747.320312 165.855469 747.445312 165.21875 C 747.570312 164.585938 748.1875 164.175781 748.816406 164.300781 C 750.859375 164.703125 752.925781 165.183594 754.949219 165.726562 C 755.570312 165.894531 755.941406 166.53125 755.769531 167.15625 C 755.632812 167.679688 755.164062 168.023438 754.648438 168.023438 Z M 699.488281 170.050781 C 699 170.050781 698.539062 169.738281 698.378906 169.242188 C 698.179688 168.632812 698.515625 167.972656 699.128906 167.773438 C 701.128906 167.128906 703.15625 166.527344 705.160156 166.003906 C 705.777344 165.835938 706.417969 166.210938 706.582031 166.832031 C 706.75 167.457031 706.375 168.09375 705.753906 168.257812 C 703.796875 168.773438 701.808594 169.359375 699.847656 169.996094 C 699.730469 170.03125 699.605469 170.050781 699.488281 170.050781 Z M 766.410156 172.046875 C 766.253906 172.046875 766.105469 172.019531 765.957031 171.957031 C 764.070312 171.167969 762.136719 170.433594 760.21875 169.773438 C 759.605469 169.5625 759.28125 168.898438 759.492188 168.292969 C 759.699219 167.683594 760.363281 167.355469 760.972656 167.566406 C 762.941406 168.242188 764.925781 168.996094 766.859375 169.804688 C 767.453125 170.050781 767.730469 170.738281 767.484375 171.332031 C 767.300781 171.78125 766.867188 172.046875 766.410156 172.046875 Z M 687.875 174.496094 C 687.425781 174.496094 686.996094 174.234375 686.804688 173.796875 C 686.546875 173.207031 686.816406 172.519531 687.402344 172.261719 C 689.324219 171.417969 691.277344 170.613281 693.207031 169.871094 C 693.808594 169.640625 694.484375 169.941406 694.714844 170.542969 C 694.945312 171.144531 694.648438 171.816406 694.042969 172.046875 C 692.148438 172.773438 690.230469 173.566406 688.34375 174.398438 C 688.191406 174.460938 688.035156 174.496094 687.875 174.496094 Z M 777.535156 177.597656 C 777.335938 177.597656 777.136719 177.546875 776.949219 177.441406 C 775.1875 176.414062 773.367188 175.429688 771.542969 174.519531 C 770.964844 174.230469 770.734375 173.53125 771.015625 172.953125 C 771.308594 172.378906 772.007812 172.144531 772.582031 172.429688 C 774.453125 173.367188 776.316406 174.371094 778.121094 175.425781 C 778.683594 175.75 778.867188 176.464844 778.542969 177.019531 C 778.332031 177.390625 777.9375 177.597656 777.535156 177.597656 Z M 676.746094 180.042969 C 676.34375 180.042969 675.957031 179.839844 675.738281 179.460938 C 675.414062 178.902344 675.605469 178.191406 676.164062 177.867188 C 677.078125 177.339844 678.023438 176.820312 678.96875 176.328125 C 679.886719 175.839844 680.804688 175.375 681.722656 174.921875 C 682.300781 174.636719 683 174.871094 683.285156 175.449219 C 683.574219 176.027344 683.332031 176.726562 682.757812 177.011719 C 681.855469 177.460938 680.953125 177.917969 680.046875 178.394531 C 679.128906 178.871094 678.21875 179.375 677.328125 179.890625 C 677.144531 179.996094 676.945312 180.042969 676.746094 180.042969 Z M 787.855469 184.546875 C 787.605469 184.546875 787.351562 184.464844 787.136719 184.304688 C 785.53125 183.058594 783.855469 181.847656 782.15625 180.703125 C 781.621094 180.34375 781.480469 179.621094 781.839844 179.085938 C 782.199219 178.550781 782.929688 178.410156 783.464844 178.769531 C 785.203125 179.941406 786.921875 181.183594 788.566406 182.453125 C 789.078125 182.851562 789.171875 183.585938 788.773438 184.09375 C 788.546875 184.390625 788.203125 184.546875 787.855469 184.546875 Z M 666.546875 187.132812 C 666.214844 187.132812 665.878906 186.984375 665.648438 186.707031 C 665.238281 186.210938 665.308594 185.472656 665.804688 185.066406 C 667.425781 183.730469 669.117188 182.445312 670.835938 181.253906 C 671.363281 180.886719 672.089844 181.015625 672.460938 181.546875 C 672.824219 182.074219 672.695312 182.800781 672.167969 183.171875 C 670.503906 184.324219 668.863281 185.570312 667.289062 186.863281 C 667.070312 187.042969 666.8125 187.132812 666.546875 187.132812 Z M 797.132812 192.828125 C 796.832031 192.828125 796.523438 192.707031 796.296875 192.472656 C 794.921875 191.042969 793.433594 189.617188 791.867188 188.222656 C 791.386719 187.792969 791.34375 187.058594 791.769531 186.578125 C 792.199219 186.097656 792.9375 186.050781 793.421875 186.480469 C 795.027344 187.914062 796.558594 189.386719 797.972656 190.847656 C 798.425781 191.3125 798.410156 192.050781 797.941406 192.5 C 797.714844 192.71875 797.425781 192.828125 797.132812 192.828125 Z M 657.609375 195.761719 C 657.335938 195.761719 657.058594 195.664062 656.835938 195.46875 C 656.355469 195.039062 656.3125 194.300781 656.742188 193.816406 C 658.144531 192.242188 659.613281 190.707031 661.105469 189.265625 C 661.566406 188.816406 662.304688 188.832031 662.75 189.296875 C 663.199219 189.761719 663.1875 190.496094 662.722656 190.945312 C 661.277344 192.34375 659.847656 193.835938 658.480469 195.371094 C 658.253906 195.632812 657.933594 195.761719 657.609375 195.761719 Z M 804.820312 202.59375 C 804.429688 202.59375 804.054688 202.398438 803.832031 202.050781 C 803.011719 200.753906 802.179688 199.53125 801.367188 198.421875 C 801.042969 197.980469 800.699219 197.523438 800.328125 197.058594 C 799.929688 196.554688 800.019531 195.820312 800.519531 195.417969 C 801.023438 195.019531 801.757812 195.105469 802.15625 195.609375 C 802.546875 196.101562 802.90625 196.578125 803.246094 197.039062 C 804.09375 198.191406 804.953125 199.457031 805.800781 200.800781 C 806.148438 201.347656 805.988281 202.066406 805.441406 202.410156 C 805.25 202.53125 805.027344 202.59375 804.820312 202.59375 Z M 650.027344 205.601562 C 649.804688 205.601562 649.578125 205.535156 649.378906 205.402344 C 648.84375 205.042969 648.699219 204.320312 649.058594 203.785156 C 650.234375 202.03125 651.46875 200.3125 652.730469 198.671875 C 653.121094 198.164062 653.851562 198.066406 654.363281 198.460938 C 654.875 198.855469 654.96875 199.585938 654.574219 200.097656 C 653.347656 201.695312 652.140625 203.375 650.996094 205.085938 C 650.769531 205.417969 650.402344 205.601562 650.027344 205.601562 Z M 810.730469 213.535156 C 810.292969 213.535156 809.867188 213.285156 809.671875 212.859375 C 808.800781 210.976562 807.875 209.125 806.921875 207.355469 C 806.613281 206.785156 806.828125 206.078125 807.394531 205.777344 C 807.960938 205.472656 808.667969 205.683594 808.976562 206.25 C 809.949219 208.0625 810.898438 209.953125 811.789062 211.875 C 812.058594 212.460938 811.804688 213.15625 811.21875 213.425781 C 811.058594 213.5 810.894531 213.535156 810.730469 213.535156 Z M 643.746094 216.328125 C 643.566406 216.328125 643.386719 216.285156 643.214844 216.199219 C 642.640625 215.910156 642.417969 215.207031 642.707031 214.628906 C 643.671875 212.746094 644.683594 210.890625 645.726562 209.117188 C 646.050781 208.558594 646.765625 208.378906 647.316406 208.695312 C 647.878906 209.023438 648.0625 209.734375 647.734375 210.296875 C 646.71875 212.035156 645.726562 213.851562 644.785156 215.691406 C 644.578125 216.09375 644.171875 216.328125 643.746094 216.328125 Z M 815.328125 225.089844 C 814.84375 225.089844 814.386719 224.78125 814.222656 224.296875 C 813.574219 222.367188 812.863281 220.421875 812.105469 218.515625 C 811.863281 217.917969 812.160156 217.234375 812.757812 216.996094 C 813.355469 216.761719 814.035156 217.050781 814.273438 217.648438 C 815.046875 219.597656 815.777344 221.585938 816.4375 223.550781 C 816.640625 224.164062 816.316406 224.824219 815.703125 225.027344 C 815.578125 225.070312 815.453125 225.089844 815.328125 225.089844 Z M 638.652344 227.675781 C 638.511719 227.675781 638.371094 227.652344 638.230469 227.597656 C 637.628906 227.363281 637.335938 226.6875 637.570312 226.082031 C 638.339844 224.128906 639.152344 222.179688 639.996094 220.292969 C 640.257812 219.707031 640.953125 219.445312 641.535156 219.707031 C 642.125 219.96875 642.386719 220.65625 642.125 221.246094 C 641.296875 223.097656 640.496094 225.011719 639.742188 226.9375 C 639.558594 227.394531 639.121094 227.675781 638.652344 227.675781 Z M 634.621094 239.449219 C 634.511719 239.449219 634.398438 239.4375 634.289062 239.398438 C 633.671875 239.21875 633.320312 238.570312 633.503906 237.949219 C 634.101562 235.929688 634.742188 233.917969 635.410156 231.976562 C 635.621094 231.367188 636.28125 231.039062 636.890625 231.25 C 637.5 231.460938 637.824219 232.121094 637.617188 232.730469 C 636.964844 234.644531 636.328125 236.621094 635.738281 238.613281 C 635.589844 239.121094 635.125 239.449219 634.621094 239.449219 Z M 631.523438 251.507812 C 631.4375 251.507812 631.359375 251.5 631.269531 251.480469 C 630.644531 251.339844 630.242188 250.71875 630.382812 250.089844 C 630.832031 248.042969 631.320312 245.992188 631.832031 243.992188 C 631.992188 243.371094 632.628906 242.988281 633.253906 243.15625 C 633.875 243.316406 634.25 243.949219 634.09375 244.574219 C 633.585938 246.546875 633.105469 248.570312 632.664062 250.59375 C 632.542969 251.136719 632.058594 251.507812 631.523438 251.507812 Z M 629.253906 263.75 C 629.195312 263.75 629.136719 263.746094 629.078125 263.734375 C 628.4375 263.636719 628.003906 263.042969 628.097656 262.40625 C 628.414062 260.328125 628.765625 258.25 629.140625 256.230469 C 629.257812 255.597656 629.863281 255.171875 630.5 255.296875 C 631.132812 255.414062 631.550781 256.019531 631.433594 256.65625 C 631.066406 258.652344 630.71875 260.707031 630.40625 262.761719 C 630.316406 263.335938 629.820312 263.75 629.253906 263.75 Z M 627.746094 276.109375 C 627.710938 276.109375 627.675781 276.109375 627.640625 276.105469 C 626.996094 276.046875 626.527344 275.480469 626.582031 274.835938 C 626.773438 272.773438 626.996094 270.675781 627.246094 268.609375 C 627.324219 267.972656 627.910156 267.523438 628.546875 267.59375 C 629.1875 267.671875 629.640625 268.253906 629.5625 268.894531 C 629.316406 270.9375 629.09375 273.011719 628.90625 275.050781 C 628.851562 275.65625 628.34375 276.109375 627.746094 276.109375 " fill-opacity="1" fill-rule="nonzero"/><path fill="#000000" d="M 621.816406 84.5625 C 617.660156 84.5625 614.070312 81.429688 613.609375 77.199219 C 613.113281 72.671875 616.394531 68.589844 620.921875 68.09375 C 621.558594 68.019531 622.140625 68.480469 622.207031 69.125 C 622.28125 69.761719 621.816406 70.339844 621.175781 70.410156 C 617.925781 70.765625 615.574219 73.699219 615.925781 76.945312 C 616.097656 78.523438 616.875 79.933594 618.109375 80.929688 C 619.34375 81.917969 620.890625 82.371094 622.464844 82.195312 C 625.710938 81.839844 628.066406 78.914062 627.710938 75.660156 C 627.640625 75.023438 628.105469 74.445312 628.746094 74.375 C 629.382812 74.304688 629.960938 74.769531 630.035156 75.40625 C 630.527344 79.933594 627.242188 84.023438 622.714844 84.515625 C 622.414062 84.550781 622.113281 84.5625 621.816406 84.5625 " fill-opacity="1" fill-rule="nonzero"/><path fill="#000000" d="M 972.699219 642.527344 C 971.910156 642.527344 971.113281 642.683594 970.363281 642.992188 C 968.847656 643.613281 967.667969 644.792969 967.039062 646.304688 C 966.40625 647.816406 966.402344 649.484375 967.027344 651 C 967.648438 652.515625 968.828125 653.695312 970.339844 654.324219 C 971.851562 654.957031 973.515625 654.957031 975.03125 654.335938 C 976.542969 653.714844 977.722656 652.535156 978.355469 651.023438 C 978.988281 649.511719 978.992188 647.84375 978.371094 646.328125 C 977.742188 644.816406 976.570312 643.636719 975.058594 643.003906 C 974.296875 642.6875 973.496094 642.527344 972.699219 642.527344 Z M 972.699219 657.136719 C 971.59375 657.136719 970.492188 656.917969 969.4375 656.476562 C 967.351562 655.609375 965.730469 653.976562 964.867188 651.886719 C 964.007812 649.796875 964.015625 647.492188 964.882812 645.40625 C 965.753906 643.320312 967.382812 641.695312 969.476562 640.835938 C 971.5625 639.976562 973.871094 639.980469 975.953125 640.851562 C 978.042969 641.71875 979.667969 643.351562 980.523438 645.445312 C 981.386719 647.535156 981.378906 649.835938 980.511719 651.925781 C 979.640625 654.007812 978.011719 655.632812 975.917969 656.492188 C 974.882812 656.921875 973.789062 657.136719 972.699219 657.136719 " fill-opacity="1" fill-rule="nonzero"/><path fill="#000000" d="M 925.523438 663.457031 C 924.113281 663.457031 922.761719 664.296875 922.1875 665.679688 C 921.417969 667.519531 922.292969 669.636719 924.128906 670.402344 C 925.019531 670.777344 926 670.78125 926.894531 670.410156 C 927.785156 670.046875 928.480469 669.351562 928.851562 668.460938 C 929.226562 667.570312 929.226562 666.589844 928.859375 665.695312 C 928.492188 664.800781 927.796875 664.109375 926.910156 663.738281 C 926.453125 663.546875 925.988281 663.457031 925.523438 663.457031 Z M 925.519531 673.019531 C 924.746094 673.019531 923.96875 672.867188 923.234375 672.558594 C 920.203125 671.296875 918.769531 667.808594 920.035156 664.78125 C 921.292969 661.757812 924.777344 660.320312 927.804688 661.582031 C 929.273438 662.191406 930.417969 663.339844 931.015625 664.808594 C 931.621094 666.273438 931.617188 667.894531 931.003906 669.359375 C 930.394531 670.824219 929.25 671.964844 927.78125 672.570312 C 927.050781 672.867188 926.285156 673.019531 925.519531 673.019531 " fill-opacity="1" fill-rule="nonzero"/><path fill="#000000" d="M 658.972656 417.792969 C 658.679688 417.792969 658.390625 417.683594 658.164062 417.464844 L 654.503906 413.957031 C 654.039062 413.511719 654.019531 412.773438 654.46875 412.308594 C 654.914062 411.839844 655.652344 411.828125 656.117188 412.273438 L 659.777344 415.785156 C 660.246094 416.230469 660.257812 416.96875 659.8125 417.433594 C 659.582031 417.675781 659.277344 417.792969 658.972656 417.792969 " fill-opacity="1" fill-rule="nonzero"/><path fill="#000000" d="M 646.160156 405.496094 C 645.871094 405.496094 645.578125 405.390625 645.355469 405.171875 L 641.695312 401.660156 C 641.226562 401.214844 641.210938 400.472656 641.65625 400.011719 C 642.105469 399.546875 642.84375 399.527344 643.308594 399.976562 L 646.96875 403.488281 C 647.433594 403.933594 647.449219 404.671875 647.003906 405.136719 C 646.773438 405.375 646.464844 405.496094 646.160156 405.496094 " fill-opacity="1" fill-rule="nonzero"/><path fill="#000000" d="M 655.101562 405.289062 C 654.8125 405.289062 654.523438 405.183594 654.296875 404.96875 C 653.828125 404.523438 653.8125 403.789062 654.253906 403.320312 L 657.746094 399.636719 C 658.1875 399.171875 658.925781 399.152344 659.394531 399.59375 C 659.859375 400.039062 659.882812 400.777344 659.4375 401.246094 L 655.945312 404.921875 C 655.714844 405.164062 655.40625 405.289062 655.101562 405.289062 " fill-opacity="1" fill-rule="nonzero"/><path fill="#000000" d="M 642.878906 418.167969 C 642.589844 418.167969 642.300781 418.066406 642.078125 417.851562 C 641.609375 417.40625 641.585938 416.667969 642.03125 416.203125 L 645.527344 412.519531 C 645.96875 412.050781 646.707031 412.035156 647.171875 412.476562 C 647.640625 412.917969 647.660156 413.660156 647.21875 414.125 L 643.726562 417.808594 C 643.492188 418.046875 643.1875 418.167969 642.878906 418.167969 " fill-opacity="1" fill-rule="nonzero"/><path fill="#000000" d="M 1011.292969 613.425781 C 1011.140625 613.425781 1010.988281 613.398438 1010.835938 613.335938 L 1006.164062 611.367188 C 1005.574219 611.117188 1005.289062 610.4375 1005.539062 609.839844 C 1005.789062 609.246094 1006.472656 608.964844 1007.0625 609.21875 L 1011.742188 611.1875 C 1012.335938 611.433594 1012.617188 612.117188 1012.367188 612.710938 C 1012.175781 613.15625 1011.742188 613.425781 1011.292969 613.425781 " fill-opacity="1" fill-rule="nonzero"/><path fill="#000000" d="M 994.921875 606.546875 C 994.769531 606.546875 994.613281 606.515625 994.46875 606.453125 L 989.792969 604.488281 C 989.199219 604.242188 988.921875 603.554688 989.171875 602.960938 C 989.421875 602.367188 990.101562 602.089844 990.699219 602.335938 L 995.371094 604.304688 C 995.96875 604.550781 996.25 605.234375 996 605.828125 C 995.808594 606.277344 995.375 606.546875 994.921875 606.546875 " fill-opacity="1" fill-rule="nonzero"/><path fill="#000000" d="M 1003.1875 603.144531 C 1003.042969 603.144531 1002.890625 603.113281 1002.746094 603.054688 C 1002.148438 602.808594 1001.867188 602.125 1002.113281 601.527344 L 1004.050781 596.839844 C 1004.300781 596.246094 1004.980469 595.960938 1005.578125 596.207031 C 1006.171875 596.453125 1006.457031 597.136719 1006.207031 597.734375 L 1004.269531 602.421875 C 1004.082031 602.871094 1003.648438 603.144531 1003.1875 603.144531 " fill-opacity="1" fill-rule="nonzero"/><path fill="#000000" d="M 996.40625 619.550781 C 996.257812 619.550781 996.105469 619.523438 995.957031 619.464844 C 995.363281 619.214844 995.082031 618.535156 995.328125 617.941406 L 997.269531 613.25 C 997.511719 612.652344 998.195312 612.375 998.789062 612.621094 C 999.382812 612.867188 999.671875 613.546875 999.417969 614.140625 L 997.484375 618.832031 C 997.296875 619.28125 996.867188 619.550781 996.40625 619.550781 " fill-opacity="1" fill-rule="nonzero"/><path fill="#000000" d="M 611.292969 676.191406 C 611.007812 676.191406 610.71875 676.085938 610.492188 675.871094 L 606.804688 672.390625 C 606.335938 671.949219 606.3125 671.210938 606.753906 670.742188 C 607.199219 670.273438 607.933594 670.25 608.402344 670.695312 L 612.09375 674.175781 C 612.5625 674.617188 612.585938 675.355469 612.140625 675.824219 C 611.914062 676.070312 611.605469 676.191406 611.292969 676.191406 " fill-opacity="1" fill-rule="nonzero"/><path fill="#000000" d="M 598.375 664.007812 C 598.089844 664.007812 597.800781 663.902344 597.574219 663.691406 L 593.882812 660.207031 C 593.414062 659.765625 593.394531 659.027344 593.835938 658.558594 C 594.28125 658.09375 595.015625 658.070312 595.484375 658.511719 L 599.175781 661.992188 C 599.644531 662.4375 599.667969 663.171875 599.226562 663.640625 C 598.996094 663.882812 598.6875 664.007812 598.375 664.007812 " fill-opacity="1" fill-rule="nonzero"/><path fill="#000000" d="M 607.3125 663.71875 C 607.03125 663.71875 606.746094 663.617188 606.519531 663.40625 C 606.046875 662.964844 606.023438 662.226562 606.460938 661.753906 L 609.917969 658.046875 C 610.359375 657.574219 611.097656 657.550781 611.566406 657.992188 C 612.039062 658.429688 612.066406 659.167969 611.628906 659.636719 L 608.167969 663.347656 C 607.9375 663.59375 607.625 663.71875 607.3125 663.71875 " fill-opacity="1" fill-rule="nonzero"/><path fill="#000000" d="M 595.207031 676.710938 C 594.921875 676.710938 594.636719 676.601562 594.410156 676.394531 C 593.941406 675.957031 593.914062 675.21875 594.355469 674.746094 L 597.8125 671.035156 C 598.253906 670.566406 598.992188 670.539062 599.460938 670.976562 C 599.933594 671.417969 599.960938 672.152344 599.519531 672.625 L 596.0625 676.335938 C 595.832031 676.582031 595.519531 676.710938 595.207031 676.710938 " fill-opacity="1" fill-rule="nonzero"/><path fill="#000000" d="M 692.511719 486.429688 C 681.554688 490.601562 669.304688 485.097656 665.132812 474.140625 C 660.960938 463.183594 666.457031 450.917969 677.40625 446.746094 C 688.359375 442.570312 700.613281 448.074219 704.785156 459.035156 C 708.953125 469.992188 703.457031 482.257812 692.511719 486.429688 Z M 726.265625 455.261719 L 723.332031 447.554688 L 714.421875 448.828125 C 713.425781 447.164062 712.300781 445.605469 711.070312 444.164062 L 715.070312 436.109375 L 708.679688 430.902344 L 701.597656 436.460938 C 699.921875 435.535156 698.171875 434.75 696.367188 434.113281 L 695.808594 425.121094 L 687.671875 423.808594 L 684.324219 432.160156 C 682.425781 432.195312 680.515625 432.390625 678.613281 432.753906 L 673.636719 425.246094 L 665.933594 428.179688 L 667.207031 437.097656 C 665.546875 438.09375 663.988281 439.21875 662.546875 440.453125 L 654.5 436.445312 L 649.292969 442.84375 L 654.855469 449.929688 C 653.929688 451.605469 653.144531 453.359375 652.507812 455.164062 L 643.527344 455.722656 L 642.214844 463.863281 L 650.558594 467.21875 C 650.59375 469.113281 650.789062 471.027344 651.152344 472.933594 L 643.652344 477.914062 L 646.585938 485.621094 L 655.496094 484.34375 C 656.492188 486.007812 657.609375 487.570312 658.847656 489.011719 L 654.84375 497.066406 L 661.234375 502.273438 L 668.316406 496.707031 C 669.992188 497.636719 671.742188 498.421875 673.550781 499.058594 L 674.109375 508.054688 L 682.246094 509.367188 L 685.59375 501.015625 C 687.488281 500.980469 689.398438 500.78125 691.304688 500.421875 L 696.277344 507.929688 L 703.980469 504.996094 L 702.707031 496.078125 C 704.371094 495.078125 705.925781 493.957031 707.367188 492.722656 L 715.417969 496.726562 L 720.617188 490.332031 L 715.058594 483.246094 C 715.984375 481.566406 716.773438 479.816406 717.40625 478.007812 L 726.390625 477.449219 L 727.703125 469.308594 L 719.359375 465.957031 C 719.324219 464.058594 719.125 462.148438 718.765625 460.242188 L 726.265625 455.261719 " fill-opacity="1" fill-rule="nonzero"/><path fill="#000000" d="M 621.847656 520.394531 C 613.660156 523.511719 604.496094 519.398438 601.378906 511.207031 C 598.261719 503.011719 602.371094 493.839844 610.558594 490.722656 C 618.746094 487.601562 627.910156 491.714844 631.027344 499.910156 C 634.144531 508.101562 630.035156 517.273438 621.847656 520.394531 Z M 647.089844 497.089844 L 644.898438 491.324219 L 638.234375 492.277344 C 637.488281 491.035156 636.652344 489.871094 635.726562 488.789062 L 638.71875 482.765625 L 633.941406 478.875 L 628.644531 483.035156 C 627.390625 482.339844 626.085938 481.753906 624.734375 481.277344 L 624.316406 474.550781 L 618.230469 473.570312 L 615.730469 479.816406 C 614.308594 479.839844 612.882812 479.988281 611.457031 480.257812 L 607.738281 474.648438 L 601.980469 476.839844 L 602.929688 483.507812 C 601.691406 484.253906 600.523438 485.09375 599.449219 486.015625 L 593.429688 483.019531 L 589.539062 487.800781 L 593.695312 493.101562 C 593.003906 494.355469 592.417969 495.664062 591.941406 497.019531 L 585.222656 497.433594 L 584.242188 503.519531 L 590.480469 506.027344 C 590.507812 507.449219 590.65625 508.875 590.925781 510.300781 L 585.316406 514.023438 L 587.507812 519.789062 L 594.171875 518.835938 C 594.917969 520.082031 595.757812 521.246094 596.679688 522.324219 L 593.6875 528.347656 L 598.464844 532.242188 L 603.761719 528.082031 C 605.015625 528.773438 606.324219 529.359375 607.671875 529.839844 L 608.089844 536.5625 L 614.175781 537.542969 L 616.675781 531.300781 C 618.097656 531.273438 619.523438 531.125 620.949219 530.855469 L 624.667969 536.46875 L 630.429688 534.277344 L 629.476562 527.605469 C 630.714844 526.859375 631.882812 526.023438 632.960938 525.097656 L 638.976562 528.09375 L 642.867188 523.3125 L 638.710938 518.011719 C 639.402344 516.757812 639.988281 515.449219 640.464844 514.097656 L 647.183594 513.679688 L 648.164062 507.59375 L 641.925781 505.085938 C 641.902344 503.664062 641.75 502.238281 641.480469 500.8125 L 647.089844 497.089844 " fill-opacity="1" fill-rule="nonzero"/></svg>