<svg xmlns="http://www.w3.org/2000/svg" xmlns:xlink="http://www.w3.org/1999/xlink" width="1920" zoomAndPan="magnify" viewBox="0 0 1440 809.999993" height="1080" preserveAspectRatio="xMidYMid meet" version="1.0"><path fill="#caddff" d="M 476.015625 378.09375 C 519.804688 333.753906 437.296875 251.179688 457.8125 191.515625 C 485.429688 111.1875 710.109375 42.324219 861.335938 129.773438 C 987.984375 203.003906 1031.957031 367.839844 976.632812 434.464844 C 960.070312 454.40625 939.46875 459.710938 912.398438 480.566406 C 887.226562 499.964844 884.390625 504.917969 882.578125 508.292969 C 864.667969 541.605469 902.332031 570.84375 894.75 599.417969 C 882.777344 644.5625 763.027344 668.648438 662.890625 653.367188 C 635.886719 649.246094 499.042969 625.285156 448.710938 525.738281 C 444.8125 518.039062 407.964844 443.640625 442.640625 402.25 C 454.664062 387.902344 464.339844 389.910156 476.015625 378.09375 " fill-opacity="1" fill-rule="nonzero"/><path fill="#99b9ff" d="M 791.003906 162.363281 C 781.9375 164.847656 772.578125 159.507812 770.097656 150.441406 C 767.617188 141.375 772.953125 132.011719 782.015625 129.53125 C 791.078125 127.046875 800.441406 132.382812 802.921875 141.449219 C 805.402344 150.519531 800.066406 159.882812 791.003906 162.363281 Z M 820.363281 140.101562 L 818.617188 133.726562 L 811.402344 134.050781 C 810.734375 132.648438 809.960938 131.316406 809.089844 130.070312 L 812.90625 123.953125 L 808.207031 119.304688 L 802.125 123.199219 C 800.855469 122.324219 799.519531 121.566406 798.125 120.917969 L 798.375 113.699219 L 791.980469 112.023438 L 788.664062 118.425781 C 787.144531 118.308594 785.609375 118.320312 784.058594 118.460938 L 780.671875 112.082031 L 774.289062 113.832031 L 774.617188 121.042969 C 773.214844 121.710938 771.882812 122.484375 770.636719 123.363281 L 764.523438 119.542969 L 759.875 124.246094 L 763.765625 130.328125 C 762.898438 131.597656 762.136719 132.933594 761.488281 134.324219 L 754.269531 134.078125 L 752.59375 140.472656 L 758.996094 143.792969 C 758.878906 145.308594 758.890625 146.847656 759.027344 148.398438 L 752.65625 151.789062 L 754.402344 158.167969 L 761.613281 157.839844 C 762.285156 159.246094 763.058594 160.578125 763.933594 161.820312 L 760.113281 167.9375 L 764.808594 172.589844 L 770.894531 168.699219 C 772.160156 169.570312 773.5 170.328125 774.890625 170.976562 L 774.644531 178.195312 L 781.039062 179.871094 L 784.351562 173.46875 C 785.875 173.589844 787.410156 173.578125 788.960938 173.4375 L 792.351562 179.8125 L 798.726562 178.0625 L 798.398438 170.847656 C 799.804688 170.179688 801.136719 169.40625 802.382812 168.53125 L 808.492188 172.351562 L 813.144531 167.652344 L 809.253906 161.566406 C 810.121094 160.296875 810.882812 158.960938 811.53125 157.566406 L 818.75 157.816406 L 820.425781 151.421875 L 814.023438 148.101562 C 814.140625 146.585938 814.128906 145.042969 813.992188 143.496094 L 820.363281 140.101562 " fill-opacity="1" fill-rule="nonzero"/><path fill="#5479f7" d="M 786.535156 129.953125 C 785.117188 129.953125 783.691406 130.144531 782.289062 130.527344 C 773.792969 132.855469 768.769531 141.667969 771.097656 150.167969 C 772.222656 154.289062 774.886719 157.71875 778.597656 159.832031 C 782.300781 161.949219 786.613281 162.492188 790.726562 161.363281 C 799.230469 159.039062 804.25 150.226562 801.921875 141.722656 C 800.792969 137.609375 798.128906 134.171875 794.425781 132.058594 C 791.976562 130.664062 789.277344 129.953125 786.535156 129.953125 Z M 786.480469 164.011719 C 783.386719 164.011719 780.328125 163.207031 777.570312 161.632812 C 773.382812 159.242188 770.375 155.367188 769.101562 150.714844 C 766.46875 141.113281 772.144531 131.160156 781.746094 128.53125 C 786.394531 127.257812 791.261719 127.871094 795.449219 130.257812 C 799.640625 132.648438 802.648438 136.527344 803.921875 141.179688 C 806.550781 150.78125 800.878906 160.734375 791.277344 163.363281 C 789.6875 163.796875 788.082031 164.011719 786.480469 164.011719 Z M 775.710938 177.402344 L 780.5 178.660156 L 783.75 172.382812 L 784.433594 172.433594 C 785.886719 172.546875 787.375 172.539062 788.867188 172.402344 L 789.554688 172.34375 L 792.878906 178.59375 L 797.65625 177.28125 L 797.332031 170.210938 L 797.953125 169.914062 C 799.304688 169.269531 800.59375 168.519531 801.785156 167.683594 L 802.34375 167.289062 L 808.339844 171.03125 L 811.828125 167.507812 L 808.011719 161.542969 L 808.398438 160.976562 C 809.230469 159.765625 809.96875 158.46875 810.589844 157.128906 L 810.878906 156.507812 L 817.953125 156.753906 L 819.214844 151.957031 L 812.9375 148.703125 L 812.988281 148.023438 C 813.101562 146.570312 813.09375 145.082031 812.960938 143.589844 L 812.898438 142.902344 L 819.144531 139.574219 L 817.835938 134.796875 L 810.761719 135.117188 L 810.472656 134.496094 C 809.824219 133.148438 809.074219 131.855469 808.238281 130.667969 L 807.84375 130.105469 L 811.589844 124.105469 L 808.070312 120.621094 L 802.101562 124.441406 L 801.535156 124.050781 C 800.320312 123.214844 799.023438 122.480469 797.691406 121.859375 L 797.066406 121.570312 L 797.3125 114.488281 L 792.523438 113.234375 L 789.269531 119.511719 L 788.582031 119.457031 C 787.132812 119.34375 785.644531 119.355469 784.152344 119.488281 L 783.464844 119.554688 L 780.144531 113.304688 L 775.363281 114.609375 L 775.683594 121.6875 L 775.066406 121.976562 C 773.714844 122.625 772.429688 123.371094 771.238281 124.210938 L 770.671875 124.601562 L 764.675781 120.859375 L 761.195312 124.382812 L 765.007812 130.347656 L 764.621094 130.914062 C 763.785156 132.132812 763.046875 133.425781 762.425781 134.761719 L 762.136719 135.382812 L 755.0625 135.140625 L 753.808594 139.933594 L 760.082031 143.1875 L 760.027344 143.871094 C 759.914062 145.320312 759.925781 146.8125 760.066406 148.304688 L 760.121094 148.988281 L 753.871094 152.316406 L 755.183594 157.097656 L 762.253906 156.773438 L 762.546875 157.394531 C 763.191406 158.746094 763.941406 160.035156 764.78125 161.226562 L 765.175781 161.789062 L 761.433594 167.785156 L 764.953125 171.269531 L 770.917969 167.457031 L 771.480469 167.84375 C 772.703125 168.679688 773.992188 169.417969 775.328125 170.039062 L 775.949219 170.328125 Z M 781.578125 181.082031 L 773.578125 178.984375 L 773.835938 171.617188 C 772.816406 171.117188 771.832031 170.550781 770.882812 169.933594 L 764.671875 173.910156 L 758.796875 168.09375 L 762.695312 161.847656 C 762.074219 160.914062 761.496094 159.929688 760.984375 158.90625 L 753.625 159.238281 L 751.4375 151.265625 L 757.945312 147.800781 C 757.867188 146.660156 757.859375 145.519531 757.917969 144.398438 L 751.382812 141.011719 L 753.480469 133.011719 L 760.847656 133.265625 C 761.347656 132.25 761.910156 131.265625 762.527344 130.316406 L 758.558594 124.101562 L 764.371094 118.226562 L 770.617188 122.125 C 771.550781 121.5 772.535156 120.925781 773.550781 120.414062 L 773.21875 113.050781 L 781.195312 110.867188 L 784.65625 117.371094 C 785.796875 117.296875 786.933594 117.289062 788.058594 117.347656 L 791.445312 110.808594 L 799.441406 112.90625 L 799.1875 120.277344 C 800.195312 120.78125 801.191406 121.339844 802.136719 121.957031 L 808.34375 117.984375 L 814.226562 123.796875 L 810.320312 130.046875 C 810.949219 130.980469 811.515625 131.964844 812.039062 132.984375 L 819.398438 132.652344 L 821.582031 140.625 L 815.074219 144.089844 C 815.152344 145.234375 815.160156 146.375 815.101562 147.492188 L 821.640625 150.882812 L 819.542969 158.882812 L 812.175781 158.625 C 811.671875 159.640625 811.109375 160.628906 810.492188 161.574219 L 814.464844 167.789062 L 808.648438 173.667969 L 802.40625 169.769531 C 801.476562 170.390625 800.488281 170.964844 799.464844 171.480469 L 799.800781 178.84375 L 791.828125 181.027344 L 788.367188 174.519531 C 787.222656 174.59375 786.082031 174.605469 784.964844 174.542969 L 781.578125 181.082031 " fill-opacity="1" fill-rule="nonzero"/><path fill="#99b9ff" d="M 865.503906 222.269531 C 852.4375 225.851562 838.945312 218.15625 835.363281 205.085938 C 831.785156 192.015625 839.480469 178.515625 852.542969 174.9375 C 865.613281 171.359375 879.109375 179.054688 882.683594 192.125 C 886.265625 205.195312 878.574219 218.691406 865.503906 222.269531 Z M 907.832031 190.179688 L 905.316406 180.984375 L 894.917969 181.457031 C 893.953125 179.433594 892.835938 177.511719 891.578125 175.714844 L 897.078125 166.898438 L 890.300781 160.195312 L 881.535156 165.804688 C 879.707031 164.550781 877.785156 163.453125 875.773438 162.519531 L 876.132812 152.113281 L 866.914062 149.695312 L 862.132812 158.925781 C 859.945312 158.753906 857.726562 158.773438 855.496094 158.972656 L 850.601562 149.785156 L 841.410156 152.300781 L 841.882812 162.703125 C 839.863281 163.667969 837.941406 164.785156 836.144531 166.042969 L 827.328125 160.539062 L 820.625 167.316406 L 826.234375 176.089844 C 824.984375 177.914062 823.882812 179.839844 822.953125 181.851562 L 812.550781 181.492188 L 810.132812 190.710938 L 819.363281 195.5 C 819.1875 197.683594 819.207031 199.90625 819.40625 202.136719 L 810.21875 207.03125 L 812.734375 216.222656 L 823.132812 215.75 C 824.097656 217.777344 825.210938 219.695312 826.476562 221.488281 L 820.972656 230.3125 L 827.746094 237.015625 L 836.519531 231.40625 C 838.34375 232.65625 840.269531 233.753906 842.273438 234.6875 L 841.921875 245.09375 L 851.132812 247.511719 L 855.921875 238.28125 C 858.109375 238.449219 860.324219 238.4375 862.558594 238.234375 L 867.445312 247.425781 L 876.640625 244.90625 L 876.167969 234.503906 C 878.1875 233.542969 880.109375 232.425781 881.902344 231.164062 L 890.722656 236.667969 L 897.425781 229.894531 L 891.816406 221.121094 C 893.066406 219.296875 894.164062 217.363281 895.101562 215.359375 L 905.503906 215.71875 L 907.921875 206.496094 L 898.691406 201.710938 C 898.859375 199.523438 898.847656 197.304688 898.640625 195.070312 L 907.832031 190.179688 " fill-opacity="1" fill-rule="nonzero"/><path fill="#5479f7" d="M 859.066406 175.09375 C 856.980469 175.09375 854.886719 175.371094 852.820312 175.933594 C 840.324219 179.355469 832.945312 192.308594 836.363281 204.808594 C 838.023438 210.867188 841.9375 215.914062 847.390625 219.019531 C 852.839844 222.128906 859.175781 222.929688 865.234375 221.273438 C 877.722656 217.851562 885.105469 204.898438 881.6875 192.398438 C 880.027344 186.34375 876.113281 181.292969 870.664062 178.183594 C 867.066406 176.132812 863.089844 175.09375 859.066406 175.09375 Z M 858.984375 224.1875 C 854.601562 224.1875 850.269531 223.050781 846.363281 220.820312 C 840.425781 217.4375 836.171875 211.945312 834.363281 205.359375 C 830.640625 191.757812 838.671875 177.660156 852.273438 173.9375 C 858.859375 172.132812 865.757812 173.003906 871.6875 176.386719 C 877.621094 179.769531 881.882812 185.261719 883.6875 191.847656 C 887.410156 205.453125 879.375 219.546875 865.78125 223.269531 C 863.535156 223.886719 861.253906 224.1875 858.984375 224.1875 Z M 842.980469 244.304688 L 850.601562 246.300781 L 855.316406 237.195312 L 856 237.246094 C 858.113281 237.414062 860.289062 237.398438 862.46875 237.203125 L 863.152344 237.140625 L 867.972656 246.203125 L 875.570312 244.128906 L 875.101562 233.867188 L 875.71875 233.570312 C 877.695312 232.632812 879.574219 231.535156 881.308594 230.316406 L 881.867188 229.917969 L 890.570312 235.351562 L 896.109375 229.753906 L 890.570312 221.097656 L 890.960938 220.535156 C 892.175781 218.761719 893.25 216.871094 894.15625 214.921875 L 894.449219 214.300781 L 904.710938 214.65625 L 906.707031 207.035156 L 897.605469 202.3125 L 897.65625 201.628906 C 897.824219 199.519531 897.808594 197.339844 897.613281 195.160156 L 897.550781 194.476562 L 906.609375 189.65625 L 904.53125 182.058594 L 894.277344 182.523438 L 893.980469 181.902344 C 893.039062 179.925781 891.949219 178.046875 890.726562 176.3125 L 890.332031 175.753906 L 895.765625 167.050781 L 890.167969 161.511719 L 881.511719 167.046875 L 880.945312 166.65625 C 879.175781 165.441406 877.289062 164.363281 875.335938 163.457031 L 874.71875 163.167969 L 875.070312 152.902344 L 867.453125 150.90625 L 862.738281 160.011719 L 862.054688 159.960938 C 859.933594 159.792969 857.757812 159.808594 855.585938 160.003906 L 854.902344 160.070312 L 850.074219 151.003906 L 842.480469 153.082031 L 842.949219 163.339844 L 842.328125 163.636719 C 840.359375 164.574219 838.480469 165.671875 836.742188 166.890625 L 836.179688 167.285156 L 827.484375 161.855469 L 821.945312 167.453125 L 827.480469 176.109375 L 827.089844 176.675781 C 825.875 178.449219 824.796875 180.335938 823.890625 182.285156 L 823.601562 182.910156 L 813.339844 182.558594 L 811.347656 190.171875 L 820.449219 194.894531 L 820.394531 195.578125 C 820.226562 197.695312 820.242188 199.871094 820.4375 202.046875 L 820.503906 202.730469 L 811.4375 207.554688 L 813.519531 215.148438 L 823.777344 214.683594 L 824.070312 215.304688 C 825.011719 217.277344 826.101562 219.160156 827.324219 220.894531 L 827.722656 221.453125 L 822.289062 230.15625 L 827.886719 235.695312 L 836.539062 230.160156 L 837.101562 230.550781 C 838.875 231.765625 840.761719 232.84375 842.710938 233.75 L 843.335938 234.035156 Z M 851.671875 248.722656 L 840.855469 245.886719 L 841.21875 235.332031 C 839.589844 234.542969 838.007812 233.640625 836.5 232.644531 L 827.609375 238.332031 L 819.652344 230.464844 L 825.238281 221.519531 C 824.234375 220.03125 823.3125 218.457031 822.5 216.816406 L 811.957031 217.296875 L 809.003906 206.507812 L 818.316406 201.542969 C 818.1875 199.71875 818.171875 197.894531 818.277344 196.101562 L 808.921875 191.246094 L 811.753906 180.425781 L 822.308594 180.792969 C 823.09375 179.164062 824 177.582031 824.996094 176.074219 L 819.308594 167.175781 L 827.171875 159.21875 L 836.117188 164.804688 C 837.601562 163.800781 839.179688 162.882812 840.820312 162.070312 L 840.339844 151.519531 L 851.125 148.566406 L 856.085938 157.886719 C 857.90625 157.753906 859.738281 157.738281 861.523438 157.847656 L 866.378906 148.480469 L 877.195312 151.320312 L 876.835938 161.875 C 878.460938 162.667969 880.039062 163.566406 881.550781 164.5625 L 890.445312 158.875 L 898.398438 166.742188 L 892.816406 175.6875 C 893.816406 177.171875 894.734375 178.75 895.550781 180.390625 L 906.097656 179.914062 L 909.046875 190.703125 L 899.726562 195.664062 C 899.863281 197.492188 899.878906 199.316406 899.769531 201.105469 L 909.132812 205.957031 L 906.296875 216.78125 L 895.746094 216.414062 C 894.953125 218.042969 894.050781 219.625 893.054688 221.136719 L 898.742188 230.03125 L 890.878906 237.988281 L 881.933594 232.402344 C 880.453125 233.40625 878.875 234.324219 877.234375 235.140625 L 877.710938 245.6875 L 866.921875 248.640625 L 861.964844 239.320312 C 860.132812 239.453125 858.3125 239.46875 856.527344 239.359375 L 851.671875 248.722656 " fill-opacity="1" fill-rule="nonzero"/><path fill="#99b9ff" d="M 988.128906 594.796875 L 826.027344 594.796875 C 820.058594 594.796875 815.21875 599.636719 815.21875 605.601562 C 815.21875 611.566406 820.058594 616.40625 826.027344 616.40625 L 988.128906 616.40625 C 994.097656 616.40625 998.933594 611.566406 998.933594 605.601562 C 998.933594 599.636719 994.097656 594.796875 988.128906 594.796875 " fill-opacity="1" fill-rule="nonzero"/><path fill="#99b9ff" d="M 880.863281 560.390625 L 791.332031 560.390625 C 785.792969 560.390625 781.296875 564.878906 781.296875 570.421875 C 781.296875 575.960938 785.792969 580.453125 791.332031 580.453125 L 880.863281 580.453125 C 886.40625 580.453125 890.898438 575.960938 890.898438 570.421875 C 890.898438 564.878906 886.40625 560.390625 880.863281 560.390625 " fill-opacity="1" fill-rule="nonzero"/><path fill="#99b9ff" d="M 921.636719 570.421875 C 921.636719 575.960938 917.144531 580.453125 911.601562 580.453125 C 906.058594 580.453125 901.570312 575.960938 901.570312 570.421875 C 901.570312 564.878906 906.058594 560.390625 911.601562 560.390625 C 917.144531 560.390625 921.636719 564.878906 921.636719 570.421875 " fill-opacity="1" fill-rule="nonzero"/><path fill="#000000" d="M 478.234375 221.425781 C 477.660156 221.425781 477.199219 220.960938 477.199219 220.390625 L 477.199219 215.035156 C 477.199219 214.460938 477.660156 214 478.234375 214 C 478.804688 214 479.269531 214.460938 479.269531 215.035156 L 479.269531 220.390625 C 479.269531 220.960938 478.804688 221.425781 478.234375 221.425781 " fill-opacity="1" fill-rule="nonzero"/><path fill="#000000" d="M 478.234375 233.898438 C 477.660156 233.898438 477.199219 233.4375 477.199219 232.863281 L 477.199219 227.507812 C 477.199219 226.9375 477.660156 226.472656 478.234375 226.472656 C 478.808594 226.472656 479.269531 226.9375 479.269531 227.507812 L 479.269531 232.863281 C 479.269531 233.4375 478.808594 233.898438 478.234375 233.898438 " fill-opacity="1" fill-rule="nonzero"/><path fill="#000000" d="M 474.671875 224.984375 L 469.316406 224.984375 C 468.742188 224.984375 468.277344 224.519531 468.277344 223.949219 C 468.277344 223.375 468.742188 222.910156 469.316406 222.910156 L 474.671875 222.910156 C 475.246094 222.910156 475.710938 223.375 475.710938 223.949219 C 475.710938 224.519531 475.246094 224.984375 474.671875 224.984375 " fill-opacity="1" fill-rule="nonzero"/><path fill="#000000" d="M 487.152344 224.984375 L 481.796875 224.984375 C 481.222656 224.984375 480.761719 224.519531 480.761719 223.949219 C 480.761719 223.375 481.222656 222.910156 481.796875 222.910156 L 487.152344 222.910156 C 487.726562 222.910156 488.191406 223.375 488.191406 223.949219 C 488.191406 224.519531 487.726562 224.984375 487.152344 224.984375 " fill-opacity="1" fill-rule="nonzero"/><path fill="#000000" d="M 484.574219 257.429688 L 484.582031 257.429688 Z M 488.4375 256.878906 C 487.257812 256.878906 486.144531 257.335938 485.304688 258.167969 C 484.457031 259.003906 483.988281 260.125 483.984375 261.3125 C 483.980469 262.5 484.4375 263.621094 485.273438 264.46875 C 486.113281 265.3125 487.230469 265.78125 488.417969 265.785156 C 488.425781 265.785156 488.433594 265.785156 488.441406 265.785156 C 489.621094 265.785156 490.734375 265.328125 491.574219 264.496094 C 492.417969 263.660156 492.890625 262.542969 492.894531 261.355469 C 492.902344 260.164062 492.441406 259.046875 491.605469 258.199219 C 490.769531 257.351562 489.648438 256.882812 488.460938 256.878906 C 488.453125 256.878906 488.445312 256.878906 488.4375 256.878906 Z M 488.441406 267.859375 C 488.429688 267.859375 488.417969 267.859375 488.410156 267.859375 C 486.664062 267.847656 485.027344 267.160156 483.800781 265.925781 C 482.574219 264.6875 481.902344 263.046875 481.910156 261.300781 C 481.921875 259.558594 482.609375 257.921875 483.847656 256.699219 C 485.085938 255.46875 486.714844 254.804688 488.46875 254.808594 C 490.214844 254.816406 491.851562 255.503906 493.078125 256.742188 C 494.304688 257.976562 494.976562 259.621094 494.96875 261.363281 C 494.957031 263.109375 494.273438 264.742188 493.03125 265.96875 C 491.800781 267.1875 490.171875 267.859375 488.441406 267.859375 " fill-opacity="1" fill-rule="nonzero"/><path fill="#5479f7" d="M 817.5 519.945312 C 807.714844 511.957031 797.445312 504.507812 786.925781 497.398438 C 765.578125 482.980469 743.078125 470.089844 720.339844 457.597656 C 708.378906 451.03125 695.957031 445.082031 683.699219 438.96875 C 671.363281 432.816406 658.996094 426.71875 646.625 420.628906 C 635.324219 415.0625 624.019531 409.496094 612.734375 403.894531 C 587.089844 317.226562 559.230469 218.964844 564.765625 218.964844 L 985.300781 207.097656 C 995.195312 207.097656 1001.839844 215.148438 1000.097656 225.046875 L 949.140625 515.5 C 947.40625 525.398438 937.9375 533.445312 928.039062 533.445312 L 834.453125 533.445312 C 828.941406 528.796875 823.082031 524.507812 817.5 519.945312 " fill-opacity="1" fill-rule="nonzero"/><path fill="#99b9ff" d="M 552.761719 208.113281 L 976.582031 208.113281 C 985.933594 208.113281 992.1875 215.691406 990.550781 225.042969 L 939.585938 515.5 C 937.945312 524.851562 929.03125 532.429688 919.675781 532.429688 L 495.859375 532.429688 C 486.503906 532.429688 480.25 524.851562 481.890625 515.5 L 532.855469 225.042969 C 534.492188 215.691406 543.40625 208.113281 552.761719 208.113281 " fill-opacity="1" fill-rule="nonzero"/><path fill="#000000" d="M 507.625 369.878906 C 507.566406 369.878906 507.503906 369.875 507.445312 369.863281 C 506.882812 369.765625 506.503906 369.226562 506.601562 368.664062 L 531.832031 224.863281 C 533.554688 215.054688 542.941406 207.070312 552.761719 207.070312 L 976.585938 207.070312 C 981.371094 207.070312 985.566406 208.933594 988.410156 212.3125 C 991.304688 215.757812 992.425781 220.34375 991.570312 225.21875 L 971.644531 338.792969 C 971.542969 339.355469 971 339.734375 970.445312 339.632812 C 969.878906 339.535156 969.507812 339 969.601562 338.4375 L 989.53125 224.863281 C 990.28125 220.597656 989.316406 216.613281 986.824219 213.640625 C 984.382812 210.746094 980.746094 209.144531 976.585938 209.144531 L 552.761719 209.144531 C 543.902344 209.144531 535.429688 216.355469 533.875 225.21875 L 508.644531 369.019531 C 508.554688 369.523438 508.117188 369.878906 507.625 369.878906 " fill-opacity="1" fill-rule="nonzero"/><path fill="#000000" d="M 919.679688 533.464844 L 795.925781 533.464844 C 795.351562 533.464844 794.886719 533.003906 794.886719 532.429688 C 794.886719 531.859375 795.351562 531.398438 795.925781 531.398438 L 919.679688 531.398438 C 928.539062 531.398438 937.007812 524.183594 938.566406 515.320312 L 948.679688 457.675781 C 948.78125 457.109375 949.320312 456.734375 949.882812 456.835938 C 950.441406 456.933594 950.820312 457.46875 950.71875 458.03125 L 940.605469 515.675781 C 938.890625 525.488281 929.5 533.464844 919.679688 533.464844 " fill-opacity="1" fill-rule="nonzero"/><path fill="#ffffff" d="M 563.207031 219.308594 L 963.757812 219.308594 C 972.597656 219.308594 978.503906 226.367188 976.953125 235.070312 L 928.789062 505.46875 C 927.242188 514.175781 918.820312 521.230469 909.976562 521.230469 L 509.429688 521.230469 C 500.589844 521.230469 494.679688 514.175781 496.230469 505.46875 L 544.394531 235.070312 C 545.945312 226.367188 554.367188 219.308594 563.207031 219.308594 " fill-opacity="1" fill-rule="nonzero"/><path fill="#5479f7" d="M 974.863281 246.816406 L 976.953125 235.097656 C 978.503906 226.390625 972.597656 219.359375 963.757812 219.359375 L 563.207031 219.359375 C 554.367188 219.359375 545.945312 226.390625 544.394531 235.097656 L 542.304688 246.816406 L 974.863281 246.816406 " fill-opacity="1" fill-rule="nonzero"/><path fill="#caddff" d="M 923.230469 232.679688 C 923.230469 236.671875 919.996094 239.90625 916.003906 239.90625 C 912.011719 239.90625 908.777344 236.671875 908.777344 232.679688 C 908.777344 228.691406 912.011719 225.457031 916.003906 225.457031 C 919.996094 225.457031 923.230469 228.691406 923.230469 232.679688 " fill-opacity="1" fill-rule="nonzero"/><path fill="#caddff" d="M 943.207031 233.113281 C 943.207031 237.101562 939.972656 240.335938 935.980469 240.335938 C 931.992188 240.335938 928.753906 237.101562 928.753906 233.113281 C 928.753906 229.117188 931.992188 225.886719 935.980469 225.886719 C 939.972656 225.886719 943.207031 229.117188 943.207031 233.113281 " fill-opacity="1" fill-rule="nonzero"/><path fill="#caddff" d="M 962.765625 233.105469 C 962.765625 237.097656 959.527344 240.332031 955.542969 240.332031 C 951.546875 240.332031 948.308594 237.097656 948.308594 233.105469 C 948.308594 229.117188 951.546875 225.882812 955.542969 225.882812 C 959.527344 225.882812 962.765625 229.117188 962.765625 233.105469 " fill-opacity="1" fill-rule="nonzero"/><path fill="#caddff" d="M 788.664062 438.265625 L 528.199219 438.265625 L 561.546875 261.335938 L 821.617188 261.335938 L 788.664062 438.265625 " fill-opacity="1" fill-rule="nonzero"/><path fill="#caddff" d="M 774.484375 507.675781 L 514.464844 507.675781 L 526.097656 451.234375 L 786.113281 451.234375 L 774.484375 507.675781 " fill-opacity="1" fill-rule="nonzero"/><path fill="#caddff" d="M 951.003906 313.460938 L 822.726562 313.460938 L 832.664062 260.550781 L 960.941406 260.550781 L 951.003906 313.460938 " fill-opacity="1" fill-rule="nonzero"/><path fill="#caddff" d="M 940.058594 379.417969 L 811.78125 379.417969 L 821.714844 326.503906 L 949.996094 326.503906 L 940.058594 379.417969 " fill-opacity="1" fill-rule="nonzero"/><path fill="#caddff" d="M 928.304688 442.480469 L 800.023438 442.480469 L 809.957031 389.570312 L 938.238281 389.570312 L 928.304688 442.480469 " fill-opacity="1" fill-rule="nonzero"/><path fill="#caddff" d="M 915.832031 508.4375 L 787.554688 508.4375 L 797.488281 455.523438 L 925.769531 455.523438 L 915.832031 508.4375 " fill-opacity="1" fill-rule="nonzero"/><path fill="#ffffff" d="M 982.507812 345.703125 C 988.332031 345.703125 992.417969 350.425781 991.625 356.25 L 981.792969 428.816406 C 981.003906 434.644531 975.644531 439.363281 969.8125 439.363281 L 708.921875 439.363281 C 703.09375 439.363281 699.011719 434.644531 699.800781 428.816406 L 701.199219 416.148438 L 678.335938 412.21875 L 704.148438 400.671875 L 709.632812 356.25 C 710.425781 350.425781 715.785156 345.703125 721.613281 345.703125 L 982.507812 345.703125 " fill-opacity="1" fill-rule="nonzero"/><path fill="#000000" d="M 681.863281 411.773438 L 701.375 415.132812 C 701.914062 415.222656 702.289062 415.71875 702.226562 416.265625 L 700.832031 428.929688 C 700.484375 431.488281 701.148438 433.863281 702.691406 435.628906 C 704.210938 437.367188 706.425781 438.328125 708.921875 438.328125 L 969.8125 438.328125 C 975.128906 438.328125 980.042969 434 980.765625 428.675781 L 990.601562 356.109375 C 990.941406 353.578125 990.28125 351.207031 988.734375 349.441406 C 987.21875 347.699219 985.003906 346.742188 982.507812 346.742188 L 721.613281 346.742188 C 716.296875 346.742188 711.386719 351.066406 710.664062 356.386719 L 705.175781 400.796875 C 705.132812 401.15625 704.902344 401.46875 704.570312 401.617188 Z M 969.8125 440.398438 L 708.921875 440.398438 C 705.816406 440.398438 703.050781 439.191406 701.128906 436.992188 C 699.1875 434.765625 698.347656 431.816406 698.773438 428.675781 L 700.0625 417.003906 L 678.160156 413.242188 C 677.710938 413.164062 677.367188 412.800781 677.308594 412.351562 C 677.253906 411.898438 677.496094 411.460938 677.914062 411.277344 L 703.191406 399.960938 L 708.605469 356.121094 C 709.464844 349.800781 715.300781 344.667969 721.613281 344.667969 L 982.507812 344.667969 C 985.613281 344.667969 988.378906 345.878906 990.300781 348.078125 C 992.242188 350.304688 993.078125 353.253906 992.65625 356.386719 L 982.820312 428.957031 C 981.964844 435.265625 976.128906 440.398438 969.8125 440.398438 " fill-opacity="1" fill-rule="nonzero"/><path fill="#99b9ff" d="M 967.394531 377.148438 L 784.328125 377.148438 C 781.699219 377.148438 779.851562 374.941406 780.207031 372.210938 C 780.566406 369.488281 782.992188 367.277344 785.621094 367.277344 L 968.6875 367.277344 C 971.320312 367.277344 973.164062 369.488281 972.808594 372.210938 C 972.449219 374.941406 970.03125 377.148438 967.394531 377.148438 " fill-opacity="1" fill-rule="nonzero"/><path fill="#caddff" d="M 944.226562 398.410156 L 784.265625 398.410156 C 781.964844 398.410156 780.351562 396.203125 780.664062 393.476562 C 780.972656 390.75 783.09375 388.539062 785.394531 388.539062 L 945.355469 388.539062 C 947.65625 388.539062 949.265625 390.75 948.957031 393.476562 C 948.644531 396.203125 946.527344 398.410156 944.226562 398.410156 " fill-opacity="1" fill-rule="nonzero"/><path fill="#caddff" d="M 903.714844 417.734375 L 782.519531 417.734375 C 780.777344 417.734375 779.554688 415.523438 779.792969 412.800781 C 780.023438 410.074219 781.632812 407.863281 783.375 407.863281 L 904.566406 407.863281 C 906.308594 407.863281 907.53125 410.074219 907.296875 412.800781 C 907.058594 415.523438 905.457031 417.734375 903.714844 417.734375 " fill-opacity="1" fill-rule="nonzero"/><path fill="#ffffff" d="M 716.652344 391.757812 C 716.617188 379.496094 726.523438 369.523438 738.785156 369.492188 C 751.042969 369.460938 761.003906 379.371094 761.039062 391.632812 C 761.074219 403.898438 751.167969 413.863281 738.90625 413.898438 C 726.652344 413.933594 716.6875 404.019531 716.652344 391.757812 " fill-opacity="1" fill-rule="nonzero"/><path fill="#000000" d="M 738.84375 414.933594 C 732.664062 414.933594 726.851562 412.535156 722.46875 408.171875 C 718.066406 403.796875 715.632812 397.964844 715.617188 391.761719 C 715.609375 389.019531 716.074219 386.339844 717 383.785156 C 717.195312 383.246094 717.789062 382.96875 718.324219 383.164062 C 718.863281 383.355469 719.140625 383.949219 718.949219 384.488281 C 718.105469 386.8125 717.679688 389.257812 717.691406 391.753906 C 717.703125 397.410156 719.917969 402.71875 723.925781 406.707031 C 727.917969 410.679688 733.214844 412.863281 738.84375 412.863281 C 738.863281 412.863281 738.886719 412.863281 738.90625 412.863281 C 744.558594 412.847656 749.863281 410.632812 753.847656 406.621094 C 757.835938 402.613281 760.019531 397.292969 760.003906 391.636719 C 759.96875 379.984375 750.484375 370.527344 738.84375 370.527344 C 738.828125 370.527344 738.808594 370.527344 738.785156 370.527344 C 732.4375 370.546875 726.488281 373.378906 722.460938 378.300781 C 722.101562 378.742188 721.445312 378.808594 721.003906 378.449219 C 720.5625 378.089844 720.496094 377.433594 720.855469 376.992188 C 725.277344 371.589844 731.808594 368.476562 738.78125 368.457031 C 738.800781 368.457031 738.824219 368.457031 738.84375 368.457031 C 751.625 368.457031 762.039062 378.839844 762.078125 391.632812 C 762.09375 397.839844 759.691406 403.679688 755.316406 408.082031 C 750.945312 412.484375 745.117188 414.914062 738.910156 414.933594 C 738.890625 414.933594 738.867188 414.933594 738.84375 414.933594 " fill-opacity="1" fill-rule="nonzero"/><path fill="#99b9ff" d="M 723.667969 407.882812 C 727.652344 411.625 733.011719 413.914062 738.90625 413.898438 C 744.804688 413.882812 750.152344 411.5625 754.113281 407.800781 C 749.511719 406.386719 744.347656 405.601562 738.886719 405.617188 C 733.425781 405.632812 728.261719 406.449219 723.667969 407.882812 " fill-opacity="1" fill-rule="nonzero"/><path fill="#ffffff" d="M 739.027344 409.367188 C 737.09375 409.375 735.519531 407.808594 735.515625 405.875 L 735.464844 388.003906 L 742.46875 387.984375 L 742.519531 405.851562 C 742.523438 407.789062 740.960938 409.363281 739.027344 409.367188 " fill-opacity="1" fill-rule="nonzero"/><path fill="#000000" d="M 752.546875 394.476562 C 752.09375 388.929688 754.53125 385.457031 749.027344 379.199219 C 743.328125 372.722656 738.46875 377.089844 738.46875 377.089844 C 738.46875 377.089844 734.398438 373.726562 729.082031 380.796875 C 724.394531 387.039062 730.4375 392.601562 728.421875 396.480469 C 726.410156 400.367188 719.542969 402.496094 719.542969 402.496094 C 719.542969 402.496094 721.757812 406.898438 724.492188 408.828125 L 753.46875 408.746094 C 753.46875 408.746094 759.4375 402.210938 759.433594 400.359375 C 759.433594 400.359375 753.003906 400.027344 752.546875 394.476562 " fill-opacity="1" fill-rule="nonzero"/><path fill="#99b9ff" d="M 723.667969 407.882812 C 727.652344 411.625 733.011719 413.914062 738.90625 413.898438 C 744.804688 413.882812 750.152344 411.5625 754.113281 407.800781 C 749.511719 406.386719 744.347656 405.601562 738.886719 405.617188 C 733.425781 405.632812 728.261719 406.449219 723.667969 407.882812 " fill-opacity="1" fill-rule="nonzero"/><path fill="#000000" d="M 725.789062 408.347656 C 729.507812 411.273438 734.074219 412.863281 738.84375 412.863281 C 738.863281 412.863281 738.886719 412.863281 738.90625 412.863281 C 743.699219 412.851562 748.277344 411.230469 751.996094 408.273438 C 747.894531 407.195312 743.546875 406.652344 739.042969 406.652344 C 738.988281 406.652344 738.941406 406.652344 738.886719 406.652344 C 734.328125 406.667969 729.933594 407.234375 725.789062 408.347656 Z M 738.84375 414.933594 C 732.921875 414.933594 727.28125 412.699219 722.957031 408.640625 L 721.664062 407.425781 L 723.359375 406.898438 C 728.21875 405.375 733.441406 404.597656 738.882812 404.582031 C 738.9375 404.582031 738.988281 404.582031 739.042969 404.582031 C 744.425781 404.582031 749.597656 405.332031 754.421875 406.808594 L 756.117188 407.328125 L 754.832031 408.550781 C 750.511719 412.648438 744.859375 414.917969 738.910156 414.933594 C 738.890625 414.933594 738.867188 414.933594 738.84375 414.933594 " fill-opacity="1" fill-rule="nonzero"/><path fill="#ffffff" d="M 739.292969 382.179688 L 739.050781 382.179688 L 731.941406 389.367188 L 731.953125 393.300781 C 731.960938 395.925781 733.382812 398.210938 735.5 399.445312 L 735.515625 405.875 C 735.519531 407.808594 737.09375 409.375 739.027344 409.367188 C 740.960938 409.363281 742.523438 407.789062 742.519531 405.851562 L 742.503906 399.546875 C 744.722656 398.332031 746.226562 395.972656 746.21875 393.257812 L 746.207031 389.054688 C 746.195312 385.246094 743.101562 382.167969 739.292969 382.179688 " fill-opacity="1" fill-rule="nonzero"/><path fill="#000000" d="M 739.019531 410.402344 C 737.8125 410.402344 736.671875 409.933594 735.816406 409.085938 C 734.957031 408.230469 734.480469 407.089844 734.480469 405.878906 L 734.460938 399.644531 C 734.460938 399.070312 734.921875 398.605469 735.496094 398.605469 L 735.5 398.605469 C 736.066406 398.605469 736.53125 399.070312 736.53125 399.636719 L 736.550781 405.871094 C 736.554688 406.53125 736.8125 407.152344 737.28125 407.617188 C 737.746094 408.082031 738.332031 408.328125 739.023438 408.335938 C 740.382812 408.328125 741.488281 407.21875 741.484375 405.855469 L 741.46875 399.730469 C 741.464844 399.160156 741.929688 398.695312 742.5 398.695312 L 742.503906 398.695312 C 743.070312 398.695312 743.539062 399.152344 743.539062 399.726562 L 743.558594 405.851562 C 743.5625 408.355469 741.53125 410.398438 739.03125 410.402344 C 739.027344 410.402344 739.019531 410.402344 739.019531 410.402344 " fill-opacity="1" fill-rule="nonzero"/><path fill="#000000" d="M 739.105469 401.453125 C 738.53125 401.453125 738.070312 400.992188 738.066406 400.417969 C 738.066406 399.847656 738.53125 399.382812 739.101562 399.382812 C 742.460938 399.371094 745.191406 396.628906 745.183594 393.261719 L 745.171875 389.058594 C 745.160156 385.964844 742.773438 383.429688 739.707031 383.230469 L 732.976562 389.917969 L 732.988281 393.296875 C 732.992188 395.683594 734.402344 397.863281 736.578125 398.84375 C 737.097656 399.082031 737.328125 399.695312 737.09375 400.214844 C 736.859375 400.734375 736.242188 400.964844 735.722656 400.730469 C 732.8125 399.417969 730.921875 396.5 730.914062 393.304688 L 730.90625 389.496094 C 730.90625 389.214844 731.015625 388.949219 731.210938 388.757812 L 738.5625 381.445312 C 738.753906 381.253906 739.019531 381.144531 739.289062 381.144531 C 739.410156 381.144531 739.523438 381.144531 739.640625 381.148438 C 743.890625 381.320312 747.230469 384.796875 747.242188 389.054688 L 747.257812 393.257812 C 747.269531 397.765625 743.613281 401.441406 739.109375 401.453125 C 739.105469 401.453125 739.105469 401.453125 739.105469 401.453125 " fill-opacity="1" fill-rule="nonzero"/><path fill="#ffffff" d="M 693.800781 87.394531 C 698.796875 87.394531 702.300781 91.796875 701.621094 97.222656 L 693.1875 164.871094 C 692.507812 170.300781 687.910156 174.703125 682.910156 174.703125 L 646.609375 174.703125 L 657.035156 198.527344 L 604.476562 174.703125 L 459.125 174.703125 C 454.128906 174.703125 450.625 170.300781 451.300781 164.871094 L 459.738281 97.222656 C 460.414062 91.796875 465.015625 87.394531 470.011719 87.394531 L 693.800781 87.394531 " fill-opacity="1" fill-rule="nonzero"/><path fill="#000000" d="M 486.902344 175.738281 L 459.125 175.738281 C 456.558594 175.738281 454.230469 174.703125 452.566406 172.820312 C 450.726562 170.738281 449.890625 167.792969 450.273438 164.746094 L 458.707031 97.097656 C 459.445312 91.175781 464.519531 86.359375 470.011719 86.359375 L 503.878906 86.359375 C 504.449219 86.359375 504.914062 86.828125 504.914062 87.394531 C 504.914062 87.96875 504.449219 88.429688 503.878906 88.429688 L 470.011719 88.429688 C 465.527344 88.429688 461.378906 92.433594 460.765625 97.355469 L 452.328125 165 C 452.023438 167.460938 452.675781 169.8125 454.121094 171.449219 C 455.386719 172.882812 457.160156 173.667969 459.125 173.667969 L 486.902344 173.667969 C 487.472656 173.667969 487.9375 174.132812 487.9375 174.703125 C 487.9375 175.277344 487.472656 175.738281 486.902344 175.738281 " fill-opacity="1" fill-rule="nonzero"/><path fill="#000000" d="M 659.058594 200.570312 L 603.566406 175.738281 L 477.390625 175.816406 C 476.816406 175.816406 476.355469 175.355469 476.355469 174.78125 C 476.355469 174.210938 476.816406 173.746094 477.390625 173.746094 L 604.007812 173.667969 L 655.011719 196.488281 L 645.027344 173.667969 L 682.910156 173.667969 C 687.398438 173.667969 691.546875 169.667969 692.15625 164.746094 L 700.59375 97.097656 C 700.898438 94.636719 700.25 92.285156 698.800781 90.652344 C 697.539062 89.222656 695.757812 88.429688 693.800781 88.429688 L 540.972656 88.460938 C 540.402344 88.460938 539.9375 87.996094 539.9375 87.425781 C 539.9375 86.851562 540.402344 86.390625 540.972656 86.390625 L 693.800781 86.359375 C 696.363281 86.359375 698.691406 87.394531 700.355469 89.28125 C 702.191406 91.363281 703.03125 94.304688 702.648438 97.355469 L 694.210938 165 C 693.472656 170.921875 688.402344 175.738281 682.910156 175.738281 L 648.195312 175.738281 L 659.058594 200.570312 " fill-opacity="1" fill-rule="nonzero"/><path fill="#99b9ff" d="M 666.742188 118.046875 L 543.144531 118.046875 C 539.640625 118.046875 537.183594 115.988281 537.660156 113.449219 C 538.132812 110.90625 541.359375 108.847656 544.863281 108.847656 L 668.464844 108.847656 C 671.96875 108.847656 674.421875 110.90625 673.949219 113.449219 C 673.476562 115.988281 670.25 118.046875 666.742188 118.046875 " fill-opacity="1" fill-rule="nonzero"/><path fill="#caddff" d="M 644.808594 137.863281 L 538.929688 137.863281 C 535.925781 137.863281 533.824219 135.804688 534.230469 133.265625 C 534.636719 130.722656 537.398438 128.664062 540.402344 128.664062 L 646.28125 128.664062 C 649.285156 128.664062 651.386719 130.722656 650.980469 133.265625 C 650.574219 135.804688 647.808594 137.863281 644.808594 137.863281 " fill-opacity="1" fill-rule="nonzero"/><path fill="#caddff" d="M 666.792969 157.683594 L 536.597656 157.683594 C 532.90625 157.683594 530.320312 155.625 530.816406 153.085938 C 531.316406 150.542969 534.714844 148.480469 538.40625 148.480469 L 668.601562 148.480469 C 672.292969 148.480469 674.882812 150.542969 674.382812 153.085938 C 673.882812 155.625 670.484375 157.683594 666.792969 157.683594 " fill-opacity="1" fill-rule="nonzero"/><path fill="#ffffff" d="M 525.742188 132.386719 C 525.742188 148.433594 512.730469 161.433594 496.683594 161.433594 C 480.636719 161.433594 467.625 148.433594 467.625 132.386719 C 467.625 116.34375 480.636719 103.34375 496.683594 103.34375 C 512.730469 103.34375 525.742188 116.34375 525.742188 132.386719 " fill-opacity="1" fill-rule="nonzero"/><path fill="#000000" d="M 496.683594 104.378906 C 481.230469 104.378906 468.660156 116.941406 468.660156 132.390625 C 468.660156 147.835938 481.230469 160.402344 496.683594 160.402344 C 512.136719 160.402344 524.707031 147.835938 524.707031 132.390625 C 524.707031 116.941406 512.136719 104.378906 496.683594 104.378906 Z M 496.683594 162.472656 C 480.089844 162.472656 466.589844 148.980469 466.589844 132.390625 C 466.589844 115.804688 480.089844 102.308594 496.683594 102.308594 C 513.277344 102.308594 526.777344 115.804688 526.777344 132.390625 C 526.777344 148.980469 513.277344 162.472656 496.683594 162.472656 " fill-opacity="1" fill-rule="nonzero"/><path fill="#5479f7" d="M 514.992188 132.390625 C 514.992188 142.496094 506.792969 150.6875 496.683594 150.6875 C 486.574219 150.6875 478.375 142.496094 478.375 132.390625 C 478.375 122.28125 486.574219 114.089844 496.683594 114.089844 C 506.792969 114.089844 514.992188 122.28125 514.992188 132.390625 " fill-opacity="1" fill-rule="nonzero"/><path fill="#ffffff" d="M 490.226562 126.652344 C 490.226562 127.660156 489.410156 128.480469 488.402344 128.480469 C 487.390625 128.480469 486.574219 127.660156 486.574219 126.652344 C 486.574219 125.644531 487.390625 124.828125 488.402344 124.828125 C 489.410156 124.828125 490.226562 125.644531 490.226562 126.652344 " fill-opacity="1" fill-rule="nonzero"/><path fill="#ffffff" d="M 506.792969 126.652344 C 506.792969 127.660156 505.972656 128.480469 504.964844 128.480469 C 503.957031 128.480469 503.140625 127.660156 503.140625 126.652344 C 503.140625 125.644531 503.957031 124.828125 504.964844 124.828125 C 505.972656 124.828125 506.792969 125.644531 506.792969 126.652344 " fill-opacity="1" fill-rule="nonzero"/><path fill="#ffffff" d="M 496.683594 140.988281 C 492.683594 140.988281 489.125 138.453125 487.828125 134.671875 C 487.644531 134.132812 487.929688 133.542969 488.472656 133.359375 C 489.011719 133.171875 489.601562 133.457031 489.789062 134 C 490.796875 136.941406 493.570312 138.917969 496.683594 138.917969 C 499.957031 138.917969 502.847656 136.71875 503.710938 133.5625 C 503.863281 133.011719 504.433594 132.6875 504.984375 132.835938 C 505.539062 132.988281 505.863281 133.558594 505.710938 134.109375 C 504.601562 138.160156 500.890625 140.988281 496.683594 140.988281 " fill-opacity="1" fill-rule="nonzero"/><path fill="#000000" d="M 640.796875 297.859375 C 625.464844 281.277344 602.671875 277.785156 585.539062 282.464844 C 563.859375 288.382812 552.925781 307.132812 545.214844 320.355469 C 531.585938 343.726562 538.167969 352.195312 527.453125 365.773438 C 508.480469 389.820312 478.738281 374.792969 455.617188 392.355469 C 420.34375 419.15625 415.550781 510.101562 463.28125 544.730469 C 495.109375 567.820312 538.40625 554.464844 550.1875 550.828125 C 585.9375 539.804688 630.421875 509.019531 636.804688 467.300781 C 642.082031 432.796875 619.339844 404.097656 638.371094 375.175781 C 643.214844 367.8125 647.234375 365.8125 650.832031 356.605469 C 656.679688 341.652344 657.996094 316.464844 640.796875 297.859375 " fill-opacity="1" fill-rule="nonzero"/><path fill="#000000" d="M 594.5625 301.953125 C 602.707031 295.347656 597.554688 275.867188 592.339844 265.359375 C 590.386719 261.421875 581.644531 243.796875 570.148438 244.480469 C 558.335938 245.183594 547.027344 265 551.246094 280.695312 C 556.515625 300.320312 585.019531 309.691406 594.5625 301.953125 " fill-opacity="1" fill-rule="nonzero"/><path fill="#ffffff" d="M 728.46875 575.601562 C 728.46875 575.601562 646.554688 432.878906 635.28125 426.023438 C 624.003906 419.175781 635.28125 491.410156 635.28125 491.410156 L 696.449219 593.484375 L 728.46875 575.601562 " fill-opacity="1" fill-rule="nonzero"/><path fill="#000000" d="M 636.273438 491.050781 L 696.820312 592.089844 L 727.046875 575.207031 C 698.605469 525.679688 643.425781 432.1875 634.742188 426.910156 C 633.945312 426.429688 633.632812 426.632812 633.5 426.722656 C 632.316406 427.515625 629.839844 432.378906 632.457031 460.316406 C 633.828125 474.929688 635.988281 489.210938 636.273438 491.050781 Z M 696.449219 594.519531 C 696.09375 594.519531 695.753906 594.339844 695.558594 594.015625 L 634.390625 491.945312 C 634.324219 491.828125 634.277344 491.699219 634.253906 491.566406 C 634.230469 491.417969 631.863281 476.164062 630.394531 460.523438 C 627.691406 431.664062 630.214844 426.429688 632.347656 425.003906 C 633.050781 424.53125 634.226562 424.171875 635.816406 425.140625 C 647.191406 432.050781 726.015625 569.25 729.367188 575.085938 C 729.503906 575.328125 729.542969 575.613281 729.464844 575.878906 C 729.390625 576.144531 729.214844 576.371094 728.972656 576.507812 L 696.953125 594.386719 C 696.796875 594.476562 696.617188 594.519531 696.449219 594.519531 " fill-opacity="1" fill-rule="nonzero"/><path fill="#5479f7" d="M 514.347656 423.132812 C 514.347656 423.132812 570.539062 395.589844 635.28125 426.023438 C 635.28125 426.023438 690.742188 613 694.65625 632.449219 C 698.570312 651.894531 666.515625 659.996094 641.496094 656.003906 C 616.476562 652.011719 561.015625 643.011719 535.28125 657.160156 C 509.546875 671.3125 506.902344 636.671875 509.800781 613.578125 C 512.699219 590.488281 514.347656 423.132812 514.347656 423.132812 " fill-opacity="1" fill-rule="nonzero"/><path fill="#ffffff" d="M 518.996094 573.277344 L 599.214844 525.476562 L 642.785156 540.058594 C 642.785156 540.058594 638.960938 544.25 632.761719 542.214844 C 626.566406 540.179688 617.835938 540.734375 611.632812 545.800781 C 605.433594 550.867188 597.007812 545.800781 597.007812 545.800781 C 597.007812 545.800781 546.019531 621.304688 501.070312 622.859375 C 464.53125 624.125 484.503906 495.828125 493.253906 447.789062 C 495.265625 436.742188 502.917969 427.554688 513.414062 423.558594 L 526.863281 418.429688 L 518.996094 573.277344 " fill-opacity="1" fill-rule="nonzero"/><path fill="#000000" d="M 525.75 419.960938 L 513.785156 424.523438 C 503.683594 428.371094 496.207031 437.359375 494.273438 447.972656 C 486.4375 490.988281 470.421875 593.570312 490.824219 617.171875 C 493.652344 620.441406 497 621.964844 501.035156 621.824219 C 544.941406 620.304688 595.640625 545.96875 596.152344 545.222656 C 596.457031 544.765625 597.070312 544.628906 597.542969 544.914062 C 597.621094 544.957031 605.425781 549.535156 610.976562 545 C 617.628906 539.5625 626.875 539.191406 633.085938 541.230469 C 636.53125 542.363281 639.160156 541.351562 640.644531 540.433594 L 599.335938 526.609375 L 519.527344 574.167969 C 519.199219 574.363281 518.792969 574.363281 518.464844 574.164062 C 518.136719 573.96875 517.945312 573.609375 517.964844 573.222656 Z M 500.539062 623.90625 C 496.136719 623.90625 492.34375 622.097656 489.257812 618.53125 C 468.265625 594.25 484.347656 490.910156 492.234375 447.601562 C 494.296875 436.28125 502.269531 426.695312 513.042969 422.585938 L 526.496094 417.460938 C 526.824219 417.335938 527.191406 417.386719 527.472656 417.585938 C 527.757812 417.792969 527.917969 418.132812 527.902344 418.480469 L 520.132812 571.394531 L 598.683594 524.585938 C 598.941406 524.433594 599.257812 524.398438 599.542969 524.492188 L 643.113281 539.078125 C 643.449219 539.1875 643.703125 539.457031 643.789062 539.796875 C 643.878906 540.136719 643.785156 540.496094 643.550781 540.753906 C 643.375 540.945312 639.195312 545.417969 632.4375 543.199219 C 626.765625 541.332031 618.335938 541.664062 612.289062 546.601562 C 606.738281 551.140625 599.757812 548.355469 597.335938 547.152344 C 594.730469 550.902344 582.78125 567.707031 566.644531 584.464844 C 542.074219 609.972656 520.027344 623.238281 501.109375 623.894531 C 500.917969 623.902344 500.730469 623.90625 500.539062 623.90625 " fill-opacity="1" fill-rule="nonzero"/><path fill="#000000" d="M 734.042969 591.371094 L 616.957031 596.097656 C 612.996094 596.097656 610.5625 591.757812 612.640625 588.382812 L 671.703125 492.257812 C 673.152344 489.898438 675.726562 488.457031 678.496094 488.457031 L 796.859375 491.164062 L 734.042969 591.371094 " fill-opacity="1" fill-rule="nonzero"/><path fill="#000000" d="M 678.476562 489.496094 C 676.105469 489.496094 673.839844 490.761719 672.585938 492.804688 L 613.519531 588.925781 C 612.746094 590.1875 612.714844 591.710938 613.4375 593 C 614.160156 594.292969 615.476562 595.0625 616.957031 595.0625 L 733.457031 590.359375 L 795.011719 492.15625 Z M 616.996094 597.136719 C 614.710938 597.136719 612.722656 595.96875 611.628906 594.015625 C 610.535156 592.058594 610.582031 589.75 611.753906 587.84375 L 670.820312 491.71875 C 672.445312 489.066406 675.390625 487.425781 678.496094 487.425781 L 798.703125 490.167969 L 734.632812 592.382812 L 616.996094 597.136719 " fill-opacity="1" fill-rule="nonzero"/><path fill="#99b9ff" d="M 742.476562 596.097656 L 616.085938 596.097656 L 682.226562 488.457031 L 808.617188 488.457031 L 742.476562 596.097656 " fill-opacity="1" fill-rule="nonzero"/><path fill="#000000" d="M 617.941406 595.0625 L 741.898438 595.0625 L 806.761719 489.496094 L 682.808594 489.496094 Z M 742.476562 597.136719 L 616.085938 597.136719 C 615.710938 597.136719 615.367188 596.933594 615.183594 596.605469 C 615 596.277344 615.007812 595.878906 615.203125 595.558594 L 681.34375 487.917969 C 681.53125 487.613281 681.867188 487.425781 682.226562 487.425781 L 808.613281 487.425781 C 808.988281 487.425781 809.335938 487.628906 809.519531 487.957031 C 809.703125 488.28125 809.695312 488.683594 809.5 489.003906 L 743.359375 596.644531 C 743.167969 596.949219 742.835938 597.136719 742.476562 597.136719 " fill-opacity="1" fill-rule="nonzero"/><path fill="#ffffff" d="M 745.382812 591.371094 C 745.382812 591.371094 743.007812 578.929688 745.382812 570.628906 C 747.757812 562.332031 762.484375 537.648438 766.691406 532.480469 C 770.902344 527.316406 774.46875 582.46875 745.382812 591.371094 " fill-opacity="1" fill-rule="nonzero"/><path fill="#000000" d="M 767.214844 533.492188 C 762.570312 539.488281 748.59375 563.179688 746.378906 570.917969 C 744.515625 577.425781 745.699219 586.753906 746.207031 590.003906 C 758.710938 585.515625 764.171875 572.113281 766.554688 561.5 C 769.582031 547.996094 768.421875 536.023438 767.214844 533.492188 Z M 745.382812 592.40625 C 745.195312 592.40625 745.011719 592.355469 744.847656 592.257812 C 744.59375 592.105469 744.421875 591.855469 744.363281 591.566406 C 744.265625 591.046875 741.972656 578.785156 744.386719 570.34375 C 746.765625 562.039062 761.449219 537.277344 765.886719 531.828125 C 766.660156 530.878906 767.527344 531.109375 767.777344 531.203125 C 770.839844 532.34375 770.550781 545.011719 770.507812 546.453125 C 769.949219 565.144531 763.136719 587.019531 745.6875 592.363281 C 745.585938 592.390625 745.488281 592.40625 745.382812 592.40625 " fill-opacity="1" fill-rule="nonzero"/><path fill="#ffffff" d="M 608.734375 382.605469 C 612.390625 384.4375 616.820312 383.730469 619.707031 380.835938 C 623.023438 377.515625 625.695312 373.988281 627.871094 370.417969 L 632.050781 370.5 C 633.386719 370.527344 634.5 369.484375 634.558594 368.152344 L 635.28125 351.832031 C 644.894531 336.15625 637.324219 327.753906 637.324219 327.753906 C 636.609375 319.714844 616.304688 314.921875 604.929688 330.417969 C 597.214844 340.925781 586.113281 330.417969 586.113281 330.417969 C 586.113281 330.417969 580.300781 314.75 573.503906 324.390625 C 566.703125 334.023438 580.183594 350.964844 580.183594 350.964844 L 570.113281 393.855469 C 567.789062 403.75 560.714844 411.851562 551.21875 415.488281 L 541.546875 419.195312 C 541.546875 419.195312 556.65625 468.675781 599.457031 467.757812 C 632.121094 467.058594 618.039062 422.933594 618.039062 422.933594 L 613.746094 421.042969 C 602.515625 416.089844 596.367188 403.882812 599.078125 391.914062 L 601.957031 379.210938 L 608.734375 382.605469 " fill-opacity="1" fill-rule="nonzero"/><path fill="#000000" d="M 605.378906 383.4375 C 605.230469 383.4375 605.074219 383.40625 604.929688 383.335938 C 592.453125 377.273438 591.257812 362.585938 591.214844 361.964844 C 591.171875 361.394531 591.601562 360.902344 592.171875 360.855469 C 592.742188 360.816406 593.238281 361.246094 593.28125 361.8125 C 593.292969 361.957031 594.453125 375.941406 605.835938 381.472656 C 606.347656 381.722656 606.5625 382.339844 606.3125 382.855469 C 606.132812 383.226562 605.765625 383.4375 605.378906 383.4375 " fill-opacity="1" fill-rule="nonzero"/></svg>