<svg xmlns="http://www.w3.org/2000/svg" xmlns:xlink="http://www.w3.org/1999/xlink" width="1920" zoomAndPan="magnify" viewBox="0 0 1440 809.999993" height="1080" preserveAspectRatio="xMidYMid meet" version="1.0"><path fill="#caddff" d="M 854.921875 288.570312 C 804.242188 237.554688 818.753906 205.582031 784.074219 181.964844 C 730.714844 145.625 631.132812 176.890625 572.378906 226.878906 C 500.421875 288.101562 463.296875 399.890625 505.589844 501.023438 C 550.628906 608.722656 669.132812 664.632812 774.875 647.78125 C 869.304688 632.738281 962.128906 558.304688 971.433594 469.035156 C 972.441406 459.359375 976.890625 407.054688 945.679688 361.957031 C 919.878906 324.683594 895.09375 329.003906 854.921875 288.570312 " fill-opacity="1" fill-rule="nonzero"/><path fill="#000000" d="M 501.578125 487.203125 L 909.792969 488.09375 L 916.882812 488.109375 L 930.058594 488.136719 C 933.808594 488.136719 936.882812 485.210938 937.359375 481.488281 L 971.492188 214.710938 C 972.324219 208.222656 967.589844 202.09375 961.058594 202.09375 L 538.117188 202.476562 L 501.578125 487.203125 " fill-opacity="1" fill-rule="nonzero"/><path fill="#ffffff" d="M 945.460938 202.0625 C 952.824219 202.0625 958.808594 209.476562 957.867188 216.800781 L 923.488281 481.535156 C 923.011719 485.257812 919.847656 488.042969 916.109375 488.042969 L 912.882812 488.164062 L 496.183594 488.042969 C 491.691406 488.042969 488.222656 484.085938 488.796875 479.621094 L 523.871094 209.503906 C 524.347656 205.78125 527.210938 202.0625 530.953125 202.0625 L 945.460938 202.0625 " fill-opacity="1" fill-rule="nonzero"/><path fill="#000000" d="M 530.953125 202.9375 C 527.644531 202.9375 525.152344 206.402344 524.738281 209.617188 L 489.667969 479.734375 C 489.425781 481.617188 490.003906 483.511719 491.253906 484.9375 C 492.5 486.351562 494.296875 487.164062 496.183594 487.164062 L 912.886719 487.289062 L 916.074219 487.167969 C 919.398438 487.164062 922.199219 484.695312 922.625 481.421875 L 957 216.6875 C 957.433594 213.324219 956.261719 209.6875 953.863281 206.960938 C 951.613281 204.40625 948.554688 202.9375 945.460938 202.9375 Z M 912.917969 489.039062 L 496.183594 488.917969 C 493.792969 488.917969 491.519531 487.886719 489.941406 486.09375 C 488.355469 484.289062 487.625 481.890625 487.929688 479.511719 L 523 209.390625 C 523.519531 205.359375 526.636719 201.1875 530.953125 201.1875 L 945.460938 201.1875 C 949.054688 201.1875 952.597656 202.871094 955.175781 205.804688 C 957.945312 208.949219 959.242188 212.996094 958.734375 216.914062 L 924.359375 481.644531 C 923.824219 485.792969 920.277344 488.917969 916.109375 488.917969 L 912.917969 489.039062 " fill-opacity="1" fill-rule="nonzero"/><path fill="#ffffff" d="M 504.570312 238.273438 C 504.71875 237.140625 505.683594 236.289062 506.828125 236.289062 L 706.734375 236.289062 C 708.984375 236.289062 710.726562 238.269531 710.4375 240.507812 L 694.578125 359.402344 C 694.433594 360.539062 693.464844 361.390625 692.320312 361.390625 L 490.492188 361.390625 C 489.25 361.390625 488.289062 360.296875 488.453125 359.0625 L 504.570312 238.273438 " fill-opacity="1" fill-rule="nonzero"/><path fill="#caddff" d="M 677.214844 276.898438 L 528.832031 276.898438 C 526.683594 276.898438 525.027344 275.007812 525.308594 272.878906 L 529.992188 236.664062 L 685.542969 236.664062 L 680.734375 273.8125 C 680.5 275.578125 678.996094 276.898438 677.214844 276.898438 " fill-opacity="1" fill-rule="nonzero"/><path fill="#5479f7" d="M 706.734375 236.289062 C 708.984375 236.289062 710.726562 238.269531 710.4375 240.507812 L 708.722656 250.492188 L 502.644531 250.457031 L 504.570312 238.273438 C 504.71875 237.140625 505.683594 236.289062 506.828125 236.289062 L 706.734375 236.289062 " fill-opacity="1" fill-rule="nonzero"/><path fill="#99b9ff" d="M 555.511719 288.820312 L 537.480469 288.820312 C 535.71875 288.820312 534.359375 287.269531 534.589844 285.519531 L 536.984375 267.4375 C 537.175781 265.988281 538.410156 264.90625 539.875 264.90625 L 557.90625 264.90625 C 559.667969 264.90625 561.027344 266.457031 560.796875 268.203125 L 558.402344 286.289062 C 558.207031 287.738281 556.972656 288.820312 555.511719 288.820312 " fill-opacity="1" fill-rule="nonzero"/><path fill="#caddff" d="M 606 244.023438 C 606.183594 242.601562 605.074219 241.34375 603.644531 241.34375 L 529.746094 241.34375 C 528.550781 241.34375 527.539062 242.230469 527.386719 243.417969 C 527.207031 244.839844 528.3125 246.097656 529.746094 246.097656 L 603.644531 246.097656 C 604.839844 246.097656 605.847656 245.207031 606 244.023438 " fill-opacity="1" fill-rule="nonzero"/><path fill="#caddff" d="M 681.503906 244.023438 C 681.683594 242.601562 680.578125 241.34375 679.144531 241.34375 L 672.398438 241.34375 C 671.203125 241.34375 670.191406 242.230469 670.042969 243.417969 C 669.859375 244.839844 670.96875 246.097656 672.398438 246.097656 L 679.144531 246.097656 C 680.34375 246.097656 681.351562 245.207031 681.503906 244.023438 " fill-opacity="1" fill-rule="nonzero"/><path fill="#caddff" d="M 566.644531 312.050781 L 521.53125 312.050781 C 520.671875 312.050781 519.976562 311.351562 519.976562 310.492188 L 519.976562 310.0625 C 519.976562 309.203125 520.671875 308.507812 521.53125 308.507812 L 566.644531 308.507812 C 567.503906 308.507812 568.199219 309.203125 568.199219 310.0625 L 568.199219 310.492188 C 568.199219 311.351562 567.503906 312.050781 566.644531 312.050781 " fill-opacity="1" fill-rule="nonzero"/><path fill="#caddff" d="M 540.511719 303.824219 L 522.839844 303.824219 C 521.980469 303.824219 521.28125 303.125 521.28125 302.269531 L 521.28125 301.835938 C 521.28125 300.980469 521.980469 300.28125 522.839844 300.28125 L 540.511719 300.28125 C 541.371094 300.28125 542.070312 300.980469 542.070312 301.835938 L 542.070312 302.269531 C 542.070312 303.125 541.371094 303.824219 540.511719 303.824219 " fill-opacity="1" fill-rule="nonzero"/><path fill="#000000" d="M 504.570312 238.273438 L 504.578125 238.273438 Z M 506.828125 237.160156 C 506.128906 237.160156 505.53125 237.691406 505.4375 238.390625 L 489.320312 359.179688 C 489.273438 359.519531 489.375 359.851562 489.601562 360.113281 C 489.832031 360.371094 490.148438 360.515625 490.492188 360.515625 L 692.320312 360.515625 C 693.023438 360.515625 693.621094 359.988281 693.710938 359.289062 L 709.566406 240.390625 C 709.675781 239.578125 709.421875 238.753906 708.878906 238.132812 C 708.335938 237.515625 707.554688 237.160156 706.734375 237.160156 Z M 692.320312 362.269531 L 490.492188 362.269531 C 489.648438 362.269531 488.84375 361.902344 488.285156 361.265625 C 487.730469 360.632812 487.472656 359.785156 487.585938 358.949219 L 503.703125 238.160156 C 503.90625 236.589844 505.25 235.410156 506.828125 235.410156 L 706.734375 235.410156 C 708.058594 235.410156 709.316406 235.980469 710.191406 236.976562 C 711.070312 237.972656 711.476562 239.300781 711.304688 240.617188 L 695.445312 359.515625 C 695.246094 361.085938 693.902344 362.269531 692.320312 362.269531 " fill-opacity="1" fill-rule="nonzero"/><path fill="#caddff" d="M 817.890625 250.492188 L 745.773438 250.492188 C 741.335938 250.492188 737.980469 246.488281 738.75 242.121094 C 739.351562 238.714844 742.3125 236.226562 745.773438 236.226562 L 817.890625 236.226562 C 822.328125 236.226562 825.683594 240.230469 824.917969 244.597656 C 824.316406 248.007812 821.351562 250.492188 817.890625 250.492188 " fill-opacity="1" fill-rule="nonzero"/><path fill="#caddff" d="M 795.105469 388.660156 L 722.988281 388.660156 C 718.554688 388.660156 715.195312 384.65625 715.964844 380.292969 C 716.566406 376.882812 719.523438 374.394531 722.988281 374.394531 L 795.105469 374.394531 C 799.539062 374.394531 802.898438 378.402344 802.128906 382.769531 C 801.527344 386.179688 798.566406 388.660156 795.105469 388.660156 " fill-opacity="1" fill-rule="nonzero"/><path fill="#5479f7" d="M 795.105469 388.660156 L 722.988281 388.660156 C 718.554688 388.660156 715.195312 384.65625 715.964844 380.292969 C 716.566406 376.882812 719.523438 374.394531 722.988281 374.394531 L 795.105469 374.394531 C 799.539062 374.394531 802.898438 378.402344 802.128906 382.769531 C 801.527344 386.179688 798.566406 388.660156 795.105469 388.660156 " fill-opacity="1" fill-rule="nonzero"/><path fill="#000000" d="M 801.589844 384.328125 C 801.375 384.328125 801.15625 384.25 800.984375 384.085938 C 800.640625 383.753906 800.625 383.195312 800.960938 382.847656 L 803.109375 380.605469 C 803.441406 380.253906 803.996094 380.246094 804.34375 380.578125 C 804.695312 380.914062 804.707031 381.46875 804.371094 381.816406 L 802.222656 384.058594 C 802.050781 384.238281 801.820312 384.328125 801.589844 384.328125 " fill-opacity="1" fill-rule="nonzero"/><path fill="#000000" d="M 794.074219 392.179688 C 793.855469 392.179688 793.636719 392.097656 793.46875 391.933594 C 793.121094 391.601562 793.105469 391.046875 793.441406 390.699219 L 795.589844 388.457031 C 795.921875 388.105469 796.480469 388.09375 796.828125 388.429688 C 797.179688 388.761719 797.1875 389.316406 796.855469 389.664062 L 794.707031 391.90625 C 794.535156 392.089844 794.304688 392.179688 794.074219 392.179688 " fill-opacity="1" fill-rule="nonzero"/><path fill="#000000" d="M 796.183594 384.449219 C 795.960938 384.449219 795.738281 384.367188 795.570312 384.199219 L 793.386719 382.050781 C 793.042969 381.714844 793.039062 381.15625 793.378906 380.8125 C 793.71875 380.46875 794.273438 380.464844 794.617188 380.804688 L 796.796875 382.949219 C 797.140625 383.289062 797.148438 383.84375 796.804688 384.1875 C 796.636719 384.363281 796.40625 384.449219 796.183594 384.449219 " fill-opacity="1" fill-rule="nonzero"/><path fill="#000000" d="M 803.8125 391.960938 C 803.589844 391.960938 803.367188 391.878906 803.199219 391.710938 L 801.019531 389.5625 C 800.671875 389.226562 800.671875 388.667969 801.007812 388.324219 C 801.347656 387.980469 801.902344 387.976562 802.25 388.316406 L 804.425781 390.460938 C 804.773438 390.800781 804.777344 391.355469 804.4375 391.703125 C 804.265625 391.875 804.039062 391.960938 803.8125 391.960938 " fill-opacity="1" fill-rule="nonzero"/><path fill="#caddff" d="M 802.398438 342.605469 L 730.277344 342.605469 C 725.84375 342.605469 722.484375 338.601562 723.257812 334.234375 C 723.855469 330.824219 726.816406 328.339844 730.277344 328.339844 L 802.398438 328.339844 C 806.832031 328.339844 810.191406 332.34375 809.421875 336.710938 C 808.820312 340.121094 805.855469 342.605469 802.398438 342.605469 " fill-opacity="1" fill-rule="nonzero"/><path fill="#5479f7" d="M 760.351562 342.605469 L 730.277344 342.605469 C 725.84375 342.605469 722.484375 338.601562 723.257812 334.234375 C 723.855469 330.824219 726.816406 328.339844 730.277344 328.339844 L 760.351562 328.339844 C 764.785156 328.339844 768.144531 332.34375 767.375 336.710938 C 766.773438 340.121094 763.816406 342.605469 760.351562 342.605469 " fill-opacity="1" fill-rule="nonzero"/><path fill="#000000" d="M 765.160156 338.589844 C 764.941406 338.589844 764.722656 338.507812 764.554688 338.347656 C 764.203125 338.015625 764.191406 337.457031 764.527344 337.109375 L 766.675781 334.867188 C 767.007812 334.515625 767.5625 334.507812 767.914062 334.839844 C 768.261719 335.175781 768.273438 335.730469 767.941406 336.078125 L 765.789062 338.320312 C 765.617188 338.5 765.390625 338.589844 765.160156 338.589844 " fill-opacity="1" fill-rule="nonzero"/><path fill="#000000" d="M 757.640625 346.4375 C 757.425781 346.4375 757.203125 346.359375 757.035156 346.195312 C 756.6875 345.863281 756.675781 345.304688 757.007812 344.957031 L 759.15625 342.714844 C 759.492188 342.367188 760.042969 342.351562 760.394531 342.691406 C 760.742188 343.023438 760.753906 343.578125 760.421875 343.925781 L 758.273438 346.167969 C 758.101562 346.347656 757.871094 346.4375 757.640625 346.4375 " fill-opacity="1" fill-rule="nonzero"/><path fill="#000000" d="M 759.75 338.710938 C 759.527344 338.710938 759.304688 338.628906 759.132812 338.460938 L 756.953125 336.3125 C 756.609375 335.972656 756.601562 335.417969 756.945312 335.074219 C 757.285156 334.730469 757.835938 334.726562 758.179688 335.066406 L 760.363281 337.210938 C 760.707031 337.550781 760.710938 338.105469 760.375 338.449219 C 760.199219 338.621094 759.972656 338.710938 759.75 338.710938 " fill-opacity="1" fill-rule="nonzero"/><path fill="#000000" d="M 767.378906 346.222656 C 767.160156 346.222656 766.9375 346.140625 766.765625 345.96875 L 764.585938 343.828125 C 764.242188 343.488281 764.234375 342.929688 764.574219 342.585938 C 764.914062 342.242188 765.46875 342.238281 765.8125 342.574219 L 767.992188 344.722656 C 768.339844 345.0625 768.34375 345.617188 768.003906 345.964844 C 767.832031 346.136719 767.605469 346.222656 767.378906 346.222656 " fill-opacity="1" fill-rule="nonzero"/><path fill="#caddff" d="M 809.890625 296.550781 L 737.773438 296.550781 C 733.335938 296.550781 729.976562 292.546875 730.746094 288.175781 C 731.347656 284.769531 734.3125 282.28125 737.773438 282.28125 L 809.890625 282.28125 C 814.328125 282.28125 817.6875 286.285156 816.914062 290.65625 C 816.316406 294.0625 813.351562 296.550781 809.890625 296.550781 " fill-opacity="1" fill-rule="nonzero"/><path fill="#5479f7" d="M 751.804688 296.550781 L 737.917969 296.550781 C 733.484375 296.550781 730.125 292.546875 730.894531 288.175781 C 731.496094 284.769531 734.457031 282.28125 737.917969 282.28125 L 751.804688 282.28125 C 756.238281 282.28125 759.597656 286.285156 758.828125 290.65625 C 758.226562 294.0625 755.265625 296.550781 751.804688 296.550781 " fill-opacity="1" fill-rule="nonzero"/><path fill="#000000" d="M 756.714844 292.988281 C 756.5 292.988281 756.28125 292.90625 756.109375 292.742188 C 755.765625 292.410156 755.75 291.855469 756.085938 291.503906 L 758.234375 289.265625 C 758.566406 288.914062 759.121094 288.902344 759.472656 289.238281 C 759.820312 289.570312 759.832031 290.125 759.496094 290.476562 L 757.351562 292.71875 C 757.179688 292.898438 756.949219 292.988281 756.714844 292.988281 " fill-opacity="1" fill-rule="nonzero"/><path fill="#000000" d="M 749.203125 300.835938 C 748.980469 300.835938 748.765625 300.757812 748.59375 300.59375 C 748.246094 300.257812 748.230469 299.703125 748.570312 299.355469 L 750.714844 297.113281 C 751.046875 296.761719 751.605469 296.75 751.953125 297.085938 C 752.304688 297.421875 752.3125 297.972656 751.980469 298.324219 L 749.832031 300.566406 C 749.660156 300.746094 749.429688 300.835938 749.203125 300.835938 " fill-opacity="1" fill-rule="nonzero"/><path fill="#000000" d="M 751.308594 293.105469 C 751.085938 293.105469 750.863281 293.023438 750.695312 292.855469 L 748.511719 290.710938 C 748.167969 290.371094 748.164062 289.816406 748.503906 289.472656 C 748.839844 289.128906 749.398438 289.121094 749.742188 289.460938 L 751.921875 291.609375 C 752.265625 291.949219 752.269531 292.5 751.929688 292.847656 C 751.761719 293.019531 751.535156 293.105469 751.308594 293.105469 " fill-opacity="1" fill-rule="nonzero"/><path fill="#000000" d="M 758.9375 300.621094 C 758.714844 300.621094 758.492188 300.535156 758.324219 300.367188 L 756.144531 298.222656 C 755.796875 297.882812 755.796875 297.328125 756.132812 296.984375 C 756.472656 296.640625 757.027344 296.632812 757.371094 296.972656 L 759.550781 299.121094 C 759.898438 299.457031 759.902344 300.015625 759.5625 300.359375 C 759.390625 300.53125 759.164062 300.621094 758.9375 300.621094 " fill-opacity="1" fill-rule="nonzero"/><path fill="#caddff" d="M 907.777344 303.683594 L 850.144531 303.683594 C 841.273438 303.683594 834.554688 295.671875 836.097656 286.9375 C 837.296875 280.121094 843.222656 275.148438 850.144531 275.148438 L 907.777344 275.148438 C 916.644531 275.148438 923.363281 283.160156 921.824219 291.894531 C 920.621094 298.710938 914.699219 303.683594 907.777344 303.683594 " fill-opacity="1" fill-rule="nonzero"/><path fill="#ffffff" d="M 858.957031 292.316406 C 859.078125 291.636719 858.742188 291.117188 857.953125 290.757812 L 856.300781 290.097656 C 854.382812 289.242188 853.46875 288.0625 853.566406 286.554688 C 853.605469 285.859375 853.835938 285.242188 854.253906 284.707031 C 854.671875 284.171875 855.257812 283.746094 856.007812 283.441406 C 856.761719 283.136719 857.578125 282.988281 858.449219 283 C 859.65625 283.023438 860.628906 283.382812 861.375 284.074219 C 862.117188 284.773438 862.480469 285.703125 862.472656 286.867188 L 859.96875 286.867188 C 860 286.300781 859.875 285.859375 859.59375 285.546875 C 859.316406 285.230469 858.886719 285.070312 858.304688 285.058594 C 857.734375 285.046875 857.234375 285.175781 856.816406 285.445312 C 856.390625 285.71875 856.140625 286.09375 856.0625 286.566406 C 855.953125 287.1875 856.367188 287.683594 857.308594 288.050781 L 858.445312 288.476562 L 859.09375 288.777344 C 860.777344 289.613281 861.566406 290.78125 861.460938 292.289062 C 861.40625 293.027344 861.171875 293.664062 860.753906 294.199219 C 860.332031 294.734375 859.761719 295.144531 859.039062 295.425781 C 858.316406 295.710938 857.519531 295.847656 856.652344 295.832031 C 855.765625 295.8125 854.976562 295.628906 854.289062 295.273438 C 853.59375 294.917969 853.070312 294.421875 852.710938 293.773438 C 852.375 293.171875 852.21875 292.488281 852.238281 291.71875 L 854.75 291.726562 C 854.671875 293.082031 855.335938 293.769531 856.746094 293.789062 C 857.359375 293.789062 857.863281 293.65625 858.253906 293.386719 C 858.648438 293.121094 858.882812 292.761719 858.957031 292.316406 " fill-opacity="1" fill-rule="nonzero"/><path fill="#ffffff" d="M 873.566406 285.257812 L 869.867188 285.257812 L 868.066406 295.652344 L 865.554688 295.652344 L 867.355469 285.257812 L 863.695312 285.257812 L 864.066406 283.171875 L 873.933594 283.171875 L 873.566406 285.257812 " fill-opacity="1" fill-rule="nonzero"/><path fill="#ffffff" d="M 876.179688 290.996094 L 879.1875 290.996094 L 878.484375 286.351562 Z M 879.503906 293.082031 L 875.152344 293.082031 L 873.867188 295.652344 L 871.097656 295.652344 L 877.765625 283.171875 L 880.085938 283.171875 L 882.460938 295.652344 L 879.898438 295.652344 L 879.503906 293.082031 " fill-opacity="1" fill-rule="nonzero"/><path fill="#ffffff" d="M 887.382812 289 L 889.246094 289.015625 C 889.910156 289.003906 890.457031 288.828125 890.890625 288.480469 C 891.320312 288.136719 891.578125 287.664062 891.664062 287.074219 C 891.742188 286.515625 891.65625 286.082031 891.398438 285.769531 C 891.140625 285.457031 890.734375 285.285156 890.171875 285.265625 L 888.03125 285.257812 Z M 889.058594 291.082031 L 887.019531 291.082031 L 886.222656 295.652344 L 883.710938 295.652344 L 885.878906 283.171875 L 890.011719 283.179688 C 891.390625 283.179688 892.457031 283.503906 893.203125 284.15625 C 893.945312 284.808594 894.277344 285.714844 894.191406 286.875 C 894.074219 288.589844 893.15625 289.78125 891.449219 290.449219 L 893.207031 295.515625 L 893.207031 295.652344 L 890.535156 295.652344 L 889.058594 291.082031 " fill-opacity="1" fill-rule="nonzero"/><path fill="#ffffff" d="M 905.316406 285.257812 L 901.613281 285.257812 L 899.8125 295.652344 L 897.304688 295.652344 L 899.101562 285.257812 L 895.441406 285.257812 L 895.8125 283.171875 L 905.683594 283.171875 L 905.316406 285.257812 " fill-opacity="1" fill-rule="nonzero"/><path fill="#caddff" d="M 896.007812 398.714844 L 838.371094 398.714844 C 829.507812 398.714844 822.789062 390.707031 824.324219 381.972656 C 825.53125 375.15625 831.453125 370.1875 838.371094 370.1875 L 896.007812 370.1875 C 904.878906 370.1875 911.597656 378.191406 910.054688 386.925781 C 908.855469 393.746094 902.933594 398.714844 896.007812 398.714844 " fill-opacity="1" fill-rule="nonzero"/><path fill="#5479f7" d="M 893.089844 395.796875 L 835.453125 395.796875 C 826.585938 395.796875 819.867188 387.789062 821.40625 379.054688 C 822.609375 372.234375 828.53125 367.261719 835.453125 367.261719 L 893.089844 367.261719 C 901.957031 367.261719 908.675781 375.269531 907.136719 384.007812 C 905.933594 390.824219 900.011719 395.796875 893.089844 395.796875 " fill-opacity="1" fill-rule="nonzero"/><path fill="#ffffff" d="M 844.269531 384.429688 C 844.386719 383.75 844.054688 383.230469 843.265625 382.871094 L 841.609375 382.207031 C 839.691406 381.355469 838.78125 380.171875 838.878906 378.671875 C 838.917969 377.972656 839.144531 377.355469 839.5625 376.820312 C 839.980469 376.28125 840.566406 375.863281 841.320312 375.554688 C 842.074219 375.25 842.890625 375.101562 843.765625 375.113281 C 844.96875 375.136719 845.941406 375.496094 846.6875 376.191406 C 847.429688 376.882812 847.792969 377.8125 847.78125 378.976562 L 845.28125 378.976562 C 845.308594 378.414062 845.183594 377.972656 844.90625 377.660156 C 844.628906 377.34375 844.199219 377.183594 843.617188 377.171875 C 843.046875 377.160156 842.546875 377.289062 842.128906 377.5625 C 841.703125 377.832031 841.453125 378.207031 841.371094 378.679688 C 841.265625 379.300781 841.679688 379.796875 842.621094 380.164062 L 843.753906 380.589844 L 844.40625 380.890625 C 846.089844 381.722656 846.878906 382.894531 846.769531 384.402344 C 846.71875 385.140625 846.484375 385.777344 846.0625 386.308594 C 845.644531 386.84375 845.070312 387.253906 844.347656 387.542969 C 843.625 387.828125 842.832031 387.960938 841.964844 387.945312 C 841.078125 387.925781 840.289062 387.738281 839.597656 387.386719 C 838.910156 387.035156 838.382812 386.53125 838.019531 385.886719 C 837.683594 385.285156 837.527344 384.601562 837.550781 383.828125 L 840.0625 383.835938 C 839.980469 385.195312 840.648438 385.882812 842.058594 385.902344 C 842.667969 385.902344 843.171875 385.769531 843.566406 385.5 C 843.960938 385.234375 844.195312 384.875 844.269531 384.429688 " fill-opacity="1" fill-rule="nonzero"/><path fill="#ffffff" d="M 858.878906 377.367188 L 855.175781 377.367188 L 853.375 387.761719 L 850.867188 387.761719 L 852.667969 377.367188 L 849.003906 377.367188 L 849.375 375.285156 L 859.246094 375.285156 L 858.878906 377.367188 " fill-opacity="1" fill-rule="nonzero"/><path fill="#ffffff" d="M 861.492188 383.109375 L 864.5 383.109375 L 863.796875 378.464844 Z M 864.816406 385.195312 L 860.464844 385.195312 L 859.175781 387.761719 L 856.410156 387.761719 L 863.078125 375.285156 L 865.398438 375.285156 L 867.773438 387.761719 L 865.210938 387.761719 L 864.816406 385.195312 " fill-opacity="1" fill-rule="nonzero"/><path fill="#ffffff" d="M 872.691406 381.113281 L 874.558594 381.132812 C 875.222656 381.117188 875.769531 380.941406 876.199219 380.59375 C 876.632812 380.25 876.890625 379.777344 876.976562 379.183594 C 877.054688 378.632812 876.96875 378.199219 876.710938 377.882812 C 876.453125 377.566406 876.042969 377.402344 875.484375 377.375 L 873.339844 377.367188 Z M 874.371094 383.195312 L 872.332031 383.195312 L 871.535156 387.761719 L 869.023438 387.761719 L 871.191406 375.285156 L 875.320312 375.296875 C 876.703125 375.296875 877.765625 375.621094 878.515625 376.269531 C 879.257812 376.921875 879.589844 377.828125 879.503906 378.988281 C 879.382812 380.703125 878.46875 381.894531 876.761719 382.5625 L 878.515625 387.625 L 878.515625 387.761719 L 875.847656 387.761719 L 874.371094 383.195312 " fill-opacity="1" fill-rule="nonzero"/><path fill="#ffffff" d="M 890.625 377.367188 L 886.925781 377.367188 L 885.125 387.761719 L 882.617188 387.761719 L 884.414062 377.367188 L 880.753906 377.367188 L 881.121094 375.285156 L 890.996094 375.285156 L 890.625 377.367188 " fill-opacity="1" fill-rule="nonzero"/><path fill="#000000" d="M 903.246094 391.414062 C 903.03125 391.414062 902.8125 391.332031 902.644531 391.167969 C 902.292969 390.835938 902.28125 390.277344 902.617188 389.929688 L 904.765625 387.6875 C 905.097656 387.339844 905.652344 387.328125 906 387.660156 C 906.351562 387.996094 906.363281 388.550781 906.027344 388.898438 L 903.878906 391.144531 C 903.707031 391.324219 903.476562 391.414062 903.246094 391.414062 " fill-opacity="1" fill-rule="nonzero"/><path fill="#000000" d="M 895.730469 399.261719 C 895.511719 399.261719 895.292969 399.179688 895.125 399.015625 C 894.773438 398.683594 894.765625 398.128906 895.097656 397.78125 L 897.246094 395.539062 C 897.582031 395.1875 898.132812 395.175781 898.484375 395.511719 C 898.832031 395.84375 898.84375 396.398438 898.511719 396.746094 L 896.363281 398.992188 C 896.191406 399.171875 895.960938 399.261719 895.730469 399.261719 " fill-opacity="1" fill-rule="nonzero"/><path fill="#000000" d="M 897.839844 391.53125 C 897.617188 391.53125 897.394531 391.449219 897.222656 391.28125 L 895.042969 389.136719 C 894.699219 388.796875 894.691406 388.242188 895.035156 387.894531 C 895.375 387.550781 895.925781 387.546875 896.269531 387.886719 L 898.453125 390.03125 C 898.796875 390.371094 898.800781 390.925781 898.464844 391.273438 C 898.289062 391.445312 898.0625 391.53125 897.839844 391.53125 " fill-opacity="1" fill-rule="nonzero"/><path fill="#000000" d="M 905.46875 399.042969 C 905.246094 399.042969 905.023438 398.960938 904.855469 398.792969 L 902.675781 396.648438 C 902.328125 396.308594 902.324219 395.753906 902.664062 395.410156 C 903.003906 395.0625 903.558594 395.058594 903.902344 395.398438 L 906.082031 397.546875 C 906.425781 397.882812 906.429688 398.441406 906.09375 398.785156 C 905.921875 398.960938 905.695312 399.042969 905.46875 399.042969 " fill-opacity="1" fill-rule="nonzero"/><path fill="#99b9ff" d="M 900.445312 349.738281 L 842.8125 349.738281 C 833.945312 349.738281 827.222656 341.730469 828.765625 332.996094 C 829.96875 326.179688 835.890625 321.207031 842.8125 321.207031 L 900.445312 321.207031 C 909.316406 321.207031 916.035156 329.214844 914.492188 337.949219 C 913.292969 344.769531 907.371094 349.738281 900.445312 349.738281 " fill-opacity="1" fill-rule="nonzero"/><path fill="#ffffff" d="M 851.625 338.375 C 851.746094 337.695312 851.410156 337.171875 850.625 336.816406 L 848.972656 336.152344 C 847.050781 335.296875 846.136719 334.117188 846.238281 332.617188 C 846.277344 331.917969 846.507812 331.296875 846.921875 330.761719 C 847.339844 330.226562 847.925781 329.804688 848.679688 329.5 C 849.433594 329.195312 850.246094 329.046875 851.121094 329.054688 C 852.324219 329.082031 853.300781 329.4375 854.042969 330.132812 C 854.785156 330.828125 855.148438 331.757812 855.140625 332.921875 L 852.636719 332.921875 C 852.667969 332.359375 852.542969 331.917969 852.265625 331.605469 C 851.988281 331.289062 851.558594 331.128906 850.976562 331.113281 C 850.402344 331.101562 849.90625 331.234375 849.484375 331.503906 C 849.0625 331.777344 848.808594 332.148438 848.730469 332.621094 C 848.621094 333.246094 849.039062 333.742188 849.980469 334.105469 L 851.113281 334.535156 L 851.765625 334.835938 C 853.449219 335.667969 854.238281 336.839844 854.128906 338.347656 C 854.078125 339.085938 853.84375 339.71875 853.421875 340.253906 C 853 340.789062 852.429688 341.199219 851.707031 341.484375 C 850.984375 341.769531 850.1875 341.902344 849.320312 341.886719 C 848.4375 341.871094 847.648438 341.683594 846.957031 341.328125 C 846.265625 340.976562 845.738281 340.476562 845.382812 339.832031 C 845.042969 339.230469 844.886719 338.542969 844.910156 337.773438 L 847.417969 337.78125 C 847.339844 339.136719 848.003906 339.824219 849.414062 339.847656 C 850.027344 339.847656 850.53125 339.714844 850.925781 339.445312 C 851.320312 339.175781 851.550781 338.820312 851.625 338.375 " fill-opacity="1" fill-rule="nonzero"/><path fill="#ffffff" d="M 866.234375 331.3125 L 862.535156 331.3125 L 860.738281 341.707031 L 858.222656 341.707031 L 860.023438 331.3125 L 856.363281 331.3125 L 856.734375 329.226562 L 866.605469 329.226562 L 866.234375 331.3125 " fill-opacity="1" fill-rule="nonzero"/><path fill="#ffffff" d="M 868.851562 337.050781 L 871.859375 337.050781 L 871.152344 332.410156 Z M 872.171875 339.136719 L 867.820312 339.136719 L 866.539062 341.707031 L 863.769531 341.707031 L 870.433594 329.226562 L 872.757812 329.226562 L 875.128906 341.707031 L 872.566406 341.707031 L 872.171875 339.136719 " fill-opacity="1" fill-rule="nonzero"/><path fill="#ffffff" d="M 880.050781 335.054688 L 881.917969 335.070312 C 882.582031 335.0625 883.125 334.882812 883.558594 334.539062 C 883.988281 334.191406 884.25 333.722656 884.332031 333.128906 C 884.414062 332.574219 884.324219 332.140625 884.070312 331.828125 C 883.8125 331.511719 883.402344 331.339844 882.84375 331.320312 L 880.703125 331.3125 Z M 881.726562 337.140625 L 879.691406 337.140625 L 878.890625 341.707031 L 876.382812 341.707031 L 878.546875 329.226562 L 882.683594 329.238281 C 884.0625 329.238281 885.128906 329.5625 885.871094 330.214844 C 886.617188 330.867188 886.945312 331.769531 886.863281 332.929688 C 886.742188 334.644531 885.828125 335.835938 884.121094 336.503906 L 885.878906 341.570312 L 885.878906 341.707031 L 883.203125 341.707031 L 881.726562 337.140625 " fill-opacity="1" fill-rule="nonzero"/><path fill="#ffffff" d="M 897.984375 331.3125 L 894.28125 331.3125 L 892.484375 341.707031 L 889.972656 341.707031 L 891.773438 331.3125 L 888.113281 331.3125 L 888.480469 329.226562 L 898.351562 329.226562 L 897.984375 331.3125 " fill-opacity="1" fill-rule="nonzero"/><path fill="#000000" d="M 905.972656 346.015625 C 905.753906 346.015625 905.535156 345.933594 905.367188 345.773438 C 905.019531 345.4375 905.007812 344.882812 905.339844 344.53125 L 907.488281 342.292969 C 907.820312 341.945312 908.378906 341.929688 908.726562 342.261719 C 909.078125 342.601562 909.085938 343.152344 908.753906 343.503906 L 906.605469 345.746094 C 906.433594 345.925781 906.203125 346.015625 905.972656 346.015625 " fill-opacity="1" fill-rule="nonzero"/><path fill="#000000" d="M 898.453125 353.863281 C 898.238281 353.863281 898.019531 353.785156 897.851562 353.621094 C 897.5 353.289062 897.488281 352.734375 897.820312 352.382812 L 899.972656 350.140625 C 900.304688 349.792969 900.863281 349.777344 901.207031 350.113281 C 901.558594 350.449219 901.570312 351 901.234375 351.351562 L 899.085938 353.59375 C 898.917969 353.773438 898.683594 353.863281 898.453125 353.863281 " fill-opacity="1" fill-rule="nonzero"/><path fill="#000000" d="M 900.5625 346.136719 C 900.34375 346.136719 900.121094 346.054688 899.949219 345.882812 L 897.769531 343.738281 C 897.425781 343.398438 897.417969 342.84375 897.757812 342.5 C 898.097656 342.15625 898.652344 342.148438 898.996094 342.488281 L 901.175781 344.636719 C 901.519531 344.976562 901.527344 345.527344 901.1875 345.875 C 901.015625 346.046875 900.789062 346.136719 900.5625 346.136719 " fill-opacity="1" fill-rule="nonzero"/><path fill="#000000" d="M 908.195312 353.648438 C 907.972656 353.648438 907.75 353.5625 907.582031 353.394531 L 905.398438 351.25 C 905.054688 350.910156 905.050781 350.355469 905.390625 350.011719 C 905.726562 349.667969 906.285156 349.660156 906.628906 350 L 908.808594 352.148438 C 909.152344 352.488281 909.15625 353.042969 908.816406 353.386719 C 908.644531 353.5625 908.421875 353.648438 908.195312 353.648438 " fill-opacity="1" fill-rule="nonzero"/><path fill="#caddff" d="M 893.714844 464.804688 C 887.972656 466.378906 882.039062 462.992188 880.46875 457.25 C 878.894531 451.503906 882.277344 445.574219 888.019531 444 C 893.765625 442.425781 899.695312 445.808594 901.269531 451.550781 C 902.84375 457.300781 899.460938 463.230469 893.714844 464.804688 Z M 912.320312 450.695312 L 911.21875 446.65625 L 906.648438 446.867188 C 906.222656 445.976562 905.734375 445.132812 905.175781 444.34375 L 907.597656 440.464844 L 904.621094 437.519531 L 900.761719 439.988281 C 899.960938 439.4375 899.113281 438.953125 898.234375 438.539062 L 898.390625 433.96875 L 894.335938 432.902344 L 892.234375 436.964844 C 891.273438 436.886719 890.296875 436.894531 889.316406 436.984375 L 887.164062 432.945312 L 883.125 434.050781 L 883.332031 438.625 C 882.441406 439.046875 881.601562 439.535156 880.8125 440.089844 L 876.9375 437.671875 L 873.988281 440.648438 L 876.453125 444.507812 C 875.902344 445.308594 875.421875 446.15625 875.011719 447.039062 L 870.4375 446.878906 L 869.375 450.933594 L 873.433594 453.035156 C 873.355469 453.996094 873.363281 454.972656 873.453125 455.957031 L 869.414062 458.105469 L 870.523438 462.148438 L 875.089844 461.9375 C 875.515625 462.828125 876.007812 463.671875 876.558594 464.460938 L 874.140625 468.335938 L 877.117188 471.285156 L 880.972656 468.820312 C 881.777344 469.367188 882.621094 469.851562 883.507812 470.261719 L 883.347656 474.835938 L 887.402344 475.898438 L 889.503906 471.839844 C 890.464844 471.917969 891.441406 471.910156 892.421875 471.820312 L 894.570312 475.859375 L 898.609375 474.753906 L 898.402344 470.183594 C 899.292969 469.757812 900.136719 469.265625 900.925781 468.714844 L 904.804688 471.132812 L 907.75 468.15625 L 905.28125 464.300781 C 905.832031 463.496094 906.316406 462.648438 906.726562 461.765625 L 911.300781 461.925781 L 912.363281 457.871094 L 908.304688 455.769531 C 908.378906 454.808594 908.371094 453.828125 908.285156 452.847656 L 912.320312 450.695312 " fill-opacity="1" fill-rule="nonzero"/><path fill="#caddff" d="M 917.019531 220.671875 L 916.207031 225.453125 L 914.78125 233.820312 C 914.574219 235.046875 914.105469 235.984375 913.386719 236.640625 C 912.667969 237.300781 911.738281 237.609375 910.605469 237.570312 C 909.03125 237.511719 908.148438 236.746094 907.96875 235.273438 C 907.910156 234.824219 907.917969 234.34375 907.980469 233.835938 L 909.300781 226.042969 L 910.210938 220.671875 L 906.203125 220.671875 L 905 227.757812 L 903.972656 233.820312 C 903.820312 235.175781 903.988281 236.394531 904.476562 237.46875 C 904.976562 238.539062 905.734375 239.371094 906.773438 239.960938 C 907.804688 240.542969 909.027344 240.851562 910.433594 240.878906 C 912.675781 240.917969 914.554688 240.296875 916.066406 239.019531 C 917.582031 237.742188 918.492188 236.007812 918.804688 233.804688 L 920.097656 226.195312 L 921.046875 220.671875 L 917.019531 220.671875 " fill-opacity="1" fill-rule="nonzero"/><path fill="#caddff" d="M 939.417969 220.671875 L 934.605469 220.671875 L 929.914062 227.511719 L 927.367188 220.671875 L 922.988281 220.671875 L 926.695312 229.621094 L 926.996094 230.355469 L 919.515625 240.59375 L 924.382812 240.59375 L 929.1875 233.640625 L 931.800781 240.59375 L 936.234375 240.59375 L 932.101562 230.742188 L 939.417969 220.671875 " fill-opacity="1" fill-rule="nonzero"/><path fill="#5479f7" d="M 920.097656 226.195312 L 918.804688 233.804688 C 918.492188 236.007812 917.582031 237.742188 916.066406 239.019531 C 914.554688 240.296875 912.675781 240.917969 910.433594 240.878906 C 909.027344 240.851562 907.804688 240.542969 906.773438 239.960938 C 905.734375 239.371094 904.976562 238.539062 904.476562 237.46875 C 903.988281 236.394531 903.820312 235.175781 903.972656 233.820312 L 905 227.757812 C 906.347656 227.027344 907.789062 226.445312 909.300781 226.042969 L 907.980469 233.835938 C 907.917969 234.34375 907.910156 234.824219 907.96875 235.273438 C 908.148438 236.746094 909.03125 237.511719 910.605469 237.570312 C 911.738281 237.609375 912.667969 237.300781 913.386719 236.640625 C 914.105469 235.984375 914.574219 235.046875 914.78125 233.820312 L 916.207031 225.453125 C 917.546875 225.570312 918.851562 225.820312 920.097656 226.195312 " fill-opacity="1" fill-rule="nonzero"/><path fill="#5479f7" d="M 933.707031 240.59375 L 931.800781 240.59375 L 929.1875 233.640625 L 924.382812 240.59375 L 919.515625 240.59375 L 926.996094 230.355469 L 926.695312 229.621094 C 930.144531 232.339844 932.664062 236.183594 933.707031 240.59375 " fill-opacity="1" fill-rule="nonzero"/><path fill="#000000" d="M 781.628906 514.625 L 493.585938 514.625 C 493.101562 514.625 492.707031 514.234375 492.707031 513.75 C 492.707031 513.265625 493.101562 512.875 493.585938 512.875 L 781.628906 512.875 C 782.113281 512.875 782.503906 513.265625 782.503906 513.75 C 782.503906 514.234375 782.113281 514.625 781.628906 514.625 " fill-opacity="1" fill-rule="nonzero"/><path fill="#ffffff" d="M 678.503906 616.601562 C 679.984375 615.101562 688.550781 588.449219 688.550781 588.449219 L 705.480469 600.53125 L 686.921875 625.476562 L 678.503906 616.601562 " fill-opacity="1" fill-rule="nonzero"/><path fill="#000000" d="M 679.597656 616.480469 L 686.84375 624.121094 L 704.246094 600.722656 L 689.019531 589.859375 C 686.855469 596.5625 681.578125 612.652344 679.597656 616.480469 Z M 686.921875 626.351562 C 686.683594 626.351562 686.453125 626.253906 686.289062 626.078125 L 677.871094 617.207031 C 677.546875 616.867188 677.550781 616.332031 677.871094 615.996094 C 678.953125 614.691406 684.484375 598.25 687.71875 588.183594 C 687.804688 587.914062 688.011719 587.707031 688.277344 587.621094 C 688.542969 587.53125 688.832031 587.574219 689.0625 587.738281 L 705.988281 599.816406 C 706.183594 599.957031 706.308594 600.160156 706.347656 600.394531 C 706.382812 600.628906 706.324219 600.863281 706.183594 601.054688 L 687.625 626 C 687.46875 626.207031 687.234375 626.335938 686.972656 626.347656 C 686.957031 626.351562 686.941406 626.351562 686.921875 626.351562 " fill-opacity="1" fill-rule="nonzero"/><path fill="#000000" d="M 709.007812 650.304688 L 697.753906 650.238281 C 690.304688 650.191406 683.375 646.410156 679.316406 640.164062 L 668.183594 622.539062 C 665.105469 617.667969 666.828125 611.210938 671.914062 608.507812 C 676.558594 606.039062 681.429688 603.632812 682.570312 603.742188 C 684.886719 603.960938 685.820312 614.921875 685.820312 614.921875 L 695.847656 615.308594 C 695.847656 615.308594 700.804688 635.914062 705.164062 638.257812 C 708.339844 639.960938 710.558594 642.464844 712.050781 644.753906 C 713.609375 647.148438 711.867188 650.320312 709.007812 650.304688 " fill-opacity="1" fill-rule="nonzero"/><path fill="#ffffff" d="M 707.878906 646.78125 C 707.835938 646.78125 707.792969 646.78125 707.746094 646.773438 L 692.347656 644.453125 C 688.621094 643.890625 685.375 641.714844 683.441406 638.480469 L 669.832031 615.746094 C 669.585938 615.332031 669.71875 614.792969 670.132812 614.542969 C 670.550781 614.296875 671.085938 614.433594 671.335938 614.847656 L 684.941406 637.582031 C 686.605469 640.363281 689.402344 642.238281 692.609375 642.71875 L 708.007812 645.039062 C 708.484375 645.113281 708.816406 645.558594 708.742188 646.039062 C 708.679688 646.472656 708.304688 646.78125 707.878906 646.78125 " fill-opacity="1" fill-rule="nonzero"/><path fill="#ffffff" d="M 688.871094 629.683594 C 688.488281 629.683594 688.132812 629.429688 688.027344 629.039062 C 687.898438 628.574219 688.175781 628.089844 688.640625 627.964844 L 697.21875 625.628906 C 697.6875 625.503906 698.167969 625.777344 698.296875 626.242188 C 698.421875 626.710938 698.148438 627.191406 697.679688 627.316406 L 689.101562 629.65625 C 689.023438 629.675781 688.945312 629.683594 688.871094 629.683594 " fill-opacity="1" fill-rule="nonzero"/><path fill="#ffffff" d="M 693.339844 634.09375 C 692.945312 634.09375 692.585938 633.824219 692.488281 633.421875 C 692.371094 632.957031 692.660156 632.480469 693.128906 632.363281 L 698.882812 630.960938 C 699.351562 630.84375 699.828125 631.128906 699.941406 631.601562 C 700.054688 632.070312 699.769531 632.542969 699.296875 632.660156 L 693.546875 634.066406 C 693.476562 634.082031 693.40625 634.09375 693.339844 634.09375 " fill-opacity="1" fill-rule="nonzero"/><path fill="#ffffff" d="M 736.265625 611.519531 L 755.917969 631.269531 L 766.335938 627.4375 L 748.222656 602.175781 L 736.265625 611.519531 " fill-opacity="1" fill-rule="nonzero"/><path fill="#000000" d="M 737.582031 611.601562 L 756.144531 630.25 L 764.957031 627.015625 L 748.042969 603.425781 Z M 755.921875 632.140625 C 755.691406 632.140625 755.464844 632.050781 755.296875 631.886719 L 735.644531 612.136719 C 735.46875 611.957031 735.375 611.714844 735.390625 611.460938 C 735.40625 611.214844 735.53125 610.980469 735.726562 610.828125 L 747.679688 601.484375 C 747.871094 601.335938 748.105469 601.273438 748.347656 601.304688 C 748.582031 601.339844 748.792969 601.46875 748.929688 601.664062 L 767.050781 626.929688 C 767.210938 627.152344 767.253906 627.4375 767.175781 627.695312 C 767.09375 627.957031 766.898438 628.167969 766.640625 628.261719 L 756.21875 632.089844 C 756.121094 632.125 756.019531 632.140625 755.921875 632.140625 " fill-opacity="1" fill-rule="nonzero"/><path fill="#000000" d="M 749.710938 628.175781 C 749.710938 628.175781 748.757812 636.582031 750.371094 644.003906 C 751.226562 647.960938 754.796875 650.742188 758.84375 650.742188 L 807.078125 650.742188 C 810.523438 650.742188 812.089844 646.441406 809.445312 644.222656 C 800.867188 637.039062 785.09375 626.066406 765.695312 622.84375 L 760.285156 630.417969 L 749.710938 628.175781 " fill-opacity="1" fill-rule="nonzero"/><path fill="#ffffff" d="M 804.785156 644.988281 L 754.796875 644.988281 C 754.308594 644.988281 753.917969 644.59375 753.917969 644.109375 C 753.917969 643.625 754.308594 643.234375 754.796875 643.234375 L 804.785156 643.234375 C 805.265625 643.234375 805.660156 643.625 805.660156 644.109375 C 805.660156 644.59375 805.265625 644.988281 804.785156 644.988281 " fill-opacity="1" fill-rule="nonzero"/><path fill="#ffffff" d="M 776.890625 636.105469 C 776.78125 636.105469 776.667969 636.085938 776.558594 636.039062 C 776.109375 635.855469 775.898438 635.34375 776.082031 634.894531 L 778.726562 628.476562 C 778.914062 628.03125 779.425781 627.816406 779.871094 628 C 780.320312 628.183594 780.53125 628.695312 780.347656 629.144531 L 777.699219 635.5625 C 777.558594 635.902344 777.234375 636.105469 776.890625 636.105469 " fill-opacity="1" fill-rule="nonzero"/><path fill="#ffffff" d="M 785.589844 637.792969 C 785.5 637.792969 785.40625 637.777344 785.316406 637.75 C 784.859375 637.597656 784.609375 637.101562 784.757812 636.640625 L 786.675781 630.851562 C 786.828125 630.390625 787.320312 630.144531 787.78125 630.292969 C 788.242188 630.449219 788.488281 630.941406 788.339844 631.402344 L 786.421875 637.191406 C 786.300781 637.558594 785.957031 637.792969 785.589844 637.792969 " fill-opacity="1" fill-rule="nonzero"/><path fill="#000000" d="M 632.234375 473.320312 C 632.234375 473.320312 722.054688 462.863281 748.765625 485.984375 C 775.472656 509.109375 706.601562 608.542969 706.601562 608.542969 L 684.824219 592.390625 L 705.480469 522.109375 L 622.449219 498.527344 L 632.234375 473.320312 " fill-opacity="1" fill-rule="nonzero"/><path fill="#000000" d="M 582.800781 519.085938 C 595.847656 523.226562 619.191406 528.582031 651.820312 528.136719 C 661.09375 528.007812 669.652344 533.132812 673.863281 541.394531 C 683.527344 560.347656 704.449219 594.480469 738.519531 616.601562 L 754.796875 607.832031 L 713.257812 514.324219 C 709.46875 505.78125 702.375 499.148438 693.605469 495.929688 L 611.285156 465.738281 C 611.285156 465.738281 585.757812 458.605469 573.246094 481.394531 C 571.011719 485.464844 566.859375 478.191406 565.871094 481.472656 C 562.480469 492.730469 571.59375 515.53125 582.800781 519.085938 " fill-opacity="1" fill-rule="nonzero"/><path fill="#ffffff" d="M 732.027344 557.453125 C 731.691406 557.453125 731.371094 557.261719 731.230469 556.933594 L 712.460938 514.675781 C 708.785156 506.402344 701.800781 499.871094 693.300781 496.753906 L 653.882812 482.292969 C 653.425781 482.128906 653.191406 481.628906 653.359375 481.171875 C 653.527344 480.714844 654.03125 480.484375 654.484375 480.648438 L 693.90625 495.109375 C 702.847656 498.386719 710.191406 505.261719 714.058594 513.964844 L 732.828125 556.222656 C 733.023438 556.664062 732.828125 557.183594 732.382812 557.378906 C 732.269531 557.429688 732.148438 557.453125 732.027344 557.453125 " fill-opacity="1" fill-rule="nonzero"/><path fill="#ffffff" d="M 710.113281 593.78125 C 709.882812 593.78125 709.65625 593.691406 709.484375 593.511719 C 705.703125 589.582031 701.984375 585.359375 698.429688 580.960938 C 698.121094 580.585938 698.183594 580.035156 698.558594 579.730469 C 698.933594 579.425781 699.488281 579.484375 699.789062 579.859375 C 703.316406 584.21875 707 588.402344 710.742188 592.296875 C 711.078125 592.648438 711.070312 593.199219 710.71875 593.535156 C 710.550781 593.703125 710.332031 593.78125 710.113281 593.78125 " fill-opacity="1" fill-rule="nonzero"/><path fill="#ffffff" d="M 699.109375 581.289062 C 698.855469 581.289062 698.597656 581.175781 698.429688 580.960938 C 696.683594 578.804688 694.945312 576.566406 693.253906 574.296875 C 692.964844 573.910156 693.046875 573.359375 693.433594 573.070312 C 693.824219 572.785156 694.371094 572.863281 694.660156 573.253906 C 696.332031 575.496094 698.058594 577.722656 699.789062 579.859375 C 700.09375 580.238281 700.035156 580.789062 699.660156 581.09375 C 699.496094 581.222656 699.300781 581.289062 699.109375 581.289062 " fill-opacity="1" fill-rule="nonzero"/><path fill="#ffffff" d="M 652.640625 400.757812 C 652.640625 400.757812 660.542969 472.503906 713.59375 477.195312 L 652.640625 478.066406 C 652.640625 478.066406 630.074219 432.328125 629.15625 414.519531 C 628.242188 396.710938 652.640625 400.757812 652.640625 400.757812 " fill-opacity="1" fill-rule="nonzero"/><path fill="#000000" d="M 647.019531 401.246094 C 642.765625 401.246094 637.007812 401.929688 633.414062 405.140625 C 630.964844 407.332031 629.828125 410.472656 630.03125 414.472656 C 630.878906 430.914062 650.746094 472.175781 653.183594 477.179688 L 704.175781 476.457031 C 686.480469 471.820312 672.171875 458.546875 662.429688 437.585938 C 654.800781 421.164062 652.324219 405 651.855469 401.53125 C 650.957031 401.421875 649.183594 401.246094 647.019531 401.246094 Z M 652.640625 478.9375 C 652.308594 478.9375 652.003906 478.75 651.855469 478.453125 C 650.933594 476.578125 629.199219 432.347656 628.285156 414.566406 C 628.046875 410.003906 629.382812 406.394531 632.253906 403.832031 C 639.109375 397.710938 652.230469 399.800781 652.785156 399.894531 C 653.171875 399.957031 653.46875 400.273438 653.511719 400.660156 C 653.53125 400.839844 655.578125 418.707031 664.035156 436.890625 C 675.316406 461.140625 692.015625 474.410156 713.667969 476.324219 C 714.132812 476.367188 714.484375 476.765625 714.464844 477.230469 C 714.449219 477.699219 714.070312 478.066406 713.605469 478.074219 L 652.65625 478.9375 C 652.648438 478.9375 652.644531 478.9375 652.640625 478.9375 " fill-opacity="1" fill-rule="nonzero"/><path fill="#5479f7" d="M 577.140625 355.160156 C 587.429688 352.742188 591.722656 352.710938 629.132812 354.066406 C 638.277344 354.394531 649.152344 365.871094 650.226562 374.957031 C 647.320312 383.675781 633.910156 426.710938 657.324219 460.332031 C 660.644531 465.105469 665.160156 470.335938 671.363281 475.355469 C 667.878906 478.171875 662.464844 481.839844 655.195312 483.996094 C 643.125 487.582031 637.058594 483.707031 627.332031 483.996094 C 601.601562 484.765625 592.167969 513.421875 575.550781 509.824219 C 571.113281 508.863281 565.230469 505.402344 559.714844 493.789062 C 556.589844 484.160156 553.8125 472.855469 552.261719 460.078125 C 548.0625 425.441406 554.933594 396.601562 561.070312 378.503906 C 562.890625 372.792969 565.007812 358.011719 577.140625 355.160156 " fill-opacity="1" fill-rule="nonzero"/><path fill="#5479f7" d="M 659.613281 408.796875 C 659.613281 408.796875 653.566406 360.285156 636.128906 356.144531 L 640.132812 419.957031 L 659.613281 408.796875 " fill-opacity="1" fill-rule="nonzero"/><path fill="#ffffff" d="M 545.445312 407.035156 C 545.320312 412.800781 545.347656 418.066406 545.585938 422.347656 C 547.113281 449.917969 550.839844 478.945312 553.117188 502.953125 C 553.601562 508.035156 545.53125 501.226562 535.128906 501.277344 C 532.136719 501.292969 529.25 502.367188 526.925781 504.253906 C 522.695312 507.679688 515.324219 513.75 516.183594 513.75 L 554.527344 513.75 C 560.582031 513.75 565.566406 508.996094 565.859375 502.945312 L 570.996094 396.019531 L 545.445312 407.035156 " fill-opacity="1" fill-rule="nonzero"/><path fill="#000000" d="M 518.039062 512.875 L 554.527344 512.875 C 560.121094 512.875 564.714844 508.492188 564.984375 502.90625 L 570.054688 397.378906 L 546.308594 407.617188 C 546.191406 413.417969 546.242188 418.351562 546.460938 422.296875 C 547.515625 441.339844 549.578125 460.683594 551.574219 479.394531 C 552.453125 487.652344 553.285156 495.457031 553.988281 502.871094 C 554.027344 503.285156 554.148438 504.535156 553.246094 505.253906 C 552.0625 506.199219 550.074219 505.542969 547.0625 504.546875 C 543.972656 503.527344 539.71875 502.132812 535.136719 502.152344 C 532.390625 502.167969 529.671875 503.152344 527.476562 504.933594 C 522.464844 508.992188 519.507812 511.519531 518.039062 512.875 Z M 554.527344 514.625 L 516.183594 514.625 C 515.777344 514.625 515.425781 514.382812 515.292969 514.011719 C 515.027344 513.253906 514.890625 512.875 526.375 503.570312 C 528.875 501.542969 531.984375 500.417969 535.125 500.402344 C 540.027344 500.390625 544.410156 501.828125 547.609375 502.882812 C 549.4375 503.488281 551.710938 504.238281 552.152344 503.886719 C 552.210938 503.839844 552.300781 503.605469 552.246094 503.035156 C 551.542969 495.632812 550.710938 487.835938 549.832031 479.578125 C 547.835938 460.847656 545.769531 441.484375 544.710938 422.394531 C 544.484375 418.277344 544.4375 413.105469 544.570312 407.015625 L 544.582031 406.453125 L 571.941406 394.660156 L 566.734375 502.988281 C 566.417969 509.515625 561.058594 514.625 554.527344 514.625 " fill-opacity="1" fill-rule="nonzero"/><path fill="#ffffff" d="M 571.007812 395.847656 C 563.042969 399.21875 553.691406 403.191406 545.453125 406.730469 C 545.449219 406.832031 545.449219 406.929688 545.445312 407.035156 L 570.996094 396.019531 L 571.007812 395.847656 " fill-opacity="1" fill-rule="nonzero"/><path fill="#000000" d="M 544.539062 408.378906 L 544.589844 406.144531 L 545.105469 405.925781 C 553.949219 402.128906 563.886719 397.910156 570.664062 395.042969 L 571.949219 394.5 L 571.847656 396.609375 L 544.539062 408.378906 " fill-opacity="1" fill-rule="nonzero"/><path fill="#5479f7" d="M 540.984375 417.6875 C 540.984375 417.6875 542.6875 388.871094 545.175781 377.738281 C 550.414062 354.3125 580.769531 354.066406 580.769531 354.066406 L 575.46875 413.683594 L 540.984375 417.6875 " fill-opacity="1" fill-rule="nonzero"/><path fill="#ffffff" d="M 606.90625 354.085938 L 607.9375 339.511719 C 608.632812 339.460938 609.113281 339.433594 609.253906 339.429688 C 613.320312 339.386719 614.640625 338.066406 614.992188 334.730469 C 615.210938 332.640625 615.289062 329.535156 614.269531 325.652344 C 614.160156 325.242188 614.183594 324.800781 614.355469 324.402344 L 615.050781 322.777344 C 615.191406 322.242188 615.007812 321.667969 614.582031 321.316406 L 614.210938 321.011719 C 612.882812 319.925781 611.78125 318.585938 610.898438 317.105469 C 610.082031 315.738281 608.703125 313.179688 607.753906 312.726562 C 605.082031 311.449219 594.242188 305.78125 588.183594 315.6875 C 583.460938 323.414062 591.179688 334.050781 593.984375 337.535156 C 594.660156 338.375 589.402344 354.894531 589.402344 354.894531 L 582.605469 356.535156 C 582.605469 356.535156 587.851562 365.851562 603.785156 362 C 615.128906 359.253906 613.328125 355.035156 613.328125 355.035156 L 606.90625 354.085938 " fill-opacity="1" fill-rule="nonzero"/><path fill="#000000" d="M 584.078125 357.082031 C 585.902344 359.261719 591.484375 364.074219 603.578125 361.148438 C 609.976562 359.601562 611.800781 357.640625 612.316406 356.609375 C 612.476562 356.289062 612.535156 356.011719 612.550781 355.804688 L 606.78125 354.953125 C 606.328125 354.886719 606.003906 354.484375 606.035156 354.027344 L 607.0625 339.449219 C 607.09375 339.015625 607.441406 338.667969 607.875 338.640625 C 608.898438 338.566406 609.148438 338.554688 609.246094 338.554688 C 613.070312 338.511719 613.84375 337.3125 614.121094 334.636719 C 614.429688 331.703125 614.199219 328.839844 613.425781 325.875 C 613.265625 325.269531 613.308594 324.625 613.546875 324.0625 L 614.214844 322.503906 C 614.246094 322.316406 614.175781 322.117188 614.023438 321.992188 L 613.65625 321.691406 C 612.300781 320.578125 611.117188 319.183594 610.144531 317.550781 C 610.03125 317.363281 609.90625 317.148438 609.773438 316.921875 C 609.230469 315.984375 607.949219 313.789062 607.375 313.515625 L 607.082031 313.375 C 603.941406 311.855469 594.375 307.234375 588.929688 316.144531 C 584.628906 323.179688 591.507812 333.0625 594.664062 336.988281 C 595.003906 337.40625 595.636719 338.195312 590.238281 355.160156 C 590.144531 355.449219 589.90625 355.671875 589.609375 355.742188 Z M 596.4375 363.820312 C 585.847656 363.820312 582.03125 357.300781 581.84375 356.964844 C 581.707031 356.726562 581.691406 356.4375 581.800781 356.1875 C 581.910156 355.933594 582.132812 355.75 582.398438 355.6875 L 588.71875 354.15625 C 590.953125 347.097656 593.148438 339.371094 593.171875 337.921875 C 589.726562 333.601562 582.617188 323.113281 587.4375 315.230469 C 591.597656 308.421875 598.464844 307.269531 607.84375 311.796875 L 608.128906 311.9375 C 609.113281 312.402344 610.097656 314 611.285156 316.039062 C 611.417969 316.261719 611.539062 316.46875 611.648438 316.65625 C 612.519531 318.117188 613.566406 319.351562 614.765625 320.335938 L 615.136719 320.640625 C 615.832031 321.207031 616.128906 322.136719 615.894531 323.003906 C 615.882812 323.042969 615.871094 323.082031 615.855469 323.121094 L 615.160156 324.75 C 615.070312 324.957031 615.054688 325.199219 615.117188 325.429688 C 615.949219 328.601562 616.195312 331.671875 615.863281 334.820312 C 615.453125 338.71875 613.605469 340.257812 609.265625 340.304688 C 609.191406 340.308594 609.011719 340.316406 608.757812 340.332031 L 607.839844 353.339844 L 613.457031 354.167969 C 613.757812 354.210938 614.011719 354.410156 614.132812 354.691406 C 614.183594 354.8125 614.621094 355.921875 613.882812 357.394531 C 612.722656 359.707031 609.394531 361.542969 603.988281 362.851562 C 601.15625 363.535156 598.648438 363.820312 596.4375 363.820312 " fill-opacity="1" fill-rule="nonzero"/><path fill="#000000" d="M 591.523438 303.085938 C 594.460938 302.453125 597.835938 302.90625 599.261719 302.382812 C 601.5625 301.539062 601.625 298.78125 604.804688 298.007812 C 608.65625 297.070312 610.265625 298.714844 611.769531 301.007812 C 612.023438 301.390625 612.242188 301.816406 612.421875 302.300781 C 614.84375 308.796875 611.789062 311.960938 610.425781 312.992188 C 610.425781 312.992188 601.761719 317.46875 600.277344 318.75 C 598.890625 319.945312 597.292969 322.777344 598.296875 326.847656 C 598.429688 327.371094 598.199219 327.921875 597.753906 328.1875 C 597.234375 328.5 596.558594 328.351562 596.203125 327.832031 C 595.074219 326.199219 592.613281 323.039062 590.863281 323.789062 C 588.664062 324.730469 589.351562 331.324219 594.203125 332.085938 C 595.691406 332.320312 596.90625 333.84375 596.757812 335.402344 C 596.660156 336.421875 595.699219 337.65625 594.273438 337.984375 C 593.402344 338.1875 592.542969 337.832031 591.777344 337.34375 C 588.609375 335.320312 579.675781 326.746094 578.566406 319.058594 C 577.230469 309.796875 587.613281 303.929688 591.523438 303.085938 " fill-opacity="1" fill-rule="nonzero"/><path fill="#000000" d="M 609.03125 340.175781 C 609.019531 340.175781 609.011719 340.175781 609 340.175781 C 608.851562 340.171875 605.3125 340.019531 602.757812 337.851562 C 602.417969 337.558594 602.375 337.046875 602.664062 336.703125 C 602.957031 336.359375 603.46875 336.320312 603.8125 336.609375 C 605.925781 338.40625 609.03125 338.550781 609.0625 338.550781 C 609.511719 338.570312 609.859375 338.949219 609.84375 339.394531 C 609.824219 339.832031 609.464844 340.175781 609.03125 340.175781 " fill-opacity="1" fill-rule="nonzero"/><path fill="#caddff" d="M 755.175781 484.554688 L 632.214844 484.554688 C 630.03125 484.554688 628.265625 482.785156 628.265625 480.605469 L 628.265625 477.527344 L 759.125 477.527344 L 759.125 480.605469 C 759.125 482.785156 757.355469 484.554688 755.175781 484.554688 " fill-opacity="1" fill-rule="nonzero"/><path fill="#000000" d="M 629.140625 478.402344 L 629.140625 480.605469 C 629.140625 482.300781 630.519531 483.679688 632.214844 483.679688 L 755.175781 483.679688 C 756.871094 483.679688 758.246094 482.300781 758.246094 480.605469 L 758.246094 478.402344 Z M 755.175781 485.429688 L 632.214844 485.429688 C 629.554688 485.429688 627.390625 483.265625 627.390625 480.605469 L 627.390625 477.527344 C 627.390625 477.042969 627.78125 476.652344 628.265625 476.652344 L 759.125 476.652344 C 759.609375 476.652344 760 477.042969 760 477.527344 L 760 480.605469 C 760 483.265625 757.835938 485.429688 755.175781 485.429688 " fill-opacity="1" fill-rule="nonzero"/><path fill="#caddff" d="M 759.125 477.652344 L 684.246094 477.652344 L 708.039062 407.617188 C 709.460938 405.425781 711.945312 404.09375 714.609375 404.09375 L 777.90625 404.09375 C 780.773438 404.09375 782.625 406.882812 781.6875 409.34375 C 781.316406 410.320312 780.914062 411.289062 780.585938 412.28125 L 759.125 477.652344 " fill-opacity="1" fill-rule="nonzero"/><path fill="#000000" d="M 685.472656 476.777344 L 758.492188 476.777344 L 779.753906 412.011719 C 779.996094 411.273438 780.277344 410.546875 780.550781 409.847656 C 780.660156 409.578125 780.765625 409.304688 780.871094 409.03125 C 781.207031 408.140625 781.078125 407.128906 780.523438 406.320312 C 779.933594 405.464844 778.976562 404.972656 777.90625 404.972656 L 714.609375 404.972656 C 712.261719 404.972656 710.109375 406.101562 708.832031 408.003906 Z M 759.125 478.527344 L 684.246094 478.527344 C 683.96875 478.527344 683.703125 478.394531 683.539062 478.164062 C 683.371094 477.933594 683.328125 477.636719 683.417969 477.371094 L 707.207031 407.332031 C 707.234375 407.265625 707.265625 407.199219 707.304688 407.136719 C 708.898438 404.6875 711.628906 403.21875 714.609375 403.21875 L 777.90625 403.21875 C 779.5625 403.21875 781.042969 403.988281 781.964844 405.328125 C 782.847656 406.609375 783.050781 408.226562 782.503906 409.65625 C 782.398438 409.933594 782.292969 410.210938 782.183594 410.488281 C 781.917969 411.164062 781.644531 411.863281 781.417969 412.558594 L 759.957031 477.925781 C 759.839844 478.285156 759.5 478.527344 759.125 478.527344 " fill-opacity="1" fill-rule="nonzero"/><path fill="#ffffff" d="M 731.339844 439.929688 C 730.445312 442.890625 731.808594 445.921875 734.382812 446.695312 C 736.957031 447.476562 739.769531 445.703125 740.660156 442.742188 C 741.550781 439.78125 740.1875 436.75 737.617188 435.976562 C 735.039062 435.195312 732.230469 436.96875 731.339844 439.929688 " fill-opacity="1" fill-rule="nonzero"/><path fill="#ffffff" d="M 740.035156 478.527344 L 698.78125 478.527344 C 698.296875 478.527344 697.90625 478.136719 697.90625 477.652344 C 697.90625 477.171875 698.296875 476.777344 698.78125 476.777344 L 740.035156 476.777344 C 740.515625 476.777344 740.910156 477.171875 740.910156 477.652344 C 740.910156 478.136719 740.515625 478.527344 740.035156 478.527344 " fill-opacity="1" fill-rule="nonzero"/><path fill="#ffffff" d="M 761.039062 478.527344 L 753.726562 478.527344 C 753.242188 478.527344 752.847656 478.136719 752.847656 477.652344 C 752.847656 477.171875 753.242188 476.777344 753.726562 476.777344 L 761.039062 476.777344 C 761.523438 476.777344 761.914062 477.171875 761.914062 477.652344 C 761.914062 478.136719 761.523438 478.527344 761.039062 478.527344 " fill-opacity="1" fill-rule="nonzero"/><path fill="#ffffff" d="M 868.34375 620.96875 C 868.34375 620.96875 852.773438 563.019531 876.59375 514.992188 C 877.390625 513.382812 883.589844 516.683594 884.476562 515.101562 C 885.609375 513.082031 881.457031 506.1875 882.746094 504.21875 C 887.535156 496.890625 893.417969 489.945312 900.625 483.652344 C 900.625 483.652344 907.921875 501.324219 908.28125 526.558594 C 908.304688 528.460938 900.476562 532.070312 900.421875 534.054688 C 900.367188 535.929688 908.085938 536.175781 907.945312 538.117188 C 906.117188 563.207031 896.628906 593.464844 868.34375 620.96875 " fill-opacity="1" fill-rule="nonzero"/><path fill="#99b9ff" d="M 858.246094 554.328125 C 857.460938 552.570312 849.957031 556.707031 849.136719 555.023438 C 848.328125 553.359375 853.527344 543.710938 852.691406 542.121094 C 836.261719 510.957031 815.351562 493.8125 815.351562 493.8125 C 810.339844 507.113281 807.765625 520.324219 807.03125 533.191406 C 806.914062 535.25 815.207031 540.492188 815.179688 542.527344 C 815.148438 544.761719 807.234375 545.871094 807.308594 548.082031 C 808.429688 580.730469 820.140625 608.578125 832.824219 631.101562 C 846.859375 629.289062 859.933594 626.042969 872.058594 621.546875 C 872.4375 594.589844 866.773438 573.351562 858.246094 554.328125 " fill-opacity="1" fill-rule="nonzero"/><path fill="#caddff" d="M 851.15625 616.445312 C 847.117188 606.394531 843.285156 596.101562 839.769531 585.84375 C 839.613281 585.386719 839.855469 584.890625 840.3125 584.734375 C 840.773438 584.574219 841.269531 584.820312 841.425781 585.277344 C 844.929688 595.503906 848.75 605.769531 852.777344 615.792969 L 851.15625 616.445312 " fill-opacity="1" fill-rule="nonzero"/><path fill="#caddff" d="M 835.761719 571.75 C 835.390625 571.75 835.046875 571.511719 834.929688 571.136719 C 829.429688 553.703125 824.636719 535.8125 820.683594 517.96875 L 818.878906 509.808594 C 818.773438 509.335938 819.074219 508.867188 819.542969 508.765625 C 820.015625 508.660156 820.484375 508.957031 820.585938 509.429688 L 822.394531 517.589844 C 826.339844 535.386719 831.117188 553.226562 836.597656 570.609375 C 836.746094 571.070312 836.488281 571.5625 836.027344 571.707031 C 835.941406 571.734375 835.851562 571.75 835.761719 571.75 " fill-opacity="1" fill-rule="nonzero"/><path fill="#99b9ff" d="M 866.210938 623.5625 C 866.210938 623.5625 867.546875 565.46875 926.339844 557.75 C 926.339844 557.75 920.523438 607.46875 866.210938 623.5625 " fill-opacity="1" fill-rule="nonzero"/><path fill="#caddff" d="M 879.296875 611.164062 C 879.144531 611.164062 878.988281 611.121094 878.84375 611.035156 C 878.433594 610.785156 878.300781 610.246094 878.550781 609.832031 C 888.644531 593.257812 914.066406 569.683594 914.320312 569.445312 C 914.675781 569.117188 915.230469 569.140625 915.558594 569.496094 C 915.886719 569.847656 915.863281 570.402344 915.511719 570.730469 C 915.257812 570.96875 890.015625 594.375 880.046875 610.742188 C 879.882812 611.015625 879.59375 611.164062 879.296875 611.164062 " fill-opacity="1" fill-rule="nonzero"/><path fill="#caddff" d="M 610.316406 620.097656 C 610.316406 620.097656 601.851562 602.242188 579.074219 588.160156 C 577.832031 587.390625 574.5 592.914062 573.179688 592.179688 C 571.480469 591.230469 570.152344 582.921875 568.324219 582.042969 C 552.972656 574.664062 533.074219 570.03125 508.085938 573.058594 C 508.085938 573.058594 512.074219 580.097656 520.328125 588.785156 C 521.28125 589.789062 527.992188 588.652344 529.058594 589.691406 C 530.078125 590.683594 525.445312 593.847656 526.566406 594.855469 C 542.933594 609.566406 570.460938 625.40625 610.316406 620.097656 " fill-opacity="1" fill-rule="nonzero"/><path fill="#99b9ff" d="M 633.875 628.964844 C 633.875 628.964844 632.296875 575.730469 577.527344 544.148438 C 576.171875 543.363281 572.097656 548.976562 570.679688 548.226562 C 569.261719 547.476562 567.25 537.394531 565.769531 536.675781 C 558.675781 533.238281 550.851562 530.199219 542.21875 527.695312 C 542.21875 527.695312 551.152344 606.011719 633.875 628.964844 " fill-opacity="1" fill-rule="nonzero"/><path fill="#caddff" d="M 621.800781 616.289062 C 621.566406 616.289062 621.339844 616.199219 621.167969 616.019531 C 613.390625 607.898438 606.238281 600.597656 599.914062 594.316406 C 599.570312 593.972656 599.570312 593.421875 599.910156 593.078125 C 600.25 592.734375 600.804688 592.730469 601.148438 593.074219 C 607.484375 599.363281 614.644531 606.675781 622.429688 614.808594 C 622.765625 615.15625 622.753906 615.710938 622.402344 616.046875 C 622.234375 616.207031 622.015625 616.289062 621.800781 616.289062 " fill-opacity="1" fill-rule="nonzero"/><path fill="#caddff" d="M 587.4375 581.9375 C 587.222656 581.9375 587.007812 581.863281 586.839844 581.707031 C 586.617188 581.5 564.472656 560.785156 558.023438 547.8125 C 557.808594 547.378906 557.984375 546.851562 558.417969 546.636719 C 558.851562 546.421875 559.375 546.597656 559.589844 547.03125 C 565.902344 559.726562 587.8125 580.21875 588.03125 580.417969 C 588.386719 580.75 588.40625 581.304688 588.078125 581.660156 C 587.90625 581.84375 587.671875 581.9375 587.4375 581.9375 " fill-opacity="1" fill-rule="nonzero"/><path fill="#ffffff" d="M 667.96875 184.011719 C 667.59375 184.011719 667.246094 183.769531 667.132812 183.390625 C 666.992188 182.929688 667.253906 182.441406 667.714844 182.300781 C 667.890625 182.25 685.503906 176.964844 707.058594 174.34375 C 727.023438 171.917969 754.5625 171.34375 772.382812 182.394531 C 772.796875 182.652344 772.921875 183.1875 772.667969 183.601562 C 772.414062 184.011719 771.875 184.140625 771.464844 183.882812 C 738.109375 163.199219 668.917969 183.765625 668.222656 183.976562 C 668.136719 184.003906 668.054688 184.011719 667.96875 184.011719 " fill-opacity="1" fill-rule="nonzero"/><path fill="#ffffff" d="M 698.066406 185.390625 C 697.644531 185.390625 697.273438 185.085938 697.203125 184.652344 C 697.128906 184.175781 697.449219 183.726562 697.929688 183.648438 C 720.121094 180.09375 738.898438 179.949219 753.75 183.210938 C 754.222656 183.316406 754.523438 183.78125 754.417969 184.253906 C 754.316406 184.726562 753.847656 185.023438 753.375 184.921875 C 738.949219 181.753906 719.871094 181.910156 698.207031 185.378906 C 698.160156 185.386719 698.113281 185.390625 698.066406 185.390625 " fill-opacity="1" fill-rule="nonzero"/><path fill="#ffffff" d="M 952.816406 510.492188 C 952.6875 510.492188 952.558594 510.464844 952.4375 510.40625 C 952 510.195312 951.820312 509.671875 952.027344 509.234375 C 969.644531 472.902344 962.960938 436.320312 962.890625 435.953125 C 962.800781 435.480469 963.113281 435.023438 963.589844 434.933594 C 964.066406 434.839844 964.523438 435.152344 964.613281 435.628906 C 964.683594 436 971.46875 473.148438 953.605469 510 C 953.453125 510.3125 953.140625 510.492188 952.816406 510.492188 " fill-opacity="1" fill-rule="nonzero"/><path fill="#ffffff" d="M 961.578125 422.300781 C 960.117188 422.300781 958.929688 423.488281 958.929688 424.949219 C 958.929688 426.410156 960.117188 427.597656 961.578125 427.597656 C 963.039062 427.597656 964.226562 426.410156 964.226562 424.949219 C 964.226562 423.488281 963.039062 422.300781 961.578125 422.300781 Z M 961.578125 429.351562 C 959.152344 429.351562 957.175781 427.375 957.175781 424.949219 C 957.175781 422.523438 959.152344 420.550781 961.578125 420.550781 C 964 420.550781 965.976562 422.523438 965.976562 424.949219 C 965.976562 427.375 964 429.351562 961.578125 429.351562 " fill-opacity="1" fill-rule="nonzero"/></svg>