<svg xmlns="http://www.w3.org/2000/svg" xmlns:xlink="http://www.w3.org/1999/xlink" width="1920" zoomAndPan="magnify" viewBox="0 0 1440 809.999993" height="1080" preserveAspectRatio="xMidYMid meet" version="1.0"><defs><clipPath id="897ddb9909"><path d="M 558.542969 376.558594 L 707.355469 376.558594 L 707.355469 595.089844 L 558.542969 595.089844 Z M 558.542969 376.558594 " clip-rule="nonzero"/></clipPath><clipPath id="375749ad60"><path d="M 466.273438 212 L 697 212 L 697 348 L 466.273438 348 Z M 466.273438 212 " clip-rule="nonzero"/></clipPath><clipPath id="cc8f895455"><path d="M 487.121094 438.761719 L 798.324219 438.761719 L 798.324219 595.089844 L 487.121094 595.089844 Z M 487.121094 438.761719 " clip-rule="nonzero"/></clipPath><clipPath id="afd229c728"><path d="M 574.019531 475.433594 L 754.875 475.433594 L 754.875 595.089844 L 574.019531 595.089844 Z M 574.019531 475.433594 " clip-rule="nonzero"/></clipPath></defs><path fill="#caddff" d="M 757.933594 102.289062 C 643.007812 81.007812 555.464844 160.582031 548.972656 166.675781 C 538.6875 176.335938 466.792969 240.765625 466.441406 354.675781 C 465.800781 562.449219 539.203125 570.554688 589.488281 584.332031 C 626.546875 594.488281 939.203125 647.996094 962.054688 389.097656 C 974.03125 253.417969 881.484375 125.171875 757.933594 102.289062 " fill-opacity="1" fill-rule="nonzero"/><path fill="#99b9ff" d="M 846.988281 412.929688 C 837.890625 406.421875 828.46875 400.359375 818.898438 394.574219 C 799.46875 382.835938 779.328125 372.339844 759.042969 362.171875 C 748.375 356.820312 737.421875 351.980469 726.578125 347.003906 C 715.664062 341.996094 704.734375 337.03125 693.796875 332.074219 C 683.808594 327.542969 673.816406 323.007812 663.835938 318.449219 C 630.601562 247.890625 593.914062 167.898438 598.414062 167.898438 L 938.847656 158.238281 C 946.898438 158.238281 953.449219 164.789062 953.449219 172.847656 L 953.449219 409.3125 C 953.449219 417.363281 946.898438 423.917969 938.847656 423.917969 L 862.710938 423.917969 C 857.558594 420.136719 852.183594 416.640625 846.988281 412.929688 " fill-opacity="1" fill-rule="nonzero"/><path fill="#000000" d="M 598.46875 168.792969 L 598.4375 168.796875 C 598.445312 168.792969 598.457031 168.792969 598.46875 168.792969 Z M 863.003906 423.019531 L 938.847656 423.019531 C 946.402344 423.019531 952.550781 416.871094 952.550781 409.3125 L 952.550781 172.847656 C 952.550781 165.285156 946.402344 159.136719 938.847656 159.136719 L 598.914062 168.78125 C 598.902344 172.570312 608.023438 197.835938 664.511719 317.769531 C 674.585938 322.371094 684.984375 327.089844 694.167969 331.253906 C 705.777344 336.519531 716.253906 341.277344 726.953125 346.1875 C 729.402344 347.3125 731.851562 348.425781 734.308594 349.542969 C 742.597656 353.316406 751.171875 357.21875 759.449219 361.367188 C 777.554688 370.445312 798.835938 381.398438 819.363281 393.804688 C 829.898438 400.171875 839.105469 406.1875 847.511719 412.195312 C 849.773438 413.8125 852.113281 415.417969 854.375 416.96875 C 857.222656 418.925781 860.164062 420.941406 863.003906 423.019531 Z M 938.847656 424.816406 L 862.414062 424.816406 L 862.179688 424.644531 C 859.289062 422.523438 856.273438 420.457031 853.359375 418.457031 C 851.089844 416.898438 848.746094 415.285156 846.464844 413.660156 C 838.097656 407.675781 828.925781 401.6875 818.433594 395.34375 C 797.957031 382.972656 776.71875 372.039062 758.644531 362.976562 C 750.398438 358.84375 741.839844 354.949219 733.5625 351.183594 C 731.105469 350.0625 728.652344 348.945312 726.199219 347.820312 C 715.503906 342.914062 705.03125 338.15625 693.429688 332.894531 C 684.148438 328.683594 673.632812 323.914062 663.460938 319.269531 L 663.164062 319.132812 L 663.023438 318.832031 C 594.167969 172.648438 596.511719 168.953125 597.394531 167.558594 C 597.621094 167.203125 597.992188 166.996094 598.414062 166.996094 L 938.820312 157.339844 C 947.394531 157.339844 954.347656 164.296875 954.347656 172.847656 L 954.347656 409.3125 C 954.347656 417.863281 947.394531 424.816406 938.847656 424.816406 " fill-opacity="1" fill-rule="nonzero"/><path fill="#ffffff" d="M 587.101562 159.0625 L 931.898438 159.0625 C 939.507812 159.0625 945.679688 165.234375 945.679688 172.847656 L 945.679688 409.3125 C 945.679688 416.921875 939.507812 423.09375 931.898438 423.09375 L 587.101562 423.09375 C 579.488281 423.09375 573.320312 416.921875 573.320312 409.3125 L 573.320312 172.847656 C 573.320312 165.234375 579.488281 159.0625 587.101562 159.0625 " fill-opacity="1" fill-rule="nonzero"/><path fill="#000000" d="M 587.101562 159.964844 C 579.996094 159.964844 574.21875 165.742188 574.21875 172.847656 L 574.21875 409.3125 C 574.21875 416.414062 579.996094 422.195312 587.101562 422.195312 L 931.898438 422.195312 C 939 422.195312 944.777344 416.414062 944.777344 409.3125 L 944.777344 172.847656 C 944.777344 165.742188 939 159.964844 931.898438 159.964844 Z M 931.898438 423.992188 L 587.101562 423.992188 C 579.003906 423.992188 572.417969 417.40625 572.417969 409.3125 L 572.417969 172.847656 C 572.417969 164.75 579.003906 158.164062 587.101562 158.164062 L 931.898438 158.164062 C 939.992188 158.164062 946.578125 164.75 946.578125 172.847656 L 946.578125 409.3125 C 946.578125 417.40625 939.992188 423.992188 931.898438 423.992188 " fill-opacity="1" fill-rule="nonzero"/><path fill="#99b9ff" d="M 792.457031 424.148438 L 933.214844 424.148438 C 938.890625 424.148438 943.503906 428.765625 943.503906 434.4375 C 943.503906 440.117188 938.890625 444.734375 933.214844 444.734375 L 788.257812 444.734375 C 782.578125 444.734375 792.457031 424.148438 792.457031 424.148438 " fill-opacity="1" fill-rule="nonzero"/><path fill="#000000" d="M 793.027344 425.046875 C 789.921875 431.628906 786.324219 441.421875 787.667969 443.558594 C 787.773438 443.722656 787.914062 443.835938 788.257812 443.835938 L 933.214844 443.835938 C 938.394531 443.835938 942.605469 439.621094 942.605469 434.4375 C 942.605469 429.257812 938.394531 425.046875 933.214844 425.046875 Z M 933.214844 445.632812 L 788.257812 445.632812 C 787.335938 445.632812 786.609375 445.246094 786.148438 444.515625 C 783.738281 440.6875 790.304688 426.550781 791.648438 423.757812 L 791.890625 423.246094 L 933.214844 423.246094 C 939.386719 423.246094 944.40625 428.269531 944.40625 434.4375 C 944.40625 440.613281 939.386719 445.632812 933.214844 445.632812 " fill-opacity="1" fill-rule="nonzero"/><path fill="#99b9ff" d="M 507.378906 424.148438 L 839.648438 424.148438 C 845.332031 424.148438 849.9375 428.753906 849.9375 434.4375 C 849.9375 440.125 845.332031 444.734375 839.648438 444.734375 L 507.378906 444.734375 C 501.695312 444.734375 497.085938 440.125 497.085938 434.4375 C 497.085938 428.753906 501.695312 424.148438 507.378906 424.148438 " fill-opacity="1" fill-rule="nonzero"/><path fill="#000000" d="M 507.378906 425.046875 C 502.199219 425.046875 497.984375 429.257812 497.984375 434.4375 C 497.984375 439.621094 502.199219 443.835938 507.378906 443.835938 L 839.648438 443.835938 C 844.824219 443.835938 849.039062 439.621094 849.039062 434.4375 C 849.039062 429.257812 844.824219 425.046875 839.648438 425.046875 Z M 839.648438 445.632812 L 507.378906 445.632812 C 501.207031 445.632812 496.1875 440.613281 496.1875 434.4375 C 496.1875 428.269531 501.207031 423.246094 507.378906 423.246094 L 839.648438 423.246094 C 845.816406 423.246094 850.835938 428.269531 850.835938 434.4375 C 850.835938 440.613281 845.816406 445.632812 839.648438 445.632812 " fill-opacity="1" fill-rule="nonzero"/><path fill="#caddff" d="M 599.492188 169.042969 L 921.535156 169.042969 C 928.644531 169.042969 934.40625 174.824219 934.40625 181.957031 L 934.40625 403.523438 C 934.40625 410.660156 928.644531 416.441406 921.535156 416.441406 L 599.492188 416.441406 C 592.382812 416.441406 586.621094 410.660156 586.621094 403.523438 L 586.621094 181.957031 C 586.621094 174.824219 592.382812 169.042969 599.492188 169.042969 " fill-opacity="1" fill-rule="nonzero"/><path fill="#5479f7" d="M 934.460938 189.84375 L 934.832031 181.84375 C 934.832031 174.773438 928.824219 169.140625 921.714844 169.140625 L 599.671875 169.140625 C 592.566406 169.140625 586.746094 174.773438 586.746094 181.84375 L 586.375 191.6875 L 934.460938 189.84375 " fill-opacity="1" fill-rule="nonzero"/><path fill="#caddff" d="M 606.972656 182.175781 C 606.972656 184.46875 605.113281 186.332031 602.816406 186.332031 C 600.523438 186.332031 598.660156 184.46875 598.660156 182.175781 C 598.660156 179.878906 600.523438 178.015625 602.816406 178.015625 C 605.113281 178.015625 606.972656 179.878906 606.972656 182.175781 " fill-opacity="1" fill-rule="nonzero"/><path fill="#caddff" d="M 620.277344 181.898438 C 620.277344 184.195312 618.414062 186.054688 616.121094 186.054688 C 613.824219 186.054688 611.960938 184.195312 611.960938 181.898438 C 611.960938 179.601562 613.824219 177.738281 616.121094 177.738281 C 618.414062 177.738281 620.277344 179.601562 620.277344 181.898438 " fill-opacity="1" fill-rule="nonzero"/><path fill="#caddff" d="M 634.6875 182.453125 C 634.6875 184.75 632.828125 186.609375 630.53125 186.609375 C 628.234375 186.609375 626.375 184.75 626.375 182.453125 C 626.375 180.15625 628.234375 178.292969 630.53125 178.292969 C 632.828125 178.292969 634.6875 180.15625 634.6875 182.453125 " fill-opacity="1" fill-rule="nonzero"/><path fill="#99b9ff" d="M 913.722656 376.496094 L 608.792969 376.496094 C 605.070312 376.496094 602.050781 373.476562 602.050781 369.753906 L 602.050781 229.113281 C 602.050781 225.386719 605.070312 222.367188 608.792969 222.367188 L 913.722656 222.367188 C 917.445312 222.367188 920.464844 225.386719 920.464844 229.113281 L 920.464844 369.753906 C 920.464844 373.476562 917.445312 376.496094 913.722656 376.496094 " fill-opacity="1" fill-rule="nonzero"/><path fill="#caddff" d="M 663.238281 244.824219 L 615.351562 244.824219 L 615.351562 232.667969 L 663.238281 232.667969 L 663.238281 244.824219 " fill-opacity="1" fill-rule="nonzero"/><path fill="#caddff" d="M 862.777344 245.367188 L 692.613281 245.367188 L 692.613281 233.210938 L 862.777344 233.210938 L 862.777344 245.367188 " fill-opacity="1" fill-rule="nonzero"/><path fill="#caddff" d="M 662.683594 305.335938 L 614.796875 305.335938 L 614.796875 293.179688 L 662.683594 293.179688 L 662.683594 305.335938 " fill-opacity="1" fill-rule="nonzero"/><path fill="#caddff" d="M 862.222656 305.878906 L 692.058594 305.878906 L 692.058594 293.722656 L 862.222656 293.722656 L 862.222656 305.878906 " fill-opacity="1" fill-rule="nonzero"/><path fill="#caddff" d="M 661.574219 364.765625 L 613.6875 364.765625 L 613.6875 352.609375 L 661.574219 352.609375 L 661.574219 364.765625 " fill-opacity="1" fill-rule="nonzero"/><path fill="#caddff" d="M 861.113281 365.304688 L 690.953125 365.304688 L 690.953125 353.148438 L 861.113281 353.148438 L 861.113281 365.304688 " fill-opacity="1" fill-rule="nonzero"/><path fill="#caddff" d="M 736.988281 265.894531 L 692.410156 265.894531 L 692.410156 253.738281 L 736.988281 253.738281 L 736.988281 265.894531 " fill-opacity="1" fill-rule="nonzero"/><path fill="#caddff" d="M 901.574219 266.4375 L 743.167969 266.4375 L 743.167969 254.28125 L 901.574219 254.28125 L 901.574219 266.4375 " fill-opacity="1" fill-rule="nonzero"/><path fill="#caddff" d="M 736.429688 285.886719 L 691.855469 285.886719 L 691.855469 273.730469 L 736.429688 273.730469 L 736.429688 285.886719 " fill-opacity="1" fill-rule="nonzero"/><path fill="#caddff" d="M 901.019531 286.425781 L 742.613281 286.425781 L 742.613281 274.269531 L 901.019531 274.269531 L 901.019531 286.425781 " fill-opacity="1" fill-rule="nonzero"/><path fill="#caddff" d="M 736.429688 325.867188 L 691.855469 325.867188 L 691.855469 313.710938 L 736.429688 313.710938 L 736.429688 325.867188 " fill-opacity="1" fill-rule="nonzero"/><path fill="#caddff" d="M 901.019531 326.40625 L 742.613281 326.40625 L 742.613281 314.25 L 901.019531 314.25 L 901.019531 326.40625 " fill-opacity="1" fill-rule="nonzero"/><path fill="#caddff" d="M 735.878906 345.855469 L 691.300781 345.855469 L 691.300781 333.699219 L 735.878906 333.699219 L 735.878906 345.855469 " fill-opacity="1" fill-rule="nonzero"/><path fill="#caddff" d="M 900.46875 346.394531 L 742.054688 346.394531 L 742.054688 334.242188 L 900.46875 334.242188 L 900.46875 346.394531 " fill-opacity="1" fill-rule="nonzero"/><path fill="#99b9ff" d="M 836.601562 211.539062 L 603.929688 211.539062 L 603.929688 199.382812 L 836.601562 199.382812 L 836.601562 211.539062 " fill-opacity="1" fill-rule="nonzero"/><path fill="#99b9ff" d="M 918.757812 210.984375 L 882.917969 210.984375 L 882.917969 198.832031 L 918.757812 198.832031 L 918.757812 210.984375 " fill-opacity="1" fill-rule="nonzero"/><path fill="#99b9ff" d="M 919.867188 400.601562 L 601.15625 400.601562 L 601.15625 388.445312 L 919.867188 388.445312 L 919.867188 400.601562 " fill-opacity="1" fill-rule="nonzero"/><path fill="#000000" d="M 595.675781 146.273438 C 595.386719 146.273438 595.105469 146.136719 594.933594 145.882812 C 594.652344 145.472656 594.757812 144.914062 595.167969 144.632812 C 616.898438 129.789062 642.898438 119.101562 672.449219 112.871094 C 696.539062 107.792969 722.988281 105.648438 751.054688 106.511719 C 751.550781 106.523438 751.941406 106.941406 751.925781 107.4375 C 751.914062 107.933594 751.484375 108.335938 751 108.308594 C 707.5625 106.988281 645.441406 112.46875 596.183594 146.117188 C 596.027344 146.222656 595.851562 146.273438 595.675781 146.273438 " fill-opacity="1" fill-rule="nonzero"/><path fill="#000000" d="M 627.675781 143.261719 C 627.34375 143.261719 627.023438 143.074219 626.867188 142.761719 C 626.648438 142.3125 626.832031 141.773438 627.273438 141.554688 C 654.03125 128.320312 685.972656 120.757812 722.222656 119.070312 C 722.707031 119.042969 723.136719 119.429688 723.160156 119.925781 C 723.183594 120.421875 722.800781 120.84375 722.304688 120.867188 C 686.308594 122.539062 654.605469 130.042969 628.074219 143.167969 C 627.945312 143.230469 627.808594 143.261719 627.675781 143.261719 " fill-opacity="1" fill-rule="nonzero"/><path fill="#000000" d="M 771.753906 140.832031 C 771.5625 140.832031 771.367188 140.769531 771.203125 140.640625 C 770.8125 140.335938 770.742188 139.769531 771.050781 139.378906 L 773.847656 135.796875 C 774.152344 135.40625 774.71875 135.335938 775.109375 135.640625 C 775.5 135.949219 775.570312 136.511719 775.265625 136.90625 L 772.464844 140.488281 C 772.289062 140.710938 772.023438 140.832031 771.753906 140.832031 " fill-opacity="1" fill-rule="nonzero"/><path fill="#000000" d="M 781.550781 128.296875 C 781.359375 128.296875 781.164062 128.238281 780.996094 128.105469 C 780.605469 127.800781 780.539062 127.234375 780.84375 126.84375 L 783.640625 123.261719 C 783.949219 122.871094 784.511719 122.800781 784.902344 123.109375 C 785.296875 123.414062 785.367188 123.980469 785.058594 124.371094 L 782.257812 127.953125 C 782.082031 128.179688 781.816406 128.296875 781.550781 128.296875 " fill-opacity="1" fill-rule="nonzero"/><path fill="#000000" d="M 786.128906 139.035156 C 785.9375 139.035156 785.742188 138.976562 785.582031 138.847656 L 781.992188 136.066406 C 781.597656 135.761719 781.527344 135.195312 781.832031 134.800781 C 782.132812 134.410156 782.699219 134.339844 783.09375 134.644531 L 786.683594 137.425781 C 787.074219 137.734375 787.144531 138.296875 786.839844 138.6875 C 786.664062 138.917969 786.398438 139.035156 786.128906 139.035156 " fill-opacity="1" fill-rule="nonzero"/><path fill="#000000" d="M 773.566406 129.296875 C 773.375 129.296875 773.179688 129.234375 773.015625 129.105469 L 769.425781 126.320312 C 769.03125 126.015625 768.960938 125.453125 769.265625 125.0625 C 769.574219 124.667969 770.136719 124.597656 770.527344 124.902344 L 774.117188 127.683594 C 774.507812 127.988281 774.582031 128.554688 774.277344 128.945312 C 774.097656 129.175781 773.832031 129.296875 773.566406 129.296875 " fill-opacity="1" fill-rule="nonzero"/><path fill="#000000" d="M 541.148438 198.453125 C 540.753906 198.453125 540.390625 198.1875 540.28125 197.789062 C 540.152344 197.3125 540.433594 196.816406 540.910156 196.683594 L 544.492188 195.707031 C 544.96875 195.578125 545.464844 195.859375 545.59375 196.339844 C 545.726562 196.816406 545.445312 197.3125 544.964844 197.445312 L 541.386719 198.421875 C 541.308594 198.441406 541.226562 198.453125 541.148438 198.453125 " fill-opacity="1" fill-rule="nonzero"/><path fill="#000000" d="M 553.671875 195.03125 C 553.277344 195.03125 552.914062 194.769531 552.804688 194.371094 C 552.675781 193.890625 552.957031 193.394531 553.4375 193.265625 L 557.015625 192.289062 C 557.496094 192.15625 557.988281 192.4375 558.121094 192.917969 C 558.25 193.398438 557.96875 193.890625 557.488281 194.023438 L 553.910156 195 C 553.832031 195.023438 553.75 195.03125 553.671875 195.03125 " fill-opacity="1" fill-rule="nonzero"/><path fill="#000000" d="M 551.441406 204.308594 C 551.046875 204.308594 550.6875 204.046875 550.574219 203.652344 L 549.578125 200.070312 C 549.445312 199.59375 549.726562 199.097656 550.203125 198.964844 C 550.683594 198.832031 551.179688 199.109375 551.3125 199.589844 L 552.308594 203.167969 C 552.441406 203.648438 552.160156 204.144531 551.683594 204.277344 C 551.601562 204.296875 551.519531 204.308594 551.441406 204.308594 " fill-opacity="1" fill-rule="nonzero"/><path fill="#000000" d="M 547.957031 191.777344 C 547.5625 191.777344 547.199219 191.519531 547.089844 191.121094 L 546.09375 187.539062 C 545.960938 187.058594 546.242188 186.566406 546.71875 186.429688 C 547.199219 186.300781 547.695312 186.578125 547.824219 187.058594 L 548.824219 190.636719 C 548.957031 191.117188 548.675781 191.609375 548.199219 191.746094 C 548.117188 191.769531 548.035156 191.777344 547.957031 191.777344 " fill-opacity="1" fill-rule="nonzero"/><path fill="#000000" d="M 807.679688 139.097656 C 804.789062 139.097656 802.4375 141.453125 802.4375 144.351562 C 802.4375 147.246094 804.789062 149.601562 807.679688 149.601562 C 810.570312 149.601562 812.921875 147.246094 812.921875 144.351562 C 812.921875 141.453125 810.570312 139.097656 807.679688 139.097656 Z M 807.679688 151.402344 C 803.800781 151.402344 800.640625 148.238281 800.640625 144.351562 C 800.640625 140.460938 803.800781 137.296875 807.679688 137.296875 C 811.558594 137.296875 814.71875 140.460938 814.71875 144.351562 C 814.71875 148.238281 811.558594 151.402344 807.679688 151.402344 " fill-opacity="1" fill-rule="nonzero"/><path fill="#000000" d="M 482.777344 402.695312 C 482.378906 402.695312 482.019531 402.429688 481.910156 402.023438 C 477.1875 384.203125 474.886719 365.890625 475.070312 347.597656 C 475.234375 330.960938 477.449219 314.183594 481.652344 297.730469 C 481.777344 297.25 482.269531 296.957031 482.746094 297.082031 C 483.230469 297.203125 483.519531 297.695312 483.394531 298.175781 C 479.226562 314.488281 477.03125 331.121094 476.867188 347.617188 C 476.6875 365.75 478.96875 383.898438 483.648438 401.5625 C 483.777344 402.042969 483.488281 402.535156 483.007812 402.664062 C 482.933594 402.683594 482.855469 402.695312 482.777344 402.695312 " fill-opacity="1" fill-rule="nonzero"/><path fill="#000000" d="M 488.21875 417.097656 C 487.335938 417.097656 486.503906 417.433594 485.871094 418.046875 C 484.535156 419.347656 484.507812 421.492188 485.804688 422.828125 C 486.4375 423.476562 487.28125 423.839844 488.183594 423.855469 C 489.070312 423.871094 489.9375 423.53125 490.582031 422.902344 C 491.917969 421.605469 491.949219 419.460938 490.648438 418.125 C 490.019531 417.476562 489.175781 417.113281 488.273438 417.097656 C 488.253906 417.097656 488.234375 417.097656 488.21875 417.097656 Z M 488.238281 425.652344 C 488.210938 425.652344 488.183594 425.652344 488.15625 425.652344 C 486.773438 425.632812 485.480469 425.074219 484.515625 424.082031 C 482.527344 422.03125 482.574219 418.746094 484.617188 416.757812 C 485.609375 415.796875 486.925781 415.285156 488.300781 415.296875 C 489.679688 415.320312 490.972656 415.878906 491.9375 416.871094 C 493.929688 418.921875 493.882812 422.203125 491.835938 424.191406 C 490.867188 425.136719 489.589844 425.652344 488.238281 425.652344 " fill-opacity="1" fill-rule="nonzero"/><path fill="#ffffff" d="M 793 496.390625 C 799.949219 469.347656 823.410156 450.941406 848.203125 472.992188 C 856.96875 489.898438 831.121094 505.128906 801.691406 506.847656 C 796.011719 507.179688 791.585938 501.886719 793 496.390625 " fill-opacity="1" fill-rule="nonzero"/><path fill="#000000" d="M 793 496.390625 L 793.007812 496.390625 Z M 825.941406 464.101562 C 823.585938 464.101562 821.253906 464.449219 818.957031 465.148438 C 807.578125 468.625 797.964844 480.679688 793.871094 496.613281 C 793.277344 498.933594 793.8125 501.332031 795.347656 503.195312 C 796.90625 505.089844 799.203125 506.09375 801.636719 505.949219 C 822.589844 504.722656 841.3125 496.679688 847.167969 486.378906 C 849.554688 482.175781 849.664062 477.863281 847.480469 473.554688 C 840.402344 467.296875 833.070312 464.101562 825.941406 464.101562 Z M 801.175781 507.761719 C 798.371094 507.761719 795.765625 506.535156 793.960938 504.339844 C 792.058594 502.027344 791.390625 499.046875 792.132812 496.167969 C 796.378906 479.628906 806.457031 467.085938 818.433594 463.429688 C 828.351562 460.402344 838.855469 463.472656 848.800781 472.320312 C 848.886719 472.394531 848.953125 472.480469 849.003906 472.578125 C 851.523438 477.441406 851.429688 482.519531 848.730469 487.269531 C 842.589844 498.066406 823.269531 506.488281 801.742188 507.746094 C 801.554688 507.757812 801.363281 507.761719 801.175781 507.761719 " fill-opacity="1" fill-rule="nonzero"/><path fill="#ffffff" d="M 824.027344 466.28125 C 820.90625 464.683594 816.292969 462.792969 808.15625 464.035156 C 799.179688 465.398438 797.175781 472.007812 783.105469 474.964844 C 758.914062 480.054688 770.828125 494.183594 770.828125 494.183594 L 789.644531 485.683594 C 790.863281 485.136719 792.210938 484.917969 793.542969 485.066406 C 797.644531 485.515625 807.46875 486.246094 816.410156 484.230469 C 823.105469 482.722656 831.917969 488.265625 836.667969 484.09375 C 839.425781 481.667969 830.671875 469.683594 824.027344 466.28125 " fill-opacity="1" fill-rule="nonzero"/><path fill="#000000" d="M 813.136719 464.535156 C 811.675781 464.535156 810.070312 464.652344 808.289062 464.921875 C 804.363281 465.519531 801.804688 467.1875 798.847656 469.125 C 795.199219 471.507812 791.0625 474.210938 783.292969 475.847656 C 775.265625 477.535156 770.519531 480.355469 769.179688 484.230469 C 767.898438 487.933594 770.152344 491.699219 771.113281 493.066406 L 789.273438 484.863281 C 790.644531 484.246094 792.148438 484.007812 793.640625 484.171875 C 797.464844 484.59375 807.328125 485.351562 816.210938 483.355469 C 819.253906 482.671875 822.597656 483.328125 825.832031 483.96875 C 829.871094 484.765625 833.6875 485.515625 836.074219 483.417969 C 836.332031 483.191406 836.304688 482.640625 836.265625 482.335938 C 835.792969 478.546875 829.046875 469.863281 823.613281 467.082031 C 821.0625 465.773438 817.871094 464.535156 813.136719 464.535156 Z M 770.828125 495.082031 C 770.566406 495.082031 770.3125 494.972656 770.140625 494.761719 C 769.949219 494.539062 765.554688 489.234375 767.472656 483.65625 C 769.03125 479.136719 774.226562 475.914062 782.921875 474.085938 C 790.363281 472.523438 794.347656 469.917969 797.863281 467.617188 C 800.867188 465.65625 803.703125 463.800781 808.019531 463.140625 C 816.078125 461.921875 820.835938 463.636719 824.433594 465.480469 C 830.082031 468.367188 837.460938 477.386719 838.050781 482.113281 C 838.234375 483.574219 837.722656 484.363281 837.261719 484.765625 C 834.203125 487.453125 829.769531 486.578125 825.480469 485.730469 C 822.429688 485.128906 819.273438 484.507812 816.609375 485.109375 C 807.460938 487.171875 797.359375 486.390625 793.441406 485.960938 C 792.273438 485.828125 791.089844 486.019531 790.011719 486.503906 L 771.195312 495 C 771.078125 495.054688 770.953125 495.082031 770.828125 495.082031 " fill-opacity="1" fill-rule="nonzero"/><path fill="#000000" d="M 685.910156 390.964844 C 708.832031 409.007812 716.328125 461.207031 731 472.996094 C 743.71875 483.214844 789.0625 468.726562 789.0625 468.726562 L 793.476562 501.867188 C 793.476562 501.867188 728.40625 534.105469 694.570312 500.492188 C 667.105469 473.207031 607.839844 417.75 593.0625 380.261719 L 634.179688 375.933594 C 634.179688 375.933594 660.503906 370.972656 685.910156 390.964844 " fill-opacity="1" fill-rule="nonzero"/><g clip-path="url(#897ddb9909)"><path fill="#000000" d="M 681.011719 482.445312 C 681.011719 482.445312 683.320312 493.152344 679.035156 506.308594 C 673.707031 522.660156 701.339844 592.523438 707.328125 595.089844 C 707.328125 595.089844 702.785156 596.152344 675.703125 598.671875 C 664.691406 599.695312 636.539062 588.785156 614.808594 588.585938 C 585.125 588.316406 563.019531 583.871094 563.019531 583.871094 L 558.792969 445.953125 C 558.792969 445.953125 554.425781 388.050781 594.214844 380.164062 L 651.550781 376.5625 L 681.011719 482.445312 " fill-opacity="1" fill-rule="nonzero"/></g><path fill="#caddff" d="M 684.671875 494.4375 C 684.425781 494.4375 684.183594 494.339844 684.007812 494.148438 C 671.390625 480.414062 661.574219 465.980469 655.628906 452.40625 C 655.429688 451.949219 655.636719 451.417969 656.09375 451.21875 C 656.546875 451.019531 657.078125 451.226562 657.277344 451.683594 C 663.144531 465.078125 672.84375 479.34375 685.332031 492.933594 C 685.667969 493.296875 685.644531 493.867188 685.28125 494.203125 C 685.105469 494.359375 684.886719 494.4375 684.671875 494.4375 " fill-opacity="1" fill-rule="nonzero"/><g clip-path="url(#375749ad60)"><path fill="#000000" d="M 684.175781 311.105469 C 684.175781 311.105469 698.617188 311.546875 696.597656 285.804688 C 694.5625 259.890625 666.316406 261.453125 656.566406 258.023438 C 646.820312 254.59375 630.714844 233.6875 624.511719 228.113281 C 618.308594 222.539062 599.183594 199.335938 559.714844 221.34375 C 559.714844 221.34375 552.761719 227.910156 526.117188 220.726562 C 502.9375 214.476562 459.019531 220.53125 467.296875 254.675781 C 469.683594 264.523438 475.605469 272.847656 483.632812 278.261719 C 485.089844 279.242188 486.699219 280.226562 488.46875 281.183594 C 493.578125 283.960938 496.972656 289.320312 497.3125 295.480469 C 498.414062 315.542969 508.738281 355.796875 577.273438 329.917969 C 582.441406 327.96875 588.0625 328.640625 592.535156 331.671875 C 598.03125 335.394531 602.738281 346.753906 632.179688 347.78125 C 651.089844 348.445312 660.457031 329.175781 666.921875 320.816406 C 674.507812 311.007812 684.175781 311.105469 684.175781 311.105469 " fill-opacity="1" fill-rule="nonzero"/></g><path fill="#ffffff" d="M 679.949219 311.117188 C 679.949219 311.117188 680 315.722656 680.054688 317.75 C 680.109375 319.671875 679.511719 325.851562 682.917969 333.28125 C 683.246094 333.992188 682.972656 334.84375 682.316406 335.257812 L 677.246094 338.457031 C 676.894531 338.675781 676.65625 339.03125 676.578125 339.441406 C 676.113281 341.976562 674.390625 351.277344 673.785156 352.964844 C 673.082031 354.917969 671.175781 356.417969 670.3125 356.714844 C 668.023438 357.496094 659.195312 354.726562 659.195312 354.726562 C 659.195312 354.726562 660.5 353.058594 653.464844 365.257812 C 648.519531 373.839844 659.09375 387.90625 659.09375 387.90625 C 659.09375 387.90625 619.234375 404.054688 596.894531 384.738281 C 595.511719 383.539062 596.121094 381.042969 597.894531 380.601562 C 619.019531 375.351562 621.816406 364.675781 630.140625 348.097656 C 630.535156 347.316406 631.460938 346.957031 632.339844 346.875 C 635.898438 346.558594 645.226562 346.910156 648.382812 331.902344 C 648.460938 331.519531 648.441406 331.109375 648.324219 330.738281 C 647.332031 327.613281 643.082031 312.417969 656.726562 318.820312 C 665.734375 323.050781 670.824219 317.0625 672.65625 314.15625 C 673.257812 313.207031 674.214844 312.539062 675.3125 312.265625 L 679.949219 311.117188 " fill-opacity="1" fill-rule="nonzero"/><path fill="#000000" d="M 651.191406 318.164062 C 650.359375 318.164062 649.621094 318.359375 649.074219 318.839844 C 647 320.65625 647.835938 326.238281 649.183594 330.46875 C 649.347656 330.988281 649.375 331.546875 649.261719 332.085938 C 646.167969 346.804688 637.042969 347.445312 633.148438 347.71875 C 632.882812 347.734375 632.640625 347.753906 632.417969 347.773438 C 631.859375 347.824219 631.175781 348.042969 630.945312 348.503906 C 630.007812 350.371094 629.140625 352.15625 628.304688 353.882812 C 621.652344 367.636719 617.257812 376.71875 598.113281 381.476562 C 597.515625 381.625 597.191406 382.15625 597.082031 382.605469 C 596.945312 383.175781 597.09375 383.71875 597.484375 384.054688 C 617.140625 401.054688 651.21875 389.832031 657.683594 387.476562 C 655.34375 384.0625 648.21875 372.558594 652.6875 364.808594 C 656.789062 357.699219 657.964844 355.453125 658.296875 354.746094 C 658.292969 354.542969 658.359375 354.339844 658.488281 354.171875 C 658.890625 353.660156 659.445312 353.671875 659.789062 353.90625 C 659.847656 353.945312 659.898438 353.980469 659.949219 354.019531 C 663.507812 355.097656 668.699219 356.3125 670.019531 355.863281 C 670.574219 355.675781 672.3125 354.402344 672.9375 352.660156 C 673.402344 351.371094 674.714844 344.648438 675.695312 339.277344 C 675.816406 338.625 676.207031 338.046875 676.769531 337.695312 L 681.839844 334.496094 C 682.121094 334.320312 682.234375 333.949219 682.101562 333.65625 C 679.054688 327.003906 679.121094 321.390625 679.152344 318.691406 C 679.160156 318.324219 679.164062 318.015625 679.15625 317.777344 C 679.117188 316.386719 679.082031 313.765625 679.0625 312.265625 L 675.527344 313.136719 C 674.636719 313.359375 673.886719 313.890625 673.421875 314.632812 C 671.515625 317.65625 666.039062 324.183594 656.34375 319.636719 C 654.742188 318.886719 652.792969 318.164062 651.191406 318.164062 Z M 626.441406 395.121094 C 614.019531 395.121094 603.722656 391.828125 596.304688 385.414062 C 595.414062 384.644531 595.042969 383.410156 595.332031 382.1875 C 595.628906 380.957031 596.527344 380.015625 597.675781 379.730469 C 616.007812 375.175781 620.257812 366.394531 626.6875 353.097656 C 627.527344 351.367188 628.394531 349.574219 629.335938 347.695312 C 629.820312 346.730469 630.886719 346.105469 632.257812 345.980469 C 632.488281 345.960938 632.746094 345.941406 633.023438 345.921875 C 636.808594 345.65625 644.6875 345.105469 647.503906 331.71875 C 647.550781 331.484375 647.539062 331.238281 647.46875 331.011719 C 646.484375 327.917969 644.554688 320.410156 647.886719 317.484375 C 649.761719 315.839844 652.867188 316.015625 657.109375 318.007812 C 665.203125 321.804688 669.851562 316.925781 671.898438 313.675781 C 672.617188 312.539062 673.753906 311.726562 675.097656 311.390625 L 679.730469 310.246094 C 679.996094 310.183594 680.28125 310.242188 680.496094 310.40625 C 680.714844 310.574219 680.84375 310.835938 680.847656 311.113281 C 680.847656 311.15625 680.898438 315.730469 680.953125 317.726562 C 680.960938 317.984375 680.957031 318.316406 680.953125 318.714844 C 680.921875 321.28125 680.855469 326.621094 683.738281 332.90625 C 684.246094 334.019531 683.84375 335.359375 682.796875 336.019531 L 677.726562 339.214844 C 677.585938 339.308594 677.492188 339.441406 677.464844 339.605469 C 676.957031 342.367188 675.257812 351.523438 674.632812 353.269531 C 673.851562 355.441406 671.789062 357.160156 670.601562 357.566406 C 668.46875 358.296875 662.296875 356.59375 659.765625 355.84375 C 659.074219 357.320312 657.464844 360.121094 654.246094 365.707031 C 649.648438 373.683594 659.710938 387.230469 659.8125 387.367188 C 659.980469 387.589844 660.035156 387.878906 659.960938 388.148438 C 659.886719 388.417969 659.691406 388.636719 659.433594 388.738281 C 659.332031 388.78125 649.210938 392.839844 636.484375 394.457031 C 633.003906 394.902344 629.648438 395.121094 626.441406 395.121094 " fill-opacity="1" fill-rule="nonzero"/><path fill="#000000" d="M 654.941406 331.90625 Z M 652.847656 334.1875 C 652.515625 334.1875 652.179688 334.164062 651.851562 334.109375 C 650.425781 333.882812 647.882812 332.90625 646.890625 328.957031 C 646.769531 328.476562 647.0625 327.988281 647.542969 327.867188 C 648.027344 327.75 648.511719 328.039062 648.636719 328.519531 C 649.144531 330.542969 650.15625 331.789062 651.640625 332.226562 C 653.164062 332.667969 654.679688 332.109375 654.972656 331.859375 C 655.25 331.476562 655.777344 331.375 656.183594 331.628906 C 656.601562 331.894531 656.726562 332.453125 656.457031 332.871094 C 656.011719 333.578125 654.488281 334.1875 652.847656 334.1875 " fill-opacity="1" fill-rule="nonzero"/><path fill="#000000" d="M 684.128906 333.175781 C 683.628906 333.175781 683.105469 333.128906 682.5625 333.035156 C 682.074219 332.949219 681.746094 332.484375 681.832031 331.992188 C 681.914062 331.503906 682.386719 331.183594 682.871094 331.261719 C 684.761719 331.589844 686.273438 331.21875 687.484375 330.128906 C 690.644531 327.285156 690.828125 320.503906 690.792969 318.148438 L 657.921875 317.457031 C 657.425781 317.445312 657.03125 317.035156 657.042969 316.539062 C 657.054688 316.042969 657.433594 315.648438 657.960938 315.65625 L 691.683594 316.367188 C 692.148438 316.378906 692.53125 316.742188 692.5625 317.210938 C 692.585938 317.625 693.167969 327.4375 688.6875 331.464844 C 687.421875 332.601562 685.894531 333.175781 684.128906 333.175781 " fill-opacity="1" fill-rule="nonzero"/><path fill="#5479f7" d="M 654.527344 339.386719 C 654.660156 338.003906 653.667969 336.777344 652.3125 336.648438 C 650.953125 336.519531 649.742188 337.535156 649.605469 338.921875 C 649.464844 340.304688 650.460938 341.53125 651.816406 341.660156 C 653.179688 341.789062 654.390625 340.769531 654.527344 339.386719 " fill-opacity="1" fill-rule="nonzero"/><g clip-path="url(#cc8f895455)"><path fill="#5479f7" d="M 651.476562 492.203125 L 651.476562 523.972656 C 651.476562 569.503906 684.3125 606.414062 724.820312 606.414062 C 765.324219 606.414062 798.164062 643.320312 798.164062 688.851562 C 798.164062 692.910156 795.164062 696.199219 791.460938 696.199219 L 597.3125 696.199219 C 536.585938 696.199219 487.359375 640.867188 487.359375 572.609375 L 487.359375 488.0625 C 487.359375 460.914062 506.9375 438.90625 531.089844 438.90625 L 604.058594 438.90625 C 630.246094 438.90625 651.476562 462.769531 651.476562 492.203125 " fill-opacity="1" fill-rule="nonzero"/></g><g clip-path="url(#afd229c728)"><path fill="#caddff" d="M 753.871094 664.742188 C 753.574219 664.742188 753.285156 664.59375 753.113281 664.328125 C 743.265625 649.035156 727.46875 640.261719 706.164062 638.25 C 692.71875 636.980469 679.648438 633.042969 670.320312 627.449219 C 659.738281 621.109375 646.183594 611.9375 635.210938 597.21875 C 622.671875 580.398438 616.316406 559.699219 616.316406 535.695312 L 616.316406 529.710938 C 616.316406 505.632812 612.945312 491.679688 605.382812 484.464844 C 598.421875 477.828125 588.460938 477.3125 575.152344 477.3125 C 574.65625 477.3125 574.253906 476.910156 574.253906 476.414062 C 574.253906 475.917969 574.65625 475.511719 575.152344 475.511719 C 588.441406 475.511719 599.195312 476.078125 606.625 483.164062 C 614.570312 490.746094 618.117188 505.101562 618.117188 529.710938 L 618.117188 535.695312 C 618.117188 588.011719 648.4375 612.238281 671.246094 625.90625 C 680.351562 631.367188 693.144531 635.214844 706.332031 636.457031 C 728.21875 638.523438 744.46875 647.570312 754.625 663.351562 C 754.894531 663.769531 754.773438 664.328125 754.355469 664.597656 C 754.207031 664.695312 754.035156 664.742188 753.871094 664.742188 " fill-opacity="1" fill-rule="nonzero"/></g><path fill="#caddff" d="M 899.347656 542.433594 C 899.347656 542.433594 873.949219 486.746094 888.519531 414.558594 C 888.519531 414.558594 927.878906 447.554688 913.6875 542.433594 L 899.347656 542.433594 " fill-opacity="1" fill-rule="nonzero"/><path fill="#000000" d="M 899.933594 541.53125 L 912.914062 541.53125 C 920.015625 493.242188 912.894531 461.523438 905.644531 443.390625 C 899.355469 427.652344 891.890625 419.164062 889.082031 416.335938 C 882.003906 452.792969 885.289062 484.792969 889.339844 505.332031 C 893.308594 525.480469 898.757812 538.789062 899.933594 541.53125 Z M 913.6875 543.332031 L 899.347656 543.332031 C 898.996094 543.332031 898.675781 543.125 898.527344 542.804688 C 898.464844 542.664062 892.085938 528.527344 887.585938 505.742188 C 883.4375 484.726562 880.082031 451.816406 887.636719 414.382812 C 887.699219 414.070312 887.921875 413.816406 888.21875 413.710938 C 888.519531 413.605469 888.851562 413.664062 889.09375 413.871094 C 889.503906 414.214844 899.203125 422.492188 907.257812 442.582031 C 914.660156 461.03125 921.9375 493.351562 914.578125 542.566406 C 914.515625 543.007812 914.132812 543.332031 913.6875 543.332031 " fill-opacity="1" fill-rule="nonzero"/><path fill="#ffffff" d="M 905.558594 537.527344 C 905.542969 537.527344 905.527344 537.527344 905.511719 537.527344 C 905.011719 537.496094 904.632812 537.074219 904.660156 536.578125 C 906.605469 500.996094 890.5625 425.027344 890.398438 424.265625 C 890.292969 423.777344 890.605469 423.300781 891.089844 423.195312 C 891.574219 423.089844 892.054688 423.402344 892.15625 423.886719 C 892.316406 424.65625 908.414062 500.859375 906.457031 536.675781 C 906.429688 537.152344 906.03125 537.527344 905.558594 537.527344 " fill-opacity="1" fill-rule="nonzero"/><path fill="#ffffff" d="M 924.898438 451.898438 C 924.898438 451.898438 892.175781 511.035156 911.859375 536.625 L 922.386719 536.625 C 922.386719 536.625 943.429688 490.398438 924.898438 451.898438 " fill-opacity="1" fill-rule="nonzero"/><path fill="#000000" d="M 912.304688 535.726562 L 921.796875 535.726562 C 923.984375 530.585938 940.648438 489.066406 924.84375 453.917969 C 919.90625 463.40625 895.5 513.035156 912.304688 535.726562 Z M 922.386719 537.527344 L 911.859375 537.527344 C 911.578125 537.527344 911.316406 537.398438 911.148438 537.175781 C 902.792969 526.316406 902.453125 508.554688 910.140625 484.394531 C 915.820312 466.53125 924.03125 451.613281 924.113281 451.460938 C 924.273438 451.167969 924.5625 450.976562 924.921875 451 C 925.261719 451.007812 925.5625 451.207031 925.707031 451.507812 C 935.386719 471.613281 934.1875 493.792969 931.476562 508.859375 C 928.546875 525.152344 923.257812 536.882812 923.207031 537 C 923.0625 537.320312 922.742188 537.527344 922.386719 537.527344 " fill-opacity="1" fill-rule="nonzero"/><path fill="#000000" d="M 916.773438 539.09375 C 916.292969 539.09375 915.894531 538.710938 915.878906 538.230469 C 914.929688 513.804688 923.914062 452.386719 924.007812 451.769531 C 924.078125 451.277344 924.539062 450.933594 925.03125 451.007812 C 925.519531 451.082031 925.859375 451.539062 925.785156 452.03125 C 925.699219 452.644531 916.734375 513.898438 917.671875 538.160156 C 917.695312 538.65625 917.304688 539.074219 916.808594 539.09375 C 916.800781 539.09375 916.789062 539.09375 916.773438 539.09375 " fill-opacity="1" fill-rule="nonzero"/><path fill="#ffffff" d="M 862.421875 473.945312 C 862.421875 473.945312 890.296875 483.457031 900.390625 539.78125 L 889.429688 539.78125 C 889.429688 539.78125 866.546875 508.847656 862.421875 473.945312 " fill-opacity="1" fill-rule="nonzero"/><path fill="#000000" d="M 889.886719 538.878906 L 899.3125 538.878906 C 890.589844 491.765625 869.164062 478.214844 863.515625 475.414062 C 867.78125 507.039062 887.382812 535.363281 889.886719 538.878906 Z M 900.390625 540.679688 L 889.429688 540.679688 C 889.144531 540.679688 888.875 540.542969 888.703125 540.316406 C 888.476562 540.003906 865.636719 508.789062 861.527344 474.050781 C 861.492188 473.746094 861.617188 473.441406 861.859375 473.246094 C 862.101562 473.046875 862.421875 472.996094 862.714844 473.09375 C 863.007812 473.195312 870.007812 475.660156 878.300781 485.148438 C 885.886719 493.828125 896.027344 510.324219 901.277344 539.621094 C 901.324219 539.882812 901.253906 540.152344 901.082031 540.355469 C 900.910156 540.558594 900.65625 540.679688 900.390625 540.679688 " fill-opacity="1" fill-rule="nonzero"/><path fill="#000000" d="M 894.398438 539.09375 C 893.964844 539.09375 893.585938 538.78125 893.511719 538.339844 C 889.367188 513.292969 871.433594 488.066406 871.257812 487.8125 C 870.964844 487.410156 871.058594 486.851562 871.460938 486.558594 C 871.867188 486.269531 872.429688 486.363281 872.71875 486.765625 C 872.902344 487.019531 891.078125 512.589844 895.285156 538.046875 C 895.367188 538.535156 895.035156 539 894.546875 539.078125 C 894.5 539.085938 894.445312 539.09375 894.398438 539.09375 " fill-opacity="1" fill-rule="nonzero"/><path fill="#99b9ff" d="M 873.179688 535.308594 L 941.949219 535.308594 L 943.492188 567.847656 C 943.871094 575.824219 937.503906 582.5 929.519531 582.5 L 890.242188 582.5 C 880.796875 582.5 873.140625 574.835938 873.148438 565.382812 L 873.179688 535.308594 " fill-opacity="1" fill-rule="nonzero"/></svg>