<svg xmlns="http://www.w3.org/2000/svg" xmlns:xlink="http://www.w3.org/1999/xlink" width="1920" zoomAndPan="magnify" viewBox="0 0 1440 809.999993" height="1080" preserveAspectRatio="xMidYMid meet" version="1.0"><defs><clipPath id="17222dffdd"><path d="M 927 454 L 1140 454 L 1140 636.988281 L 927 636.988281 Z M 927 454 " clip-rule="nonzero"/></clipPath><clipPath id="51f1a7bc8e"><path d="M 927 453 L 1141 453 L 1141 636.988281 L 927 636.988281 Z M 927 453 " clip-rule="nonzero"/></clipPath><clipPath id="d184260ad6"><path d="M 997 552 L 1025 552 L 1025 636.988281 L 997 636.988281 Z M 997 552 " clip-rule="nonzero"/></clipPath><clipPath id="cf798fab25"><path d="M 587 635 L 867 635 L 867 636.988281 L 587 636.988281 Z M 587 635 " clip-rule="nonzero"/></clipPath></defs><path fill="#ffffff" d="M 426.449219 142.675781 C 413.738281 136.359375 408.558594 120.941406 414.882812 108.234375 C 421.203125 95.527344 436.628906 90.347656 449.339844 96.660156 C 462.050781 102.976562 467.226562 118.398438 460.90625 131.105469 C 454.585938 143.8125 439.15625 148.992188 426.449219 142.675781 Z M 406.421875 182.929688 C 413.265625 186.332031 421.574219 183.539062 424.976562 176.699219 C 425.230469 176.1875 425.4375 175.667969 425.625 175.144531 C 431.210938 176.382812 436.875 176.75 442.429688 176.296875 C 442.542969 176.84375 442.675781 177.386719 442.859375 177.925781 C 445.289062 185.167969 453.136719 189.066406 460.382812 186.636719 C 467.628906 184.199219 471.53125 176.355469 469.097656 169.113281 C 468.917969 168.574219 468.699219 168.0625 468.460938 167.558594 C 473.164062 164.566406 477.453125 160.855469 481.164062 156.496094 C 481.625 156.800781 482.105469 157.089844 482.617188 157.34375 C 489.460938 160.746094 497.769531 157.953125 501.171875 151.113281 C 504.578125 144.269531 501.785156 135.964844 494.945312 132.566406 C 494.433594 132.3125 493.914062 132.101562 493.390625 131.921875 C 494.628906 126.332031 494.996094 120.675781 494.546875 115.117188 C 495.09375 115.007812 495.636719 114.871094 496.175781 114.691406 C 503.421875 112.257812 507.324219 104.414062 504.894531 97.171875 C 502.457031 89.925781 494.617188 86.027344 487.367188 88.460938 C 486.828125 88.644531 486.3125 88.863281 485.8125 89.101562 C 482.816406 84.402344 479.109375 80.113281 474.746094 76.40625 C 475.050781 75.941406 475.34375 75.464844 475.597656 74.953125 C 479 68.113281 476.210938 59.808594 469.367188 56.410156 C 462.523438 53.007812 454.214844 55.796875 450.8125 62.640625 C 450.558594 63.148438 450.351562 63.671875 450.164062 64.191406 C 444.578125 62.953125 438.914062 62.585938 433.359375 63.035156 C 433.246094 62.496094 433.109375 61.953125 432.929688 61.410156 C 430.496094 54.167969 422.652344 50.269531 415.40625 52.703125 C 408.160156 55.136719 404.257812 62.980469 406.6875 70.222656 C 406.871094 70.761719 407.089844 71.277344 407.328125 71.777344 C 402.625 74.773438 398.332031 78.484375 394.625 82.84375 C 394.160156 82.535156 393.683594 82.25 393.171875 81.996094 C 386.328125 78.59375 378.019531 81.382812 374.617188 88.226562 C 371.210938 95.066406 374 103.375 380.847656 106.773438 C 381.355469 107.023438 381.875 107.234375 382.398438 107.417969 C 381.160156 113.007812 380.789062 118.664062 381.238281 124.21875 C 380.695312 124.332031 380.152344 124.464844 379.613281 124.648438 C 372.363281 127.082031 368.460938 134.925781 370.894531 142.167969 C 373.328125 149.410156 381.171875 153.308594 388.417969 150.875 C 388.960938 150.691406 389.476562 150.476562 389.976562 150.234375 C 392.96875 154.933594 396.679688 159.226562 401.039062 162.929688 C 400.734375 163.394531 400.445312 163.875 400.191406 164.386719 C 396.789062 171.222656 399.578125 179.53125 406.421875 182.929688 " fill-opacity="1" fill-rule="nonzero"/><path fill="#000000" d="M 437.941406 94.6875 C 428.746094 94.6875 419.878906 99.773438 415.515625 108.546875 C 412.539062 114.523438 412.074219 121.300781 414.199219 127.625 C 416.324219 133.953125 420.785156 139.070312 426.761719 142.042969 C 439.101562 148.175781 454.136719 143.125 460.273438 130.789062 C 463.246094 124.8125 463.714844 118.039062 461.589844 111.710938 C 459.464844 105.386719 455.003906 100.261719 449.027344 97.292969 C 445.460938 95.523438 441.675781 94.6875 437.941406 94.6875 Z M 437.84375 146.066406 C 433.898438 146.066406 429.898438 145.179688 426.132812 143.308594 C 419.816406 140.171875 415.101562 134.757812 412.859375 128.078125 C 410.613281 121.390625 411.105469 114.230469 414.25 107.921875 C 420.734375 94.886719 436.617188 89.550781 449.65625 96.027344 C 455.972656 99.167969 460.6875 104.578125 462.929688 111.261719 C 465.175781 117.945312 464.679688 125.105469 461.539062 131.417969 C 456.925781 140.6875 447.558594 146.066406 437.84375 146.066406 Z M 442.429688 175.59375 C 442.761719 175.59375 443.054688 175.828125 443.121094 176.15625 C 443.246094 176.75 443.375 177.242188 443.527344 177.703125 C 444.644531 181.023438 446.988281 183.714844 450.128906 185.277344 C 453.269531 186.835938 456.832031 187.082031 460.15625 185.964844 C 467.023438 183.660156 470.734375 176.203125 468.429688 169.339844 C 468.273438 168.878906 468.074219 168.394531 467.820312 167.863281 C 467.667969 167.542969 467.777344 167.152344 468.082031 166.964844 C 472.785156 163.96875 477.003906 160.292969 480.625 156.039062 C 480.855469 155.765625 481.25 155.707031 481.550781 155.90625 C 482.054688 156.238281 482.496094 156.496094 482.929688 156.710938 C 489.414062 159.929688 497.316406 157.277344 500.539062 150.796875 C 502.097656 147.660156 502.347656 144.097656 501.230469 140.773438 C 500.113281 137.449219 497.769531 134.757812 494.628906 133.199219 C 494.199219 132.984375 493.714844 132.785156 493.152344 132.585938 C 492.816406 132.464844 492.621094 132.113281 492.699219 131.765625 C 493.910156 126.316406 494.296875 120.730469 493.84375 115.175781 C 493.816406 114.820312 494.054688 114.5 494.40625 114.429688 C 494.988281 114.304688 495.492188 114.175781 495.953125 114.023438 C 502.816406 111.714844 506.527344 104.257812 504.222656 97.394531 C 503.105469 94.070312 500.761719 91.382812 497.621094 89.820312 C 494.480469 88.261719 490.917969 88.011719 487.59375 89.132812 C 487.136719 89.285156 486.652344 89.484375 486.117188 89.742188 C 485.792969 89.894531 485.40625 89.785156 485.214844 89.484375 C 482.222656 84.78125 478.546875 80.5625 474.289062 76.945312 C 474.019531 76.710938 473.960938 76.320312 474.15625 76.019531 C 474.484375 75.523438 474.746094 75.070312 474.964844 74.640625 C 478.1875 68.160156 475.535156 60.261719 469.054688 57.042969 C 462.570312 53.816406 454.671875 56.46875 451.445312 62.953125 C 451.230469 63.386719 451.027344 63.867188 450.832031 64.425781 C 450.710938 64.765625 450.363281 64.957031 450.011719 64.878906 C 444.558594 63.671875 438.976562 63.292969 433.414062 63.742188 C 433.066406 63.777344 432.738281 63.53125 432.664062 63.183594 C 432.542969 62.582031 432.414062 62.09375 432.261719 61.636719 C 431.144531 58.3125 428.800781 55.621094 425.65625 54.0625 C 422.515625 52.5 418.957031 52.257812 415.628906 53.375 C 408.765625 55.675781 405.054688 63.136719 407.359375 70 C 407.515625 70.457031 407.710938 70.941406 407.964844 71.476562 C 408.121094 71.796875 408.007812 72.183594 407.707031 72.375 C 403.003906 75.371094 398.785156 79.042969 395.164062 83.300781 C 394.933594 83.574219 394.535156 83.628906 394.238281 83.429688 C 393.738281 83.105469 393.289062 82.84375 392.859375 82.628906 C 386.371094 79.40625 378.472656 82.054688 375.25 88.539062 C 373.6875 91.679688 373.441406 95.242188 374.558594 98.566406 C 375.675781 101.890625 378.019531 104.578125 381.160156 106.140625 C 381.589844 106.351562 382.074219 106.554688 382.632812 106.753906 C 382.972656 106.871094 383.167969 107.222656 383.089844 107.574219 C 381.878906 113.023438 381.492188 118.605469 381.945312 124.160156 C 381.972656 124.519531 381.730469 124.839844 381.382812 124.910156 C 380.796875 125.03125 380.292969 125.164062 379.835938 125.320312 C 372.972656 127.625 369.261719 135.078125 371.566406 141.941406 C 372.683594 145.265625 375.027344 147.957031 378.167969 149.519531 C 381.308594 151.078125 384.871094 151.320312 388.195312 150.207031 C 388.65625 150.050781 389.125 149.859375 389.671875 149.597656 C 389.996094 149.445312 390.382812 149.554688 390.570312 149.855469 C 393.566406 154.558594 397.246094 158.773438 401.496094 162.390625 C 401.769531 162.621094 401.828125 163.019531 401.632812 163.320312 C 401.296875 163.828125 401.039062 164.261719 400.824219 164.695312 C 397.601562 171.179688 400.25 179.078125 406.734375 182.296875 C 413.222656 185.519531 421.117188 182.863281 424.34375 176.386719 C 424.558594 175.953125 424.757812 175.46875 424.957031 174.910156 C 425.078125 174.570312 425.429688 174.378906 425.777344 174.457031 C 431.230469 175.667969 436.816406 176.046875 442.371094 175.597656 C 442.394531 175.597656 442.410156 175.59375 442.429688 175.59375 Z M 455.960938 188.066406 C 453.746094 188.066406 451.542969 187.558594 449.5 186.542969 C 446.019531 184.8125 443.425781 181.832031 442.1875 178.152344 C 442.074219 177.804688 441.96875 177.449219 441.871094 177.050781 C 436.582031 177.425781 431.273438 177.058594 426.070312 175.964844 C 425.925781 176.34375 425.769531 176.691406 425.609375 177.011719 C 422.039062 184.191406 413.289062 187.128906 406.105469 183.5625 C 398.921875 179.996094 395.988281 171.246094 399.558594 164.066406 C 399.722656 163.742188 399.902344 163.414062 400.117188 163.070312 C 396.105469 159.582031 392.609375 155.574219 389.714844 151.132812 C 389.339844 151.292969 388.988281 151.433594 388.644531 151.542969 C 384.960938 152.78125 381.019531 152.511719 377.539062 150.78125 C 374.058594 149.054688 371.460938 146.074219 370.226562 142.390625 C 367.671875 134.792969 371.78125 126.53125 379.386719 123.980469 C 379.726562 123.863281 380.09375 123.757812 380.488281 123.664062 C 380.117188 118.371094 380.484375 113.066406 381.578125 107.867188 C 381.199219 107.71875 380.855469 107.566406 380.53125 107.40625 C 377.050781 105.675781 374.453125 102.695312 373.21875 99.015625 C 371.980469 95.332031 372.253906 91.390625 373.984375 87.910156 C 377.554688 80.730469 386.304688 77.796875 393.488281 81.363281 C 393.808594 81.523438 394.140625 81.707031 394.488281 81.917969 C 397.972656 77.910156 401.988281 74.414062 406.433594 71.515625 C 406.269531 71.144531 406.132812 70.792969 406.019531 70.449219 C 403.464844 62.847656 407.578125 54.585938 415.179688 52.03125 C 418.863281 50.796875 422.808594 51.066406 426.289062 52.796875 C 429.765625 54.523438 432.363281 57.503906 433.597656 61.1875 C 433.714844 61.53125 433.820312 61.890625 433.914062 62.289062 C 439.207031 61.914062 444.519531 62.277344 449.714844 63.375 C 449.863281 62.996094 450.019531 62.648438 450.179688 62.324219 C 453.75 55.144531 462.5 52.207031 469.683594 55.777344 C 476.863281 59.34375 479.800781 68.085938 476.230469 75.269531 C 476.066406 75.59375 475.882812 75.925781 475.671875 76.269531 C 479.683594 79.753906 483.179688 83.765625 486.074219 88.207031 C 486.449219 88.046875 486.800781 87.90625 487.144531 87.792969 C 490.828125 86.554688 494.769531 86.824219 498.25 88.554688 C 501.730469 90.285156 504.324219 93.265625 505.5625 96.945312 C 508.113281 104.542969 504.003906 112.808594 496.402344 115.359375 C 496.058594 115.476562 495.695312 115.578125 495.300781 115.675781 C 495.671875 120.96875 495.308594 126.273438 494.210938 131.472656 C 494.585938 131.617188 494.933594 131.773438 495.257812 131.933594 C 498.738281 133.660156 501.332031 136.640625 502.570312 140.324219 C 503.808594 144.007812 503.535156 147.945312 501.804688 151.429688 C 498.234375 158.605469 489.484375 161.542969 482.300781 157.976562 C 481.976562 157.816406 481.648438 157.632812 481.300781 157.421875 C 477.8125 161.429688 473.800781 164.925781 469.355469 167.820312 C 469.515625 168.195312 469.652344 168.546875 469.769531 168.890625 C 472.320312 176.492188 468.210938 184.75 460.605469 187.304688 C 459.085938 187.8125 457.519531 188.066406 455.960938 188.066406 " fill-opacity="1" fill-rule="nonzero"/><path fill="#ffffff" d="M 316.0625 106.539062 C 308.148438 102.605469 304.921875 93 308.859375 85.089844 C 312.796875 77.171875 322.40625 73.949219 330.320312 77.878906 C 338.238281 81.8125 341.460938 91.417969 337.523438 99.332031 C 333.589844 107.246094 323.976562 110.472656 316.0625 106.539062 Z M 303.589844 131.613281 C 307.851562 133.730469 313.027344 131.996094 315.144531 127.734375 C 315.304688 127.414062 315.433594 127.089844 315.550781 126.765625 C 319.03125 127.539062 322.554688 127.765625 326.015625 127.480469 C 326.085938 127.820312 326.171875 128.160156 326.285156 128.496094 C 327.796875 133.007812 332.6875 135.4375 337.199219 133.921875 C 341.714844 132.40625 344.144531 127.519531 342.628906 123.007812 C 342.515625 122.671875 342.378906 122.351562 342.230469 122.039062 C 345.160156 120.171875 347.832031 117.863281 350.140625 115.148438 C 350.429688 115.335938 350.730469 115.515625 351.046875 115.675781 C 355.308594 117.792969 360.484375 116.058594 362.605469 111.796875 C 364.726562 107.535156 362.988281 102.359375 358.726562 100.246094 C 358.40625 100.085938 358.082031 99.957031 357.757812 99.839844 C 358.53125 96.359375 358.761719 92.835938 358.480469 89.375 C 358.816406 89.308594 359.15625 89.222656 359.492188 89.109375 C 364.007812 87.59375 366.4375 82.707031 364.921875 78.195312 C 363.40625 73.683594 358.519531 71.257812 354.007812 72.773438 C 353.671875 72.886719 353.347656 73.023438 353.039062 73.171875 C 351.171875 70.242188 348.863281 67.574219 346.144531 65.265625 C 346.335938 64.976562 346.515625 64.679688 346.675781 64.359375 C 348.792969 60.097656 347.058594 54.925781 342.796875 52.808594 C 338.53125 50.691406 333.359375 52.425781 331.238281 56.6875 C 331.078125 57.007812 330.949219 57.332031 330.832031 57.65625 C 327.355469 56.882812 323.828125 56.65625 320.367188 56.9375 C 320.296875 56.597656 320.210938 56.261719 320.101562 55.925781 C 318.585938 51.414062 313.699219 48.984375 309.183594 50.5 C 304.671875 52.015625 302.242188 56.898438 303.753906 61.410156 C 303.867188 61.75 304.003906 62.070312 304.15625 62.382812 C 301.226562 64.25 298.550781 66.554688 296.242188 69.273438 C 295.953125 69.082031 295.65625 68.90625 295.335938 68.746094 C 291.074219 66.625 285.898438 68.363281 283.78125 72.625 C 281.660156 76.886719 283.394531 82.058594 287.660156 84.175781 C 287.976562 84.335938 288.300781 84.464844 288.625 84.582031 C 287.855469 88.058594 287.625 91.585938 287.902344 95.042969 C 287.566406 95.113281 287.226562 95.199219 286.890625 95.3125 C 282.378906 96.828125 279.945312 101.710938 281.460938 106.222656 C 282.976562 110.738281 287.863281 113.164062 292.378906 111.648438 C 292.710938 111.535156 293.035156 111.398438 293.34375 111.25 C 295.210938 114.175781 297.519531 116.847656 300.238281 119.15625 C 300.046875 119.445312 299.867188 119.742188 299.707031 120.0625 C 297.589844 124.324219 299.324219 129.496094 303.589844 131.613281 " fill-opacity="1" fill-rule="nonzero"/><path fill="#000000" d="M 323.222656 76.917969 C 317.589844 76.917969 312.164062 80.03125 309.492188 85.402344 C 307.671875 89.0625 307.386719 93.210938 308.6875 97.082031 C 309.984375 100.953125 312.71875 104.089844 316.378906 105.910156 C 323.933594 109.664062 333.132812 106.570312 336.890625 99.019531 C 338.710938 95.359375 339 91.210938 337.699219 87.339844 C 336.398438 83.464844 333.667969 80.332031 330.007812 78.515625 C 327.828125 77.429688 325.507812 76.917969 323.222656 76.917969 Z M 323.160156 108.917969 C 320.664062 108.917969 318.128906 108.355469 315.75 107.171875 C 311.75 105.1875 308.765625 101.765625 307.34375 97.53125 C 305.925781 93.300781 306.238281 88.769531 308.226562 84.773438 C 312.332031 76.523438 322.382812 73.144531 330.636719 77.25 C 334.632812 79.234375 337.617188 82.660156 339.039062 86.890625 C 340.457031 91.121094 340.148438 95.648438 338.15625 99.648438 C 335.238281 105.515625 329.308594 108.917969 323.160156 108.917969 Z M 326.019531 126.777344 C 326.351562 126.777344 326.640625 127.011719 326.710938 127.339844 C 326.78125 127.691406 326.863281 127.996094 326.953125 128.273438 C 327.625 130.273438 329.039062 131.894531 330.929688 132.835938 C 332.824219 133.777344 334.96875 133.921875 336.976562 133.25 C 341.109375 131.863281 343.347656 127.367188 341.957031 123.234375 C 341.863281 122.953125 341.746094 122.664062 341.589844 122.34375 C 341.4375 122.019531 341.546875 121.632812 341.851562 121.441406 C 344.757812 119.59375 347.363281 117.320312 349.601562 114.691406 C 349.832031 114.417969 350.230469 114.363281 350.527344 114.558594 C 350.835938 114.757812 351.101562 114.914062 351.363281 115.042969 C 355.269531 116.984375 360.027344 115.386719 361.972656 111.480469 C 363.914062 107.574219 362.316406 102.816406 358.410156 100.878906 C 358.148438 100.746094 357.859375 100.625 357.523438 100.503906 C 357.183594 100.386719 356.988281 100.035156 357.066406 99.6875 C 357.816406 96.316406 358.054688 92.867188 357.773438 89.433594 C 357.746094 89.074219 357.988281 88.753906 358.335938 88.683594 C 358.691406 88.609375 358.996094 88.53125 359.265625 88.441406 C 363.40625 87.050781 365.640625 82.558594 364.25 78.421875 C 363.582031 76.417969 362.167969 74.800781 360.273438 73.859375 C 358.382812 72.917969 356.238281 72.769531 354.230469 73.445312 C 353.957031 73.535156 353.671875 73.652344 353.34375 73.808594 C 353.019531 73.964844 352.632812 73.851562 352.441406 73.550781 C 350.59375 70.648438 348.320312 68.039062 345.6875 65.800781 C 345.414062 65.574219 345.359375 65.175781 345.554688 64.875 C 345.757812 64.570312 345.910156 64.308594 346.039062 64.046875 C 346.980469 62.152344 347.128906 60.007812 346.457031 58.003906 C 345.785156 56 344.371094 54.382812 342.480469 53.441406 C 340.585938 52.5 338.441406 52.351562 336.4375 53.023438 C 334.433594 53.699219 332.8125 55.113281 331.871094 57.003906 C 331.742188 57.265625 331.621094 57.546875 331.5 57.890625 C 331.378906 58.230469 331.03125 58.425781 330.679688 58.34375 C 327.3125 57.601562 323.859375 57.363281 320.425781 57.644531 C 320.074219 57.679688 319.746094 57.429688 319.675781 57.082031 C 319.601562 56.726562 319.519531 56.425781 319.429688 56.148438 C 318.757812 54.144531 317.34375 52.527344 315.453125 51.585938 C 313.558594 50.644531 311.414062 50.496094 309.410156 51.171875 C 305.273438 52.558594 303.039062 57.054688 304.425781 61.1875 C 304.519531 61.464844 304.632812 61.746094 304.792969 62.082031 C 304.945312 62.402344 304.835938 62.785156 304.535156 62.980469 C 301.625 64.828125 299.019531 67.097656 296.78125 69.730469 C 296.550781 70.003906 296.152344 70.058594 295.851562 69.863281 C 295.554688 69.664062 295.28125 69.507812 295.023438 69.378906 C 293.128906 68.4375 290.984375 68.292969 288.980469 68.960938 C 286.976562 69.636719 285.355469 71.050781 284.414062 72.941406 C 283.472656 74.832031 283.324219 76.976562 283.996094 78.980469 C 284.667969 80.984375 286.082031 82.605469 287.972656 83.542969 C 288.234375 83.675781 288.523438 83.792969 288.863281 83.917969 C 289.199219 84.035156 289.394531 84.382812 289.316406 84.734375 C 288.566406 88.105469 288.328125 91.554688 288.609375 94.988281 C 288.636719 95.339844 288.394531 95.664062 288.046875 95.738281 C 287.6875 95.8125 287.390625 95.886719 287.117188 95.980469 C 282.980469 97.371094 280.742188 101.863281 282.132812 106 C 282.804688 108.003906 284.214844 109.621094 286.109375 110.5625 C 288.003906 111.503906 290.148438 111.652344 292.152344 110.976562 C 292.429688 110.886719 292.710938 110.769531 293.042969 110.609375 C 293.363281 110.457031 293.75 110.570312 293.941406 110.871094 C 295.792969 113.777344 298.066406 116.382812 300.695312 118.617188 C 300.964844 118.847656 301.023438 119.246094 300.828125 119.542969 C 300.625 119.851562 300.472656 120.117188 300.34375 120.375 C 299.402344 122.269531 299.253906 124.414062 299.925781 126.414062 C 300.597656 128.421875 302.011719 130.042969 303.902344 130.980469 C 307.8125 132.921875 312.570312 131.324219 314.511719 127.417969 C 314.640625 127.15625 314.761719 126.867188 314.882812 126.527344 C 315.003906 126.191406 315.351562 126 315.703125 126.074219 C 319.074219 126.820312 322.527344 127.058594 325.960938 126.777344 C 325.980469 126.777344 326 126.777344 326.019531 126.777344 Z M 334.445312 135.078125 C 333.023438 135.078125 331.613281 134.753906 330.304688 134.101562 C 328.074219 132.992188 326.40625 131.082031 325.613281 128.722656 C 325.5625 128.566406 325.511719 128.402344 325.464844 128.230469 C 322.296875 128.433594 319.113281 128.21875 315.992188 127.582031 C 315.925781 127.746094 315.851562 127.898438 315.78125 128.046875 C 313.488281 132.648438 307.878906 134.535156 303.273438 132.246094 C 301.042969 131.136719 299.378906 129.226562 298.585938 126.867188 C 297.792969 124.503906 297.964844 121.976562 299.078125 119.746094 C 299.148438 119.597656 299.230469 119.449219 299.320312 119.296875 C 296.929688 117.195312 294.835938 114.792969 293.082031 112.140625 C 292.917969 112.207031 292.757812 112.265625 292.601562 112.320312 C 290.238281 113.109375 287.710938 112.933594 285.480469 111.828125 C 283.25 110.71875 281.585938 108.808594 280.792969 106.449219 C 279.15625 101.574219 281.789062 96.28125 286.664062 94.640625 C 286.820312 94.589844 286.984375 94.542969 287.15625 94.492188 C 286.953125 91.324219 287.171875 88.140625 287.808594 85.023438 C 287.644531 84.953125 287.492188 84.882812 287.34375 84.808594 C 285.113281 83.699219 283.449219 81.789062 282.65625 79.429688 C 281.863281 77.070312 282.035156 74.542969 283.144531 72.3125 C 284.253906 70.082031 286.167969 68.414062 288.53125 67.621094 C 290.894531 66.832031 293.421875 67.007812 295.652344 68.113281 C 295.800781 68.183594 295.949219 68.265625 296.101562 68.355469 C 298.207031 65.964844 300.609375 63.867188 303.261719 62.117188 C 303.195312 61.957031 303.136719 61.792969 303.085938 61.636719 C 301.449219 56.765625 304.082031 51.46875 308.960938 49.832031 C 311.324219 49.039062 313.851562 49.214844 316.082031 50.320312 C 318.3125 51.429688 319.976562 53.339844 320.769531 55.699219 C 320.824219 55.855469 320.871094 56.015625 320.917969 56.191406 C 324.089844 55.984375 327.273438 56.203125 330.390625 56.839844 C 330.460938 56.675781 330.53125 56.519531 330.605469 56.375 C 331.714844 54.144531 333.625 52.476562 335.988281 51.6875 C 338.347656 50.894531 340.878906 51.070312 343.109375 52.175781 C 345.339844 53.285156 347.003906 55.195312 347.796875 57.554688 C 348.589844 59.914062 348.414062 62.445312 347.308594 64.675781 C 347.234375 64.824219 347.152344 64.972656 347.0625 65.125 C 349.457031 67.226562 351.550781 69.632812 353.304688 72.28125 C 353.464844 72.214844 353.625 72.15625 353.78125 72.101562 C 356.144531 71.3125 358.675781 71.484375 360.902344 72.59375 C 363.132812 73.699219 364.800781 75.613281 365.59375 77.972656 C 367.230469 82.847656 364.59375 88.140625 359.71875 89.78125 C 359.5625 89.832031 359.402344 89.878906 359.230469 89.925781 C 359.429688 93.097656 359.210938 96.28125 358.574219 99.398438 C 358.738281 99.46875 358.890625 99.539062 359.039062 99.613281 C 363.644531 101.898438 365.527344 107.503906 363.238281 112.109375 C 360.945312 116.710938 355.335938 118.597656 350.734375 116.308594 C 350.585938 116.238281 350.433594 116.152344 350.28125 116.066406 C 348.175781 118.457031 345.773438 120.554688 343.121094 122.304688 C 343.1875 122.464844 343.246094 122.625 343.296875 122.785156 C 344.933594 127.65625 342.300781 132.953125 337.425781 134.589844 C 336.449219 134.914062 335.445312 135.078125 334.445312 135.078125 " fill-opacity="1" fill-rule="nonzero"/><path fill="#ffffff" d="M 1043.992188 460.945312 C 1043.992188 471.363281 1035.558594 479.8125 1025.15625 479.8125 L 471.132812 479.8125 C 460.730469 479.8125 452.300781 471.363281 452.300781 460.945312 L 452.300781 454.03125 L 1043.992188 454.03125 L 1043.992188 460.945312 " fill-opacity="1" fill-rule="nonzero"/><path fill="#000000" d="M 1025.15625 480.519531 L 471.132812 480.519531 C 460.359375 480.519531 451.59375 471.738281 451.59375 460.945312 C 451.59375 460.550781 451.910156 460.238281 452.300781 460.238281 C 452.691406 460.238281 453.007812 460.550781 453.007812 460.945312 C 453.007812 470.957031 461.136719 479.105469 471.132812 479.105469 L 1025.15625 479.105469 C 1035.152344 479.105469 1043.28125 470.957031 1043.28125 460.945312 C 1043.28125 460.550781 1043.597656 460.238281 1043.992188 460.238281 C 1044.378906 460.238281 1044.695312 460.550781 1044.695312 460.945312 C 1044.695312 471.738281 1035.929688 480.519531 1025.15625 480.519531 " fill-opacity="1" fill-rule="nonzero"/><path fill="#ffffff" d="M 1043.992188 454.03125 L 452.300781 454.03125 L 452.300781 122.324219 C 452.300781 110.246094 462.101562 100.449219 474.1875 100.449219 L 1022.101562 100.449219 C 1034.191406 100.449219 1043.992188 110.246094 1043.992188 122.324219 L 1043.992188 454.03125 " fill-opacity="1" fill-rule="nonzero"/><path fill="#000000" d="M 453.007812 453.324219 L 1043.28125 453.324219 L 1043.28125 122.324219 C 1043.28125 110.652344 1033.78125 101.15625 1022.101562 101.15625 L 474.1875 101.15625 C 462.511719 101.15625 453.007812 110.652344 453.007812 122.324219 Z M 1043.992188 454.738281 L 452.300781 454.738281 C 451.910156 454.738281 451.59375 454.417969 451.59375 454.03125 L 451.59375 122.324219 C 451.59375 109.875 461.730469 99.746094 474.1875 99.746094 L 1022.101562 99.746094 C 1034.558594 99.746094 1044.695312 109.875 1044.695312 122.324219 L 1044.695312 454.03125 C 1044.695312 454.417969 1044.378906 454.738281 1043.992188 454.738281 " fill-opacity="1" fill-rule="nonzero"/><path fill="#ffffff" d="M 627.640625 537.058594 L 613.121094 537.058594 C 605.207031 537.058594 598.789062 543.46875 598.789062 551.378906 C 598.789062 559.289062 605.207031 565.699219 613.121094 565.699219 L 883.171875 565.699219 C 891.085938 565.699219 897.5 559.289062 897.5 551.378906 C 897.5 543.46875 891.085938 537.058594 883.171875 537.058594 L 627.640625 537.058594 " fill-opacity="1" fill-rule="nonzero"/><path fill="#000000" d="M 883.171875 566.40625 L 613.121094 566.40625 C 604.828125 566.40625 598.082031 559.664062 598.082031 551.378906 C 598.082031 543.09375 604.828125 536.351562 613.121094 536.351562 L 627.640625 536.351562 C 628.027344 536.351562 628.347656 536.667969 628.347656 537.058594 C 628.347656 537.449219 628.027344 537.765625 627.640625 537.765625 L 613.121094 537.765625 C 605.609375 537.765625 599.496094 543.871094 599.496094 551.378906 C 599.496094 558.886719 605.609375 564.992188 613.121094 564.992188 L 883.171875 564.992188 C 890.679688 564.992188 896.792969 558.886719 896.792969 551.378906 C 896.792969 543.871094 890.679688 537.765625 883.171875 537.765625 L 867.390625 537.765625 C 867 537.765625 866.683594 537.449219 866.683594 537.058594 C 866.683594 536.667969 867 536.351562 867.390625 536.351562 L 883.171875 536.351562 C 891.460938 536.351562 898.207031 543.09375 898.207031 551.378906 C 898.207031 559.664062 891.460938 566.40625 883.171875 566.40625 " fill-opacity="1" fill-rule="nonzero"/><path fill="#ffffff" d="M 648.050781 479.8125 L 648.050781 537.089844 L 848.238281 537.089844 L 848.238281 479.8125 L 648.050781 479.8125 " fill-opacity="1" fill-rule="nonzero"/><path fill="#000000" d="M 648.757812 536.386719 L 847.53125 536.386719 L 847.53125 480.519531 L 648.757812 480.519531 Z M 848.238281 537.796875 L 648.050781 537.796875 C 647.65625 537.796875 647.34375 537.484375 647.34375 537.089844 L 647.34375 479.8125 C 647.34375 479.421875 647.65625 479.105469 648.050781 479.105469 L 848.238281 479.105469 C 848.632812 479.105469 848.945312 479.421875 848.945312 479.8125 L 848.945312 537.089844 C 848.945312 537.484375 848.632812 537.796875 848.238281 537.796875 " fill-opacity="1" fill-rule="nonzero"/><path fill="#ffffff" d="M 805.707031 296.5625 L 518.816406 296.5625 L 518.816406 152.707031 L 805.707031 152.707031 L 805.707031 296.5625 " fill-opacity="1" fill-rule="nonzero"/><path fill="#000000" d="M 519.523438 295.855469 L 805 295.855469 L 805 153.417969 L 519.523438 153.417969 Z M 805.707031 297.269531 L 518.816406 297.269531 C 518.429688 297.269531 518.109375 296.957031 518.109375 296.5625 L 518.109375 152.707031 C 518.109375 152.320312 518.429688 152.003906 518.816406 152.003906 L 805.707031 152.003906 C 806.097656 152.003906 806.414062 152.320312 806.414062 152.707031 L 806.414062 296.5625 C 806.414062 296.957031 806.097656 297.269531 805.707031 297.269531 " fill-opacity="1" fill-rule="nonzero"/><path fill="#000000" d="M 616.773438 351.152344 L 518.816406 351.152344 C 518.429688 351.152344 518.109375 350.839844 518.109375 350.449219 C 518.109375 350.058594 518.429688 349.742188 518.816406 349.742188 L 616.773438 349.742188 C 617.164062 349.742188 617.480469 350.058594 617.480469 350.449219 C 617.480469 350.839844 617.164062 351.152344 616.773438 351.152344 " fill-opacity="1" fill-rule="nonzero"/><path fill="#000000" d="M 727.738281 327.257812 L 518.816406 327.257812 C 518.429688 327.257812 518.109375 326.941406 518.109375 326.550781 C 518.109375 326.160156 518.429688 325.84375 518.816406 325.84375 L 727.738281 325.84375 C 728.128906 325.84375 728.441406 326.160156 728.441406 326.550781 C 728.441406 326.941406 728.128906 327.257812 727.738281 327.257812 " fill-opacity="1" fill-rule="nonzero"/><path fill="#e2eaff" d="M 549.886719 171.015625 C 535.59375 178.753906 531.015625 194.269531 530.664062 195.527344 C 528.121094 204.644531 530.265625 210.285156 532.855469 224.511719 C 539.828125 262.847656 533.207031 269.335938 541.609375 278.109375 C 552.003906 288.957031 575.121094 289.8125 585.9375 279.199219 C 587.019531 278.136719 593.613281 271.4375 592.503906 263.339844 C 590.898438 251.628906 574.902344 249.730469 573.351562 240.371094 C 571.824219 231.179688 583.769531 220.039062 595.238281 215.214844 C 615.386719 206.730469 624.042969 222.875 647.226562 217.402344 C 669.484375 212.148438 677.492188 193.675781 692.648438 198.261719 C 696.6875 199.484375 696.675781 200.964844 704.136719 206.464844 C 711.804688 212.113281 728.046875 224.078125 746.277344 225.0625 C 749.566406 225.238281 776.125 226.269531 785.679688 207.558594 C 790.964844 197.207031 790.136719 182.597656 782.394531 174.195312 C 770.464844 161.246094 745.757812 166.972656 728.765625 170.917969 C 715.292969 174.039062 713.152344 176.957031 695.933594 180.757812 C 691.402344 181.761719 677.730469 184.726562 663.644531 185.136719 C 638.207031 185.875 632.417969 177.664062 590.863281 170.367188 C 565.0625 165.839844 556.921875 167.203125 549.886719 171.015625 " fill-opacity="1" fill-rule="nonzero"/><path fill="#e2eaff" d="M 753.9375 248.03125 C 755.402344 249.007812 760.921875 253.003906 761.054688 258.417969 C 761.257812 267.117188 747.441406 274.695312 736.972656 277.015625 C 719.785156 280.824219 697.042969 273.695312 691.550781 258.417969 C 689.183594 251.832031 689.195312 241.417969 695.382812 235.996094 C 698.109375 233.609375 702.601562 231.695312 706.875 232.714844 C 712.703125 234.105469 712.480469 239.601562 717.820312 243.652344 C 728.332031 251.628906 741.589844 239.75 753.9375 248.03125 " fill-opacity="1" fill-rule="nonzero"/><path fill="#5479f7" d="M 551.457031 188.417969 C 543.398438 196.84375 547.320312 210.382812 547.628906 211.386719 C 547.984375 212.554688 551.816406 224.625 558.574219 225.0625 C 564.085938 225.414062 565.523438 217.65625 575.539062 209.746094 C 585.476562 201.894531 596.320312 200.066406 600.710938 199.355469 C 614.578125 197.113281 631.035156 204.226562 636.828125 200.996094 C 637.46875 200.640625 639.289062 199.621094 639.289062 198.261719 C 639.289062 196.898438 637.460938 195.875 636.828125 195.527344 C 631.128906 192.355469 613.753906 190.890625 605.636719 189.507812 C 594.105469 187.550781 590.128906 184.164062 576.199219 182.332031 C 573.53125 181.980469 570.523438 181.945312 566.78125 182.398438 C 561.652344 183.027344 555.863281 183.8125 551.457031 188.417969 " fill-opacity="1" fill-rule="nonzero"/><path fill="#5479f7" d="M 767.617188 179.117188 C 769.730469 180.230469 770.898438 181.785156 771.632812 182.765625 C 775.367188 187.746094 776.46875 195.863281 773.09375 200.628906 C 768.984375 206.4375 759.714844 205.1875 747.554688 203.546875 C 739.308594 202.433594 730.289062 201.21875 728.949219 196.257812 C 727.839844 192.164062 732.460938 187.378906 735.148438 185.316406 C 738.175781 182.996094 739.464844 183.578125 750.472656 180.941406 C 760.394531 178.566406 763.695312 177.054688 767.617188 179.117188 " fill-opacity="1" fill-rule="nonzero"/><path fill="#ffffff" d="M 983.703125 296.5625 L 839.757812 296.5625 L 839.757812 152.707031 L 983.703125 152.707031 L 983.703125 296.5625 " fill-opacity="1" fill-rule="nonzero"/><path fill="#000000" d="M 840.464844 295.855469 L 982.996094 295.855469 L 982.996094 153.417969 L 840.464844 153.417969 Z M 983.703125 297.269531 L 839.757812 297.269531 C 839.367188 297.269531 839.050781 296.957031 839.050781 296.5625 L 839.050781 152.707031 C 839.050781 152.320312 839.367188 152.003906 839.757812 152.003906 L 983.703125 152.003906 C 984.089844 152.003906 984.410156 152.320312 984.410156 152.707031 L 984.410156 296.5625 C 984.410156 296.957031 984.089844 297.269531 983.703125 297.269531 " fill-opacity="1" fill-rule="nonzero"/><path fill="#000000" d="M 917.382812 327.257812 L 845.410156 327.257812 C 845.023438 327.257812 844.703125 326.941406 844.703125 326.550781 C 844.703125 326.160156 845.023438 325.84375 845.410156 325.84375 L 917.382812 325.84375 C 917.773438 325.84375 918.089844 326.160156 918.089844 326.550781 C 918.089844 326.941406 917.773438 327.257812 917.382812 327.257812 " fill-opacity="1" fill-rule="nonzero"/><path fill="#e2eaff" d="M 968.324219 220.230469 L 855.136719 220.230469 C 852.707031 220.230469 850.734375 218.261719 850.734375 215.832031 L 850.734375 206.875 C 850.734375 204.449219 852.707031 202.476562 855.136719 202.476562 L 968.324219 202.476562 C 970.753906 202.476562 972.726562 204.449219 972.726562 206.875 L 972.726562 215.832031 C 972.726562 218.261719 970.753906 220.230469 968.324219 220.230469 " fill-opacity="1" fill-rule="nonzero"/><path fill="#e2eaff" d="M 968.324219 252.109375 L 855.136719 252.109375 C 852.707031 252.109375 850.734375 250.140625 850.734375 247.707031 L 850.734375 238.753906 C 850.734375 236.324219 852.707031 234.351562 855.136719 234.351562 L 968.324219 234.351562 C 970.753906 234.351562 972.726562 236.324219 972.726562 238.753906 L 972.726562 247.707031 C 972.726562 250.140625 970.753906 252.109375 968.324219 252.109375 " fill-opacity="1" fill-rule="nonzero"/><path fill="#e2eaff" d="M 968.324219 284.183594 L 855.136719 284.183594 C 852.707031 284.183594 850.734375 282.214844 850.734375 279.785156 L 850.734375 270.828125 C 850.734375 268.398438 852.707031 266.429688 855.136719 266.429688 L 968.324219 266.429688 C 970.753906 266.429688 972.726562 268.398438 972.726562 270.828125 L 972.726562 279.785156 C 972.726562 282.214844 970.753906 284.183594 968.324219 284.183594 " fill-opacity="1" fill-rule="nonzero"/><path fill="#e2eaff" d="M 968.324219 188.609375 L 855.136719 188.609375 C 852.707031 188.609375 850.734375 186.640625 850.734375 184.210938 L 850.734375 175.253906 C 850.734375 172.824219 852.707031 170.855469 855.136719 170.855469 L 968.324219 170.855469 C 970.753906 170.855469 972.726562 172.824219 972.726562 175.253906 L 972.726562 184.210938 C 972.726562 186.640625 970.753906 188.609375 968.324219 188.609375 " fill-opacity="1" fill-rule="nonzero"/><path fill="#5479f7" d="M 954.675781 220.230469 L 855.136719 220.230469 C 852.707031 220.230469 850.734375 218.261719 850.734375 215.832031 L 850.734375 206.875 C 850.734375 204.449219 852.707031 202.476562 855.136719 202.476562 L 954.675781 202.476562 C 957.109375 202.476562 959.078125 204.449219 959.078125 206.875 L 959.078125 215.832031 C 959.078125 218.261719 957.109375 220.230469 954.675781 220.230469 " fill-opacity="1" fill-rule="nonzero"/><path fill="#5479f7" d="M 896.886719 252.109375 L 855.136719 252.109375 C 852.707031 252.109375 850.734375 250.140625 850.734375 247.707031 L 850.734375 238.753906 C 850.734375 236.324219 852.707031 234.351562 855.136719 234.351562 L 896.886719 234.351562 C 899.320312 234.351562 901.289062 236.324219 901.289062 238.753906 L 901.289062 247.707031 C 901.289062 250.140625 899.320312 252.109375 896.886719 252.109375 " fill-opacity="1" fill-rule="nonzero"/><path fill="#5479f7" d="M 910.535156 284.183594 L 855.136719 284.183594 C 852.707031 284.183594 850.734375 282.214844 850.734375 279.785156 L 850.734375 270.828125 C 850.734375 268.398438 852.707031 266.429688 855.136719 266.429688 L 910.535156 266.429688 C 912.96875 266.429688 914.9375 268.398438 914.9375 270.828125 L 914.9375 279.785156 C 914.9375 282.214844 912.96875 284.183594 910.535156 284.183594 " fill-opacity="1" fill-rule="nonzero"/><path fill="#5479f7" d="M 939.105469 188.609375 L 855.136719 188.609375 C 852.707031 188.609375 850.734375 186.640625 850.734375 184.210938 L 850.734375 175.253906 C 850.734375 172.824219 852.707031 170.855469 855.136719 170.855469 L 939.105469 170.855469 C 941.539062 170.855469 943.507812 172.824219 943.507812 175.253906 L 943.507812 184.210938 C 943.507812 186.640625 941.539062 188.609375 939.105469 188.609375 " fill-opacity="1" fill-rule="nonzero"/><path fill="#e2eaff" d="M 743.65625 415.574219 L 577.96875 415.574219 C 572.375 415.574219 567.796875 411 567.796875 405.410156 L 567.796875 384.8125 C 567.796875 379.21875 572.375 374.648438 577.96875 374.648438 L 743.65625 374.648438 C 749.25 374.648438 753.828125 379.21875 753.828125 384.8125 L 753.828125 405.410156 C 753.828125 411 749.25 415.574219 743.65625 415.574219 " fill-opacity="1" fill-rule="nonzero"/><path fill="#000000" d="M 1024.148438 151.472656 C 1023.757812 151.472656 1023.441406 151.15625 1023.441406 150.765625 L 1023.441406 121.402344 L 782.375 121.402344 C 781.984375 121.402344 781.667969 121.089844 781.667969 120.699219 C 781.667969 120.308594 781.984375 119.992188 782.375 119.992188 L 1024.148438 119.992188 C 1024.535156 119.992188 1024.855469 120.308594 1024.855469 120.699219 L 1024.855469 150.765625 C 1024.855469 151.15625 1024.535156 151.472656 1024.148438 151.472656 " fill-opacity="1" fill-rule="nonzero"/><path fill="#000000" d="M 472.507812 277.945312 C 472.121094 277.945312 471.804688 277.632812 471.804688 277.242188 L 471.804688 120.699219 C 471.804688 120.308594 472.121094 119.992188 472.507812 119.992188 L 748.328125 119.992188 C 748.722656 119.992188 749.035156 120.308594 749.035156 120.699219 C 749.035156 121.089844 748.722656 121.402344 748.328125 121.402344 L 473.21875 121.402344 L 473.21875 277.242188 C 473.21875 277.632812 472.902344 277.945312 472.507812 277.945312 " fill-opacity="1" fill-rule="nonzero"/><path fill="#000000" d="M 908.320312 434.488281 L 652.582031 434.488281 C 652.191406 434.488281 651.875 434.171875 651.875 433.78125 C 651.875 433.394531 652.191406 433.074219 652.582031 433.074219 L 908.320312 433.074219 C 908.714844 433.074219 909.03125 433.394531 909.03125 433.78125 C 909.03125 434.171875 908.714844 434.488281 908.320312 434.488281 " fill-opacity="1" fill-rule="nonzero"/><path fill="#000000" d="M 1074.425781 150.308594 C 1075.371094 145.378906 1077.949219 140.660156 1082.042969 137.964844 C 1086.140625 135.265625 1091.816406 134.9375 1095.84375 137.804688 C 1098.621094 139.785156 1100.367188 143.003906 1101.347656 146.332031 C 1102.878906 151.539062 1102.6875 157.371094 1100.257812 162.171875 C 1097.832031 166.972656 1093.042969 170.558594 1087.792969 170.882812 C 1075.890625 171.621094 1072.542969 160.144531 1074.425781 150.308594 " fill-opacity="1" fill-rule="nonzero"/><path fill="#000000" d="M 1008.234375 239.847656 C 1008.125 232.273438 1007.976562 224.445312 1005.675781 217.320312 C 1003.683594 211.15625 1000.144531 205.734375 999.203125 199.214844 C 998.179688 192.132812 1000.558594 185.128906 1004.207031 180.570312 C 1007.609375 176.320312 1011.574219 173.699219 1017.390625 171.40625 C 1026.75 167.71875 1041.660156 161.839844 1058.175781 165.984375 C 1079.203125 171.265625 1091.050781 189.847656 1097.9375 200.652344 C 1112.5625 223.59375 1107.550781 230.867188 1127.636719 273.535156 C 1134.046875 287.148438 1136.65625 290.746094 1140.882812 302.511719 C 1142.871094 308.046875 1157.257812 348.117188 1145.433594 357.269531 C 1145.273438 357.390625 1144.664062 358.117188 1143.585938 358.355469 C 1139.003906 359.386719 1133.257812 349.550781 1117.363281 346.949219 C 1091.132812 342.65625 1080.101562 367.894531 1039.777344 369.371094 C 1033.210938 369.613281 1026.335938 369.492188 1020.214844 365.335938 C 1005.933594 355.640625 1009.503906 328.996094 1009.257812 311.933594 C 1008.917969 287.902344 1008.574219 263.875 1008.234375 239.847656 " fill-opacity="1" fill-rule="nonzero"/><g clip-path="url(#17222dffdd)"><path fill="#ffffff" d="M 927.894531 636.28125 L 973.695312 454.046875 L 1095.285156 478.769531 C 1133.269531 528.964844 1139.710938 594.261719 1139.597656 636.28125 L 927.894531 636.28125 " fill-opacity="1" fill-rule="nonzero"/></g><g clip-path="url(#51f1a7bc8e)"><path fill="#000000" d="M 927.894531 636.988281 C 927.835938 636.988281 927.777344 636.980469 927.71875 636.964844 C 927.339844 636.871094 927.113281 636.488281 927.207031 636.109375 C 931.027344 620.945312 934.988281 605.128906 939.027344 589.007812 C 950.421875 543.515625 962.199219 496.476562 973.304688 454.203125 C 973.398438 453.835938 973.761719 453.617188 974.125 453.6875 C 979.789062 454.796875 985.460938 455.910156 991.148438 457.023438 C 1025.445312 463.738281 1060.910156 470.683594 1095.453125 478.082031 C 1095.621094 478.117188 1095.765625 478.210938 1095.867188 478.34375 C 1111.171875 498.394531 1122.65625 522.886719 1130.007812 551.144531 C 1136.496094 576.074219 1139.960938 604.714844 1140.304688 636.277344 C 1140.3125 636.664062 1139.996094 636.984375 1139.605469 636.988281 C 1139.605469 636.988281 1139.601562 636.988281 1139.597656 636.988281 C 1139.210938 636.988281 1138.894531 636.675781 1138.890625 636.289062 C 1138.164062 569.605469 1123.363281 516.824219 1094.902344 479.410156 C 1060.453125 472.03125 1025.085938 465.109375 990.878906 458.410156 C 985.410156 457.339844 979.949219 456.269531 974.503906 455.199219 C 963.449219 497.304688 951.730469 544.09375 940.398438 589.347656 C 936.359375 605.472656 932.398438 621.289062 928.578125 636.453125 C 928.496094 636.773438 928.207031 636.988281 927.894531 636.988281 " fill-opacity="1" fill-rule="nonzero"/></g><g clip-path="url(#d184260ad6)"><path fill="#000000" d="M 1020.996094 636.152344 C 1020.980469 636.152344 1020.96875 636.152344 1020.953125 636.152344 C 1020.5625 636.128906 1020.265625 635.792969 1020.289062 635.40625 C 1020.523438 631.589844 1020.847656 625.464844 1021.160156 619.542969 C 1021.476562 613.621094 1021.800781 607.5 1022.035156 603.679688 C 1022.1875 601.179688 1022.351562 598.683594 1022.519531 596.183594 C 1022.84375 591.277344 1023.179688 586.207031 1023.414062 581.21875 C 1023.855469 571.855469 1018.980469 563.347656 1010.996094 559.550781 C 1008.082031 558.164062 1005.0625 556.867188 1002.140625 555.613281 C 1000.660156 554.980469 999.183594 554.34375 997.714844 553.699219 C 997.355469 553.542969 997.195312 553.125 997.355469 552.769531 C 997.511719 552.414062 997.929688 552.25 998.285156 552.40625 C 999.75 553.050781 1001.222656 553.683594 1002.695312 554.316406 C 1005.632812 555.574219 1008.667969 556.878906 1011.601562 558.273438 C 1020.105469 562.316406 1025.296875 571.351562 1024.828125 581.285156 C 1024.589844 586.285156 1024.253906 591.363281 1023.925781 596.277344 C 1023.761719 598.769531 1023.597656 601.265625 1023.445312 603.765625 C 1023.210938 607.582031 1022.886719 613.699219 1022.574219 619.621094 C 1022.257812 625.542969 1021.933594 631.671875 1021.699219 635.492188 C 1021.679688 635.863281 1021.367188 636.152344 1020.996094 636.152344 " fill-opacity="1" fill-rule="nonzero"/></g><path fill="#ffffff" d="M 1066.117188 232.945312 L 1084.121094 294.71875 C 1084.121094 294.71875 1049.757812 337.046875 1023.859375 335.378906 C 997.964844 333.707031 1002.789062 304.414062 1022.085938 295.3125 L 1040.921875 289.867188 L 1035.300781 241.445312 L 1066.117188 232.945312 " fill-opacity="1" fill-rule="nonzero"/><path fill="#ffffff" d="M 1011.683594 220.144531 C 1010.378906 227.25 1010.347656 234.734375 1012.75 241.550781 C 1015.152344 248.367188 1020.214844 254.4375 1026.96875 257.019531 C 1032.820312 259.261719 1039.523438 258.722656 1045.308594 256.308594 C 1051.09375 253.894531 1056.019531 249.71875 1060.039062 244.914062 C 1066.214844 247.105469 1073.742188 244.546875 1077.300781 239.046875 C 1079.355469 235.871094 1080.074219 231.644531 1078.398438 228.257812 C 1076.722656 224.867188 1072.308594 222.84375 1068.890625 224.457031 C 1066.941406 225.378906 1065.554688 227.253906 1063.570312 228.09375 C 1061.355469 229.03125 1058.714844 228.476562 1056.71875 227.136719 C 1054.726562 225.800781 1053.292969 223.769531 1052.152344 221.65625 C 1048.554688 215.003906 1047.480469 207.027344 1049.195312 199.660156 C 1049.03125 200.351562 1045.328125 201.402344 1044.671875 201.628906 C 1043.011719 202.1875 1041.304688 202.601562 1039.574219 202.871094 C 1036.160156 203.402344 1032.65625 203.363281 1029.253906 202.773438 C 1027.53125 202.472656 1025.824219 202.03125 1024.175781 201.445312 C 1022.859375 200.984375 1021.160156 199.742188 1019.761719 199.726562 C 1016.84375 199.695312 1015.972656 205.015625 1015.269531 207.074219 C 1013.800781 211.347656 1012.5 215.691406 1011.683594 220.144531 " fill-opacity="1" fill-rule="nonzero"/><path fill="#000000" d="M 1048.503906 199.496094 C 1048.503906 199.5 1048.503906 199.5 1048.503906 199.5 C 1048.503906 199.5 1048.503906 199.5 1048.503906 199.496094 Z M 1019.738281 200.433594 C 1017.878906 200.433594 1016.953125 203.742188 1016.339844 205.9375 C 1016.191406 206.464844 1016.0625 206.933594 1015.9375 207.300781 C 1014.210938 212.332031 1013.078125 216.453125 1012.382812 220.269531 C 1010.929688 228.171875 1011.28125 235.253906 1013.417969 241.316406 C 1015.90625 248.386719 1021.066406 254.011719 1027.21875 256.363281 C 1032.566406 258.40625 1039.0625 258.148438 1045.039062 255.65625 C 1050.234375 253.484375 1055.097656 249.71875 1059.496094 244.460938 C 1059.6875 244.230469 1060 244.148438 1060.277344 244.242188 C 1066.121094 246.324219 1073.339844 243.867188 1076.707031 238.660156 C 1078.789062 235.4375 1079.203125 231.480469 1077.761719 228.570312 C 1076.1875 225.378906 1072.101562 223.722656 1069.195312 225.097656 C 1068.335938 225.5 1067.585938 226.121094 1066.789062 226.773438 C 1065.898438 227.507812 1064.972656 228.269531 1063.84375 228.742188 C 1061.574219 229.703125 1058.691406 229.3125 1056.324219 227.722656 C 1054.507812 226.5 1052.980469 224.683594 1051.527344 221.992188 C 1048.128906 215.710938 1046.933594 208.210938 1048.164062 201.171875 C 1047.480469 201.457031 1046.558594 201.777344 1045.320312 202.160156 C 1045.132812 202.21875 1044.984375 202.269531 1044.898438 202.296875 C 1043.21875 202.863281 1041.464844 203.292969 1039.679688 203.570312 C 1036.183594 204.109375 1032.636719 204.078125 1029.132812 203.46875 C 1027.355469 203.160156 1025.609375 202.703125 1023.9375 202.113281 C 1023.433594 201.933594 1022.914062 201.671875 1022.363281 201.386719 C 1021.445312 200.921875 1020.5 200.441406 1019.757812 200.433594 C 1019.75 200.433594 1019.742188 200.433594 1019.738281 200.433594 Z M 1034.929688 259.140625 C 1032.054688 259.140625 1029.269531 258.65625 1026.714844 257.683594 C 1020.179688 255.183594 1014.710938 249.242188 1012.082031 241.785156 C 1009.863281 235.488281 1009.492188 228.164062 1010.992188 220.015625 L 1011.683594 220.144531 L 1010.992188 220.015625 C 1011.703125 216.128906 1012.847656 211.945312 1014.597656 206.847656 C 1014.71875 206.5 1014.839844 206.054688 1014.976562 205.558594 C 1015.707031 202.953125 1016.808594 199.019531 1019.734375 199.019531 C 1019.746094 199.019531 1019.761719 199.019531 1019.773438 199.019531 C 1020.847656 199.035156 1021.941406 199.589844 1023.003906 200.128906 C 1023.511719 200.386719 1023.996094 200.632812 1024.410156 200.78125 C 1026.003906 201.34375 1027.675781 201.78125 1029.375 202.078125 C 1032.722656 202.660156 1036.121094 202.691406 1039.464844 202.175781 C 1041.167969 201.90625 1042.84375 201.5 1044.445312 200.957031 C 1044.542969 200.925781 1044.695312 200.875 1044.898438 200.8125 C 1047.496094 200.003906 1048.320312 199.589844 1048.542969 199.378906 C 1048.675781 199.074219 1049.015625 198.890625 1049.351562 198.96875 C 1049.730469 199.058594 1049.96875 199.4375 1049.882812 199.820312 C 1048.210938 207 1049.265625 214.835938 1052.769531 221.324219 C 1054.113281 223.800781 1055.492188 225.460938 1057.117188 226.550781 C 1059.089844 227.875 1061.460938 228.214844 1063.292969 227.441406 C 1064.234375 227.046875 1065.035156 226.382812 1065.890625 225.679688 C 1066.71875 225.003906 1067.570312 224.300781 1068.589844 223.816406 C 1072.21875 222.105469 1077.097656 224.035156 1079.03125 227.945312 C 1080.714844 231.339844 1080.277344 235.742188 1077.890625 239.425781 C 1074.277344 245.023438 1066.621094 247.730469 1060.269531 245.734375 C 1055.804688 250.980469 1050.867188 254.753906 1045.582031 256.960938 C 1042.105469 258.40625 1038.457031 259.140625 1034.929688 259.140625 " fill-opacity="1" fill-rule="nonzero"/><path fill="#ffffff" d="M 1070.472656 233.398438 C 1067.027344 233.226562 1063.574219 235.296875 1062.109375 238.417969 L 1070.472656 233.398438 " fill-opacity="1" fill-rule="nonzero"/><path fill="#000000" d="M 1062.109375 239.125 C 1062.007812 239.125 1061.90625 239.101562 1061.808594 239.058594 C 1061.457031 238.894531 1061.300781 238.472656 1061.46875 238.121094 C 1063.058594 234.734375 1066.789062 232.503906 1070.507812 232.695312 C 1070.902344 232.710938 1071.199219 233.042969 1071.179688 233.433594 C 1071.160156 233.824219 1070.816406 234.121094 1070.4375 234.105469 C 1067.253906 233.941406 1064.101562 235.84375 1062.75 238.722656 C 1062.628906 238.972656 1062.375 239.125 1062.109375 239.125 " fill-opacity="1" fill-rule="nonzero"/><path fill="#5479f7" d="M 1113.09375 492.488281 C 1125.761719 485.890625 1133.773438 472.949219 1139.835938 460.023438 C 1154.09375 429.636719 1161.011719 395.964844 1160.902344 362.410156 C 1160.851562 345.769531 1158.78125 328.261719 1149.050781 314.757812 C 1138.515625 300.148438 1120.507812 292.554688 1102.6875 289.875 C 1095.511719 288.792969 1087.886719 288.453125 1081.269531 291.433594 C 1072.671875 295.308594 1067.433594 303.929688 1060.953125 310.78125 C 1053.421875 318.753906 1043.699219 324.636719 1033.140625 327.617188 C 1026.398438 329.515625 1018.257812 329.988281 1013.851562 323.523438 C 1011.878906 320.636719 1011.269531 317.054688 1011.730469 313.582031 C 1012.699219 306.304688 1017.460938 300.691406 1022.085938 295.3125 C 1013.214844 293.882812 1004.082031 297.425781 997.078125 303.054688 C 990.074219 308.679688 984.890625 316.226562 980.167969 323.863281 C 965.734375 347.226562 954.644531 372.539062 945.761719 398.523438 C 942.621094 407.714844 939.71875 417.316406 940.71875 426.976562 C 941.851562 437.90625 943.878906 448.335938 951.953125 455.796875 C 954.566406 458.210938 957.046875 460.367188 959.214844 462.1875 C 963.335938 465.644531 968.730469 467.089844 974.058594 466.359375 C 1003.382812 462.320312 1074.316406 485.304688 1080.316406 490.167969 C 1089.355469 497.492188 1102.996094 497.75 1113.09375 492.488281 " fill-opacity="1" fill-rule="nonzero"/><path fill="#000000" d="M 1084.121094 403.167969 C 1084.050781 403.167969 1083.980469 403.152344 1083.90625 403.128906 C 1083.539062 403.011719 1083.332031 402.617188 1083.449219 402.246094 L 1097.464844 358.277344 C 1097.582031 357.902344 1097.980469 357.699219 1098.351562 357.816406 C 1098.726562 357.9375 1098.929688 358.332031 1098.8125 358.703125 L 1084.796875 402.671875 C 1084.699219 402.972656 1084.425781 403.167969 1084.121094 403.167969 " fill-opacity="1" fill-rule="nonzero"/><path fill="#000000" d="M 985.089844 386.296875 C 985.058594 386.296875 985.027344 386.296875 984.992188 386.292969 C 984.605469 386.234375 984.335938 385.878906 984.390625 385.492188 C 986.15625 373.203125 989.191406 361.046875 993.414062 349.363281 C 993.550781 349 993.953125 348.808594 994.320312 348.941406 C 994.6875 349.078125 994.878906 349.480469 994.746094 349.847656 C 990.554688 361.4375 987.542969 373.496094 985.789062 385.695312 C 985.738281 386.042969 985.4375 386.296875 985.089844 386.296875 " fill-opacity="1" fill-rule="nonzero"/><path fill="#ffffff" d="M 1079.386719 479.753906 C 1078.898438 481.359375 1078.191406 483.179688 1076.597656 483.703125 C 1075.335938 484.117188 1073.808594 483.832031 1072.78125 482.992188 C 1050.710938 464.996094 1033.113281 453.40625 1006.976562 442.167969 C 1003.65625 440.738281 1008.902344 455.242188 990 442.292969 C 987.015625 440.25 989.511719 434.152344 993.074219 433.558594 C 990.125 433.144531 987.609375 430.59375 987.234375 427.640625 C 986.855469 424.6875 988.652344 421.589844 991.40625 420.453125 C 988.550781 420.984375 985.894531 418.140625 985.753906 415.238281 C 985.617188 412.339844 987.332031 409.652344 989.40625 407.617188 C 981.5 411.449219 970.417969 422.632812 964.148438 415.09375 C 962.472656 407.457031 967.816406 403.398438 973.742188 398.296875 C 979.667969 393.199219 987.394531 390.667969 995.078125 389.222656 C 1012.171875 386.011719 1029.96875 387.605469 1046.671875 392.445312 C 1061.371094 396.699219 1075.367188 403.390625 1088.347656 411.449219 C 1091.539062 413.433594 1092.601562 413.859375 1092.648438 417.535156 C 1092.699219 421.480469 1091.546875 425.820312 1090.933594 429.710938 C 1089.652344 437.808594 1088.101562 445.867188 1086.28125 453.863281 C 1084.300781 462.574219 1082 471.214844 1079.386719 479.753906 " fill-opacity="1" fill-rule="nonzero"/><path fill="#000000" d="M 1006.503906 442.578125 C 1006.433594 442.578125 1006.363281 442.570312 1006.292969 442.546875 L 998.738281 440.136719 C 998.363281 440.015625 998.15625 439.621094 998.277344 439.25 C 998.394531 438.875 998.792969 438.671875 999.164062 438.789062 L 1006.71875 441.203125 C 1007.09375 441.320312 1007.300781 441.714844 1007.179688 442.089844 C 1007.082031 442.386719 1006.808594 442.578125 1006.503906 442.578125 " fill-opacity="1" fill-rule="nonzero"/><path fill="#000000" d="M 1119.703125 431.15625 C 1119.542969 431.15625 1119.386719 431.101562 1119.253906 430.996094 C 1111.757812 424.84375 1103.511719 419.636719 1094.730469 415.515625 C 1094.378906 415.347656 1094.226562 414.929688 1094.390625 414.574219 C 1094.558594 414.222656 1094.984375 414.070312 1095.332031 414.238281 C 1104.21875 418.410156 1112.570312 423.679688 1120.152344 429.902344 C 1120.453125 430.148438 1120.5 430.59375 1120.246094 430.898438 C 1120.109375 431.066406 1119.90625 431.15625 1119.703125 431.15625 " fill-opacity="1" fill-rule="nonzero"/><path fill="#ffffff" d="M 983.097656 449.3125 C 982.976562 454.292969 981.550781 459.632812 977.617188 462.695312 C 972.558594 466.632812 965.304688 465.515625 959.136719 463.75 C 929.875 455.335938 903.484375 439.117188 888.3125 412.734375 C 887.6875 411.648438 882.117188 398.308594 884.394531 395.296875 C 886.542969 392.464844 891.867188 397.84375 895.347656 398.574219 C 910.417969 401.734375 925.285156 405.84375 939.839844 410.863281 C 947.324219 413.441406 954.722656 416.261719 962.019531 419.316406 C 967.601562 421.652344 972.351562 422.28125 976.078125 427.339844 C 980.71875 433.628906 983.285156 441.488281 983.097656 449.3125 " fill-opacity="1" fill-rule="nonzero"/><path fill="#000000" d="M 959.136719 464.453125 C 959.074219 464.453125 959.007812 464.445312 958.941406 464.425781 C 926.242188 455.027344 901.609375 437.273438 887.699219 413.089844 C 887.621094 412.953125 881.066406 398.523438 883.832031 394.871094 C 884.070312 394.558594 884.511719 394.5 884.824219 394.738281 C 885.136719 394.96875 885.195312 395.414062 884.960938 395.726562 C 883.0625 398.234375 888.035156 410.835938 888.921875 412.382812 C 902.648438 436.246094 926.996094 453.773438 959.332031 463.066406 C 959.710938 463.175781 959.925781 463.566406 959.820312 463.941406 C 959.726562 464.25 959.445312 464.453125 959.136719 464.453125 " fill-opacity="1" fill-rule="nonzero"/><path fill="#000000" d="M 868.800781 369.785156 L 922.597656 369.785156 C 923.746094 369.785156 924.828125 370.3125 925.535156 371.210938 L 968.90625 426.355469 C 970.828125 428.808594 969.085938 432.402344 965.964844 432.402344 L 914.03125 432.402344 C 912.910156 432.402344 911.851562 431.898438 911.140625 431.03125 L 865.910156 375.890625 C 863.914062 373.449219 865.648438 369.785156 868.800781 369.785156 " fill-opacity="1" fill-rule="nonzero"/><path fill="#ffffff" d="M 891.671875 376.878906 C 892.320312 376.289062 893.238281 375.707031 894.011719 376.121094 C 894.683594 376.484375 894.808594 377.378906 894.851562 378.140625 C 895.28125 385.609375 895.710938 393.074219 896.136719 400.539062 C 896.046875 393.863281 897.78125 386.957031 902.109375 381.867188 C 903.175781 380.613281 905.058594 379.433594 906.316406 380.492188 C 907.074219 381.125 907.132812 382.257812 907.089844 383.246094 C 906.71875 391.628906 903.363281 400.292969 906.308594 408.144531 C 906.835938 403.152344 908.023438 398.230469 909.835938 393.546875 C 910.578125 391.628906 911.496094 389.652344 913.171875 388.460938 C 914.851562 387.265625 917.492188 387.195312 918.746094 388.828125 C 920.078125 390.558594 919.253906 393.027344 918.519531 395.085938 C 916.398438 401.050781 915.5 407.449219 915.890625 413.765625 C 916.707031 408.828125 917.722656 403.507812 921.410156 400.117188 C 922.488281 399.125 923.820312 398.328125 925.28125 398.207031 C 926.742188 398.085938 928.328125 398.777344 928.960938 400.097656 C 929.65625 401.554688 929.082031 403.261719 928.617188 404.808594 C 926.824219 410.761719 926.859375 417.230469 928.605469 423.191406 C 929.914062 427.660156 935.519531 433.675781 929.589844 437.164062 C 927.554688 438.363281 925.042969 438.457031 922.707031 438.121094 C 916.101562 437.175781 910.363281 433.191406 905.203125 428.96875 C 899.933594 424.65625 894.929688 419.921875 891.082031 414.300781 C 887.242188 408.683594 884.59375 402.101562 884.394531 395.296875 C 884.203125 388.492188 886.652344 381.480469 891.671875 376.878906 " fill-opacity="1" fill-rule="nonzero"/><path fill="#000000" d="M 811.355469 599.261719 L 556.175781 599.261719 C 555.789062 599.261719 555.46875 598.945312 555.46875 598.554688 C 555.46875 598.164062 555.789062 597.847656 556.175781 597.847656 L 811.355469 597.847656 C 811.742188 597.847656 812.0625 598.164062 812.0625 598.554688 C 812.0625 598.945312 811.742188 599.261719 811.355469 599.261719 " fill-opacity="1" fill-rule="nonzero"/><path fill="#000000" d="M 634.46875 619.214844 L 389.15625 619.214844 C 388.765625 619.214844 388.449219 618.894531 388.449219 618.507812 C 388.449219 618.117188 388.765625 617.800781 389.15625 617.800781 L 634.46875 617.800781 C 634.855469 617.800781 635.175781 618.117188 635.175781 618.507812 C 635.175781 618.894531 634.855469 619.214844 634.46875 619.214844 " fill-opacity="1" fill-rule="nonzero"/><g clip-path="url(#cf798fab25)"><path fill="#000000" d="M 866.035156 636.988281 L 587.785156 636.988281 C 587.390625 636.988281 587.078125 636.671875 587.078125 636.28125 C 587.078125 635.890625 587.390625 635.574219 587.785156 635.574219 L 866.035156 635.574219 C 866.425781 635.574219 866.742188 635.890625 866.742188 636.28125 C 866.742188 636.671875 866.425781 636.988281 866.035156 636.988281 " fill-opacity="1" fill-rule="nonzero"/></g><path fill="#000000" d="M 640.84375 387.925781 C 640.574219 387.925781 640.304688 387.824219 640.101562 387.621094 C 639.683594 387.214844 639.675781 386.539062 640.085938 386.125 L 657.238281 368.679688 C 657.648438 368.261719 658.320312 368.257812 658.738281 368.667969 C 659.15625 369.078125 659.160156 369.75 658.75 370.167969 L 641.601562 387.605469 C 641.390625 387.820312 641.117188 387.925781 640.84375 387.925781 " fill-opacity="1" fill-rule="nonzero"/><path fill="#000000" d="M 629.960938 385.789062 C 629.53125 385.789062 629.125 385.523438 628.96875 385.09375 L 622.839844 368.589844 C 622.632812 368.042969 622.914062 367.433594 623.464844 367.230469 C 624.011719 367.027344 624.625 367.304688 624.824219 367.851562 L 630.953125 384.359375 C 631.160156 384.910156 630.878906 385.519531 630.328125 385.722656 C 630.207031 385.769531 630.082031 385.789062 629.960938 385.789062 " fill-opacity="1" fill-rule="nonzero"/><path fill="#000000" d="M 663.839844 400.054688 C 663.804688 400.054688 663.769531 400.054688 663.734375 400.050781 L 643.074219 398.015625 C 642.492188 397.960938 642.0625 397.441406 642.121094 396.859375 C 642.179688 396.273438 642.699219 395.851562 643.28125 395.910156 L 663.941406 397.941406 C 664.523438 398 664.949219 398.515625 664.894531 399.101562 C 664.839844 399.644531 664.378906 400.054688 663.839844 400.054688 " fill-opacity="1" fill-rule="nonzero"/><path fill="#5479f7" d="M 438.402344 509.152344 C 433.261719 511.992188 432.277344 518.960938 436.429688 523.109375 L 504.324219 590.960938 C 508.488281 595.125 515.484375 594.117188 518.304688 588.953125 L 563.714844 505.328125 L 584.707031 526.226562 C 589.460938 530.953125 597.546875 528.855469 599.402344 522.417969 L 633.351562 404.675781 C 635.273438 398.023438 629.117188 391.859375 622.457031 393.757812 L 504.492188 427.363281 C 498.039062 429.203125 495.921875 437.289062 500.648438 442.054688 L 521.910156 463.414062 L 438.402344 509.152344 " fill-opacity="1" fill-rule="nonzero"/><path fill="#e2eaff" d="M 423.898438 375.65625 L 281.011719 375.65625 L 281.011719 285.050781 L 423.898438 285.050781 L 423.898438 375.65625 " fill-opacity="1" fill-rule="nonzero"/><path fill="#000000" d="M 545.867188 400.742188 L 352.453125 400.742188 C 352.0625 400.742188 351.746094 400.421875 351.746094 400.035156 L 351.746094 383.273438 C 351.746094 382.878906 352.0625 382.566406 352.453125 382.566406 C 352.84375 382.566406 353.160156 382.878906 353.160156 383.273438 L 353.160156 399.328125 L 545.867188 399.328125 C 546.261719 399.328125 546.574219 399.644531 546.574219 400.035156 C 546.574219 400.421875 546.261719 400.742188 545.867188 400.742188 " fill-opacity="1" fill-rule="nonzero"/><path fill="#ffffff" d="M 331.03125 350.449219 L 306.230469 350.449219 L 306.230469 345.53125 L 317.933594 333.066406 C 319.542969 331.308594 320.730469 329.777344 321.5 328.46875 C 322.269531 327.164062 322.65625 325.921875 322.65625 324.746094 C 322.65625 323.140625 322.25 321.878906 321.4375 320.957031 C 320.625 320.039062 319.464844 319.578125 317.960938 319.578125 C 316.335938 319.578125 315.054688 320.136719 314.121094 321.253906 C 313.183594 322.371094 312.714844 323.84375 312.714844 325.664062 L 305.507812 325.664062 C 305.507812 323.460938 306.035156 321.449219 307.085938 319.628906 C 308.140625 317.808594 309.625 316.378906 311.546875 315.347656 C 313.46875 314.308594 315.648438 313.792969 318.085938 313.792969 C 321.808594 313.792969 324.707031 314.6875 326.769531 316.472656 C 328.832031 318.261719 329.863281 320.789062 329.863281 324.046875 C 329.863281 325.835938 329.398438 327.65625 328.46875 329.511719 C 327.542969 331.367188 325.953125 333.527344 323.699219 335.996094 L 315.472656 344.660156 L 331.03125 344.660156 L 331.03125 350.449219 " fill-opacity="1" fill-rule="nonzero"/><path fill="#ffffff" d="M 346.582031 336.839844 L 354.582031 336.839844 L 354.582031 324.074219 L 354.109375 324.894531 Z M 361.765625 336.839844 L 365.863281 336.839844 L 365.863281 342.625 L 361.765625 342.625 L 361.765625 350.449219 L 354.582031 350.449219 L 354.582031 342.625 L 339.746094 342.625 L 339.425781 338.105469 L 354.507812 314.289062 L 361.765625 314.289062 L 361.765625 336.839844 " fill-opacity="1" fill-rule="nonzero"/><path fill="#ffffff" d="M 399.40625 318.292969 L 385.417969 350.449219 L 377.835938 350.449219 L 391.851562 320.078125 L 373.859375 320.078125 L 373.859375 314.289062 L 399.40625 314.289062 L 399.40625 318.292969 " fill-opacity="1" fill-rule="nonzero"/></svg>