<svg xmlns="http://www.w3.org/2000/svg" xmlns:xlink="http://www.w3.org/1999/xlink" width="1920" zoomAndPan="magnify" viewBox="0 0 1440 809.999993" height="1080" preserveAspectRatio="xMidYMid meet" version="1.0"><defs><clipPath id="74f9e17559"><path d="M 491.429688 376 L 948.929688 376 L 948.929688 434 L 491.429688 434 Z M 491.429688 376 " clip-rule="nonzero"/></clipPath><clipPath id="0b42e2fe99"><path d="M 491.429688 509 L 948.929688 509 L 948.929688 567 L 491.429688 567 Z M 491.429688 509 " clip-rule="nonzero"/></clipPath><clipPath id="4c1a211914"><path d="M 491.429688 243 L 948.929688 243 L 948.929688 301 L 491.429688 301 Z M 491.429688 243 " clip-rule="nonzero"/></clipPath></defs><g clip-path="url(#74f9e17559)"><path fill="#000000" d="M 920.335938 376.429688 L 520.023438 376.429688 C 504.230469 376.429688 491.429688 389.21875 491.429688 405 C 491.429688 420.78125 504.230469 433.570312 520.023438 433.570312 L 920.335938 433.570312 C 936.128906 433.570312 948.929688 420.78125 948.929688 405 C 948.929688 389.21875 936.128906 376.429688 920.335938 376.429688 Z M 920.335938 376.429688 " fill-opacity="1" fill-rule="nonzero"/></g><g clip-path="url(#0b42e2fe99)"><path fill="#000000" d="M 920.335938 509.761719 L 520.023438 509.761719 C 504.230469 509.761719 491.429688 522.550781 491.429688 538.332031 C 491.429688 554.113281 504.230469 566.902344 520.023438 566.902344 L 920.335938 566.902344 C 936.128906 566.902344 948.929688 554.113281 948.929688 538.332031 C 948.929688 522.550781 936.128906 509.761719 920.335938 509.761719 Z M 920.335938 509.761719 " fill-opacity="1" fill-rule="nonzero"/></g><g clip-path="url(#4c1a211914)"><path fill="#000000" d="M 520.023438 300.238281 L 920.335938 300.238281 C 936.128906 300.238281 948.929688 287.449219 948.929688 271.667969 C 948.929688 255.886719 936.128906 243.097656 920.335938 243.097656 L 520.023438 243.097656 C 504.230469 243.097656 491.429688 255.886719 491.429688 271.667969 C 491.429688 287.449219 504.230469 300.238281 520.023438 300.238281 Z M 520.023438 300.238281 " fill-opacity="1" fill-rule="nonzero"/></g></svg>